G04 #@! TF.GenerationSoftware,KiCad,Pcbnew,10.0.1*
G04 #@! TF.CreationDate,2026-09-07T20:03:13-05:00*
G04 #@! TF.ProjectId,alec-controls,616c6563-2d63-46f6-9e74-726f6c732e6b,rev?*
G04 #@! TF.SameCoordinates,Original*
G04 #@! TF.FileFunction,Paste,Bot*
G04 #@! TF.FilePolarity,Positive*
%FSLAX46Y46*%
G04 Gerber Fmt 4.6, Leading zero omitted, Abs format (unit mm)*
G04 Created by KiCad (PCBNEW 10.0.1) date 2026-09-07 20:03:13*
%MOMM*%
%LPD*%
G01*
G04 APERTURE LIST*
G04 APERTURE END LIST*
G36*
G01*
X13050000Y-25750000D02*
X13050000Y-27150000D01*
G75*
G02*
X12900000Y-27300000I-150000J0D01*
G01*
X12600000Y-27300000D01*
G75*
G02*
X12450000Y-27150000I0J150000D01*
G01*
X12450000Y-25750000D01*
G75*
G02*
X12600000Y-25600000I150000J0D01*
G01*
X12900000Y-25600000D01*
G75*
G02*
X13050000Y-25750000I0J-150000D01*
G01*
G37*
G36*
G01*
X11800000Y-25750000D02*
X11800000Y-27150000D01*
G75*
G02*
X11650000Y-27300000I-150000J0D01*
G01*
X11350000Y-27300000D01*
G75*
G02*
X11200000Y-27150000I0J150000D01*
G01*
X11200000Y-25750000D01*
G75*
G02*
X11350000Y-25600000I150000J0D01*
G01*
X11650000Y-25600000D01*
G75*
G02*
X11800000Y-25750000I0J-150000D01*
G01*
G37*
G36*
G01*
X10550000Y-25750000D02*
X10550000Y-27150000D01*
G75*
G02*
X10400000Y-27300000I-150000J0D01*
G01*
X10100000Y-27300000D01*
G75*
G02*
X9950000Y-27150000I0J150000D01*
G01*
X9950000Y-25750000D01*
G75*
G02*
X10100000Y-25600000I150000J0D01*
G01*
X10400000Y-25600000D01*
G75*
G02*
X10550000Y-25750000I0J-150000D01*
G01*
G37*
G36*
G01*
X9300000Y-25750000D02*
X9300000Y-27150000D01*
G75*
G02*
X9150000Y-27300000I-150000J0D01*
G01*
X8850000Y-27300000D01*
G75*
G02*
X8700000Y-27150000I0J150000D01*
G01*
X8700000Y-25750000D01*
G75*
G02*
X8850000Y-25600000I150000J0D01*
G01*
X9150000Y-25600000D01*
G75*
G02*
X9300000Y-25750000I0J-150000D01*
G01*
G37*
G36*
G01*
X8050000Y-25750000D02*
X8050000Y-27150000D01*
G75*
G02*
X7900000Y-27300000I-150000J0D01*
G01*
X7600000Y-27300000D01*
G75*
G02*
X7450000Y-27150000I0J150000D01*
G01*
X7450000Y-25750000D01*
G75*
G02*
X7600000Y-25600000I150000J0D01*
G01*
X7900000Y-25600000D01*
G75*
G02*
X8050000Y-25750000I0J-150000D01*
G01*
G37*
G36*
G01*
X6800000Y-25750000D02*
X6800000Y-27150000D01*
G75*
G02*
X6650000Y-27300000I-150000J0D01*
G01*
X6350000Y-27300000D01*
G75*
G02*
X6200000Y-27150000I0J150000D01*
G01*
X6200000Y-25750000D01*
G75*
G02*
X6350000Y-25600000I150000J0D01*
G01*
X6650000Y-25600000D01*
G75*
G02*
X6800000Y-25750000I0J-150000D01*
G01*
G37*
G36*
G01*
X5550000Y-25750000D02*
X5550000Y-27150000D01*
G75*
G02*
X5400000Y-27300000I-150000J0D01*
G01*
X5100000Y-27300000D01*
G75*
G02*
X4950000Y-27150000I0J150000D01*
G01*
X4950000Y-25750000D01*
G75*
G02*
X5100000Y-25600000I150000J0D01*
G01*
X5400000Y-25600000D01*
G75*
G02*
X5550000Y-25750000I0J-150000D01*
G01*
G37*
G36*
G01*
X15100000Y-21950000D02*
X15100000Y-24250000D01*
G75*
G02*
X14850000Y-24500000I-250000J0D01*
G01*
X14350000Y-24500000D01*
G75*
G02*
X14100000Y-24250000I0J250000D01*
G01*
X14100000Y-21950000D01*
G75*
G02*
X14350000Y-21700000I250000J0D01*
G01*
X14850000Y-21700000D01*
G75*
G02*
X15100000Y-21950000I0J-250000D01*
G01*
G37*
G36*
G01*
X3900000Y-21950000D02*
X3900000Y-24250000D01*
G75*
G02*
X3650000Y-24500000I-250000J0D01*
G01*
X3150000Y-24500000D01*
G75*
G02*
X2900000Y-24250000I0J250000D01*
G01*
X2900000Y-21950000D01*
G75*
G02*
X3150000Y-21700000I250000J0D01*
G01*
X3650000Y-21700000D01*
G75*
G02*
X3900000Y-21950000I0J-250000D01*
G01*
G37*
M02*
