G04 #@! TF.GenerationSoftware,KiCad,Pcbnew,10.0.1*
G04 #@! TF.CreationDate,2026-09-07T20:03:13-05:00*
G04 #@! TF.ProjectId,alec-controls,616c6563-2d63-46f6-9e74-726f6c732e6b,rev?*
G04 #@! TF.SameCoordinates,Original*
G04 #@! TF.FileFunction,Copper,L2,Bot*
G04 #@! TF.FilePolarity,Positive*
%FSLAX46Y46*%
G04 Gerber Fmt 4.6, Leading zero omitted, Abs format (unit mm)*
G04 Created by KiCad (PCBNEW 10.0.1) date 2026-09-07 20:03:13*
%MOMM*%
%LPD*%
G01*
G04 APERTURE LIST*
G04 #@! TA.AperFunction,ComponentPad*
%ADD10C,1.700000*%
G04 #@! TD*
G04 #@! TA.AperFunction,ViaPad*
%ADD11C,0.600000*%
G04 #@! TD*
G04 #@! TA.AperFunction,Conductor*
%ADD12C,0.200000*%
G04 #@! TD*
G04 APERTURE END LIST*
D10*
X16750000Y-15750000D03*
X23250000Y-15750000D03*
X16750000Y-20250000D03*
X23250000Y-20250000D03*
X16750000Y-27750000D03*
X23250000Y-27750000D03*
X16750000Y-32250000D03*
X23250000Y-32250000D03*
X16750000Y-3750000D03*
X23250000Y-3750000D03*
X16750000Y-8250000D03*
X23250000Y-8250000D03*
X4000000Y-18500000D03*
X4000000Y-16000000D03*
X4000000Y-13500000D03*
G04 #@! TA.AperFunction,SMDPad,CuDef*
G36*
G01*
X13050000Y-25750000D02*
X13050000Y-27150000D01*
G75*
G02*
X12900000Y-27300000I-150000J0D01*
G01*
X12600000Y-27300000D01*
G75*
G02*
X12450000Y-27150000I0J150000D01*
G01*
X12450000Y-25750000D01*
G75*
G02*
X12600000Y-25600000I150000J0D01*
G01*
X12900000Y-25600000D01*
G75*
G02*
X13050000Y-25750000I0J-150000D01*
G01*
G37*
G04 #@! TD.AperFunction*
G04 #@! TA.AperFunction,SMDPad,CuDef*
G36*
G01*
X11800000Y-25750000D02*
X11800000Y-27150000D01*
G75*
G02*
X11650000Y-27300000I-150000J0D01*
G01*
X11350000Y-27300000D01*
G75*
G02*
X11200000Y-27150000I0J150000D01*
G01*
X11200000Y-25750000D01*
G75*
G02*
X11350000Y-25600000I150000J0D01*
G01*
X11650000Y-25600000D01*
G75*
G02*
X11800000Y-25750000I0J-150000D01*
G01*
G37*
G04 #@! TD.AperFunction*
G04 #@! TA.AperFunction,SMDPad,CuDef*
G36*
G01*
X10550000Y-25750000D02*
X10550000Y-27150000D01*
G75*
G02*
X10400000Y-27300000I-150000J0D01*
G01*
X10100000Y-27300000D01*
G75*
G02*
X9950000Y-27150000I0J150000D01*
G01*
X9950000Y-25750000D01*
G75*
G02*
X10100000Y-25600000I150000J0D01*
G01*
X10400000Y-25600000D01*
G75*
G02*
X10550000Y-25750000I0J-150000D01*
G01*
G37*
G04 #@! TD.AperFunction*
G04 #@! TA.AperFunction,SMDPad,CuDef*
G36*
G01*
X9300000Y-25750000D02*
X9300000Y-27150000D01*
G75*
G02*
X9150000Y-27300000I-150000J0D01*
G01*
X8850000Y-27300000D01*
G75*
G02*
X8700000Y-27150000I0J150000D01*
G01*
X8700000Y-25750000D01*
G75*
G02*
X8850000Y-25600000I150000J0D01*
G01*
X9150000Y-25600000D01*
G75*
G02*
X9300000Y-25750000I0J-150000D01*
G01*
G37*
G04 #@! TD.AperFunction*
G04 #@! TA.AperFunction,SMDPad,CuDef*
G36*
G01*
X8050000Y-25750000D02*
X8050000Y-27150000D01*
G75*
G02*
X7900000Y-27300000I-150000J0D01*
G01*
X7600000Y-27300000D01*
G75*
G02*
X7450000Y-27150000I0J150000D01*
G01*
X7450000Y-25750000D01*
G75*
G02*
X7600000Y-25600000I150000J0D01*
G01*
X7900000Y-25600000D01*
G75*
G02*
X8050000Y-25750000I0J-150000D01*
G01*
G37*
G04 #@! TD.AperFunction*
G04 #@! TA.AperFunction,SMDPad,CuDef*
G36*
G01*
X6800000Y-25750000D02*
X6800000Y-27150000D01*
G75*
G02*
X6650000Y-27300000I-150000J0D01*
G01*
X6350000Y-27300000D01*
G75*
G02*
X6200000Y-27150000I0J150000D01*
G01*
X6200000Y-25750000D01*
G75*
G02*
X6350000Y-25600000I150000J0D01*
G01*
X6650000Y-25600000D01*
G75*
G02*
X6800000Y-25750000I0J-150000D01*
G01*
G37*
G04 #@! TD.AperFunction*
G04 #@! TA.AperFunction,SMDPad,CuDef*
G36*
G01*
X5550000Y-25750000D02*
X5550000Y-27150000D01*
G75*
G02*
X5400000Y-27300000I-150000J0D01*
G01*
X5100000Y-27300000D01*
G75*
G02*
X4950000Y-27150000I0J150000D01*
G01*
X4950000Y-25750000D01*
G75*
G02*
X5100000Y-25600000I150000J0D01*
G01*
X5400000Y-25600000D01*
G75*
G02*
X5550000Y-25750000I0J-150000D01*
G01*
G37*
G04 #@! TD.AperFunction*
G04 #@! TA.AperFunction,SMDPad,CuDef*
G36*
G01*
X15100000Y-21950000D02*
X15100000Y-24250000D01*
G75*
G02*
X14850000Y-24500000I-250000J0D01*
G01*
X14350000Y-24500000D01*
G75*
G02*
X14100000Y-24250000I0J250000D01*
G01*
X14100000Y-21950000D01*
G75*
G02*
X14350000Y-21700000I250000J0D01*
G01*
X14850000Y-21700000D01*
G75*
G02*
X15100000Y-21950000I0J-250000D01*
G01*
G37*
G04 #@! TD.AperFunction*
G04 #@! TA.AperFunction,SMDPad,CuDef*
G36*
G01*
X3900000Y-21950000D02*
X3900000Y-24250000D01*
G75*
G02*
X3650000Y-24500000I-250000J0D01*
G01*
X3150000Y-24500000D01*
G75*
G02*
X2900000Y-24250000I0J250000D01*
G01*
X2900000Y-21950000D01*
G75*
G02*
X3150000Y-21700000I250000J0D01*
G01*
X3650000Y-21700000D01*
G75*
G02*
X3900000Y-21950000I0J-250000D01*
G01*
G37*
G04 #@! TD.AperFunction*
D11*
X13650000Y-27350000D03*
X17950000Y-9650000D03*
X13100000Y-22850000D03*
X15700000Y-14350000D03*
X17950000Y-6850000D03*
X14450000Y-13700000D03*
X11050000Y-25050000D03*
X9750000Y-27850000D03*
X11700000Y-24200000D03*
X5850000Y-25050000D03*
X5450000Y-19150000D03*
D12*
X12900000Y-25800000D02*
X12900000Y-25850000D01*
X9450000Y-28450000D02*
X9400000Y-28400000D01*
X13100000Y-22850000D02*
X13100000Y-25450000D01*
X12750000Y-26450000D02*
X13650000Y-27350000D01*
X14550000Y-13750000D02*
X14500000Y-13750000D01*
X12150000Y-27650000D02*
X12050000Y-27650000D01*
X12650000Y-26550000D02*
X12650000Y-26750000D01*
X12750000Y-26450000D02*
X12650000Y-26550000D01*
X12600000Y-26800000D02*
X12600000Y-27200000D01*
X9500000Y-28450000D02*
X9450000Y-28450000D01*
X15300000Y-13950000D02*
X15050000Y-13950000D01*
X8300000Y-27250000D02*
X8050000Y-27000000D01*
X9400000Y-28400000D02*
X9350000Y-28400000D01*
X8300000Y-27300000D02*
X8300000Y-27250000D01*
X7950000Y-26850000D02*
X7950000Y-26650000D01*
X12750000Y-26000000D02*
X12750000Y-26450000D01*
X13100000Y-25450000D02*
X13050000Y-25500000D01*
X12000000Y-27700000D02*
X11600000Y-27700000D01*
X17950000Y-9650000D02*
X17950000Y-6850000D01*
X14500000Y-13750000D02*
X14450000Y-13700000D01*
X13050000Y-25500000D02*
X13050000Y-25600000D01*
X9350000Y-28400000D02*
X8600000Y-27650000D01*
X12600000Y-27200000D02*
X12150000Y-27650000D01*
X14700000Y-13900000D02*
X14550000Y-13750000D01*
X8050000Y-26950000D02*
X7950000Y-26850000D01*
X15050000Y-13950000D02*
X15000000Y-13900000D01*
X9550000Y-28500000D02*
X9500000Y-28450000D01*
X13050000Y-25600000D02*
X13000000Y-25650000D01*
X11600000Y-27700000D02*
X10800000Y-28500000D01*
X12650000Y-26750000D02*
X12600000Y-26800000D01*
X12050000Y-27650000D02*
X12000000Y-27700000D01*
X13000000Y-25700000D02*
X12900000Y-25800000D01*
X13000000Y-25650000D02*
X13000000Y-25700000D01*
X8350000Y-27350000D02*
X8300000Y-27300000D01*
X8350000Y-27650000D02*
X8350000Y-27350000D01*
X8600000Y-27650000D02*
X8350000Y-27650000D01*
X10800000Y-28500000D02*
X9550000Y-28500000D01*
X15700000Y-14350000D02*
X15300000Y-13950000D01*
X8050000Y-27000000D02*
X8050000Y-26950000D01*
X7950000Y-26650000D02*
X7750000Y-26450000D01*
X15000000Y-13900000D02*
X14700000Y-13900000D01*
X12900000Y-25850000D02*
X12750000Y-26000000D01*
X10700000Y-25850000D02*
X10700000Y-26000000D01*
X10850000Y-25250000D02*
X10850000Y-25700000D01*
X11050000Y-25050000D02*
X10850000Y-25250000D01*
X10850000Y-25700000D02*
X10700000Y-25850000D01*
X10700000Y-26000000D02*
X10250000Y-26450000D01*
X9550000Y-27650000D02*
X9550000Y-27000000D01*
X9550000Y-27000000D02*
X9000000Y-26450000D01*
X9750000Y-27850000D02*
X9550000Y-27650000D01*
X11700000Y-24200000D02*
X11700000Y-25750000D01*
X11600000Y-25850000D02*
X11600000Y-26350000D01*
X11700000Y-25750000D02*
X11600000Y-25850000D01*
X11600000Y-26350000D02*
X11500000Y-26450000D01*
X5850000Y-25050000D02*
X5950000Y-25150000D01*
X6000000Y-25850000D02*
X6000000Y-25900000D01*
X5950000Y-25150000D02*
X5950000Y-25800000D01*
X6000000Y-25900000D02*
X6200000Y-26100000D01*
X5950000Y-25800000D02*
X6000000Y-25850000D01*
X6200000Y-26100000D02*
X6200000Y-26150000D01*
X6200000Y-26150000D02*
X6500000Y-26450000D01*
X5250000Y-24800000D02*
X5200000Y-24850000D01*
X5400000Y-22500000D02*
X5300000Y-22600000D01*
X5200000Y-24850000D02*
X5200000Y-26400000D01*
X5450000Y-19150000D02*
X5450000Y-20950000D01*
X5300000Y-22600000D02*
X5300000Y-23250000D01*
X5200000Y-26400000D02*
X5250000Y-26450000D01*
X5300000Y-23250000D02*
X5250000Y-23300000D01*
X5450000Y-20950000D02*
X5400000Y-21000000D01*
X5400000Y-21000000D02*
X5400000Y-22500000D01*
X5250000Y-23300000D02*
X5250000Y-24800000D01*
G04 #@! TA.AperFunction,Conductor*
G36*
X26458691Y-519407D02*
G01*
X26494655Y-568907D01*
X26499500Y-599500D01*
X26499500Y-33400500D01*
X26480593Y-33458691D01*
X26431093Y-33494655D01*
X26400500Y-33499500D01*
X599500Y-33499500D01*
X541309Y-33480593D01*
X505345Y-33431093D01*
X500500Y-33400500D01*
X500500Y-32146532D01*
X15699500Y-32146532D01*
X15699500Y-32353467D01*
X15739869Y-32556418D01*
X15819058Y-32747597D01*
X15819059Y-32747598D01*
X15934023Y-32919655D01*
X16080345Y-33065977D01*
X16252402Y-33180941D01*
X16443580Y-33260130D01*
X16646535Y-33300500D01*
X16646536Y-33300500D01*
X16853464Y-33300500D01*
X16853465Y-33300500D01*
X17056420Y-33260130D01*
X17247598Y-33180941D01*
X17419655Y-33065977D01*
X17565977Y-32919655D01*
X17680941Y-32747598D01*
X17760130Y-32556420D01*
X17800500Y-32353465D01*
X17800500Y-32146535D01*
X17800499Y-32146532D01*
X22199500Y-32146532D01*
X22199500Y-32353467D01*
X22239869Y-32556418D01*
X22319058Y-32747597D01*
X22319059Y-32747598D01*
X22434023Y-32919655D01*
X22580345Y-33065977D01*
X22752402Y-33180941D01*
X22943580Y-33260130D01*
X23146535Y-33300500D01*
X23146536Y-33300500D01*
X23353464Y-33300500D01*
X23353465Y-33300500D01*
X23556420Y-33260130D01*
X23747598Y-33180941D01*
X23919655Y-33065977D01*
X24065977Y-32919655D01*
X24180941Y-32747598D01*
X24260130Y-32556420D01*
X24300500Y-32353465D01*
X24300500Y-32146535D01*
X24260130Y-31943580D01*
X24180941Y-31752402D01*
X24065977Y-31580345D01*
X23919655Y-31434023D01*
X23919651Y-31434020D01*
X23747597Y-31319058D01*
X23556418Y-31239869D01*
X23353467Y-31199500D01*
X23353465Y-31199500D01*
X23146535Y-31199500D01*
X23146532Y-31199500D01*
X22943581Y-31239869D01*
X22752402Y-31319058D01*
X22580348Y-31434020D01*
X22434020Y-31580348D01*
X22319058Y-31752402D01*
X22239869Y-31943581D01*
X22199500Y-32146532D01*
X17800499Y-32146532D01*
X17760130Y-31943580D01*
X17680941Y-31752402D01*
X17565977Y-31580345D01*
X17419655Y-31434023D01*
X17419651Y-31434020D01*
X17247597Y-31319058D01*
X17056418Y-31239869D01*
X16853467Y-31199500D01*
X16853465Y-31199500D01*
X16646535Y-31199500D01*
X16646532Y-31199500D01*
X16443581Y-31239869D01*
X16252402Y-31319058D01*
X16080348Y-31434020D01*
X15934020Y-31580348D01*
X15819058Y-31752402D01*
X15739869Y-31943581D01*
X15699500Y-32146532D01*
X500500Y-32146532D01*
X500500Y-30380385D01*
X519407Y-30322194D01*
X568907Y-30286230D01*
X630093Y-30286230D01*
X679593Y-30322194D01*
X693655Y-30349792D01*
X748443Y-30518412D01*
X844948Y-30707815D01*
X844950Y-30707819D01*
X969891Y-30879786D01*
X969893Y-30879788D01*
X969896Y-30879792D01*
X1120208Y-31030104D01*
X1120211Y-31030106D01*
X1120213Y-31030108D01*
X1292180Y-31155049D01*
X1292184Y-31155051D01*
X1481588Y-31251557D01*
X1683757Y-31317246D01*
X1683758Y-31317246D01*
X1683761Y-31317247D01*
X1893710Y-31350500D01*
X1893713Y-31350500D01*
X2106290Y-31350500D01*
X2316238Y-31317247D01*
X2316239Y-31317246D01*
X2316243Y-31317246D01*
X2518412Y-31251557D01*
X2707816Y-31155051D01*
X2879792Y-31030104D01*
X3030104Y-30879792D01*
X3155051Y-30707816D01*
X3251557Y-30518412D01*
X3317246Y-30316243D01*
X3350500Y-30106287D01*
X3350500Y-29893713D01*
X3350500Y-29893709D01*
X3317247Y-29683761D01*
X3306345Y-29650207D01*
X3251557Y-29481588D01*
X3155051Y-29292184D01*
X3155049Y-29292180D01*
X3030108Y-29120213D01*
X3030106Y-29120211D01*
X3030104Y-29120208D01*
X2879792Y-28969896D01*
X2879788Y-28969893D01*
X2879786Y-28969891D01*
X2707819Y-28844950D01*
X2707815Y-28844948D01*
X2518412Y-28748443D01*
X2316238Y-28682752D01*
X2106290Y-28649500D01*
X2106287Y-28649500D01*
X1893713Y-28649500D01*
X1893710Y-28649500D01*
X1683761Y-28682752D01*
X1481587Y-28748443D01*
X1292184Y-28844948D01*
X1292180Y-28844950D01*
X1120213Y-28969891D01*
X969891Y-29120213D01*
X844950Y-29292180D01*
X844948Y-29292184D01*
X748443Y-29481587D01*
X693655Y-29650207D01*
X657691Y-29699707D01*
X599500Y-29718614D01*
X541309Y-29699707D01*
X505345Y-29650206D01*
X500500Y-29619614D01*
X500500Y-21895725D01*
X2699500Y-21895725D01*
X2699500Y-24304274D01*
X2702353Y-24334694D01*
X2702355Y-24334703D01*
X2747207Y-24462883D01*
X2827845Y-24572144D01*
X2827847Y-24572146D01*
X2827850Y-24572150D01*
X2827853Y-24572152D01*
X2827855Y-24572154D01*
X2937116Y-24652792D01*
X2937117Y-24652792D01*
X2937118Y-24652793D01*
X3065301Y-24697646D01*
X3095725Y-24700499D01*
X3095727Y-24700500D01*
X3095734Y-24700500D01*
X3704273Y-24700500D01*
X3704273Y-24700499D01*
X3734699Y-24697646D01*
X3862882Y-24652793D01*
X3972150Y-24572150D01*
X4052793Y-24462882D01*
X4097646Y-24334699D01*
X4100499Y-24304273D01*
X4100500Y-24304273D01*
X4100500Y-21895727D01*
X4100499Y-21895725D01*
X4097646Y-21865305D01*
X4097646Y-21865301D01*
X4052793Y-21737118D01*
X3972150Y-21627850D01*
X3972146Y-21627847D01*
X3972144Y-21627845D01*
X3862883Y-21547207D01*
X3734703Y-21502355D01*
X3734694Y-21502353D01*
X3704274Y-21499500D01*
X3704266Y-21499500D01*
X3095734Y-21499500D01*
X3095725Y-21499500D01*
X3065305Y-21502353D01*
X3065296Y-21502355D01*
X2937116Y-21547207D01*
X2827855Y-21627845D01*
X2827845Y-21627855D01*
X2747207Y-21737116D01*
X2702355Y-21865296D01*
X2702353Y-21865305D01*
X2699500Y-21895725D01*
X500500Y-21895725D01*
X500500Y-18396532D01*
X2949500Y-18396532D01*
X2949500Y-18603467D01*
X2989869Y-18806418D01*
X3069058Y-18997597D01*
X3126863Y-19084109D01*
X3184023Y-19169655D01*
X3330345Y-19315977D01*
X3502402Y-19430941D01*
X3693580Y-19510130D01*
X3896535Y-19550500D01*
X3896536Y-19550500D01*
X4103464Y-19550500D01*
X4103465Y-19550500D01*
X4306420Y-19510130D01*
X4497598Y-19430941D01*
X4669655Y-19315977D01*
X4790264Y-19195367D01*
X4844779Y-19167591D01*
X4905211Y-19177162D01*
X4948475Y-19220427D01*
X4955891Y-19239743D01*
X4976318Y-19315979D01*
X4983609Y-19343190D01*
X5049496Y-19457309D01*
X5049498Y-19457311D01*
X5049500Y-19457314D01*
X5120505Y-19528319D01*
X5148281Y-19582834D01*
X5149500Y-19598321D01*
X5149500Y-20806351D01*
X5136237Y-20855849D01*
X5119981Y-20884006D01*
X5119977Y-20884014D01*
X5099500Y-20960435D01*
X5099500Y-22334521D01*
X5080593Y-22392712D01*
X5070506Y-22404522D01*
X5059540Y-22415488D01*
X5019980Y-22484007D01*
X5019978Y-22484011D01*
X4999500Y-22560435D01*
X4999500Y-23106351D01*
X4986237Y-23155849D01*
X4969981Y-23184006D01*
X4969977Y-23184014D01*
X4949500Y-23260435D01*
X4949500Y-24656351D01*
X4936237Y-24705849D01*
X4919981Y-24734006D01*
X4919977Y-24734014D01*
X4899500Y-24810435D01*
X4899500Y-25413812D01*
X4880593Y-25472003D01*
X4870509Y-25483809D01*
X4810802Y-25543517D01*
X4810801Y-25543518D01*
X4759427Y-25648604D01*
X4759427Y-25648607D01*
X4749500Y-25716740D01*
X4749500Y-27183260D01*
X4756118Y-27228682D01*
X4759427Y-27251395D01*
X4796756Y-27327751D01*
X4810802Y-27356483D01*
X4893517Y-27439198D01*
X4947285Y-27465483D01*
X4998604Y-27490572D01*
X4998605Y-27490572D01*
X4998607Y-27490573D01*
X5066740Y-27500500D01*
X5066743Y-27500500D01*
X5433257Y-27500500D01*
X5433260Y-27500500D01*
X5501393Y-27490573D01*
X5606483Y-27439198D01*
X5689198Y-27356483D01*
X5740573Y-27251393D01*
X5750500Y-27183260D01*
X5750500Y-26341915D01*
X5750854Y-26340824D01*
X5750524Y-26339726D01*
X5760272Y-26311838D01*
X5769407Y-26283724D01*
X5770335Y-26283049D01*
X5770714Y-26281967D01*
X5794982Y-26265142D01*
X5818907Y-26247760D01*
X5820055Y-26247760D01*
X5820997Y-26247107D01*
X5850520Y-26247760D01*
X5880093Y-26247760D01*
X5881021Y-26248434D01*
X5882167Y-26248460D01*
X5890098Y-26255029D01*
X5929593Y-26283724D01*
X5930860Y-26285510D01*
X5933191Y-26288872D01*
X5959540Y-26334511D01*
X5976792Y-26351763D01*
X5981860Y-26359073D01*
X5988232Y-26380269D01*
X5998281Y-26399991D01*
X5999500Y-26415478D01*
X5999500Y-27183260D01*
X6006118Y-27228682D01*
X6009427Y-27251395D01*
X6046756Y-27327751D01*
X6060802Y-27356483D01*
X6143517Y-27439198D01*
X6197285Y-27465483D01*
X6248604Y-27490572D01*
X6248605Y-27490572D01*
X6248607Y-27490573D01*
X6316740Y-27500500D01*
X6316743Y-27500500D01*
X6683257Y-27500500D01*
X6683260Y-27500500D01*
X6751393Y-27490573D01*
X6856483Y-27439198D01*
X6939198Y-27356483D01*
X6990573Y-27251393D01*
X7000500Y-27183260D01*
X7000500Y-26600001D01*
X7200001Y-26600001D01*
X7200001Y-27181485D01*
X7214833Y-27275141D01*
X7214836Y-27275151D01*
X7272358Y-27388043D01*
X7361956Y-27477641D01*
X7474848Y-27535163D01*
X7474852Y-27535164D01*
X7568516Y-27549999D01*
X7599999Y-27549999D01*
X7600000Y-27549998D01*
X7600000Y-26600001D01*
X7900000Y-26600001D01*
X7900000Y-27549998D01*
X7900001Y-27549999D01*
X7931483Y-27549999D01*
X7931485Y-27549998D01*
X8025141Y-27535166D01*
X8025151Y-27535163D01*
X8138043Y-27477641D01*
X8227641Y-27388043D01*
X8285163Y-27275151D01*
X8285164Y-27275147D01*
X8300000Y-27181484D01*
X8300000Y-26600001D01*
X8299999Y-26600000D01*
X7900001Y-26600000D01*
X7900000Y-26600001D01*
X7600000Y-26600001D01*
X7599999Y-26600000D01*
X7200002Y-26600000D01*
X7200001Y-26600001D01*
X7000500Y-26600001D01*
X7000500Y-25718515D01*
X7200000Y-25718515D01*
X7200000Y-26299999D01*
X7200001Y-26300000D01*
X7599999Y-26300000D01*
X7600000Y-26299999D01*
X7600000Y-25350001D01*
X7900000Y-25350001D01*
X7900000Y-26299999D01*
X7900001Y-26300000D01*
X8299998Y-26300000D01*
X8299999Y-26299999D01*
X8299999Y-25718515D01*
X8299718Y-25716740D01*
X8499500Y-25716740D01*
X8499500Y-27183260D01*
X8506118Y-27228682D01*
X8509427Y-27251395D01*
X8546756Y-27327751D01*
X8560802Y-27356483D01*
X8643517Y-27439198D01*
X8697285Y-27465483D01*
X8748604Y-27490572D01*
X8748605Y-27490572D01*
X8748607Y-27490573D01*
X8816740Y-27500500D01*
X8816743Y-27500500D01*
X9150500Y-27500500D01*
X9162334Y-27504345D01*
X9174749Y-27503516D01*
X9190730Y-27513571D01*
X9208691Y-27519407D01*
X9216005Y-27529474D01*
X9226536Y-27536100D01*
X9232219Y-27551790D01*
X9244655Y-27568907D01*
X9249280Y-27592901D01*
X9249500Y-27596194D01*
X9249500Y-27689562D01*
X9257808Y-27720570D01*
X9258454Y-27730235D01*
X9255301Y-27742712D01*
X9255301Y-27762452D01*
X9249500Y-27784108D01*
X9249500Y-27915892D01*
X9256762Y-27942993D01*
X9283609Y-28043190D01*
X9349496Y-28157309D01*
X9349498Y-28157311D01*
X9349500Y-28157314D01*
X9442686Y-28250500D01*
X9442688Y-28250501D01*
X9442690Y-28250503D01*
X9556810Y-28316390D01*
X9556808Y-28316390D01*
X9556812Y-28316391D01*
X9556814Y-28316392D01*
X9684108Y-28350500D01*
X9684110Y-28350500D01*
X9815890Y-28350500D01*
X9815892Y-28350500D01*
X9943186Y-28316392D01*
X9943188Y-28316390D01*
X9943190Y-28316390D01*
X10057309Y-28250503D01*
X10057309Y-28250502D01*
X10057314Y-28250500D01*
X10150500Y-28157314D01*
X10154666Y-28150099D01*
X10216390Y-28043190D01*
X10216390Y-28043188D01*
X10216392Y-28043186D01*
X10250500Y-27915892D01*
X10250500Y-27784108D01*
X10216392Y-27656814D01*
X10211882Y-27649002D01*
X10201465Y-27599999D01*
X15660045Y-27599999D01*
X15660046Y-27600000D01*
X16272555Y-27600000D01*
X16250000Y-27684174D01*
X16250000Y-27815826D01*
X16272555Y-27900000D01*
X15660045Y-27900000D01*
X15677084Y-28007579D01*
X15730588Y-28172248D01*
X15809195Y-28326524D01*
X15809197Y-28326528D01*
X15910962Y-28466596D01*
X16033403Y-28589037D01*
X16173471Y-28690802D01*
X16173475Y-28690804D01*
X16327751Y-28769411D01*
X16492419Y-28822914D01*
X16599999Y-28839953D01*
X16600000Y-28839952D01*
X16600000Y-28227445D01*
X16684174Y-28250000D01*
X16815826Y-28250000D01*
X16900000Y-28227445D01*
X16900000Y-28839953D01*
X17007580Y-28822914D01*
X17172248Y-28769411D01*
X17326524Y-28690804D01*
X17326528Y-28690802D01*
X17466596Y-28589037D01*
X17536591Y-28519043D01*
X17589037Y-28466596D01*
X17690802Y-28326528D01*
X17690804Y-28326524D01*
X17769411Y-28172248D01*
X17822915Y-28007579D01*
X17839954Y-27900000D01*
X17227445Y-27900000D01*
X17250000Y-27815826D01*
X17250000Y-27684174D01*
X17244440Y-27663424D01*
X22150000Y-27663424D01*
X22150000Y-27836575D01*
X22177084Y-28007579D01*
X22230588Y-28172248D01*
X22309195Y-28326524D01*
X22309197Y-28326528D01*
X22373219Y-28414646D01*
X22806328Y-27981536D01*
X22849901Y-28057007D01*
X22942993Y-28150099D01*
X23018460Y-28193670D01*
X22585352Y-28626778D01*
X22673477Y-28690805D01*
X22827751Y-28769411D01*
X22992420Y-28822915D01*
X23163425Y-28850000D01*
X23336575Y-28850000D01*
X23507579Y-28822915D01*
X23672248Y-28769411D01*
X23826524Y-28690804D01*
X23826530Y-28690800D01*
X23914646Y-28626779D01*
X23914646Y-28626778D01*
X23481538Y-28193670D01*
X23557007Y-28150099D01*
X23650099Y-28057007D01*
X23693670Y-27981538D01*
X24126778Y-28414646D01*
X24126779Y-28414646D01*
X24190800Y-28326530D01*
X24190804Y-28326524D01*
X24269411Y-28172248D01*
X24322915Y-28007579D01*
X24350000Y-27836575D01*
X24350000Y-27663424D01*
X24322915Y-27492420D01*
X24269411Y-27327751D01*
X24190805Y-27173477D01*
X24126778Y-27085352D01*
X23693670Y-27518460D01*
X23650099Y-27442993D01*
X23557007Y-27349901D01*
X23481536Y-27306328D01*
X23914646Y-26873219D01*
X23826528Y-26809197D01*
X23826524Y-26809195D01*
X23672248Y-26730588D01*
X23507579Y-26677084D01*
X23336575Y-26650000D01*
X23163425Y-26650000D01*
X22992420Y-26677084D01*
X22827751Y-26730588D01*
X22673476Y-26809195D01*
X22585352Y-26873219D01*
X23018461Y-27306328D01*
X22942993Y-27349901D01*
X22849901Y-27442993D01*
X22806328Y-27518461D01*
X22373219Y-27085352D01*
X22309195Y-27173476D01*
X22230588Y-27327751D01*
X22177084Y-27492420D01*
X22150000Y-27663424D01*
X17244440Y-27663424D01*
X17227445Y-27600000D01*
X17839953Y-27600000D01*
X17839954Y-27599998D01*
X17822915Y-27492420D01*
X17769411Y-27327751D01*
X17690804Y-27173475D01*
X17690802Y-27173471D01*
X17589037Y-27033403D01*
X17466596Y-26910962D01*
X17326528Y-26809197D01*
X17326524Y-26809195D01*
X17172248Y-26730588D01*
X17007579Y-26677084D01*
X16900000Y-26660045D01*
X16900000Y-27272554D01*
X16815826Y-27250000D01*
X16684174Y-27250000D01*
X16600000Y-27272554D01*
X16600000Y-26660046D01*
X16599999Y-26660045D01*
X16492420Y-26677084D01*
X16327751Y-26730588D01*
X16173475Y-26809195D01*
X16173471Y-26809197D01*
X16033403Y-26910962D01*
X15910962Y-27033403D01*
X15809197Y-27173471D01*
X15809195Y-27173475D01*
X15730588Y-27327751D01*
X15677084Y-27492420D01*
X15660045Y-27599999D01*
X10201465Y-27599999D01*
X10199159Y-27589154D01*
X10224044Y-27533258D01*
X10277031Y-27502664D01*
X10297617Y-27500500D01*
X10433257Y-27500500D01*
X10433260Y-27500500D01*
X10501393Y-27490573D01*
X10606483Y-27439198D01*
X10689198Y-27356483D01*
X10740573Y-27251393D01*
X10750500Y-27183260D01*
X10750500Y-26415478D01*
X10752968Y-26407880D01*
X10751719Y-26399991D01*
X10762243Y-26379335D01*
X10769407Y-26357287D01*
X10779490Y-26345480D01*
X10830498Y-26294472D01*
X10885013Y-26266697D01*
X10945445Y-26276268D01*
X10988710Y-26319533D01*
X10999500Y-26364478D01*
X10999500Y-27183260D01*
X11006118Y-27228682D01*
X11009427Y-27251395D01*
X11046756Y-27327751D01*
X11060802Y-27356483D01*
X11143517Y-27439198D01*
X11197285Y-27465483D01*
X11248604Y-27490572D01*
X11248605Y-27490572D01*
X11248607Y-27490573D01*
X11316740Y-27500500D01*
X11316743Y-27500500D01*
X11683257Y-27500500D01*
X11683260Y-27500500D01*
X11751393Y-27490573D01*
X11856483Y-27439198D01*
X11939198Y-27356483D01*
X11990573Y-27251393D01*
X12000500Y-27183260D01*
X12000500Y-26600001D01*
X12200001Y-26600001D01*
X12200001Y-27181485D01*
X12214833Y-27275141D01*
X12214836Y-27275151D01*
X12272358Y-27388043D01*
X12361956Y-27477641D01*
X12474848Y-27535163D01*
X12474852Y-27535164D01*
X12568516Y-27549999D01*
X12599999Y-27549999D01*
X12600000Y-27549998D01*
X12600000Y-26600001D01*
X12900000Y-26600001D01*
X12900000Y-27549998D01*
X12900001Y-27549999D01*
X12931483Y-27549999D01*
X12931485Y-27549998D01*
X13025141Y-27535166D01*
X13025151Y-27535163D01*
X13138043Y-27477641D01*
X13227641Y-27388043D01*
X13285163Y-27275151D01*
X13285164Y-27275147D01*
X13300000Y-27181484D01*
X13300000Y-26600001D01*
X13299999Y-26600000D01*
X12900001Y-26600000D01*
X12900000Y-26600001D01*
X12600000Y-26600001D01*
X12599999Y-26600000D01*
X12200002Y-26600000D01*
X12200001Y-26600001D01*
X12000500Y-26600001D01*
X12000500Y-25718515D01*
X12200000Y-25718515D01*
X12200000Y-26299999D01*
X12200001Y-26300000D01*
X12599999Y-26300000D01*
X12600000Y-26299999D01*
X12600000Y-25350001D01*
X12900000Y-25350001D01*
X12900000Y-26299999D01*
X12900001Y-26300000D01*
X13299998Y-26300000D01*
X13299999Y-26299999D01*
X13299999Y-25718516D01*
X13299998Y-25718514D01*
X13285166Y-25624858D01*
X13285163Y-25624848D01*
X13227641Y-25511956D01*
X13138043Y-25422358D01*
X13025151Y-25364836D01*
X13025147Y-25364835D01*
X12931484Y-25350000D01*
X12900001Y-25350000D01*
X12900000Y-25350001D01*
X12600000Y-25350001D01*
X12600000Y-25350000D01*
X12568517Y-25350000D01*
X12568512Y-25350001D01*
X12474858Y-25364833D01*
X12474848Y-25364836D01*
X12361956Y-25422358D01*
X12272358Y-25511956D01*
X12214836Y-25624848D01*
X12214835Y-25624852D01*
X12200000Y-25718515D01*
X12000500Y-25718515D01*
X12000500Y-25716740D01*
X12000500Y-24648321D01*
X12019407Y-24590130D01*
X12029490Y-24578323D01*
X12100500Y-24507314D01*
X12100503Y-24507309D01*
X12166390Y-24393190D01*
X12166391Y-24393187D01*
X12166392Y-24393186D01*
X12200500Y-24265892D01*
X12200500Y-24134108D01*
X12166392Y-24006814D01*
X12166390Y-24006811D01*
X12166390Y-24006809D01*
X12100503Y-23892690D01*
X12100501Y-23892688D01*
X12100500Y-23892686D01*
X12007314Y-23799500D01*
X12007311Y-23799498D01*
X12007309Y-23799496D01*
X11893189Y-23733609D01*
X11893191Y-23733609D01*
X11843799Y-23720375D01*
X11765892Y-23699500D01*
X11634108Y-23699500D01*
X11556200Y-23720375D01*
X11506809Y-23733609D01*
X11392690Y-23799496D01*
X11299496Y-23892690D01*
X11233609Y-24006809D01*
X11233608Y-24006814D01*
X11199500Y-24134108D01*
X11199500Y-24265892D01*
X11217935Y-24334694D01*
X11233608Y-24393187D01*
X11242412Y-24408435D01*
X11255133Y-24468284D01*
X11230246Y-24524179D01*
X11177258Y-24554772D01*
X11131054Y-24553562D01*
X11115894Y-24549500D01*
X11115892Y-24549500D01*
X10984108Y-24549500D01*
X10906200Y-24570375D01*
X10856809Y-24583609D01*
X10742690Y-24649496D01*
X10649496Y-24742690D01*
X10583609Y-24856809D01*
X10549500Y-24984109D01*
X10549500Y-25115895D01*
X10555301Y-25137545D01*
X10558458Y-25169694D01*
X10557816Y-25179398D01*
X10549500Y-25210438D01*
X10549500Y-25305226D01*
X10549284Y-25308495D01*
X10539087Y-25334012D01*
X10530593Y-25360157D01*
X10527842Y-25362155D01*
X10526581Y-25365312D01*
X10503333Y-25379962D01*
X10481093Y-25396121D01*
X10477162Y-25396455D01*
X10474817Y-25397933D01*
X10466353Y-25397373D01*
X10436236Y-25399933D01*
X10433265Y-25399500D01*
X10433260Y-25399500D01*
X10066740Y-25399500D01*
X10032673Y-25404463D01*
X9998604Y-25409427D01*
X9893518Y-25460801D01*
X9810801Y-25543518D01*
X9759427Y-25648604D01*
X9749500Y-25716743D01*
X9749500Y-26535521D01*
X9742336Y-26557568D01*
X9738710Y-26580466D01*
X9733061Y-26586114D01*
X9730593Y-26593712D01*
X9711836Y-26607339D01*
X9695445Y-26623731D01*
X9687555Y-26624980D01*
X9681093Y-26629676D01*
X9657908Y-26629676D01*
X9635013Y-26633302D01*
X9627896Y-26629676D01*
X9619907Y-26629676D01*
X9580496Y-26605525D01*
X9529496Y-26554525D01*
X9501719Y-26500008D01*
X9500500Y-26484521D01*
X9500500Y-25716743D01*
X9500500Y-25716740D01*
X9490573Y-25648607D01*
X9439198Y-25543517D01*
X9356483Y-25460802D01*
X9350500Y-25457877D01*
X9251395Y-25409427D01*
X9224139Y-25405456D01*
X9183260Y-25399500D01*
X8816740Y-25399500D01*
X8782673Y-25404463D01*
X8748604Y-25409427D01*
X8643518Y-25460801D01*
X8560801Y-25543518D01*
X8509427Y-25648604D01*
X8509427Y-25648607D01*
X8499500Y-25716740D01*
X8299718Y-25716740D01*
X8285166Y-25624858D01*
X8285163Y-25624848D01*
X8227641Y-25511956D01*
X8138043Y-25422358D01*
X8025151Y-25364836D01*
X8025147Y-25364835D01*
X7931484Y-25350000D01*
X7900001Y-25350000D01*
X7900000Y-25350001D01*
X7600000Y-25350001D01*
X7600000Y-25350000D01*
X7568517Y-25350000D01*
X7568512Y-25350001D01*
X7474858Y-25364833D01*
X7474848Y-25364836D01*
X7361956Y-25422358D01*
X7272358Y-25511956D01*
X7214836Y-25624848D01*
X7214835Y-25624852D01*
X7200000Y-25718515D01*
X7000500Y-25718515D01*
X7000500Y-25716740D01*
X6990573Y-25648607D01*
X6939198Y-25543517D01*
X6856483Y-25460802D01*
X6850500Y-25457877D01*
X6751395Y-25409427D01*
X6724139Y-25405456D01*
X6683260Y-25399500D01*
X6397617Y-25399500D01*
X6339426Y-25380593D01*
X6303462Y-25331093D01*
X6303462Y-25269907D01*
X6311882Y-25250998D01*
X6316390Y-25243189D01*
X6316389Y-25243189D01*
X6316392Y-25243186D01*
X6350500Y-25115892D01*
X6350500Y-24984108D01*
X6316392Y-24856814D01*
X6316390Y-24856811D01*
X6316390Y-24856809D01*
X6250503Y-24742690D01*
X6250501Y-24742688D01*
X6250500Y-24742686D01*
X6157314Y-24649500D01*
X6157311Y-24649498D01*
X6157309Y-24649496D01*
X6043189Y-24583609D01*
X6043191Y-24583609D01*
X5993799Y-24570375D01*
X5915892Y-24549500D01*
X5784108Y-24549500D01*
X5742438Y-24560665D01*
X5675122Y-24578702D01*
X5614021Y-24575499D01*
X5566471Y-24536994D01*
X5550500Y-24483075D01*
X5550500Y-23443647D01*
X5563765Y-23394145D01*
X5580020Y-23365991D01*
X5580019Y-23365991D01*
X5580022Y-23365988D01*
X5600500Y-23289562D01*
X5600500Y-23210438D01*
X5600500Y-22765478D01*
X5601562Y-22762209D01*
X5600720Y-22758876D01*
X5607495Y-22743947D01*
X5619407Y-22707287D01*
X5623466Y-22702075D01*
X5626326Y-22698644D01*
X5640460Y-22684511D01*
X5641474Y-22682754D01*
X5680021Y-22615989D01*
X5700500Y-22539562D01*
X5700500Y-21895725D01*
X13899500Y-21895725D01*
X13899500Y-24304274D01*
X13902353Y-24334694D01*
X13902355Y-24334703D01*
X13947207Y-24462883D01*
X14027845Y-24572144D01*
X14027847Y-24572146D01*
X14027850Y-24572150D01*
X14027853Y-24572152D01*
X14027855Y-24572154D01*
X14137116Y-24652792D01*
X14137117Y-24652792D01*
X14137118Y-24652793D01*
X14265301Y-24697646D01*
X14295725Y-24700499D01*
X14295727Y-24700500D01*
X14295734Y-24700500D01*
X14904273Y-24700500D01*
X14904273Y-24700499D01*
X14934699Y-24697646D01*
X15062882Y-24652793D01*
X15172150Y-24572150D01*
X15252793Y-24462882D01*
X15297646Y-24334699D01*
X15300499Y-24304273D01*
X15300500Y-24304273D01*
X15300500Y-23893709D01*
X23149500Y-23893709D01*
X23149500Y-24106290D01*
X23182752Y-24316238D01*
X23248443Y-24518412D01*
X23344948Y-24707815D01*
X23344950Y-24707819D01*
X23469891Y-24879786D01*
X23469893Y-24879788D01*
X23469896Y-24879792D01*
X23620208Y-25030104D01*
X23620211Y-25030106D01*
X23620213Y-25030108D01*
X23792180Y-25155049D01*
X23792184Y-25155051D01*
X23981588Y-25251557D01*
X24183757Y-25317246D01*
X24183758Y-25317246D01*
X24183761Y-25317247D01*
X24393710Y-25350500D01*
X24393713Y-25350500D01*
X24606290Y-25350500D01*
X24816238Y-25317247D01*
X24816239Y-25317246D01*
X24816243Y-25317246D01*
X25018412Y-25251557D01*
X25207816Y-25155051D01*
X25379792Y-25030104D01*
X25530104Y-24879792D01*
X25655051Y-24707816D01*
X25751557Y-24518412D01*
X25817246Y-24316243D01*
X25825221Y-24265890D01*
X25850500Y-24106290D01*
X25850500Y-23893709D01*
X25817247Y-23683761D01*
X25817246Y-23683757D01*
X25751557Y-23481588D01*
X25655051Y-23292184D01*
X25655049Y-23292180D01*
X25530108Y-23120213D01*
X25530106Y-23120211D01*
X25530104Y-23120208D01*
X25379792Y-22969896D01*
X25379788Y-22969893D01*
X25379786Y-22969891D01*
X25207819Y-22844950D01*
X25207815Y-22844948D01*
X25018412Y-22748443D01*
X24816238Y-22682752D01*
X24606290Y-22649500D01*
X24606287Y-22649500D01*
X24393713Y-22649500D01*
X24393710Y-22649500D01*
X24183761Y-22682752D01*
X23981587Y-22748443D01*
X23792184Y-22844948D01*
X23792180Y-22844950D01*
X23620213Y-22969891D01*
X23469891Y-23120213D01*
X23344950Y-23292180D01*
X23344948Y-23292184D01*
X23248443Y-23481587D01*
X23182752Y-23683761D01*
X23149500Y-23893709D01*
X15300500Y-23893709D01*
X15300500Y-21895727D01*
X15300499Y-21895725D01*
X15297646Y-21865305D01*
X15297646Y-21865301D01*
X15252793Y-21737118D01*
X15172150Y-21627850D01*
X15172146Y-21627847D01*
X15172144Y-21627845D01*
X15062883Y-21547207D01*
X14934703Y-21502355D01*
X14934694Y-21502353D01*
X14904274Y-21499500D01*
X14904266Y-21499500D01*
X14295734Y-21499500D01*
X14295725Y-21499500D01*
X14265305Y-21502353D01*
X14265296Y-21502355D01*
X14137116Y-21547207D01*
X14027855Y-21627845D01*
X14027845Y-21627855D01*
X13947207Y-21737116D01*
X13902355Y-21865296D01*
X13902353Y-21865305D01*
X13899500Y-21895725D01*
X5700500Y-21895725D01*
X5700500Y-21143647D01*
X5713765Y-21094145D01*
X5730020Y-21065991D01*
X5730019Y-21065991D01*
X5730022Y-21065988D01*
X5750500Y-20989562D01*
X5750500Y-20910438D01*
X5750500Y-20146532D01*
X15699500Y-20146532D01*
X15699500Y-20353467D01*
X15739869Y-20556418D01*
X15819058Y-20747597D01*
X15927864Y-20910438D01*
X15934023Y-20919655D01*
X16080345Y-21065977D01*
X16252402Y-21180941D01*
X16443580Y-21260130D01*
X16646535Y-21300500D01*
X16646536Y-21300500D01*
X16853464Y-21300500D01*
X16853465Y-21300500D01*
X17056420Y-21260130D01*
X17247598Y-21180941D01*
X17419655Y-21065977D01*
X17565977Y-20919655D01*
X17680941Y-20747598D01*
X17760130Y-20556420D01*
X17800500Y-20353465D01*
X17800500Y-20146535D01*
X17800499Y-20146532D01*
X22199500Y-20146532D01*
X22199500Y-20353467D01*
X22239869Y-20556418D01*
X22319058Y-20747597D01*
X22427864Y-20910438D01*
X22434023Y-20919655D01*
X22580345Y-21065977D01*
X22752402Y-21180941D01*
X22943580Y-21260130D01*
X23146535Y-21300500D01*
X23146536Y-21300500D01*
X23353464Y-21300500D01*
X23353465Y-21300500D01*
X23556420Y-21260130D01*
X23747598Y-21180941D01*
X23919655Y-21065977D01*
X24065977Y-20919655D01*
X24180941Y-20747598D01*
X24260130Y-20556420D01*
X24300500Y-20353465D01*
X24300500Y-20146535D01*
X24260130Y-19943580D01*
X24180941Y-19752402D01*
X24065977Y-19580345D01*
X23919655Y-19434023D01*
X23919651Y-19434020D01*
X23747597Y-19319058D01*
X23556418Y-19239869D01*
X23353467Y-19199500D01*
X23353465Y-19199500D01*
X23146535Y-19199500D01*
X23146532Y-19199500D01*
X22943581Y-19239869D01*
X22752402Y-19319058D01*
X22580348Y-19434020D01*
X22434020Y-19580348D01*
X22319058Y-19752402D01*
X22239869Y-19943581D01*
X22199500Y-20146532D01*
X17800499Y-20146532D01*
X17760130Y-19943580D01*
X17680941Y-19752402D01*
X17565977Y-19580345D01*
X17419655Y-19434023D01*
X17419651Y-19434020D01*
X17247597Y-19319058D01*
X17056418Y-19239869D01*
X16853467Y-19199500D01*
X16853465Y-19199500D01*
X16646535Y-19199500D01*
X16646532Y-19199500D01*
X16443581Y-19239869D01*
X16252402Y-19319058D01*
X16080348Y-19434020D01*
X15934020Y-19580348D01*
X15819058Y-19752402D01*
X15739869Y-19943581D01*
X15699500Y-20146532D01*
X5750500Y-20146532D01*
X5750500Y-19598321D01*
X5769407Y-19540130D01*
X5779490Y-19528323D01*
X5850500Y-19457314D01*
X5863949Y-19434020D01*
X5916390Y-19343190D01*
X5916390Y-19343188D01*
X5916392Y-19343186D01*
X5950500Y-19215892D01*
X5950500Y-19084108D01*
X5916392Y-18956814D01*
X5916390Y-18956811D01*
X5916390Y-18956809D01*
X5850503Y-18842690D01*
X5850501Y-18842688D01*
X5850500Y-18842686D01*
X5757314Y-18749500D01*
X5757311Y-18749498D01*
X5757309Y-18749496D01*
X5643189Y-18683609D01*
X5643191Y-18683609D01*
X5593799Y-18670375D01*
X5515892Y-18649500D01*
X5384108Y-18649500D01*
X5271848Y-18679579D01*
X5256810Y-18683609D01*
X5194946Y-18719326D01*
X5135098Y-18732047D01*
X5079202Y-18707160D01*
X5048610Y-18654171D01*
X5048350Y-18614273D01*
X5050500Y-18603465D01*
X5050500Y-18396535D01*
X5010130Y-18193580D01*
X4930941Y-18002402D01*
X4815977Y-17830345D01*
X4669655Y-17684023D01*
X4497598Y-17569059D01*
X4497599Y-17569059D01*
X4497597Y-17569058D01*
X4306418Y-17489869D01*
X4103467Y-17449500D01*
X4103465Y-17449500D01*
X3896535Y-17449500D01*
X3896532Y-17449500D01*
X3693581Y-17489869D01*
X3502402Y-17569058D01*
X3330348Y-17684020D01*
X3184020Y-17830348D01*
X3069058Y-18002402D01*
X2989869Y-18193581D01*
X2949500Y-18396532D01*
X500500Y-18396532D01*
X500500Y-15896532D01*
X2949500Y-15896532D01*
X2949500Y-16103467D01*
X2989869Y-16306418D01*
X3069058Y-16497597D01*
X3155374Y-16626779D01*
X3184023Y-16669655D01*
X3330345Y-16815977D01*
X3502402Y-16930941D01*
X3693580Y-17010130D01*
X3896535Y-17050500D01*
X3896536Y-17050500D01*
X4103464Y-17050500D01*
X4103465Y-17050500D01*
X4306420Y-17010130D01*
X4497598Y-16930941D01*
X4669655Y-16815977D01*
X4815977Y-16669655D01*
X4930941Y-16497598D01*
X5010130Y-16306420D01*
X5050500Y-16103465D01*
X5050500Y-15896535D01*
X5010130Y-15693580D01*
X4971367Y-15599999D01*
X15660045Y-15599999D01*
X15660046Y-15600000D01*
X16272555Y-15600000D01*
X16250000Y-15684174D01*
X16250000Y-15815826D01*
X16272555Y-15900000D01*
X15660045Y-15900000D01*
X15677084Y-16007579D01*
X15730588Y-16172248D01*
X15809195Y-16326524D01*
X15809197Y-16326528D01*
X15910962Y-16466596D01*
X16033403Y-16589037D01*
X16173471Y-16690802D01*
X16173475Y-16690804D01*
X16327751Y-16769411D01*
X16492419Y-16822914D01*
X16599999Y-16839953D01*
X16600000Y-16839952D01*
X16600000Y-16227445D01*
X16684174Y-16250000D01*
X16815826Y-16250000D01*
X16900000Y-16227445D01*
X16900000Y-16839953D01*
X17007580Y-16822914D01*
X17172248Y-16769411D01*
X17326524Y-16690804D01*
X17326528Y-16690802D01*
X17466596Y-16589037D01*
X17536591Y-16519043D01*
X17589037Y-16466596D01*
X17690802Y-16326528D01*
X17690804Y-16326524D01*
X17769411Y-16172248D01*
X17822915Y-16007579D01*
X17839954Y-15900000D01*
X17227445Y-15900000D01*
X17250000Y-15815826D01*
X17250000Y-15684174D01*
X17244440Y-15663424D01*
X22150000Y-15663424D01*
X22150000Y-15836575D01*
X22177084Y-16007579D01*
X22230588Y-16172248D01*
X22309195Y-16326524D01*
X22309197Y-16326528D01*
X22373219Y-16414646D01*
X22806328Y-15981536D01*
X22849901Y-16057007D01*
X22942993Y-16150099D01*
X23018460Y-16193670D01*
X22585352Y-16626778D01*
X22673477Y-16690805D01*
X22827751Y-16769411D01*
X22992420Y-16822915D01*
X23163425Y-16850000D01*
X23336575Y-16850000D01*
X23507579Y-16822915D01*
X23672248Y-16769411D01*
X23826524Y-16690804D01*
X23826530Y-16690800D01*
X23914646Y-16626779D01*
X23914646Y-16626778D01*
X23481538Y-16193670D01*
X23557007Y-16150099D01*
X23650099Y-16057007D01*
X23693670Y-15981538D01*
X24126778Y-16414646D01*
X24126779Y-16414646D01*
X24190800Y-16326530D01*
X24190804Y-16326524D01*
X24269411Y-16172248D01*
X24322915Y-16007579D01*
X24350000Y-15836575D01*
X24350000Y-15663424D01*
X24322915Y-15492420D01*
X24269411Y-15327751D01*
X24190805Y-15173477D01*
X24126778Y-15085352D01*
X23693670Y-15518460D01*
X23650099Y-15442993D01*
X23557007Y-15349901D01*
X23481536Y-15306328D01*
X23914646Y-14873219D01*
X23826528Y-14809197D01*
X23826524Y-14809195D01*
X23672248Y-14730588D01*
X23507579Y-14677084D01*
X23336575Y-14650000D01*
X23163425Y-14650000D01*
X22992420Y-14677084D01*
X22827751Y-14730588D01*
X22673476Y-14809195D01*
X22585352Y-14873219D01*
X23018461Y-15306328D01*
X22942993Y-15349901D01*
X22849901Y-15442993D01*
X22806328Y-15518461D01*
X22373219Y-15085352D01*
X22309195Y-15173476D01*
X22230588Y-15327751D01*
X22177084Y-15492420D01*
X22150000Y-15663424D01*
X17244440Y-15663424D01*
X17227445Y-15600000D01*
X17839953Y-15600000D01*
X17839954Y-15599998D01*
X17822915Y-15492420D01*
X17769411Y-15327751D01*
X17690804Y-15173475D01*
X17690802Y-15173471D01*
X17589037Y-15033403D01*
X17466596Y-14910962D01*
X17326528Y-14809197D01*
X17326524Y-14809195D01*
X17172248Y-14730588D01*
X17007579Y-14677084D01*
X16900000Y-14660045D01*
X16900000Y-15272554D01*
X16815826Y-15250000D01*
X16684174Y-15250000D01*
X16600000Y-15272554D01*
X16600000Y-14660046D01*
X16599999Y-14660045D01*
X16492420Y-14677084D01*
X16327751Y-14730588D01*
X16173475Y-14809195D01*
X16173471Y-14809197D01*
X16033403Y-14910962D01*
X15910962Y-15033403D01*
X15809197Y-15173471D01*
X15809195Y-15173475D01*
X15730588Y-15327751D01*
X15677084Y-15492420D01*
X15660045Y-15599999D01*
X4971367Y-15599999D01*
X4930941Y-15502402D01*
X4815977Y-15330345D01*
X4669655Y-15184023D01*
X4653872Y-15173477D01*
X4497597Y-15069058D01*
X4306418Y-14989869D01*
X4103467Y-14949500D01*
X4103465Y-14949500D01*
X3896535Y-14949500D01*
X3896532Y-14949500D01*
X3693581Y-14989869D01*
X3502402Y-15069058D01*
X3330348Y-15184020D01*
X3184020Y-15330348D01*
X3069058Y-15502402D01*
X2989869Y-15693581D01*
X2949500Y-15896532D01*
X500500Y-15896532D01*
X500500Y-13413424D01*
X2900000Y-13413424D01*
X2900000Y-13586575D01*
X2927084Y-13757579D01*
X2980588Y-13922248D01*
X3059195Y-14076524D01*
X3059197Y-14076528D01*
X3123219Y-14164646D01*
X3592930Y-13694934D01*
X3639910Y-13776306D01*
X3723694Y-13860090D01*
X3805062Y-13907068D01*
X3335352Y-14376778D01*
X3423477Y-14440805D01*
X3577751Y-14519411D01*
X3742420Y-14572915D01*
X3913425Y-14600000D01*
X4086575Y-14600000D01*
X4257579Y-14572915D01*
X4422248Y-14519411D01*
X4576524Y-14440804D01*
X4576530Y-14440800D01*
X4664646Y-14376779D01*
X4664646Y-14376778D01*
X4194936Y-13907068D01*
X4276306Y-13860090D01*
X4360090Y-13776306D01*
X4407068Y-13694936D01*
X4876778Y-14164646D01*
X4876779Y-14164646D01*
X4940800Y-14076530D01*
X4940804Y-14076524D01*
X5019411Y-13922248D01*
X5072915Y-13757579D01*
X5100000Y-13586575D01*
X5100000Y-13413424D01*
X5072915Y-13242420D01*
X5019411Y-13077751D01*
X4940805Y-12923477D01*
X4876778Y-12835352D01*
X4407068Y-13305062D01*
X4360090Y-13223694D01*
X4276306Y-13139910D01*
X4194934Y-13092930D01*
X4664646Y-12623219D01*
X4576528Y-12559197D01*
X4576524Y-12559195D01*
X4422248Y-12480588D01*
X4257579Y-12427084D01*
X4086575Y-12400000D01*
X3913425Y-12400000D01*
X3742420Y-12427084D01*
X3577751Y-12480588D01*
X3423476Y-12559195D01*
X3335352Y-12623219D01*
X3805064Y-13092931D01*
X3723694Y-13139910D01*
X3639910Y-13223694D01*
X3592931Y-13305064D01*
X3123219Y-12835352D01*
X3059195Y-12923476D01*
X2980588Y-13077751D01*
X2927084Y-13242420D01*
X2900000Y-13413424D01*
X500500Y-13413424D01*
X500500Y-11893709D01*
X23149500Y-11893709D01*
X23149500Y-12106290D01*
X23182752Y-12316238D01*
X23248443Y-12518412D01*
X23344948Y-12707815D01*
X23344950Y-12707819D01*
X23469891Y-12879786D01*
X23469893Y-12879788D01*
X23469896Y-12879792D01*
X23620208Y-13030104D01*
X23620211Y-13030106D01*
X23620213Y-13030108D01*
X23792180Y-13155049D01*
X23792184Y-13155051D01*
X23981588Y-13251557D01*
X24183757Y-13317246D01*
X24183758Y-13317246D01*
X24183761Y-13317247D01*
X24393710Y-13350500D01*
X24393713Y-13350500D01*
X24606290Y-13350500D01*
X24816238Y-13317247D01*
X24816239Y-13317246D01*
X24816243Y-13317246D01*
X25018412Y-13251557D01*
X25207816Y-13155051D01*
X25379792Y-13030104D01*
X25530104Y-12879792D01*
X25655051Y-12707816D01*
X25751557Y-12518412D01*
X25817246Y-12316243D01*
X25850500Y-12106287D01*
X25850500Y-11893713D01*
X25850500Y-11893709D01*
X25817247Y-11683761D01*
X25817246Y-11683757D01*
X25751557Y-11481588D01*
X25655051Y-11292184D01*
X25655049Y-11292180D01*
X25530108Y-11120213D01*
X25530106Y-11120211D01*
X25530104Y-11120208D01*
X25379792Y-10969896D01*
X25379788Y-10969893D01*
X25379786Y-10969891D01*
X25207819Y-10844950D01*
X25207815Y-10844948D01*
X25018412Y-10748443D01*
X24816238Y-10682752D01*
X24606290Y-10649500D01*
X24606287Y-10649500D01*
X24393713Y-10649500D01*
X24393710Y-10649500D01*
X24183761Y-10682752D01*
X23981587Y-10748443D01*
X23792184Y-10844948D01*
X23792180Y-10844950D01*
X23620213Y-10969891D01*
X23469891Y-11120213D01*
X23344950Y-11292180D01*
X23344948Y-11292184D01*
X23248443Y-11481587D01*
X23182752Y-11683761D01*
X23149500Y-11893709D01*
X500500Y-11893709D01*
X500500Y-8146532D01*
X15699500Y-8146532D01*
X15699500Y-8353467D01*
X15739869Y-8556418D01*
X15819058Y-8747597D01*
X15819059Y-8747598D01*
X15934023Y-8919655D01*
X16080345Y-9065977D01*
X16252402Y-9180941D01*
X16443580Y-9260130D01*
X16646535Y-9300500D01*
X16646536Y-9300500D01*
X16853464Y-9300500D01*
X16853465Y-9300500D01*
X17056420Y-9260130D01*
X17247598Y-9180941D01*
X17419655Y-9065977D01*
X17565977Y-8919655D01*
X17680941Y-8747598D01*
X17760130Y-8556420D01*
X17800500Y-8353465D01*
X17800500Y-8146535D01*
X17800499Y-8146532D01*
X22199500Y-8146532D01*
X22199500Y-8353467D01*
X22239869Y-8556418D01*
X22319058Y-8747597D01*
X22319059Y-8747598D01*
X22434023Y-8919655D01*
X22580345Y-9065977D01*
X22752402Y-9180941D01*
X22943580Y-9260130D01*
X23146535Y-9300500D01*
X23146536Y-9300500D01*
X23353464Y-9300500D01*
X23353465Y-9300500D01*
X23556420Y-9260130D01*
X23747598Y-9180941D01*
X23919655Y-9065977D01*
X24065977Y-8919655D01*
X24180941Y-8747598D01*
X24260130Y-8556420D01*
X24300500Y-8353465D01*
X24300500Y-8146535D01*
X24260130Y-7943580D01*
X24180941Y-7752402D01*
X24065977Y-7580345D01*
X23919655Y-7434023D01*
X23747598Y-7319059D01*
X23747599Y-7319059D01*
X23747597Y-7319058D01*
X23556418Y-7239869D01*
X23353467Y-7199500D01*
X23353465Y-7199500D01*
X23146535Y-7199500D01*
X23146532Y-7199500D01*
X22943581Y-7239869D01*
X22752402Y-7319058D01*
X22580348Y-7434020D01*
X22434020Y-7580348D01*
X22319058Y-7752402D01*
X22239869Y-7943581D01*
X22199500Y-8146532D01*
X17800499Y-8146532D01*
X17760130Y-7943580D01*
X17680941Y-7752402D01*
X17565977Y-7580345D01*
X17419655Y-7434023D01*
X17247598Y-7319059D01*
X17247599Y-7319059D01*
X17247597Y-7319058D01*
X17056418Y-7239869D01*
X16853467Y-7199500D01*
X16853465Y-7199500D01*
X16646535Y-7199500D01*
X16646532Y-7199500D01*
X16443581Y-7239869D01*
X16252402Y-7319058D01*
X16080348Y-7434020D01*
X15934020Y-7580348D01*
X15819058Y-7752402D01*
X15739869Y-7943581D01*
X15699500Y-8146532D01*
X500500Y-8146532D01*
X500500Y-3380385D01*
X519407Y-3322194D01*
X568907Y-3286230D01*
X630093Y-3286230D01*
X679593Y-3322194D01*
X693655Y-3349792D01*
X748443Y-3518412D01*
X844948Y-3707815D01*
X844950Y-3707819D01*
X969891Y-3879786D01*
X969893Y-3879788D01*
X969896Y-3879792D01*
X1120208Y-4030104D01*
X1120211Y-4030106D01*
X1120213Y-4030108D01*
X1292180Y-4155049D01*
X1292184Y-4155051D01*
X1481588Y-4251557D01*
X1683757Y-4317246D01*
X1683758Y-4317246D01*
X1683761Y-4317247D01*
X1893710Y-4350500D01*
X1893713Y-4350500D01*
X2106290Y-4350500D01*
X2316238Y-4317247D01*
X2316239Y-4317246D01*
X2316243Y-4317246D01*
X2518412Y-4251557D01*
X2707816Y-4155051D01*
X2879792Y-4030104D01*
X3030104Y-3879792D01*
X3124404Y-3749999D01*
X3155049Y-3707819D01*
X3155051Y-3707816D01*
X3209986Y-3600000D01*
X3209987Y-3599999D01*
X15660045Y-3599999D01*
X15660046Y-3600000D01*
X16272555Y-3600000D01*
X16250000Y-3684174D01*
X16250000Y-3815826D01*
X16272555Y-3900000D01*
X15660045Y-3900000D01*
X15677084Y-4007579D01*
X15730588Y-4172248D01*
X15809195Y-4326524D01*
X15809197Y-4326528D01*
X15910962Y-4466596D01*
X16033403Y-4589037D01*
X16173471Y-4690802D01*
X16173475Y-4690804D01*
X16327751Y-4769411D01*
X16492419Y-4822914D01*
X16599999Y-4839953D01*
X16600000Y-4839952D01*
X16600000Y-4227445D01*
X16684174Y-4250000D01*
X16815826Y-4250000D01*
X16900000Y-4227445D01*
X16900000Y-4839953D01*
X17007580Y-4822914D01*
X17172248Y-4769411D01*
X17326524Y-4690804D01*
X17326528Y-4690802D01*
X17466596Y-4589037D01*
X17536591Y-4519043D01*
X17589037Y-4466596D01*
X17690802Y-4326528D01*
X17690804Y-4326524D01*
X17769411Y-4172248D01*
X17822915Y-4007579D01*
X17839954Y-3900000D01*
X17227445Y-3900000D01*
X17250000Y-3815826D01*
X17250000Y-3684174D01*
X17244440Y-3663424D01*
X22150000Y-3663424D01*
X22150000Y-3836575D01*
X22177084Y-4007579D01*
X22230588Y-4172248D01*
X22309195Y-4326524D01*
X22309197Y-4326528D01*
X22373219Y-4414646D01*
X22806328Y-3981536D01*
X22849901Y-4057007D01*
X22942993Y-4150099D01*
X23018460Y-4193670D01*
X22585352Y-4626778D01*
X22673477Y-4690805D01*
X22827751Y-4769411D01*
X22992420Y-4822915D01*
X23163425Y-4850000D01*
X23336575Y-4850000D01*
X23507579Y-4822915D01*
X23672248Y-4769411D01*
X23826524Y-4690804D01*
X23826530Y-4690800D01*
X23914646Y-4626779D01*
X23914646Y-4626778D01*
X23481538Y-4193670D01*
X23557007Y-4150099D01*
X23650099Y-4057007D01*
X23693670Y-3981538D01*
X24126778Y-4414646D01*
X24126779Y-4414646D01*
X24190800Y-4326530D01*
X24190804Y-4326524D01*
X24269411Y-4172248D01*
X24322915Y-4007579D01*
X24350000Y-3836575D01*
X24350000Y-3663424D01*
X24322915Y-3492420D01*
X24269411Y-3327751D01*
X24190805Y-3173477D01*
X24126778Y-3085352D01*
X23693670Y-3518460D01*
X23650099Y-3442993D01*
X23557007Y-3349901D01*
X23481536Y-3306328D01*
X23914646Y-2873219D01*
X23826528Y-2809197D01*
X23826524Y-2809195D01*
X23672248Y-2730588D01*
X23507579Y-2677084D01*
X23336575Y-2650000D01*
X23163425Y-2650000D01*
X22992420Y-2677084D01*
X22827751Y-2730588D01*
X22673476Y-2809195D01*
X22585352Y-2873219D01*
X23018461Y-3306328D01*
X22942993Y-3349901D01*
X22849901Y-3442993D01*
X22806328Y-3518461D01*
X22373219Y-3085352D01*
X22309195Y-3173476D01*
X22230588Y-3327751D01*
X22177084Y-3492420D01*
X22150000Y-3663424D01*
X17244440Y-3663424D01*
X17227445Y-3600000D01*
X17839953Y-3600000D01*
X17839954Y-3599998D01*
X17822915Y-3492420D01*
X17769411Y-3327751D01*
X17690804Y-3173475D01*
X17690802Y-3173471D01*
X17589037Y-3033403D01*
X17466596Y-2910962D01*
X17326528Y-2809197D01*
X17326524Y-2809195D01*
X17172248Y-2730588D01*
X17007579Y-2677084D01*
X16900000Y-2660045D01*
X16900000Y-3272554D01*
X16815826Y-3250000D01*
X16684174Y-3250000D01*
X16600000Y-3272554D01*
X16600000Y-2660046D01*
X16599999Y-2660045D01*
X16492420Y-2677084D01*
X16327751Y-2730588D01*
X16173475Y-2809195D01*
X16173471Y-2809197D01*
X16033403Y-2910962D01*
X15910962Y-3033403D01*
X15809197Y-3173471D01*
X15809195Y-3173475D01*
X15730588Y-3327751D01*
X15677084Y-3492420D01*
X15660045Y-3599999D01*
X3209987Y-3599999D01*
X3217810Y-3584645D01*
X3231892Y-3557007D01*
X3251557Y-3518412D01*
X3317246Y-3316243D01*
X3339858Y-3173477D01*
X3350500Y-3106290D01*
X3350500Y-2893709D01*
X3317247Y-2683761D01*
X3317246Y-2683757D01*
X3251557Y-2481588D01*
X3155051Y-2292184D01*
X3155049Y-2292180D01*
X3030108Y-2120213D01*
X3030106Y-2120211D01*
X3030104Y-2120208D01*
X2879792Y-1969896D01*
X2879788Y-1969893D01*
X2879786Y-1969891D01*
X2707819Y-1844950D01*
X2707815Y-1844948D01*
X2518412Y-1748443D01*
X2316238Y-1682752D01*
X2106290Y-1649500D01*
X2106287Y-1649500D01*
X1893713Y-1649500D01*
X1893710Y-1649500D01*
X1683761Y-1682752D01*
X1481587Y-1748443D01*
X1292184Y-1844948D01*
X1292180Y-1844950D01*
X1120213Y-1969891D01*
X969891Y-2120213D01*
X844950Y-2292180D01*
X844948Y-2292184D01*
X748443Y-2481587D01*
X693655Y-2650207D01*
X657691Y-2699707D01*
X599500Y-2718614D01*
X541309Y-2699707D01*
X505345Y-2650206D01*
X500500Y-2619614D01*
X500500Y-599500D01*
X519407Y-541309D01*
X568907Y-505345D01*
X599500Y-500500D01*
X26400500Y-500500D01*
X26458691Y-519407D01*
G37*
G04 #@! TD.AperFunction*
M02*
