G04 #@! TF.GenerationSoftware,KiCad,Pcbnew,10.0.1*
G04 #@! TF.CreationDate,2026-09-07T20:03:13-05:00*
G04 #@! TF.ProjectId,alec-controls,616c6563-2d63-46f6-9e74-726f6c732e6b,rev?*
G04 #@! TF.SameCoordinates,Original*
G04 #@! TF.FileFunction,Legend,Top*
G04 #@! TF.FilePolarity,Positive*
%FSLAX46Y46*%
G04 Gerber Fmt 4.6, Leading zero omitted, Abs format (unit mm)*
G04 Created by KiCad (PCBNEW 10.0.1) date 2026-09-07 20:03:13*
%MOMM*%
%LPD*%
G01*
G04 APERTURE LIST*
%ADD10C,0.120000*%
%ADD11C,2.200000*%
%ADD12C,1.700000*%
G04 APERTURE END LIST*
D10*
X16880000Y-19100000D02*
X16880000Y-16900000D01*
X17500000Y-14880000D02*
X22500000Y-14880000D01*
X17500000Y-21120000D02*
X22500000Y-21120000D01*
X23120000Y-16900000D02*
X23120000Y-19100000D01*
X21750000Y-18000000D02*
G75*
G02*
X18250000Y-18000000I-1750000J0D01*
G01*
X18250000Y-18000000D02*
G75*
G02*
X21750000Y-18000000I1750000J0D01*
G01*
X16880000Y-31100000D02*
X16880000Y-28900000D01*
X17500000Y-26880000D02*
X22500000Y-26880000D01*
X17500000Y-33120000D02*
X22500000Y-33120000D01*
X23120000Y-28900000D02*
X23120000Y-31100000D01*
X21750000Y-30000000D02*
G75*
G02*
X18250000Y-30000000I-1750000J0D01*
G01*
X18250000Y-30000000D02*
G75*
G02*
X21750000Y-30000000I1750000J0D01*
G01*
X16880000Y-7100000D02*
X16880000Y-4900000D01*
X17500000Y-2880000D02*
X22500000Y-2880000D01*
X17500000Y-9120000D02*
X22500000Y-9120000D01*
X23120000Y-4900000D02*
X23120000Y-7100000D01*
X21750000Y-6000000D02*
G75*
G02*
X18250000Y-6000000I-1750000J0D01*
G01*
X18250000Y-6000000D02*
G75*
G02*
X21750000Y-6000000I1750000J0D01*
G01*
%LPC*%
D11*
X24500000Y-12000000D03*
D12*
X16750000Y-15750000D03*
X23250000Y-15750000D03*
X16750000Y-20250000D03*
X23250000Y-20250000D03*
D11*
X2000000Y-3000000D03*
D12*
X16750000Y-27750000D03*
X23250000Y-27750000D03*
X16750000Y-32250000D03*
X23250000Y-32250000D03*
X16750000Y-3750000D03*
X23250000Y-3750000D03*
X16750000Y-8250000D03*
X23250000Y-8250000D03*
X4000000Y-18500000D03*
X4000000Y-16000000D03*
X4000000Y-13500000D03*
D11*
X2000000Y-30000000D03*
X24500000Y-24000000D03*
%LPD*%
M02*
