G04 #@! TF.GenerationSoftware,KiCad,Pcbnew,10.0.1*
G04 #@! TF.CreationDate,2026-09-07T23:42:01-05:00*
G04 #@! TF.ProjectId,alec-front,616c6563-2d66-4726-9f6e-742e6b696361,rev?*
G04 #@! TF.SameCoordinates,Original*
G04 #@! TF.FileFunction,Copper,L1,Top*
G04 #@! TF.FilePolarity,Positive*
%FSLAX46Y46*%
G04 Gerber Fmt 4.6, Leading zero omitted, Abs format (unit mm)*
G04 Created by KiCad (PCBNEW 10.0.1) date 2026-09-07 23:42:01*
%MOMM*%
%LPD*%
G01*
G04 APERTURE LIST*
G04 #@! TA.AperFunction,SMDPad,CuDef*
%ADD10R,1.500000X0.900000*%
G04 #@! TD*
G04 #@! TA.AperFunction,SMDPad,CuDef*
%ADD11R,0.900000X1.700000*%
G04 #@! TD*
G04 #@! TA.AperFunction,ViaPad*
%ADD12C,0.600000*%
G04 #@! TD*
G04 #@! TA.AperFunction,Conductor*
%ADD13C,0.200000*%
G04 #@! TD*
G04 APERTURE END LIST*
D10*
X19550000Y-4300000D03*
X19550000Y-5700000D03*
X16450000Y-4300000D03*
X16450000Y-5700000D03*
D11*
X4300000Y-5000000D03*
X7700000Y-5000000D03*
D12*
X20850000Y-4000000D03*
X15650000Y-6850000D03*
X17750000Y-4000000D03*
X15100000Y-4000000D03*
X3300000Y-5000000D03*
X17250000Y-7450000D03*
D13*
X20550000Y-4300000D02*
X20850000Y-4000000D01*
X19550000Y-4300000D02*
X20550000Y-4300000D01*
X19300000Y-5850000D02*
X18350000Y-6800000D01*
X16850000Y-6800000D02*
X16800000Y-6850000D01*
X19400000Y-5800000D02*
X19350000Y-5850000D01*
X19450000Y-5800000D02*
X19400000Y-5800000D01*
X19350000Y-5850000D02*
X19300000Y-5850000D01*
X19550000Y-5700000D02*
X19450000Y-5800000D01*
X16800000Y-6850000D02*
X15650000Y-6850000D01*
X18350000Y-6800000D02*
X16850000Y-6800000D01*
X17450000Y-4300000D02*
X17750000Y-4000000D01*
X16450000Y-4300000D02*
X17450000Y-4300000D01*
X16300000Y-5600000D02*
X16250000Y-5550000D01*
X15350000Y-5100000D02*
X15150000Y-4900000D01*
X15350000Y-5150000D02*
X15350000Y-5100000D01*
X16450000Y-5700000D02*
X16350000Y-5600000D01*
X15150000Y-4050000D02*
X15100000Y-4000000D01*
X15150000Y-4900000D02*
X15150000Y-4050000D01*
X15750000Y-5550000D02*
X15350000Y-5150000D01*
X16350000Y-5600000D02*
X16300000Y-5600000D01*
X16250000Y-5550000D02*
X15750000Y-5550000D01*
X4300000Y-5000000D02*
X3300000Y-5000000D01*
X16550000Y-7500000D02*
X16600000Y-7450000D01*
X15250000Y-7400000D02*
X15300000Y-7400000D01*
X14050000Y-6200000D02*
X15250000Y-7400000D01*
X8000000Y-5200000D02*
X8900000Y-6100000D01*
X8900000Y-6100000D02*
X10400000Y-6100000D01*
X15350000Y-7450000D02*
X15400000Y-7450000D01*
X13600000Y-6150000D02*
X13650000Y-6200000D01*
X13650000Y-6200000D02*
X14050000Y-6200000D01*
X15450000Y-7500000D02*
X16550000Y-7500000D01*
X7700000Y-5000000D02*
X7900000Y-5200000D01*
X15300000Y-7400000D02*
X15350000Y-7450000D01*
X10400000Y-6100000D02*
X10450000Y-6150000D01*
X7900000Y-5200000D02*
X8000000Y-5200000D01*
X16600000Y-7450000D02*
X17250000Y-7450000D01*
X15400000Y-7450000D02*
X15450000Y-7500000D01*
X10450000Y-6150000D02*
X13600000Y-6150000D01*
G04 #@! TA.AperFunction,Conductor*
G36*
X23458691Y-519407D02*
G01*
X23494655Y-568907D01*
X23499500Y-599500D01*
X23499500Y-7550597D01*
X23480593Y-7608788D01*
X23431093Y-7644752D01*
X23369907Y-7644752D01*
X23330496Y-7620601D01*
X23330106Y-7620211D01*
X23330104Y-7620208D01*
X23179792Y-7469896D01*
X23179788Y-7469893D01*
X23179786Y-7469891D01*
X23007819Y-7344950D01*
X23007815Y-7344948D01*
X22818412Y-7248443D01*
X22616238Y-7182752D01*
X22406290Y-7149500D01*
X22406287Y-7149500D01*
X22193713Y-7149500D01*
X22193710Y-7149500D01*
X21983761Y-7182752D01*
X21781587Y-7248443D01*
X21592184Y-7344948D01*
X21592180Y-7344950D01*
X21420213Y-7469891D01*
X21269891Y-7620213D01*
X21144950Y-7792180D01*
X21144948Y-7792184D01*
X21048443Y-7981587D01*
X20982752Y-8183761D01*
X20949500Y-8393709D01*
X20949500Y-8606290D01*
X20982752Y-8816238D01*
X21048443Y-9018412D01*
X21100499Y-9120579D01*
X21144949Y-9207816D01*
X21242664Y-9342310D01*
X21261571Y-9400500D01*
X21242664Y-9458691D01*
X21193164Y-9494655D01*
X21162571Y-9499500D01*
X599500Y-9499500D01*
X541309Y-9480593D01*
X505345Y-9431093D01*
X500500Y-9400500D01*
X500500Y-5150001D01*
X3600000Y-5150001D01*
X3600000Y-5874624D01*
X3614506Y-5947546D01*
X3614507Y-5947548D01*
X3669758Y-6030237D01*
X3669762Y-6030241D01*
X3752451Y-6085492D01*
X3752453Y-6085493D01*
X3825375Y-6099999D01*
X3825377Y-6100000D01*
X4149999Y-6100000D01*
X4150000Y-6099999D01*
X4150000Y-5150001D01*
X4450000Y-5150001D01*
X4450000Y-6099999D01*
X4450001Y-6100000D01*
X4774623Y-6100000D01*
X4774624Y-6099999D01*
X4847546Y-6085493D01*
X4847548Y-6085492D01*
X4930237Y-6030241D01*
X4930241Y-6030237D01*
X4985492Y-5947548D01*
X4985493Y-5947546D01*
X4999999Y-5874624D01*
X5000000Y-5874622D01*
X5000000Y-5150001D01*
X4999999Y-5150000D01*
X4450001Y-5150000D01*
X4450000Y-5150001D01*
X4150000Y-5150001D01*
X4149999Y-5150000D01*
X3600001Y-5150000D01*
X3600000Y-5150001D01*
X500500Y-5150001D01*
X500500Y-4125375D01*
X3600000Y-4125375D01*
X3600000Y-4849999D01*
X3600001Y-4850000D01*
X4149999Y-4850000D01*
X4150000Y-4849999D01*
X4150000Y-3900001D01*
X4450000Y-3900001D01*
X4450000Y-4849999D01*
X4450001Y-4850000D01*
X4999999Y-4850000D01*
X5000000Y-4849999D01*
X5000000Y-4130253D01*
X7049500Y-4130253D01*
X7049500Y-5869746D01*
X7049501Y-5869758D01*
X7061132Y-5928227D01*
X7061134Y-5928233D01*
X7069304Y-5940460D01*
X7105448Y-5994552D01*
X7105451Y-5994554D01*
X7158853Y-6030237D01*
X7171769Y-6038867D01*
X7216231Y-6047711D01*
X7230241Y-6050498D01*
X7230246Y-6050498D01*
X7230252Y-6050500D01*
X7230253Y-6050500D01*
X8169747Y-6050500D01*
X8169748Y-6050500D01*
X8228231Y-6038867D01*
X8271973Y-6009638D01*
X8330861Y-5993030D01*
X8388265Y-6014207D01*
X8396979Y-6021950D01*
X8659540Y-6284511D01*
X8659539Y-6284511D01*
X8715489Y-6340460D01*
X8784007Y-6380019D01*
X8784011Y-6380021D01*
X8860435Y-6400499D01*
X8860437Y-6400500D01*
X8860438Y-6400500D01*
X10256352Y-6400500D01*
X10305852Y-6413763D01*
X10334012Y-6430022D01*
X10410438Y-6450500D01*
X13456352Y-6450500D01*
X13505852Y-6463763D01*
X13534012Y-6480022D01*
X13610438Y-6500500D01*
X13884521Y-6500500D01*
X13942712Y-6519407D01*
X13954525Y-6529496D01*
X15009540Y-7584511D01*
X15009539Y-7584511D01*
X15045237Y-7620208D01*
X15065489Y-7640460D01*
X15134011Y-7680021D01*
X15134013Y-7680021D01*
X15134014Y-7680022D01*
X15146422Y-7683347D01*
X15165072Y-7690425D01*
X15167731Y-7691754D01*
X15234012Y-7730022D01*
X15256104Y-7735941D01*
X15265072Y-7740425D01*
X15266205Y-7741541D01*
X15270298Y-7743236D01*
X15334012Y-7780022D01*
X15410438Y-7800500D01*
X15410440Y-7800500D01*
X16589563Y-7800500D01*
X16589563Y-7800499D01*
X16665989Y-7780021D01*
X16676404Y-7774007D01*
X16694150Y-7763763D01*
X16743649Y-7750500D01*
X16801679Y-7750500D01*
X16859870Y-7769407D01*
X16871676Y-7779490D01*
X16942686Y-7850500D01*
X16942688Y-7850501D01*
X16942690Y-7850503D01*
X17056810Y-7916390D01*
X17056808Y-7916390D01*
X17056812Y-7916391D01*
X17056814Y-7916392D01*
X17184108Y-7950500D01*
X17184110Y-7950500D01*
X17315890Y-7950500D01*
X17315892Y-7950500D01*
X17443186Y-7916392D01*
X17443188Y-7916390D01*
X17443190Y-7916390D01*
X17557309Y-7850503D01*
X17557309Y-7850502D01*
X17557314Y-7850500D01*
X17650500Y-7757314D01*
X17654434Y-7750500D01*
X17716390Y-7643190D01*
X17716390Y-7643188D01*
X17716392Y-7643186D01*
X17750500Y-7515892D01*
X17750500Y-7384108D01*
X17716392Y-7256814D01*
X17711882Y-7249002D01*
X17699159Y-7189154D01*
X17724044Y-7133258D01*
X17777031Y-7102664D01*
X17797617Y-7100500D01*
X18389563Y-7100500D01*
X18389563Y-7100499D01*
X18465989Y-7080021D01*
X18534511Y-7040460D01*
X18590460Y-6984511D01*
X19195475Y-6379496D01*
X19249992Y-6351719D01*
X19265479Y-6350500D01*
X20319747Y-6350500D01*
X20319748Y-6350500D01*
X20378231Y-6338867D01*
X20444552Y-6294552D01*
X20488867Y-6228231D01*
X20500500Y-6169748D01*
X20500500Y-5230252D01*
X20488867Y-5171769D01*
X20444552Y-5105448D01*
X20409930Y-5082314D01*
X20372052Y-5034265D01*
X20369650Y-4973127D01*
X20403643Y-4922254D01*
X20409924Y-4917689D01*
X20444552Y-4894552D01*
X20488867Y-4828231D01*
X20500500Y-4769748D01*
X20500500Y-4699045D01*
X20519407Y-4640854D01*
X20568907Y-4604890D01*
X20586587Y-4600891D01*
X20589553Y-4600500D01*
X20589562Y-4600500D01*
X20665989Y-4580021D01*
X20734511Y-4540460D01*
X20745475Y-4529495D01*
X20799991Y-4501719D01*
X20815478Y-4500500D01*
X20915890Y-4500500D01*
X20915892Y-4500500D01*
X21043186Y-4466392D01*
X21043188Y-4466390D01*
X21043190Y-4466390D01*
X21157309Y-4400503D01*
X21157309Y-4400502D01*
X21157314Y-4400500D01*
X21250500Y-4307314D01*
X21316392Y-4193186D01*
X21350500Y-4065892D01*
X21350500Y-3934108D01*
X21316392Y-3806814D01*
X21316390Y-3806811D01*
X21316390Y-3806809D01*
X21250503Y-3692690D01*
X21250501Y-3692688D01*
X21250500Y-3692686D01*
X21157314Y-3599500D01*
X21157311Y-3599498D01*
X21157309Y-3599496D01*
X21043189Y-3533609D01*
X21043191Y-3533609D01*
X20993799Y-3520375D01*
X20915892Y-3499500D01*
X20784108Y-3499500D01*
X20706200Y-3520375D01*
X20656809Y-3533609D01*
X20542690Y-3599496D01*
X20542684Y-3599500D01*
X20497318Y-3644867D01*
X20442801Y-3672644D01*
X20387637Y-3663906D01*
X20387240Y-3664865D01*
X20383247Y-3663211D01*
X20382369Y-3663072D01*
X20381060Y-3662305D01*
X20378232Y-3661134D01*
X20378231Y-3661133D01*
X20319748Y-3649500D01*
X18780252Y-3649500D01*
X18780251Y-3649500D01*
X18780241Y-3649501D01*
X18721772Y-3661132D01*
X18721766Y-3661134D01*
X18655451Y-3705445D01*
X18655445Y-3705451D01*
X18611134Y-3771766D01*
X18611132Y-3771772D01*
X18599501Y-3830241D01*
X18599500Y-3830253D01*
X18599500Y-4769746D01*
X18599501Y-4769758D01*
X18611132Y-4828227D01*
X18611134Y-4828233D01*
X18627104Y-4852133D01*
X18655448Y-4894552D01*
X18655451Y-4894554D01*
X18690068Y-4917685D01*
X18727947Y-4965736D01*
X18730349Y-5026874D01*
X18696355Y-5077747D01*
X18690068Y-5082315D01*
X18655451Y-5105445D01*
X18655445Y-5105451D01*
X18611134Y-5171766D01*
X18611132Y-5171772D01*
X18599501Y-5230241D01*
X18599500Y-5230253D01*
X18599500Y-6084521D01*
X18580593Y-6142712D01*
X18570504Y-6154525D01*
X18254525Y-6470504D01*
X18200008Y-6498281D01*
X18184521Y-6499500D01*
X17364185Y-6499500D01*
X17305994Y-6480593D01*
X17270030Y-6431093D01*
X17270030Y-6369907D01*
X17305994Y-6320407D01*
X17309183Y-6318185D01*
X17344552Y-6294552D01*
X17388867Y-6228231D01*
X17400500Y-6169748D01*
X17400500Y-5230252D01*
X17388867Y-5171769D01*
X17344552Y-5105448D01*
X17309930Y-5082314D01*
X17272052Y-5034265D01*
X17269650Y-4973127D01*
X17303643Y-4922254D01*
X17309924Y-4917689D01*
X17344552Y-4894552D01*
X17388867Y-4828231D01*
X17400500Y-4769748D01*
X17400500Y-4699045D01*
X17419407Y-4640854D01*
X17468907Y-4604890D01*
X17486587Y-4600891D01*
X17489553Y-4600500D01*
X17489562Y-4600500D01*
X17565989Y-4580021D01*
X17634511Y-4540460D01*
X17645475Y-4529495D01*
X17699991Y-4501719D01*
X17715478Y-4500500D01*
X17815890Y-4500500D01*
X17815892Y-4500500D01*
X17943186Y-4466392D01*
X17943188Y-4466390D01*
X17943190Y-4466390D01*
X18057309Y-4400503D01*
X18057309Y-4400502D01*
X18057314Y-4400500D01*
X18150500Y-4307314D01*
X18216392Y-4193186D01*
X18250500Y-4065892D01*
X18250500Y-3934108D01*
X18216392Y-3806814D01*
X18216390Y-3806811D01*
X18216390Y-3806809D01*
X18150503Y-3692690D01*
X18150501Y-3692688D01*
X18150500Y-3692686D01*
X18057314Y-3599500D01*
X18057311Y-3599498D01*
X18057309Y-3599496D01*
X17943189Y-3533609D01*
X17943191Y-3533609D01*
X17893799Y-3520375D01*
X17815892Y-3499500D01*
X17684108Y-3499500D01*
X17606200Y-3520375D01*
X17556809Y-3533609D01*
X17442690Y-3599496D01*
X17442684Y-3599500D01*
X17397318Y-3644867D01*
X17342801Y-3672644D01*
X17287637Y-3663906D01*
X17287240Y-3664865D01*
X17283247Y-3663211D01*
X17282369Y-3663072D01*
X17281060Y-3662305D01*
X17278232Y-3661134D01*
X17278231Y-3661133D01*
X17219748Y-3649500D01*
X15680252Y-3649500D01*
X15680251Y-3649500D01*
X15680241Y-3649501D01*
X15621772Y-3661132D01*
X15621766Y-3661134D01*
X15597714Y-3677206D01*
X15538825Y-3693815D01*
X15481422Y-3672637D01*
X15472716Y-3664902D01*
X15407314Y-3599500D01*
X15407311Y-3599498D01*
X15407309Y-3599496D01*
X15293189Y-3533609D01*
X15293191Y-3533609D01*
X15243799Y-3520375D01*
X15165892Y-3499500D01*
X15034108Y-3499500D01*
X14956200Y-3520375D01*
X14906809Y-3533609D01*
X14792690Y-3599496D01*
X14699496Y-3692690D01*
X14633609Y-3806809D01*
X14614539Y-3877978D01*
X14599500Y-3934108D01*
X14599500Y-4065892D01*
X14629579Y-4178151D01*
X14633609Y-4193190D01*
X14699496Y-4307309D01*
X14699498Y-4307311D01*
X14699500Y-4307314D01*
X14792686Y-4400500D01*
X14799998Y-4404721D01*
X14840939Y-4450187D01*
X14849500Y-4490458D01*
X14849500Y-4939564D01*
X14869978Y-5015988D01*
X14895642Y-5060438D01*
X14909540Y-5084511D01*
X14909543Y-5084514D01*
X15043520Y-5218492D01*
X15067485Y-5259997D01*
X15067495Y-5259994D01*
X15067524Y-5260065D01*
X15069141Y-5262865D01*
X15069977Y-5265986D01*
X15069979Y-5265989D01*
X15101150Y-5319979D01*
X15109540Y-5334511D01*
X15470505Y-5695476D01*
X15498281Y-5749991D01*
X15499500Y-5765478D01*
X15499500Y-6169746D01*
X15499501Y-6169758D01*
X15511132Y-6228227D01*
X15511134Y-6228233D01*
X15514184Y-6232797D01*
X15530793Y-6291685D01*
X15509616Y-6349089D01*
X15462559Y-6380531D01*
X15462806Y-6381126D01*
X15459815Y-6382364D01*
X15458742Y-6383082D01*
X15457503Y-6383423D01*
X15456814Y-6383607D01*
X15456810Y-6383609D01*
X15342690Y-6449496D01*
X15249496Y-6542690D01*
X15183609Y-6656810D01*
X15183608Y-6656813D01*
X15174771Y-6689791D01*
X15141446Y-6741105D01*
X15084324Y-6763030D01*
X15025224Y-6747193D01*
X15009141Y-6734170D01*
X14624060Y-6349089D01*
X14234511Y-5959540D01*
X14234508Y-5959538D01*
X14201464Y-5940460D01*
X14201462Y-5940459D01*
X14165989Y-5919979D01*
X14165986Y-5919978D01*
X14089564Y-5899500D01*
X14089562Y-5899500D01*
X13793649Y-5899500D01*
X13744150Y-5886237D01*
X13715990Y-5869979D01*
X13715988Y-5869978D01*
X13639564Y-5849500D01*
X13639562Y-5849500D01*
X10593647Y-5849500D01*
X10544148Y-5836236D01*
X10515989Y-5819979D01*
X10515986Y-5819978D01*
X10439564Y-5799500D01*
X10439562Y-5799500D01*
X9065479Y-5799500D01*
X9007288Y-5780593D01*
X8995475Y-5770504D01*
X8379496Y-5154525D01*
X8351719Y-5100008D01*
X8350500Y-5084521D01*
X8350500Y-4130253D01*
X8350498Y-4130241D01*
X8347711Y-4116231D01*
X8338867Y-4071769D01*
X8294552Y-4005448D01*
X8294548Y-4005445D01*
X8228233Y-3961134D01*
X8228231Y-3961133D01*
X8228228Y-3961132D01*
X8228227Y-3961132D01*
X8169758Y-3949501D01*
X8169748Y-3949500D01*
X7230252Y-3949500D01*
X7230251Y-3949500D01*
X7230241Y-3949501D01*
X7171772Y-3961132D01*
X7171766Y-3961134D01*
X7105451Y-4005445D01*
X7105445Y-4005451D01*
X7061134Y-4071766D01*
X7061132Y-4071772D01*
X7049501Y-4130241D01*
X7049500Y-4130253D01*
X5000000Y-4130253D01*
X5000000Y-4125377D01*
X4999999Y-4125375D01*
X4985493Y-4052453D01*
X4985492Y-4052451D01*
X4930241Y-3969762D01*
X4930237Y-3969758D01*
X4847548Y-3914507D01*
X4847546Y-3914506D01*
X4774624Y-3900000D01*
X4450001Y-3900000D01*
X4450000Y-3900001D01*
X4150000Y-3900001D01*
X4149999Y-3900000D01*
X3825375Y-3900000D01*
X3752453Y-3914506D01*
X3752451Y-3914507D01*
X3669762Y-3969758D01*
X3669758Y-3969762D01*
X3614507Y-4052451D01*
X3614506Y-4052453D01*
X3600000Y-4125375D01*
X500500Y-4125375D01*
X500500Y-2649402D01*
X519407Y-2591211D01*
X568907Y-2555247D01*
X630093Y-2555247D01*
X669504Y-2579399D01*
X669893Y-2579788D01*
X669896Y-2579792D01*
X820206Y-2730102D01*
X820212Y-2730107D01*
X992180Y-2855049D01*
X992184Y-2855051D01*
X1181588Y-2951557D01*
X1383757Y-3017246D01*
X1383758Y-3017246D01*
X1383761Y-3017247D01*
X1593710Y-3050500D01*
X1593713Y-3050500D01*
X1806290Y-3050500D01*
X2016238Y-3017247D01*
X2016239Y-3017246D01*
X2016243Y-3017246D01*
X2218412Y-2951557D01*
X2407816Y-2855051D01*
X2579792Y-2730104D01*
X2730104Y-2579792D01*
X2855051Y-2407816D01*
X2951557Y-2218412D01*
X3017246Y-2016243D01*
X3050500Y-1806287D01*
X3050500Y-1593713D01*
X3050500Y-1593709D01*
X3017247Y-1383761D01*
X3017246Y-1383757D01*
X2951557Y-1181588D01*
X2855051Y-992184D01*
X2855049Y-992180D01*
X2730108Y-820213D01*
X2730106Y-820211D01*
X2730104Y-820208D01*
X2579792Y-669896D01*
X2579788Y-669893D01*
X2579399Y-669504D01*
X2551622Y-614987D01*
X2561193Y-554555D01*
X2604458Y-511290D01*
X2649403Y-500500D01*
X23400500Y-500500D01*
X23458691Y-519407D01*
G37*
G04 #@! TD.AperFunction*
M02*
