M48
; DRILL file KiCad 10.0.1 date 2026-09-07T23:42:01
; FORMAT={-:-/ absolute / metric / decimal}
; #@! TF.CreationDate,2026-09-07T23:42:01-05:00
; #@! TF.GenerationSoftware,Kicad,Pcbnew,10.0.1
; #@! TF.FileFunction,Plated,1,2,PTH
FMAT,2
METRIC
; #@! TA.AperFunction,Plated,PTH,ViaDrill
T1C0.300
; #@! TA.AperFunction,Plated,PTH,ComponentDrill
T2C0.900
; #@! TA.AperFunction,Plated,PTH,ComponentDrill
T3C1.000
%
G90
G05
T1
X5.45Y-19.15
X5.85Y-25.05
X9.75Y-27.85
X11.05Y-25.05
X11.7Y-24.2
X13.1Y-22.85
X13.65Y-27.35
X14.45Y-13.7
X15.7Y-14.35
X17.95Y-6.85
X17.95Y-9.65
T2
X4.0Y-13.5
X4.0Y-16.0
X4.0Y-18.5
T3
X16.75Y-3.75
X16.75Y-8.25
X16.75Y-15.75
X16.75Y-20.25
X16.75Y-27.75
X16.75Y-32.25
X23.25Y-3.75
X23.25Y-8.25
X23.25Y-15.75
X23.25Y-20.25
X23.25Y-27.75
X23.25Y-32.25
M30
