M48
; DRILL file KiCad 10.0.1 date 2026-09-07T23:42:02
; FORMAT={-:-/ absolute / metric / decimal}
; #@! TF.CreationDate,2026-09-07T23:42:02-05:00
; #@! TF.GenerationSoftware,Kicad,Pcbnew,10.0.1
; #@! TF.FileFunction,Plated,1,4,PTH
FMAT,2
METRIC
; #@! TA.AperFunction,Plated,PTH,ViaDrill
T1C0.200
; #@! TA.AperFunction,Plated,PTH,ViaDrill
T2C0.250
; #@! TA.AperFunction,Plated,PTH,ViaDrill
T3C0.300
; #@! TA.AperFunction,Plated,PTH,ComponentDrill
T4C0.300
; #@! TA.AperFunction,Plated,PTH,ViaDrill
T5C0.400
; #@! TA.AperFunction,Plated,PTH,ComponentDrill
T6C0.600
; #@! TA.AperFunction,Plated,PTH,ComponentDrill
T7C1.000
; #@! TA.AperFunction,Plated,PTH,ComponentDrill
T8C1.850
%
G90
G05
T1
X110.8Y-101.85
X113.0Y-96.9
X113.0Y-98.2
X114.0Y-102.9
X115.1Y-101.3
X133.8Y-101.85
X136.0Y-96.9
X136.0Y-98.2
X137.0Y-102.9
X138.1Y-101.3
T2
X101.4Y-100.3
X101.4Y-107.65
X102.75Y-101.3
X102.75Y-108.65
X104.45Y-108.05
X106.5Y-93.55
X106.5Y-97.55
X107.05Y-83.95
X107.05Y-92.05
X107.65Y-84.5
X107.65Y-85.9
X107.75Y-89.35
X107.75Y-105.7
X108.2Y-83.2
X109.0Y-71.25
X109.0Y-107.75
X109.25Y-81.7
X109.65Y-103.5
X109.65Y-107.3
X109.75Y-112.95
X109.8Y-109.25
X110.0Y-88.0
X110.05Y-101.9
X110.25Y-84.0
X110.25Y-106.25
X112.35Y-102.8
X112.5Y-103.55
X112.7Y-110.9
X112.9Y-107.2
X113.3Y-105.25
X114.25Y-83.5
X115.0Y-71.25
X115.05Y-79.65
X116.25Y-82.0
X116.3Y-92.0
X117.0Y-112.95
X117.55Y-103.5
X117.75Y-75.75
X119.05Y-80.15
X119.5Y-98.6
X120.25Y-75.5
X120.25Y-101.55
X120.6Y-98.6
X120.75Y-74.8
X120.8Y-83.8
X120.95Y-73.0
X121.5Y-106.95
X122.25Y-74.7
X122.5Y-71.0
X122.65Y-78.9
X122.7Y-98.6
X123.0Y-82.15
X125.5Y-76.25
X125.9Y-98.6
X126.0Y-78.86
X126.0Y-83.15
X126.35Y-84.0
X126.75Y-84.65
X127.65Y-93.6
X128.0Y-87.15
X128.0Y-103.6
X129.3Y-90.25
X129.5Y-93.55
X129.5Y-97.55
X130.1Y-86.3
X130.8Y-106.65
X131.25Y-93.0
X132.3Y-90.25
X132.3Y-103.75
X133.05Y-101.9
X133.05Y-103.6
X133.1Y-91.55
X133.3Y-107.05
X133.75Y-98.4
X134.3Y-104.95
X135.05Y-102.8
X135.2Y-80.85
X135.9Y-94.55
X136.2Y-95.6
X136.3Y-105.25
X137.1Y-105.05
X137.5Y-108.0
X137.6Y-99.45
X138.45Y-93.35
X138.85Y-87.75
X139.4Y-84.05
X140.05Y-84.45
X140.15Y-85.55
X140.55Y-103.5
X141.2Y-82.7
X141.25Y-88.7
X142.05Y-93.65
X142.5Y-98.6
X142.75Y-90.85
X142.9Y-91.6
X143.0Y-87.6
X143.1Y-73.2
X143.3Y-92.7
X143.45Y-90.5
X143.55Y-74.05
X144.2Y-76.5
X144.25Y-96.0
X145.0Y-73.75
X145.15Y-93.45
X145.7Y-98.6
X145.9Y-87.2
X145.95Y-75.45
X146.05Y-94.85
X146.65Y-91.7
X147.2Y-104.95
X147.55Y-94.1
X147.55Y-106.1
X148.1Y-93.55
X148.9Y-98.6
X149.1Y-94.9
X150.0Y-104.7
X150.5Y-72.6
X150.8Y-99.15
X150.9Y-94.05
X150.9Y-96.55
X151.45Y-78.5
X151.65Y-91.2
X152.2Y-76.8
X152.45Y-105.65
X153.2Y-81.55
X153.2Y-83.8
X153.55Y-80.15
X154.65Y-75.85
X154.65Y-80.15
X154.7Y-82.25
X155.2Y-83.75
X155.5Y-90.75
X155.65Y-87.65
X156.25Y-79.6
X156.65Y-97.7
X157.95Y-80.2
X158.0Y-77.35
X159.1Y-98.4
X159.25Y-81.0
T3
X109.975Y-98.55
X111.0Y-118.25
X112.0Y-82.25
X116.025Y-98.55
X117.0Y-118.25
X117.25Y-117.0
X118.0Y-84.0
X127.0Y-82.25
X132.975Y-98.55
X133.0Y-82.25
X139.025Y-98.55
X152.15Y-99.15
X153.25Y-92.3
X156.65Y-94.9
X156.65Y-95.7
X156.65Y-96.5
X156.7Y-111.5
X159.5Y-106.3
X160.0Y-95.5
X160.0Y-97.5
X161.0Y-91.8
T4
X130.1Y-78.26
X130.1Y-79.66
X130.8Y-77.56
X130.8Y-78.96
X130.8Y-80.36
X131.5Y-78.26
X131.5Y-79.66
X132.2Y-77.56
X132.2Y-78.96
X132.2Y-80.36
X132.9Y-78.26
X132.9Y-79.66
T5
X108.05Y-108.4
X110.15Y-108.05
X110.4Y-97.45
X114.35Y-105.3
X116.3Y-88.5
X117.7Y-78.4
X117.7Y-102.6
X119.35Y-81.85
X119.6Y-104.9
X120.1Y-91.7
X120.9Y-109.15
X141.3Y-104.0
X146.1Y-90.3
X146.35Y-99.3
X148.15Y-99.3
X152.15Y-77.7
X155.75Y-77.7
T7
X145.0Y-108.0
X147.54Y-108.0
X150.08Y-108.0
X152.62Y-108.0
X155.16Y-108.0
T8
X148.3Y-86.5
X153.0Y-86.5
X157.7Y-86.5
T6
X101.65Y-83.68G85X101.05Y-83.68
G05
X101.65Y-92.32G85X101.05Y-92.32
G05
X106.08Y-83.68G85X104.98Y-83.68
G05
X106.08Y-92.32G85X104.98Y-92.32
G05
M30
