M48
; DRILL file KiCad 10.0.1 date 2026-09-07T23:42:00
; FORMAT={-:-/ absolute / metric / decimal}
; #@! TF.CreationDate,2026-09-07T23:42:00-05:00
; #@! TF.GenerationSoftware,Kicad,Pcbnew,10.0.1
; #@! TF.FileFunction,Plated,1,4,PTH
FMAT,2
METRIC
; #@! TA.AperFunction,Plated,PTH,ViaDrill
T1C0.200
; #@! TA.AperFunction,Plated,PTH,ViaDrill
T2C0.250
; #@! TA.AperFunction,Plated,PTH,ViaDrill
T3C0.300
; #@! TA.AperFunction,Plated,PTH,ComponentDrill
T4C0.300
; #@! TA.AperFunction,Plated,PTH,ViaDrill
T5C0.400
; #@! TA.AperFunction,Plated,PTH,ComponentDrill
T6C0.600
; #@! TA.AperFunction,Plated,PTH,ComponentDrill
T7C1.100
%
G90
G05
T1
X110.8Y-101.85
X113.0Y-96.9
X113.0Y-98.2
X114.0Y-102.9
X115.1Y-101.3
X133.8Y-101.85
X136.0Y-96.9
X136.0Y-98.2
X137.0Y-102.9
X138.1Y-101.3
X150.65Y-106.5
X153.0Y-106.0
X154.3Y-97.25
X159.3Y-97.75
T2
X101.4Y-100.3
X101.4Y-107.65
X102.75Y-101.3
X102.75Y-108.65
X104.45Y-108.05
X106.25Y-105.15
X106.5Y-93.55
X106.5Y-97.55
X107.05Y-83.95
X107.05Y-92.05
X107.65Y-84.5
X107.65Y-85.9
X107.75Y-89.35
X107.75Y-105.7
X108.0Y-107.3
X108.2Y-83.2
X109.0Y-71.25
X109.0Y-107.75
X109.15Y-105.7
X109.25Y-81.7
X109.65Y-103.5
X109.65Y-107.3
X109.8Y-109.25
X110.0Y-88.0
X110.0Y-122.8
X110.05Y-101.9
X110.25Y-84.0
X110.25Y-106.25
X110.55Y-122.25
X110.8Y-118.1
X112.25Y-117.0
X112.35Y-102.8
X112.5Y-103.55
X112.7Y-108.8
X113.3Y-105.25
X114.25Y-83.5
X115.0Y-71.25
X115.05Y-79.65
X115.6Y-123.85
X116.25Y-82.0
X116.3Y-92.0
X117.1Y-122.15
X117.55Y-103.5
X119.0Y-112.5
X119.05Y-80.15
X119.5Y-98.6
X120.25Y-75.5
X120.75Y-74.8
X120.95Y-73.0
X121.5Y-106.95
X122.25Y-74.7
X122.5Y-71.0
X122.65Y-78.9
X122.7Y-98.6
X122.8Y-79.65
X123.0Y-77.65
X123.45Y-118.05
X123.85Y-116.2
X124.95Y-124.0
X125.5Y-75.05
X125.5Y-78.25
X125.5Y-113.45
X125.9Y-98.6
X126.0Y-78.86
X126.0Y-83.15
X126.0Y-122.55
X126.0Y-123.35
X126.55Y-84.65
X127.1Y-85.75
X127.25Y-117.0
X127.25Y-122.0
X127.65Y-93.6
X129.05Y-90.25
X129.5Y-93.55
X129.5Y-97.55
X129.85Y-90.25
X130.8Y-106.65
X131.25Y-93.0
X131.85Y-90.25
X132.0Y-113.65
X132.2Y-85.65
X132.3Y-103.75
X133.05Y-101.9
X133.05Y-103.6
X133.1Y-91.55
X133.3Y-86.15
X133.75Y-98.4
X133.9Y-117.25
X134.3Y-104.95
X134.3Y-112.0
X134.8Y-115.85
X135.05Y-102.8
X136.2Y-95.6
X136.3Y-105.25
X136.5Y-113.65
X136.9Y-93.35
X137.5Y-108.0
X137.95Y-99.1
X138.25Y-120.75
X138.35Y-114.55
X138.4Y-82.45
X138.5Y-97.75
X138.85Y-115.45
X139.0Y-116.2
X139.1Y-82.75
X139.8Y-87.0
X139.95Y-98.45
X140.0Y-81.4
X140.5Y-86.7
X140.5Y-95.75
X140.55Y-103.5
X140.55Y-122.9
X140.8Y-93.35
X141.0Y-120.75
X141.4Y-90.5
X141.95Y-101.6
X142.05Y-93.65
X142.25Y-117.0
X142.5Y-98.6
X143.0Y-76.3
X143.0Y-87.0
X143.0Y-106.75
X143.1Y-73.2
X143.25Y-118.5
X143.3Y-92.7
X143.55Y-74.05
X143.55Y-87.6
X143.75Y-86.75
X144.05Y-97.1
X144.1Y-89.15
X144.2Y-76.5
X144.2Y-108.4
X144.25Y-96.0
X145.0Y-73.75
X145.05Y-122.2
X145.15Y-93.45
X145.7Y-98.6
X145.8Y-87.2
X145.95Y-75.45
X146.5Y-108.0
X147.75Y-111.0
X148.0Y-85.25
X148.25Y-109.75
X148.6Y-95.3
X148.9Y-98.6
X149.0Y-85.35
X149.65Y-102.65
X149.65Y-103.55
X149.75Y-109.25
X149.8Y-98.7
X149.95Y-106.75
X150.0Y-104.7
X150.5Y-72.6
X150.8Y-107.85
X151.05Y-101.65
X151.45Y-78.5
X151.55Y-104.65
X151.55Y-107.35
X152.2Y-76.8
X152.3Y-102.85
X152.95Y-102.3
X153.2Y-81.55
X153.2Y-84.25
X153.4Y-115.0
X153.55Y-80.15
X153.95Y-111.5
X154.0Y-85.25
X154.2Y-93.75
X154.45Y-104.65
X154.65Y-75.85
X154.65Y-80.15
X154.7Y-82.25
X154.75Y-109.2
X154.85Y-94.6
X155.2Y-83.75
X155.5Y-90.75
X155.5Y-96.05
X155.6Y-98.9
X155.8Y-93.8
X156.25Y-79.6
X156.25Y-102.5
X156.3Y-92.5
X156.45Y-95.9
X157.25Y-117.0
X157.5Y-95.8
X157.95Y-80.2
X158.0Y-77.35
X158.7Y-101.0
X159.25Y-81.0
X160.2Y-97.2
X160.55Y-94.95
X161.8Y-99.1
T3
X105.45Y-123.95
X109.975Y-98.55
X111.25Y-123.0
X116.025Y-98.55
X124.0Y-121.0
X132.975Y-98.55
X139.025Y-98.55
X141.1Y-123.95
T4
X130.1Y-78.26
X130.1Y-79.66
X130.8Y-77.56
X130.8Y-78.96
X130.8Y-80.36
X131.5Y-78.26
X131.5Y-79.66
X132.2Y-77.56
X132.2Y-78.96
X132.2Y-80.36
X132.9Y-78.26
X132.9Y-79.66
T5
X108.05Y-108.4
X108.8Y-116.05
X110.15Y-108.05
X110.4Y-97.45
X111.15Y-106.15
X114.35Y-105.3
X116.3Y-88.5
X117.0Y-86.8
X117.7Y-78.4
X117.7Y-102.6
X119.35Y-81.85
X119.6Y-104.9
X120.1Y-91.7
X120.9Y-109.15
X141.3Y-104.0
X146.1Y-90.3
X146.35Y-99.3
X146.35Y-106.15
X148.15Y-99.3
X148.9Y-108.0
X149.05Y-93.95
X149.1Y-106.4
X149.95Y-111.3
X150.35Y-114.3
X152.15Y-77.7
X153.3Y-93.6
X153.55Y-96.55
X154.5Y-107.5
X155.75Y-77.7
T7
X161.0Y-86.0
X161.0Y-88.54
X161.0Y-91.08
X161.0Y-93.62
T6
X101.65Y-83.68G85X101.05Y-83.68
G05
X101.65Y-92.32G85X101.05Y-92.32
G05
X106.08Y-83.68G85X104.98Y-83.68
G05
X106.08Y-92.32G85X104.98Y-92.32
G05
M30
