<?xml version="1.0" encoding="utf-8"?>
<svg width="31.0mm" height="38.0mm" viewBox="-2.0 -36.0 31.0 38.0" style="background-color:white" xmlns="http://www.w3.org/2000/svg" xmlns:xlink="http://www.w3.org/1999/xlink">
  <g stroke-linejoin="round" stroke-linecap="round" id="l-mechanical-outline" transform="translate(0 -34.0) scale(1 -1)">
    <path d="M 0.0 0.0 L 27.0 0.0" fill="none" stroke="#888888" stroke-linecap="round" stroke-linejoin="round" stroke-width="0.05"/>
    <path d="M 0.0 -34.0 L 0.0 0.0" fill="none" stroke="#888888" stroke-linecap="round" stroke-linejoin="round" stroke-width="0.05"/>
    <path d="M 27.0 0.0 L 27.0 -34.0 L 0.0 -34.0" fill="none" stroke="#888888" stroke-linecap="round" stroke-linejoin="round" stroke-width="0.05"/>
  </g>
  <g stroke-linejoin="round" stroke-linecap="round" id="l-bottom-paste" transform="translate(0 -34.0) scale(1 -1)">
    <path d="M 13.05 -25.75 L 13.05 -27.15 A 0.15 0.15 0 0 0 12.9 -27.3 L 12.6 -27.3 A 0.15 0.15 0 0 0 12.45 -27.15 L 12.45 -25.75 A 0.15 0.15 0 0 0 12.6 -25.6 L 12.9 -25.6 A 0.15 0.15 0 0 0 13.05 -25.75" fill="#111111"/>
    <path d="M 11.8 -25.75 L 11.8 -27.15 A 0.15 0.15 0 0 0 11.65 -27.3 L 11.35 -27.3 A 0.15 0.15 0 0 0 11.2 -27.15 L 11.2 -25.75 A 0.15 0.15 0 0 0 11.35 -25.6 L 11.65 -25.6 A 0.15 0.15 0 0 0 11.8 -25.75" fill="#111111"/>
    <path d="M 10.55 -25.75 L 10.55 -27.15 A 0.15 0.15 0 0 0 10.4 -27.3 L 10.1 -27.3 A 0.15 0.15 0 0 0 9.95 -27.15 L 9.95 -25.75 A 0.15 0.15 0 0 0 10.1 -25.6 L 10.4 -25.6 A 0.15 0.15 0 0 0 10.55 -25.75" fill="#111111"/>
    <path d="M 9.3 -25.75 L 9.3 -27.15 A 0.15 0.15 0 0 0 9.15 -27.3 L 8.85 -27.3 A 0.15 0.15 0 0 0 8.7 -27.15 L 8.7 -25.75 A 0.15 0.15 0 0 0 8.85 -25.6 L 9.15 -25.6 A 0.15 0.15 0 0 0 9.3 -25.75" fill="#111111"/>
    <path d="M 8.05 -25.75 L 8.05 -27.15 A 0.15 0.15 0 0 0 7.9 -27.3 L 7.6 -27.3 A 0.15 0.15 0 0 0 7.45 -27.15 L 7.45 -25.75 A 0.15 0.15 0 0 0 7.6 -25.6 L 7.9 -25.6 A 0.15 0.15 0 0 0 8.05 -25.75" fill="#111111"/>
    <path d="M 6.8 -25.75 L 6.8 -27.15 A 0.15 0.15 0 0 0 6.65 -27.3 L 6.35 -27.3 A 0.15 0.15 0 0 0 6.2 -27.15 L 6.2 -25.75 A 0.15 0.15 0 0 0 6.35 -25.6 L 6.65 -25.6 A 0.15 0.15 0 0 0 6.8 -25.75" fill="#111111"/>
    <path d="M 5.55 -25.75 L 5.55 -27.15 A 0.15 0.15 0 0 0 5.4 -27.3 L 5.1 -27.3 A 0.15 0.15 0 0 0 4.95 -27.15 L 4.95 -25.75 A 0.15 0.15 0 0 0 5.1 -25.6 L 5.4 -25.6 A 0.15 0.15 0 0 0 5.55 -25.75" fill="#111111"/>
    <path d="M 15.1 -21.95 L 15.1 -24.25 A 0.25 0.25 0 0 0 14.85 -24.5 L 14.35 -24.5 A 0.25 0.25 0 0 0 14.1 -24.25 L 14.1 -21.95 A 0.25 0.25 0 0 0 14.35 -21.7 L 14.85 -21.7 A 0.25 0.25 0 0 0 15.1 -21.95" fill="#111111"/>
    <path d="M 3.9 -21.95 L 3.9 -24.25 A 0.25 0.25 0 0 0 3.65 -24.5 L 3.15 -24.5 A 0.25 0.25 0 0 0 2.9 -24.25 L 2.9 -21.95 A 0.25 0.25 0 0 0 3.15 -21.7 L 3.65 -21.7 A 0.25 0.25 0 0 0 3.9 -21.95" fill="#111111"/>
  </g>
</svg>