<?xml version="1.0" encoding="utf-8"?>
<svg width="68.0mm" height="60.0mm" viewBox="98.0 -128.0 68.0 60.0" style="background-color:white" xmlns="http://www.w3.org/2000/svg" xmlns:xlink="http://www.w3.org/1999/xlink">
  <g stroke-linejoin="round" stroke-linecap="round" id="l-mechanical-outline" transform="translate(0 -196.0) scale(1 -1)">
    <path d="M 100.0 -70.0 L 164.0 -70.0" fill="none" stroke="#888888" stroke-linecap="round" stroke-linejoin="round" stroke-width="0.05"/>
    <path d="M 100.0 -126.0 L 100.0 -70.0" fill="none" stroke="#888888" stroke-linecap="round" stroke-linejoin="round" stroke-width="0.05"/>
    <path d="M 164.0 -70.0 L 164.0 -126.0 L 100.0 -126.0" fill="none" stroke="#888888" stroke-linecap="round" stroke-linejoin="round" stroke-width="0.05"/>
  </g>
  <g stroke-linejoin="round" stroke-linecap="round" id="l-bottom-silk" transform="translate(0 -196.0) scale(1 -1)">
    <path d="M 113.048 -121.455 L 113.048 -122.169 L 113.095 -122.312 L 113.19 -122.407 L 113.333 -122.455 L 113.429 -122.455" fill="none" stroke="#111111" stroke-linecap="round" stroke-linejoin="round" stroke-width="0.15"/>
    <path d="M 112.095 -121.455 L 112.571 -121.455 L 112.619 -121.931 L 112.571 -121.883 L 112.476 -121.836 L 112.238 -121.836 L 112.143 -121.883 L 112.095 -121.931 L 112.048 -122.026 L 112.048 -122.264 L 112.095 -122.36 L 112.143 -122.407 L 112.238 -122.455 L 112.476 -122.455 L 112.571 -122.407 L 112.619 -122.36" fill="none" stroke="#111111" stroke-linecap="round" stroke-linejoin="round" stroke-width="0.15"/>
    <path d="M 110.905 -122.407 L 110.762 -122.455 L 110.524 -122.455 L 110.429 -122.407 L 110.381 -122.36 L 110.333 -122.264 L 110.333 -122.169 L 110.381 -122.074 L 110.429 -122.026 L 110.524 -121.979 L 110.714 -121.931 L 110.81 -121.883 L 110.857 -121.836 L 110.905 -121.741 L 110.905 -121.645 L 110.857 -121.55 L 110.81 -121.502 L 110.714 -121.455 L 110.476 -121.455 L 110.333 -121.502" fill="none" stroke="#111111" stroke-linecap="round" stroke-linejoin="round" stroke-width="0.15"/>
    <path d="M 109.905 -121.931 L 109.571 -121.931" fill="none" stroke="#111111" stroke-linecap="round" stroke-linejoin="round" stroke-width="0.15"/>
    <path d="M 109.429 -122.455 L 109.905 -122.455 L 109.905 -121.455 L 109.429 -121.455" fill="none" stroke="#111111" stroke-linecap="round" stroke-linejoin="round" stroke-width="0.15"/>
    <path d="M 109.143 -121.455 L 108.571 -121.455" fill="none" stroke="#111111" stroke-linecap="round" stroke-linejoin="round" stroke-width="0.15"/>
    <path d="M 108.857 -122.455 L 108.857 -121.455" fill="none" stroke="#111111" stroke-linecap="round" stroke-linejoin="round" stroke-width="0.15"/>
    <path d="M 108.238 -121.455 L 108.238 -122.264 L 108.19 -122.36 L 108.143 -122.407 L 108.048 -122.455 L 107.857 -122.455 L 107.762 -122.407 L 107.714 -122.36 L 107.667 -122.264 L 107.667 -121.455" fill="none" stroke="#111111" stroke-linecap="round" stroke-linejoin="round" stroke-width="0.15"/>
    <path d="M 107.19 -122.455 L 107.19 -121.455 L 106.81 -121.455 L 106.714 -121.502 L 106.667 -121.55 L 106.619 -121.645 L 106.619 -121.788 L 106.667 -121.883 L 106.714 -121.931 L 106.81 -121.979 L 107.19 -121.979" fill="none" stroke="#111111" stroke-linecap="round" stroke-linejoin="round" stroke-width="0.15"/>
    <path d="M 128.548 -121.455 L 128.548 -122.169 L 128.595 -122.312 L 128.69 -122.407 L 128.833 -122.455 L 128.929 -122.455" fill="none" stroke="#111111" stroke-linecap="round" stroke-linejoin="round" stroke-width="0.15"/>
    <path d="M 128.167 -121.455 L 127.5 -121.455 L 127.929 -122.455" fill="none" stroke="#111111" stroke-linecap="round" stroke-linejoin="round" stroke-width="0.15"/>
    <path d="M 126.357 -121.455 L 126.357 -122.264 L 126.31 -122.36 L 126.262 -122.407 L 126.167 -122.455 L 125.976 -122.455 L 125.881 -122.407 L 125.833 -122.36 L 125.786 -122.264 L 125.786 -121.455" fill="none" stroke="#111111" stroke-linecap="round" stroke-linejoin="round" stroke-width="0.15"/>
    <path d="M 125.357 -122.169 L 124.881 -122.169" fill="none" stroke="#111111" stroke-linecap="round" stroke-linejoin="round" stroke-width="0.15"/>
    <path d="M 125.452 -122.455 L 125.119 -121.455 L 124.786 -122.455" fill="none" stroke="#111111" stroke-linecap="round" stroke-linejoin="round" stroke-width="0.15"/>
    <path d="M 123.881 -122.455 L 124.214 -121.979" fill="none" stroke="#111111" stroke-linecap="round" stroke-linejoin="round" stroke-width="0.15"/>
    <path d="M 124.452 -122.455 L 124.452 -121.455 L 124.071 -121.455 L 123.976 -121.502 L 123.929 -121.55 L 123.881 -121.645 L 123.881 -121.788 L 123.929 -121.883 L 123.976 -121.931 L 124.071 -121.979 L 124.452 -121.979" fill="none" stroke="#111111" stroke-linecap="round" stroke-linejoin="round" stroke-width="0.15"/>
    <path d="M 123.595 -121.455 L 123.024 -121.455" fill="none" stroke="#111111" stroke-linecap="round" stroke-linejoin="round" stroke-width="0.15"/>
    <path d="M 123.31 -122.455 L 123.31 -121.455" fill="none" stroke="#111111" stroke-linecap="round" stroke-linejoin="round" stroke-width="0.15"/>
    <path d="M 148.071 -121.455 L 148.071 -122.169 L 148.119 -122.312 L 148.214 -122.407 L 148.357 -122.455 L 148.452 -122.455" fill="none" stroke="#111111" stroke-linecap="round" stroke-linejoin="round" stroke-width="0.15"/>
    <path d="M 147.167 -121.455 L 147.357 -121.455 L 147.452 -121.502 L 147.5 -121.55 L 147.595 -121.693 L 147.643 -121.883 L 147.643 -122.264 L 147.595 -122.36 L 147.548 -122.407 L 147.452 -122.455 L 147.262 -122.455 L 147.167 -122.407 L 147.119 -122.36 L 147.071 -122.264 L 147.071 -122.026 L 147.119 -121.931 L 147.167 -121.883 L 147.262 -121.836 L 147.452 -121.836 L 147.548 -121.883 L 147.595 -121.931 L 147.643 -122.026" fill="none" stroke="#111111" stroke-linecap="round" stroke-linejoin="round" stroke-width="0.15"/>
    <path d="M 145.548 -121.931 L 145.881 -121.931" fill="none" stroke="#111111" stroke-linecap="round" stroke-linejoin="round" stroke-width="0.15"/>
    <path d="M 145.881 -122.455 L 145.881 -121.455 L 145.405 -121.455" fill="none" stroke="#111111" stroke-linecap="round" stroke-linejoin="round" stroke-width="0.15"/>
    <path d="M 144.452 -122.455 L 144.786 -121.979" fill="none" stroke="#111111" stroke-linecap="round" stroke-linejoin="round" stroke-width="0.15"/>
    <path d="M 145.024 -122.455 L 145.024 -121.455 L 144.643 -121.455 L 144.548 -121.502 L 144.5 -121.55 L 144.452 -121.645 L 144.452 -121.788 L 144.5 -121.883 L 144.548 -121.931 L 144.643 -121.979 L 145.024 -121.979" fill="none" stroke="#111111" stroke-linecap="round" stroke-linejoin="round" stroke-width="0.15"/>
    <path d="M 143.833 -121.455 L 143.643 -121.455 L 143.548 -121.502 L 143.452 -121.598 L 143.405 -121.788 L 143.405 -122.121 L 143.452 -122.312 L 143.548 -122.407 L 143.643 -122.455 L 143.833 -122.455 L 143.929 -122.407 L 144.024 -122.312 L 144.071 -122.121 L 144.071 -121.788 L 144.024 -121.598 L 143.929 -121.502 L 143.833 -121.455" fill="none" stroke="#111111" stroke-linecap="round" stroke-linejoin="round" stroke-width="0.15"/>
    <path d="M 142.976 -122.455 L 142.976 -121.455 L 142.405 -122.455 L 142.405 -121.455" fill="none" stroke="#111111" stroke-linecap="round" stroke-linejoin="round" stroke-width="0.15"/>
    <path d="M 142.071 -121.455 L 141.5 -121.455" fill="none" stroke="#111111" stroke-linecap="round" stroke-linejoin="round" stroke-width="0.15"/>
    <path d="M 141.786 -122.455 L 141.786 -121.455" fill="none" stroke="#111111" stroke-linecap="round" stroke-linejoin="round" stroke-width="0.15"/>
    <path d="M 122.7 -108.0 A 0.7 0.7 0 0 0 121.3 -108.0" fill="none" stroke="#111111" stroke-width="0.12" stroke-linecap="round"/>
    <path d="M 121.3 -108.0 A 0.7 0.7 0 0 0 122.7 -108.0" fill="none" stroke="#111111" stroke-width="0.12" stroke-linecap="round"/>
    <path d="M 140.7 -110.0 A 0.7 0.7 0 0 0 139.3 -110.0" fill="none" stroke="#111111" stroke-width="0.12" stroke-linecap="round"/>
    <path d="M 139.3 -110.0 A 0.7 0.7 0 0 0 140.7 -110.0" fill="none" stroke="#111111" stroke-width="0.12" stroke-linecap="round"/>
    <path d="M 120.7 -106.0 A 0.7 0.7 0 0 0 119.3 -106.0" fill="none" stroke="#111111" stroke-width="0.12" stroke-linecap="round"/>
    <path d="M 119.3 -106.0 A 0.7 0.7 0 0 0 120.7 -106.0" fill="none" stroke="#111111" stroke-width="0.12" stroke-linecap="round"/>
    <path d="M 109.7 -91.0 A 0.7 0.7 0 0 0 108.3 -91.0" fill="none" stroke="#111111" stroke-width="0.12" stroke-linecap="round"/>
    <path d="M 108.3 -91.0 A 0.7 0.7 0 0 0 109.7 -91.0" fill="none" stroke="#111111" stroke-width="0.12" stroke-linecap="round"/>
    <path d="M 119.7 -91.0 A 0.7 0.7 0 0 0 118.3 -91.0" fill="none" stroke="#111111" stroke-width="0.12" stroke-linecap="round"/>
    <path d="M 118.3 -91.0 A 0.7 0.7 0 0 0 119.7 -91.0" fill="none" stroke="#111111" stroke-width="0.12" stroke-linecap="round"/>
    <path d="M 141.7 -106.0 A 0.7 0.7 0 0 0 140.3 -106.0" fill="none" stroke="#111111" stroke-width="0.12" stroke-linecap="round"/>
    <path d="M 140.3 -106.0 A 0.7 0.7 0 0 0 141.7 -106.0" fill="none" stroke="#111111" stroke-width="0.12" stroke-linecap="round"/>
    <path d="M 120.7 -92.8 A 0.7 0.7 0 0 0 119.3 -92.8" fill="none" stroke="#111111" stroke-width="0.12" stroke-linecap="round"/>
    <path d="M 119.3 -92.8 A 0.7 0.7 0 0 0 120.7 -92.8" fill="none" stroke="#111111" stroke-width="0.12" stroke-linecap="round"/>
    <path d="M 139.7 -92.0 A 0.7 0.7 0 0 0 138.3 -92.0" fill="none" stroke="#111111" stroke-width="0.12" stroke-linecap="round"/>
    <path d="M 138.3 -92.0 A 0.7 0.7 0 0 0 139.7 -92.0" fill="none" stroke="#111111" stroke-width="0.12" stroke-linecap="round"/>
    <circle cx="104.0" cy="-113.0" r="1.6" fill="white"/>
    <circle cx="105.0" cy="-85.11" r="0.325" fill="white"/>
    <circle cx="105.0" cy="-90.89" r="0.325" fill="white"/>
    <path d="M 104.98 -83.68 L 106.08 -83.68" fill="none" stroke="white" stroke-linecap="round" stroke-linejoin="round" stroke-width="1.0"/>
    <path d="M 101.05 -83.68 L 101.65 -83.68" fill="none" stroke="white" stroke-linecap="round" stroke-linejoin="round" stroke-width="1.0"/>
    <path d="M 104.98 -92.32 L 106.08 -92.32" fill="none" stroke="white" stroke-linecap="round" stroke-linejoin="round" stroke-width="1.0"/>
    <path d="M 101.05 -92.32 L 101.65 -92.32" fill="none" stroke="white" stroke-linecap="round" stroke-linejoin="round" stroke-width="1.0"/>
    <circle cx="160.0" cy="-74.0" r="1.6" fill="white"/>
    <rect x="160.15" y="-86.85" width="1.7" height="1.7" fill="white"/>
    <circle cx="161.0" cy="-88.54" r="0.85" fill="white"/>
    <circle cx="161.0" cy="-91.08" r="0.85" fill="white"/>
    <circle cx="161.0" cy="-93.62" r="0.85" fill="white"/>
    <circle cx="104.0" cy="-74.0" r="1.6" fill="white"/>
    <circle cx="160.0" cy="-115.0" r="1.6" fill="white"/>
    <circle cx="122.0" cy="-108.0" r="0.5" fill="white"/>
    <circle cx="140.0" cy="-110.0" r="0.5" fill="white"/>
    <circle cx="120.0" cy="-106.0" r="0.5" fill="white"/>
    <circle cx="109.0" cy="-91.0" r="0.5" fill="white"/>
    <circle cx="119.0" cy="-91.0" r="0.5" fill="white"/>
    <circle cx="141.0" cy="-106.0" r="0.5" fill="white"/>
    <circle cx="120.0" cy="-92.8" r="0.5" fill="white"/>
    <circle cx="139.0" cy="-92.0" r="0.5" fill="white"/>
  </g>
</svg>