G04 #@! TF.GenerationSoftware,KiCad,Pcbnew,10.0.1*
G04 #@! TF.CreationDate,2026-09-07T20:03:12-05:00*
G04 #@! TF.ProjectId,alec-main,616c6563-2d6d-4616-996e-2e6b69636164,rev?*
G04 #@! TF.SameCoordinates,Original*
G04 #@! TF.FileFunction,Soldermask,Top*
G04 #@! TF.FilePolarity,Negative*
%FSLAX46Y46*%
G04 Gerber Fmt 4.6, Leading zero omitted, Abs format (unit mm)*
G04 Created by KiCad (PCBNEW 10.0.1) date 2026-09-07 20:03:12*
%MOMM*%
%LPD*%
G01*
G04 APERTURE LIST*
%ADD10C,0.000000*%
%ADD11C,3.200000*%
%ADD12C,0.650000*%
%ADD13O,2.100000X1.000000*%
%ADD14O,1.600000X1.000000*%
%ADD15R,1.230000X1.230000*%
%ADD16C,1.000000*%
%ADD17R,1.000000X0.750000*%
%ADD18R,1.500000X0.900000*%
%ADD19R,0.900000X1.500000*%
%ADD20C,0.600000*%
%ADD21R,3.900000X3.900000*%
%ADD22R,1.700000X1.700000*%
%ADD23C,1.700000*%
G04 APERTURE END LIST*
D10*
G36*
X135575000Y-99399500D02*
G01*
X135575000Y-99399500D01*
G75*
G02*
X135625000Y-99449500I0J-50000D01*
G01*
X135625000Y-100699500D01*
G75*
G02*
X135575000Y-100749500I-50000J0D01*
G01*
X135425000Y-100749500D01*
G75*
G02*
X135375000Y-100699500I0J50000D01*
G01*
X135375000Y-99449500D01*
G75*
G02*
X135425000Y-99399500I50000J0D01*
G01*
X135575000Y-99399500D01*
G37*
G36*
X136075000Y-99405000D02*
G01*
X136075000Y-99405000D01*
G75*
G02*
X136125000Y-99455000I0J-50000D01*
G01*
X136125000Y-101045000D01*
G75*
G02*
X136075000Y-101095000I-50000J0D01*
G01*
X135925000Y-101095000D01*
G75*
G02*
X135875000Y-101045000I0J50000D01*
G01*
X135875000Y-99455000D01*
G75*
G02*
X135925000Y-99405000I50000J0D01*
G01*
X136075000Y-99405000D01*
G37*
G36*
X136575000Y-99399500D02*
G01*
X136575000Y-99399500D01*
G75*
G02*
X136625000Y-99449500I0J-50000D01*
G01*
X136625000Y-100699500D01*
G75*
G02*
X136575000Y-100749500I-50000J0D01*
G01*
X136425000Y-100749500D01*
G75*
G02*
X136375000Y-100699500I0J50000D01*
G01*
X136375000Y-99449500D01*
G75*
G02*
X136425000Y-99399500I50000J0D01*
G01*
X136575000Y-99399500D01*
G37*
G36*
X112575000Y-99399500D02*
G01*
X112575000Y-99399500D01*
G75*
G02*
X112625000Y-99449500I0J-50000D01*
G01*
X112625000Y-100699500D01*
G75*
G02*
X112575000Y-100749500I-50000J0D01*
G01*
X112425000Y-100749500D01*
G75*
G02*
X112375000Y-100699500I0J50000D01*
G01*
X112375000Y-99449500D01*
G75*
G02*
X112425000Y-99399500I50000J0D01*
G01*
X112575000Y-99399500D01*
G37*
G36*
X113075000Y-99405000D02*
G01*
X113075000Y-99405000D01*
G75*
G02*
X113125000Y-99455000I0J-50000D01*
G01*
X113125000Y-101045000D01*
G75*
G02*
X113075000Y-101095000I-50000J0D01*
G01*
X112925000Y-101095000D01*
G75*
G02*
X112875000Y-101045000I0J50000D01*
G01*
X112875000Y-99455000D01*
G75*
G02*
X112925000Y-99405000I50000J0D01*
G01*
X113075000Y-99405000D01*
G37*
G36*
X113575000Y-99399500D02*
G01*
X113575000Y-99399500D01*
G75*
G02*
X113625000Y-99449500I0J-50000D01*
G01*
X113625000Y-100699500D01*
G75*
G02*
X113575000Y-100749500I-50000J0D01*
G01*
X113425000Y-100749500D01*
G75*
G02*
X113375000Y-100699500I0J50000D01*
G01*
X113375000Y-99449500D01*
G75*
G02*
X113425000Y-99399500I50000J0D01*
G01*
X113575000Y-99399500D01*
G37*
G36*
G01*
X150325000Y-100700000D02*
X150325000Y-100400000D01*
G75*
G02*
X150475000Y-100250000I150000J0D01*
G01*
X151650000Y-100250000D01*
G75*
G02*
X151800000Y-100400000I0J-150000D01*
G01*
X151800000Y-100700000D01*
G75*
G02*
X151650000Y-100850000I-150000J0D01*
G01*
X150475000Y-100850000D01*
G75*
G02*
X150325000Y-100700000I0J150000D01*
G01*
G37*
G36*
G01*
X150325000Y-102600000D02*
X150325000Y-102300000D01*
G75*
G02*
X150475000Y-102150000I150000J0D01*
G01*
X151650000Y-102150000D01*
G75*
G02*
X151800000Y-102300000I0J-150000D01*
G01*
X151800000Y-102600000D01*
G75*
G02*
X151650000Y-102750000I-150000J0D01*
G01*
X150475000Y-102750000D01*
G75*
G02*
X150325000Y-102600000I0J150000D01*
G01*
G37*
G36*
G01*
X152200000Y-101650000D02*
X152200000Y-101350000D01*
G75*
G02*
X152350000Y-101200000I150000J0D01*
G01*
X153525000Y-101200000D01*
G75*
G02*
X153675000Y-101350000I0J-150000D01*
G01*
X153675000Y-101650000D01*
G75*
G02*
X153525000Y-101800000I-150000J0D01*
G01*
X152350000Y-101800000D01*
G75*
G02*
X152200000Y-101650000I0J150000D01*
G01*
G37*
G36*
G01*
X136185000Y-115780000D02*
X135815000Y-115780000D01*
G75*
G02*
X135680000Y-115645000I0J135000D01*
G01*
X135680000Y-115375000D01*
G75*
G02*
X135815000Y-115240000I135000J0D01*
G01*
X136185000Y-115240000D01*
G75*
G02*
X136320000Y-115375000I0J-135000D01*
G01*
X136320000Y-115645000D01*
G75*
G02*
X136185000Y-115780000I-135000J0D01*
G01*
G37*
G36*
G01*
X136185000Y-114760000D02*
X135815000Y-114760000D01*
G75*
G02*
X135680000Y-114625000I0J135000D01*
G01*
X135680000Y-114355000D01*
G75*
G02*
X135815000Y-114220000I135000J0D01*
G01*
X136185000Y-114220000D01*
G75*
G02*
X136320000Y-114355000I0J-135000D01*
G01*
X136320000Y-114625000D01*
G75*
G02*
X136185000Y-114760000I-135000J0D01*
G01*
G37*
G36*
G01*
X154185000Y-84280000D02*
X153815000Y-84280000D01*
G75*
G02*
X153680000Y-84145000I0J135000D01*
G01*
X153680000Y-83875000D01*
G75*
G02*
X153815000Y-83740000I135000J0D01*
G01*
X154185000Y-83740000D01*
G75*
G02*
X154320000Y-83875000I0J-135000D01*
G01*
X154320000Y-84145000D01*
G75*
G02*
X154185000Y-84280000I-135000J0D01*
G01*
G37*
G36*
G01*
X154185000Y-83260000D02*
X153815000Y-83260000D01*
G75*
G02*
X153680000Y-83125000I0J135000D01*
G01*
X153680000Y-82855000D01*
G75*
G02*
X153815000Y-82720000I135000J0D01*
G01*
X154185000Y-82720000D01*
G75*
G02*
X154320000Y-82855000I0J-135000D01*
G01*
X154320000Y-83125000D01*
G75*
G02*
X154185000Y-83260000I-135000J0D01*
G01*
G37*
G36*
G01*
X110325000Y-107200000D02*
X110325000Y-106900000D01*
G75*
G02*
X110475000Y-106750000I150000J0D01*
G01*
X111650000Y-106750000D01*
G75*
G02*
X111800000Y-106900000I0J-150000D01*
G01*
X111800000Y-107200000D01*
G75*
G02*
X111650000Y-107350000I-150000J0D01*
G01*
X110475000Y-107350000D01*
G75*
G02*
X110325000Y-107200000I0J150000D01*
G01*
G37*
G36*
G01*
X110325000Y-109100000D02*
X110325000Y-108800000D01*
G75*
G02*
X110475000Y-108650000I150000J0D01*
G01*
X111650000Y-108650000D01*
G75*
G02*
X111800000Y-108800000I0J-150000D01*
G01*
X111800000Y-109100000D01*
G75*
G02*
X111650000Y-109250000I-150000J0D01*
G01*
X110475000Y-109250000D01*
G75*
G02*
X110325000Y-109100000I0J150000D01*
G01*
G37*
G36*
G01*
X112200000Y-108150000D02*
X112200000Y-107850000D01*
G75*
G02*
X112350000Y-107700000I150000J0D01*
G01*
X113525000Y-107700000D01*
G75*
G02*
X113675000Y-107850000I0J-150000D01*
G01*
X113675000Y-108150000D01*
G75*
G02*
X113525000Y-108300000I-150000J0D01*
G01*
X112350000Y-108300000D01*
G75*
G02*
X112200000Y-108150000I0J150000D01*
G01*
G37*
G36*
G01*
X116720000Y-82685000D02*
X116720000Y-82315000D01*
G75*
G02*
X116855000Y-82180000I135000J0D01*
G01*
X117125000Y-82180000D01*
G75*
G02*
X117260000Y-82315000I0J-135000D01*
G01*
X117260000Y-82685000D01*
G75*
G02*
X117125000Y-82820000I-135000J0D01*
G01*
X116855000Y-82820000D01*
G75*
G02*
X116720000Y-82685000I0J135000D01*
G01*
G37*
G36*
G01*
X117740000Y-82685000D02*
X117740000Y-82315000D01*
G75*
G02*
X117875000Y-82180000I135000J0D01*
G01*
X118145000Y-82180000D01*
G75*
G02*
X118280000Y-82315000I0J-135000D01*
G01*
X118280000Y-82685000D01*
G75*
G02*
X118145000Y-82820000I-135000J0D01*
G01*
X117875000Y-82820000D01*
G75*
G02*
X117740000Y-82685000I0J135000D01*
G01*
G37*
G36*
G01*
X154220000Y-102685000D02*
X154220000Y-102315000D01*
G75*
G02*
X154355000Y-102180000I135000J0D01*
G01*
X154625000Y-102180000D01*
G75*
G02*
X154760000Y-102315000I0J-135000D01*
G01*
X154760000Y-102685000D01*
G75*
G02*
X154625000Y-102820000I-135000J0D01*
G01*
X154355000Y-102820000D01*
G75*
G02*
X154220000Y-102685000I0J135000D01*
G01*
G37*
G36*
G01*
X155240000Y-102685000D02*
X155240000Y-102315000D01*
G75*
G02*
X155375000Y-102180000I135000J0D01*
G01*
X155645000Y-102180000D01*
G75*
G02*
X155780000Y-102315000I0J-135000D01*
G01*
X155780000Y-102685000D01*
G75*
G02*
X155645000Y-102820000I-135000J0D01*
G01*
X155375000Y-102820000D01*
G75*
G02*
X155240000Y-102685000I0J135000D01*
G01*
G37*
G36*
G01*
X152740000Y-109370000D02*
X152740000Y-109030000D01*
G75*
G02*
X152880000Y-108890000I140000J0D01*
G01*
X153160000Y-108890000D01*
G75*
G02*
X153300000Y-109030000I0J-140000D01*
G01*
X153300000Y-109370000D01*
G75*
G02*
X153160000Y-109510000I-140000J0D01*
G01*
X152880000Y-109510000D01*
G75*
G02*
X152740000Y-109370000I0J140000D01*
G01*
G37*
G36*
G01*
X153700000Y-109370000D02*
X153700000Y-109030000D01*
G75*
G02*
X153840000Y-108890000I140000J0D01*
G01*
X154120000Y-108890000D01*
G75*
G02*
X154260000Y-109030000I0J-140000D01*
G01*
X154260000Y-109370000D01*
G75*
G02*
X154120000Y-109510000I-140000J0D01*
G01*
X153840000Y-109510000D01*
G75*
G02*
X153700000Y-109370000I0J140000D01*
G01*
G37*
G36*
G01*
X141575000Y-124650000D02*
X141575000Y-123250000D01*
G75*
G02*
X141725000Y-123100000I150000J0D01*
G01*
X142025000Y-123100000D01*
G75*
G02*
X142175000Y-123250000I0J-150000D01*
G01*
X142175000Y-124650000D01*
G75*
G02*
X142025000Y-124800000I-150000J0D01*
G01*
X141725000Y-124800000D01*
G75*
G02*
X141575000Y-124650000I0J150000D01*
G01*
G37*
G36*
G01*
X142825000Y-124650000D02*
X142825000Y-123250000D01*
G75*
G02*
X142975000Y-123100000I150000J0D01*
G01*
X143275000Y-123100000D01*
G75*
G02*
X143425000Y-123250000I0J-150000D01*
G01*
X143425000Y-124650000D01*
G75*
G02*
X143275000Y-124800000I-150000J0D01*
G01*
X142975000Y-124800000D01*
G75*
G02*
X142825000Y-124650000I0J150000D01*
G01*
G37*
G36*
G01*
X144075000Y-124650000D02*
X144075000Y-123250000D01*
G75*
G02*
X144225000Y-123100000I150000J0D01*
G01*
X144525000Y-123100000D01*
G75*
G02*
X144675000Y-123250000I0J-150000D01*
G01*
X144675000Y-124650000D01*
G75*
G02*
X144525000Y-124800000I-150000J0D01*
G01*
X144225000Y-124800000D01*
G75*
G02*
X144075000Y-124650000I0J150000D01*
G01*
G37*
G36*
G01*
X145325000Y-124650000D02*
X145325000Y-123250000D01*
G75*
G02*
X145475000Y-123100000I150000J0D01*
G01*
X145775000Y-123100000D01*
G75*
G02*
X145925000Y-123250000I0J-150000D01*
G01*
X145925000Y-124650000D01*
G75*
G02*
X145775000Y-124800000I-150000J0D01*
G01*
X145475000Y-124800000D01*
G75*
G02*
X145325000Y-124650000I0J150000D01*
G01*
G37*
G36*
G01*
X146575000Y-124650000D02*
X146575000Y-123250000D01*
G75*
G02*
X146725000Y-123100000I150000J0D01*
G01*
X147025000Y-123100000D01*
G75*
G02*
X147175000Y-123250000I0J-150000D01*
G01*
X147175000Y-124650000D01*
G75*
G02*
X147025000Y-124800000I-150000J0D01*
G01*
X146725000Y-124800000D01*
G75*
G02*
X146575000Y-124650000I0J150000D01*
G01*
G37*
G36*
G01*
X147825000Y-124650000D02*
X147825000Y-123250000D01*
G75*
G02*
X147975000Y-123100000I150000J0D01*
G01*
X148275000Y-123100000D01*
G75*
G02*
X148425000Y-123250000I0J-150000D01*
G01*
X148425000Y-124650000D01*
G75*
G02*
X148275000Y-124800000I-150000J0D01*
G01*
X147975000Y-124800000D01*
G75*
G02*
X147825000Y-124650000I0J150000D01*
G01*
G37*
G36*
G01*
X139525000Y-121750000D02*
X139525000Y-119450000D01*
G75*
G02*
X139775000Y-119200000I250000J0D01*
G01*
X140275000Y-119200000D01*
G75*
G02*
X140525000Y-119450000I0J-250000D01*
G01*
X140525000Y-121750000D01*
G75*
G02*
X140275000Y-122000000I-250000J0D01*
G01*
X139775000Y-122000000D01*
G75*
G02*
X139525000Y-121750000I0J250000D01*
G01*
G37*
G36*
G01*
X149475000Y-121750000D02*
X149475000Y-119450000D01*
G75*
G02*
X149725000Y-119200000I250000J0D01*
G01*
X150225000Y-119200000D01*
G75*
G02*
X150475000Y-119450000I0J-250000D01*
G01*
X150475000Y-121750000D01*
G75*
G02*
X150225000Y-122000000I-250000J0D01*
G01*
X149725000Y-122000000D01*
G75*
G02*
X149475000Y-121750000I0J250000D01*
G01*
G37*
D11*
X104000000Y-113000000D03*
G36*
G01*
X150550000Y-111975000D02*
X150550000Y-111025000D01*
G75*
G02*
X150800000Y-110775000I250000J0D01*
G01*
X151300000Y-110775000D01*
G75*
G02*
X151550000Y-111025000I0J-250000D01*
G01*
X151550000Y-111975000D01*
G75*
G02*
X151300000Y-112225000I-250000J0D01*
G01*
X150800000Y-112225000D01*
G75*
G02*
X150550000Y-111975000I0J250000D01*
G01*
G37*
G36*
G01*
X152450000Y-111975000D02*
X152450000Y-111025000D01*
G75*
G02*
X152700000Y-110775000I250000J0D01*
G01*
X153200000Y-110775000D01*
G75*
G02*
X153450000Y-111025000I0J-250000D01*
G01*
X153450000Y-111975000D01*
G75*
G02*
X153200000Y-112225000I-250000J0D01*
G01*
X152700000Y-112225000D01*
G75*
G02*
X152450000Y-111975000I0J250000D01*
G01*
G37*
G36*
G01*
X109185000Y-109780000D02*
X108815000Y-109780000D01*
G75*
G02*
X108680000Y-109645000I0J135000D01*
G01*
X108680000Y-109375000D01*
G75*
G02*
X108815000Y-109240000I135000J0D01*
G01*
X109185000Y-109240000D01*
G75*
G02*
X109320000Y-109375000I0J-135000D01*
G01*
X109320000Y-109645000D01*
G75*
G02*
X109185000Y-109780000I-135000J0D01*
G01*
G37*
G36*
G01*
X109185000Y-108760000D02*
X108815000Y-108760000D01*
G75*
G02*
X108680000Y-108625000I0J135000D01*
G01*
X108680000Y-108355000D01*
G75*
G02*
X108815000Y-108220000I135000J0D01*
G01*
X109185000Y-108220000D01*
G75*
G02*
X109320000Y-108355000I0J-135000D01*
G01*
X109320000Y-108625000D01*
G75*
G02*
X109185000Y-108760000I-135000J0D01*
G01*
G37*
G36*
G01*
X115520000Y-103685000D02*
X115520000Y-103315000D01*
G75*
G02*
X115655000Y-103180000I135000J0D01*
G01*
X115925000Y-103180000D01*
G75*
G02*
X116060000Y-103315000I0J-135000D01*
G01*
X116060000Y-103685000D01*
G75*
G02*
X115925000Y-103820000I-135000J0D01*
G01*
X115655000Y-103820000D01*
G75*
G02*
X115520000Y-103685000I0J135000D01*
G01*
G37*
G36*
G01*
X116540000Y-103685000D02*
X116540000Y-103315000D01*
G75*
G02*
X116675000Y-103180000I135000J0D01*
G01*
X116945000Y-103180000D01*
G75*
G02*
X117080000Y-103315000I0J-135000D01*
G01*
X117080000Y-103685000D01*
G75*
G02*
X116945000Y-103820000I-135000J0D01*
G01*
X116675000Y-103820000D01*
G75*
G02*
X116540000Y-103685000I0J135000D01*
G01*
G37*
G36*
G01*
X134185000Y-115780000D02*
X133815000Y-115780000D01*
G75*
G02*
X133680000Y-115645000I0J135000D01*
G01*
X133680000Y-115375000D01*
G75*
G02*
X133815000Y-115240000I135000J0D01*
G01*
X134185000Y-115240000D01*
G75*
G02*
X134320000Y-115375000I0J-135000D01*
G01*
X134320000Y-115645000D01*
G75*
G02*
X134185000Y-115780000I-135000J0D01*
G01*
G37*
G36*
G01*
X134185000Y-114760000D02*
X133815000Y-114760000D01*
G75*
G02*
X133680000Y-114625000I0J135000D01*
G01*
X133680000Y-114355000D01*
G75*
G02*
X133815000Y-114220000I135000J0D01*
G01*
X134185000Y-114220000D01*
G75*
G02*
X134320000Y-114355000I0J-135000D01*
G01*
X134320000Y-114625000D01*
G75*
G02*
X134185000Y-114760000I-135000J0D01*
G01*
G37*
G36*
G01*
X135285000Y-105580000D02*
X134915000Y-105580000D01*
G75*
G02*
X134780000Y-105445000I0J135000D01*
G01*
X134780000Y-105175000D01*
G75*
G02*
X134915000Y-105040000I135000J0D01*
G01*
X135285000Y-105040000D01*
G75*
G02*
X135420000Y-105175000I0J-135000D01*
G01*
X135420000Y-105445000D01*
G75*
G02*
X135285000Y-105580000I-135000J0D01*
G01*
G37*
G36*
G01*
X135285000Y-104560000D02*
X134915000Y-104560000D01*
G75*
G02*
X134780000Y-104425000I0J135000D01*
G01*
X134780000Y-104155000D01*
G75*
G02*
X134915000Y-104020000I135000J0D01*
G01*
X135285000Y-104020000D01*
G75*
G02*
X135420000Y-104155000I0J-135000D01*
G01*
X135420000Y-104425000D01*
G75*
G02*
X135285000Y-104560000I-135000J0D01*
G01*
G37*
G36*
G01*
X150485000Y-79780000D02*
X150115000Y-79780000D01*
G75*
G02*
X149980000Y-79645000I0J135000D01*
G01*
X149980000Y-79375000D01*
G75*
G02*
X150115000Y-79240000I135000J0D01*
G01*
X150485000Y-79240000D01*
G75*
G02*
X150620000Y-79375000I0J-135000D01*
G01*
X150620000Y-79645000D01*
G75*
G02*
X150485000Y-79780000I-135000J0D01*
G01*
G37*
G36*
G01*
X150485000Y-78760000D02*
X150115000Y-78760000D01*
G75*
G02*
X149980000Y-78625000I0J135000D01*
G01*
X149980000Y-78355000D01*
G75*
G02*
X150115000Y-78220000I135000J0D01*
G01*
X150485000Y-78220000D01*
G75*
G02*
X150620000Y-78355000I0J-135000D01*
G01*
X150620000Y-78625000D01*
G75*
G02*
X150485000Y-78760000I-135000J0D01*
G01*
G37*
G36*
G01*
X152875000Y-76812500D02*
X152875000Y-76487500D01*
G75*
G02*
X153037500Y-76325000I162500J0D01*
G01*
X153662500Y-76325000D01*
G75*
G02*
X153825000Y-76487500I0J-162500D01*
G01*
X153825000Y-76812500D01*
G75*
G02*
X153662500Y-76975000I-162500J0D01*
G01*
X153037500Y-76975000D01*
G75*
G02*
X152875000Y-76812500I0J162500D01*
G01*
G37*
G36*
G01*
X152875000Y-77712500D02*
X152875000Y-77387500D01*
G75*
G02*
X153037500Y-77225000I162500J0D01*
G01*
X153662500Y-77225000D01*
G75*
G02*
X153825000Y-77387500I0J-162500D01*
G01*
X153825000Y-77712500D01*
G75*
G02*
X153662500Y-77875000I-162500J0D01*
G01*
X153037500Y-77875000D01*
G75*
G02*
X152875000Y-77712500I0J162500D01*
G01*
G37*
G36*
G01*
X152875000Y-78612500D02*
X152875000Y-78287500D01*
G75*
G02*
X153037500Y-78125000I162500J0D01*
G01*
X153662500Y-78125000D01*
G75*
G02*
X153825000Y-78287500I0J-162500D01*
G01*
X153825000Y-78612500D01*
G75*
G02*
X153662500Y-78775000I-162500J0D01*
G01*
X153037500Y-78775000D01*
G75*
G02*
X152875000Y-78612500I0J162500D01*
G01*
G37*
G36*
G01*
X152875000Y-79512500D02*
X152875000Y-79187500D01*
G75*
G02*
X153037500Y-79025000I162500J0D01*
G01*
X153662500Y-79025000D01*
G75*
G02*
X153825000Y-79187500I0J-162500D01*
G01*
X153825000Y-79512500D01*
G75*
G02*
X153662500Y-79675000I-162500J0D01*
G01*
X153037500Y-79675000D01*
G75*
G02*
X152875000Y-79512500I0J162500D01*
G01*
G37*
G36*
G01*
X154175000Y-79512500D02*
X154175000Y-79187500D01*
G75*
G02*
X154337500Y-79025000I162500J0D01*
G01*
X154962500Y-79025000D01*
G75*
G02*
X155125000Y-79187500I0J-162500D01*
G01*
X155125000Y-79512500D01*
G75*
G02*
X154962500Y-79675000I-162500J0D01*
G01*
X154337500Y-79675000D01*
G75*
G02*
X154175000Y-79512500I0J162500D01*
G01*
G37*
G36*
G01*
X154175000Y-78612500D02*
X154175000Y-78287500D01*
G75*
G02*
X154337500Y-78125000I162500J0D01*
G01*
X154962500Y-78125000D01*
G75*
G02*
X155125000Y-78287500I0J-162500D01*
G01*
X155125000Y-78612500D01*
G75*
G02*
X154962500Y-78775000I-162500J0D01*
G01*
X154337500Y-78775000D01*
G75*
G02*
X154175000Y-78612500I0J162500D01*
G01*
G37*
G36*
G01*
X154175000Y-77712500D02*
X154175000Y-77387500D01*
G75*
G02*
X154337500Y-77225000I162500J0D01*
G01*
X154962500Y-77225000D01*
G75*
G02*
X155125000Y-77387500I0J-162500D01*
G01*
X155125000Y-77712500D01*
G75*
G02*
X154962500Y-77875000I-162500J0D01*
G01*
X154337500Y-77875000D01*
G75*
G02*
X154175000Y-77712500I0J162500D01*
G01*
G37*
G36*
G01*
X154175000Y-76812500D02*
X154175000Y-76487500D01*
G75*
G02*
X154337500Y-76325000I162500J0D01*
G01*
X154962500Y-76325000D01*
G75*
G02*
X155125000Y-76487500I0J-162500D01*
G01*
X155125000Y-76812500D01*
G75*
G02*
X154962500Y-76975000I-162500J0D01*
G01*
X154337500Y-76975000D01*
G75*
G02*
X154175000Y-76812500I0J162500D01*
G01*
G37*
G36*
G01*
X143170000Y-108760000D02*
X142830000Y-108760000D01*
G75*
G02*
X142690000Y-108620000I0J140000D01*
G01*
X142690000Y-108340000D01*
G75*
G02*
X142830000Y-108200000I140000J0D01*
G01*
X143170000Y-108200000D01*
G75*
G02*
X143310000Y-108340000I0J-140000D01*
G01*
X143310000Y-108620000D01*
G75*
G02*
X143170000Y-108760000I-140000J0D01*
G01*
G37*
G36*
G01*
X143170000Y-107800000D02*
X142830000Y-107800000D01*
G75*
G02*
X142690000Y-107660000I0J140000D01*
G01*
X142690000Y-107380000D01*
G75*
G02*
X142830000Y-107240000I140000J0D01*
G01*
X143170000Y-107240000D01*
G75*
G02*
X143310000Y-107380000I0J-140000D01*
G01*
X143310000Y-107660000D01*
G75*
G02*
X143170000Y-107800000I-140000J0D01*
G01*
G37*
G36*
G01*
X156185000Y-84280000D02*
X155815000Y-84280000D01*
G75*
G02*
X155680000Y-84145000I0J135000D01*
G01*
X155680000Y-83875000D01*
G75*
G02*
X155815000Y-83740000I135000J0D01*
G01*
X156185000Y-83740000D01*
G75*
G02*
X156320000Y-83875000I0J-135000D01*
G01*
X156320000Y-84145000D01*
G75*
G02*
X156185000Y-84280000I-135000J0D01*
G01*
G37*
G36*
G01*
X156185000Y-83260000D02*
X155815000Y-83260000D01*
G75*
G02*
X155680000Y-83125000I0J135000D01*
G01*
X155680000Y-82855000D01*
G75*
G02*
X155815000Y-82720000I135000J0D01*
G01*
X156185000Y-82720000D01*
G75*
G02*
X156320000Y-82855000I0J-135000D01*
G01*
X156320000Y-83125000D01*
G75*
G02*
X156185000Y-83260000I-135000J0D01*
G01*
G37*
D12*
X105000000Y-85110000D03*
X105000000Y-90890000D03*
G36*
G01*
X105870000Y-84450000D02*
X107020000Y-84450000D01*
G75*
G02*
X107170000Y-84600000I0J-150000D01*
G01*
X107170000Y-84900000D01*
G75*
G02*
X107020000Y-85050000I-150000J0D01*
G01*
X105870000Y-85050000D01*
G75*
G02*
X105720000Y-84900000I0J150000D01*
G01*
X105720000Y-84600000D01*
G75*
G02*
X105870000Y-84450000I150000J0D01*
G01*
G37*
G36*
G01*
X105870000Y-85250000D02*
X107020000Y-85250000D01*
G75*
G02*
X107170000Y-85400000I0J-150000D01*
G01*
X107170000Y-85700000D01*
G75*
G02*
X107020000Y-85850000I-150000J0D01*
G01*
X105870000Y-85850000D01*
G75*
G02*
X105720000Y-85700000I0J150000D01*
G01*
X105720000Y-85400000D01*
G75*
G02*
X105870000Y-85250000I150000J0D01*
G01*
G37*
G36*
G01*
X105795000Y-86600000D02*
X107095000Y-86600000D01*
G75*
G02*
X107170000Y-86675000I0J-75000D01*
G01*
X107170000Y-86825000D01*
G75*
G02*
X107095000Y-86900000I-75000J0D01*
G01*
X105795000Y-86900000D01*
G75*
G02*
X105720000Y-86825000I0J75000D01*
G01*
X105720000Y-86675000D01*
G75*
G02*
X105795000Y-86600000I75000J0D01*
G01*
G37*
G36*
G01*
X105795000Y-87600000D02*
X107095000Y-87600000D01*
G75*
G02*
X107170000Y-87675000I0J-75000D01*
G01*
X107170000Y-87825000D01*
G75*
G02*
X107095000Y-87900000I-75000J0D01*
G01*
X105795000Y-87900000D01*
G75*
G02*
X105720000Y-87825000I0J75000D01*
G01*
X105720000Y-87675000D01*
G75*
G02*
X105795000Y-87600000I75000J0D01*
G01*
G37*
G36*
G01*
X105795000Y-88100000D02*
X107095000Y-88100000D01*
G75*
G02*
X107170000Y-88175000I0J-75000D01*
G01*
X107170000Y-88325000D01*
G75*
G02*
X107095000Y-88400000I-75000J0D01*
G01*
X105795000Y-88400000D01*
G75*
G02*
X105720000Y-88325000I0J75000D01*
G01*
X105720000Y-88175000D01*
G75*
G02*
X105795000Y-88100000I75000J0D01*
G01*
G37*
G36*
G01*
X105795000Y-89100000D02*
X107095000Y-89100000D01*
G75*
G02*
X107170000Y-89175000I0J-75000D01*
G01*
X107170000Y-89325000D01*
G75*
G02*
X107095000Y-89400000I-75000J0D01*
G01*
X105795000Y-89400000D01*
G75*
G02*
X105720000Y-89325000I0J75000D01*
G01*
X105720000Y-89175000D01*
G75*
G02*
X105795000Y-89100000I75000J0D01*
G01*
G37*
G36*
G01*
X105870000Y-90150000D02*
X107020000Y-90150000D01*
G75*
G02*
X107170000Y-90300000I0J-150000D01*
G01*
X107170000Y-90600000D01*
G75*
G02*
X107020000Y-90750000I-150000J0D01*
G01*
X105870000Y-90750000D01*
G75*
G02*
X105720000Y-90600000I0J150000D01*
G01*
X105720000Y-90300000D01*
G75*
G02*
X105870000Y-90150000I150000J0D01*
G01*
G37*
G36*
G01*
X105870000Y-90950000D02*
X107020000Y-90950000D01*
G75*
G02*
X107170000Y-91100000I0J-150000D01*
G01*
X107170000Y-91400000D01*
G75*
G02*
X107020000Y-91550000I-150000J0D01*
G01*
X105870000Y-91550000D01*
G75*
G02*
X105720000Y-91400000I0J150000D01*
G01*
X105720000Y-91100000D01*
G75*
G02*
X105870000Y-90950000I150000J0D01*
G01*
G37*
G36*
G01*
X105870000Y-90950000D02*
X107020000Y-90950000D01*
G75*
G02*
X107170000Y-91100000I0J-150000D01*
G01*
X107170000Y-91400000D01*
G75*
G02*
X107020000Y-91550000I-150000J0D01*
G01*
X105870000Y-91550000D01*
G75*
G02*
X105720000Y-91400000I0J150000D01*
G01*
X105720000Y-91100000D01*
G75*
G02*
X105870000Y-90950000I150000J0D01*
G01*
G37*
G36*
G01*
X105870000Y-90150000D02*
X107020000Y-90150000D01*
G75*
G02*
X107170000Y-90300000I0J-150000D01*
G01*
X107170000Y-90600000D01*
G75*
G02*
X107020000Y-90750000I-150000J0D01*
G01*
X105870000Y-90750000D01*
G75*
G02*
X105720000Y-90600000I0J150000D01*
G01*
X105720000Y-90300000D01*
G75*
G02*
X105870000Y-90150000I150000J0D01*
G01*
G37*
G36*
G01*
X105795000Y-89600000D02*
X107095000Y-89600000D01*
G75*
G02*
X107170000Y-89675000I0J-75000D01*
G01*
X107170000Y-89825000D01*
G75*
G02*
X107095000Y-89900000I-75000J0D01*
G01*
X105795000Y-89900000D01*
G75*
G02*
X105720000Y-89825000I0J75000D01*
G01*
X105720000Y-89675000D01*
G75*
G02*
X105795000Y-89600000I75000J0D01*
G01*
G37*
G36*
G01*
X105795000Y-88600000D02*
X107095000Y-88600000D01*
G75*
G02*
X107170000Y-88675000I0J-75000D01*
G01*
X107170000Y-88825000D01*
G75*
G02*
X107095000Y-88900000I-75000J0D01*
G01*
X105795000Y-88900000D01*
G75*
G02*
X105720000Y-88825000I0J75000D01*
G01*
X105720000Y-88675000D01*
G75*
G02*
X105795000Y-88600000I75000J0D01*
G01*
G37*
G36*
G01*
X105795000Y-87100000D02*
X107095000Y-87100000D01*
G75*
G02*
X107170000Y-87175000I0J-75000D01*
G01*
X107170000Y-87325000D01*
G75*
G02*
X107095000Y-87400000I-75000J0D01*
G01*
X105795000Y-87400000D01*
G75*
G02*
X105720000Y-87325000I0J75000D01*
G01*
X105720000Y-87175000D01*
G75*
G02*
X105795000Y-87100000I75000J0D01*
G01*
G37*
G36*
G01*
X105795000Y-86100000D02*
X107095000Y-86100000D01*
G75*
G02*
X107170000Y-86175000I0J-75000D01*
G01*
X107170000Y-86325000D01*
G75*
G02*
X107095000Y-86400000I-75000J0D01*
G01*
X105795000Y-86400000D01*
G75*
G02*
X105720000Y-86325000I0J75000D01*
G01*
X105720000Y-86175000D01*
G75*
G02*
X105795000Y-86100000I75000J0D01*
G01*
G37*
G36*
G01*
X105870000Y-85250000D02*
X107020000Y-85250000D01*
G75*
G02*
X107170000Y-85400000I0J-150000D01*
G01*
X107170000Y-85700000D01*
G75*
G02*
X107020000Y-85850000I-150000J0D01*
G01*
X105870000Y-85850000D01*
G75*
G02*
X105720000Y-85700000I0J150000D01*
G01*
X105720000Y-85400000D01*
G75*
G02*
X105870000Y-85250000I150000J0D01*
G01*
G37*
G36*
G01*
X105870000Y-84450000D02*
X107020000Y-84450000D01*
G75*
G02*
X107170000Y-84600000I0J-150000D01*
G01*
X107170000Y-84900000D01*
G75*
G02*
X107020000Y-85050000I-150000J0D01*
G01*
X105870000Y-85050000D01*
G75*
G02*
X105720000Y-84900000I0J150000D01*
G01*
X105720000Y-84600000D01*
G75*
G02*
X105870000Y-84450000I150000J0D01*
G01*
G37*
D13*
X105530000Y-83680000D03*
D14*
X101350000Y-83680000D03*
D13*
X105530000Y-92320000D03*
D14*
X101350000Y-92320000D03*
G36*
G01*
X123185000Y-94780000D02*
X122815000Y-94780000D01*
G75*
G02*
X122680000Y-94645000I0J135000D01*
G01*
X122680000Y-94375000D01*
G75*
G02*
X122815000Y-94240000I135000J0D01*
G01*
X123185000Y-94240000D01*
G75*
G02*
X123320000Y-94375000I0J-135000D01*
G01*
X123320000Y-94645000D01*
G75*
G02*
X123185000Y-94780000I-135000J0D01*
G01*
G37*
G36*
G01*
X123185000Y-93760000D02*
X122815000Y-93760000D01*
G75*
G02*
X122680000Y-93625000I0J135000D01*
G01*
X122680000Y-93355000D01*
G75*
G02*
X122815000Y-93220000I135000J0D01*
G01*
X123185000Y-93220000D01*
G75*
G02*
X123320000Y-93355000I0J-135000D01*
G01*
X123320000Y-93625000D01*
G75*
G02*
X123185000Y-93760000I-135000J0D01*
G01*
G37*
G36*
G01*
X121780000Y-87565000D02*
X121780000Y-87935000D01*
G75*
G02*
X121645000Y-88070000I-135000J0D01*
G01*
X121375000Y-88070000D01*
G75*
G02*
X121240000Y-87935000I0J135000D01*
G01*
X121240000Y-87565000D01*
G75*
G02*
X121375000Y-87430000I135000J0D01*
G01*
X121645000Y-87430000D01*
G75*
G02*
X121780000Y-87565000I0J-135000D01*
G01*
G37*
G36*
G01*
X120760000Y-87565000D02*
X120760000Y-87935000D01*
G75*
G02*
X120625000Y-88070000I-135000J0D01*
G01*
X120355000Y-88070000D01*
G75*
G02*
X120220000Y-87935000I0J135000D01*
G01*
X120220000Y-87565000D01*
G75*
G02*
X120355000Y-87430000I135000J0D01*
G01*
X120625000Y-87430000D01*
G75*
G02*
X120760000Y-87565000I0J-135000D01*
G01*
G37*
G36*
G01*
X118325000Y-79200000D02*
X118325000Y-78900000D01*
G75*
G02*
X118475000Y-78750000I150000J0D01*
G01*
X119650000Y-78750000D01*
G75*
G02*
X119800000Y-78900000I0J-150000D01*
G01*
X119800000Y-79200000D01*
G75*
G02*
X119650000Y-79350000I-150000J0D01*
G01*
X118475000Y-79350000D01*
G75*
G02*
X118325000Y-79200000I0J150000D01*
G01*
G37*
G36*
G01*
X118325000Y-81100000D02*
X118325000Y-80800000D01*
G75*
G02*
X118475000Y-80650000I150000J0D01*
G01*
X119650000Y-80650000D01*
G75*
G02*
X119800000Y-80800000I0J-150000D01*
G01*
X119800000Y-81100000D01*
G75*
G02*
X119650000Y-81250000I-150000J0D01*
G01*
X118475000Y-81250000D01*
G75*
G02*
X118325000Y-81100000I0J150000D01*
G01*
G37*
G36*
G01*
X120200000Y-80150000D02*
X120200000Y-79850000D01*
G75*
G02*
X120350000Y-79700000I150000J0D01*
G01*
X121525000Y-79700000D01*
G75*
G02*
X121675000Y-79850000I0J-150000D01*
G01*
X121675000Y-80150000D01*
G75*
G02*
X121525000Y-80300000I-150000J0D01*
G01*
X120350000Y-80300000D01*
G75*
G02*
X120200000Y-80150000I0J150000D01*
G01*
G37*
G36*
G01*
X148740000Y-105670000D02*
X148740000Y-105330000D01*
G75*
G02*
X148880000Y-105190000I140000J0D01*
G01*
X149160000Y-105190000D01*
G75*
G02*
X149300000Y-105330000I0J-140000D01*
G01*
X149300000Y-105670000D01*
G75*
G02*
X149160000Y-105810000I-140000J0D01*
G01*
X148880000Y-105810000D01*
G75*
G02*
X148740000Y-105670000I0J140000D01*
G01*
G37*
G36*
G01*
X149700000Y-105670000D02*
X149700000Y-105330000D01*
G75*
G02*
X149840000Y-105190000I140000J0D01*
G01*
X150120000Y-105190000D01*
G75*
G02*
X150260000Y-105330000I0J-140000D01*
G01*
X150260000Y-105670000D01*
G75*
G02*
X150120000Y-105810000I-140000J0D01*
G01*
X149840000Y-105810000D01*
G75*
G02*
X149700000Y-105670000I0J140000D01*
G01*
G37*
G36*
G01*
X136130000Y-103240000D02*
X136470000Y-103240000D01*
G75*
G02*
X136610000Y-103380000I0J-140000D01*
G01*
X136610000Y-103660000D01*
G75*
G02*
X136470000Y-103800000I-140000J0D01*
G01*
X136130000Y-103800000D01*
G75*
G02*
X135990000Y-103660000I0J140000D01*
G01*
X135990000Y-103380000D01*
G75*
G02*
X136130000Y-103240000I140000J0D01*
G01*
G37*
G36*
G01*
X136130000Y-104200000D02*
X136470000Y-104200000D01*
G75*
G02*
X136610000Y-104340000I0J-140000D01*
G01*
X136610000Y-104620000D01*
G75*
G02*
X136470000Y-104760000I-140000J0D01*
G01*
X136130000Y-104760000D01*
G75*
G02*
X135990000Y-104620000I0J140000D01*
G01*
X135990000Y-104340000D01*
G75*
G02*
X136130000Y-104200000I140000J0D01*
G01*
G37*
G36*
G01*
X120150000Y-101050000D02*
X118850000Y-101050000D01*
G75*
G02*
X118600000Y-100800000I0J250000D01*
G01*
X118600000Y-100150000D01*
G75*
G02*
X118850000Y-99900000I250000J0D01*
G01*
X120150000Y-99900000D01*
G75*
G02*
X120400000Y-100150000I0J-250000D01*
G01*
X120400000Y-100800000D01*
G75*
G02*
X120150000Y-101050000I-250000J0D01*
G01*
G37*
G36*
G01*
X120150000Y-98100000D02*
X118850000Y-98100000D01*
G75*
G02*
X118600000Y-97850000I0J250000D01*
G01*
X118600000Y-97200000D01*
G75*
G02*
X118850000Y-96950000I250000J0D01*
G01*
X120150000Y-96950000D01*
G75*
G02*
X120400000Y-97200000I0J-250000D01*
G01*
X120400000Y-97850000D01*
G75*
G02*
X120150000Y-98100000I-250000J0D01*
G01*
G37*
G36*
G01*
X135175000Y-101700000D02*
X135325000Y-101700000D01*
G75*
G02*
X135375000Y-101750000I0J-50000D01*
G01*
X135375000Y-102250000D01*
G75*
G02*
X135325000Y-102300000I-50000J0D01*
G01*
X135175000Y-102300000D01*
G75*
G02*
X135125000Y-102250000I0J50000D01*
G01*
X135125000Y-101750000D01*
G75*
G02*
X135175000Y-101700000I50000J0D01*
G01*
G37*
G36*
G01*
X135675000Y-101700000D02*
X135825000Y-101700000D01*
G75*
G02*
X135875000Y-101750000I0J-50000D01*
G01*
X135875000Y-102250000D01*
G75*
G02*
X135825000Y-102300000I-50000J0D01*
G01*
X135675000Y-102300000D01*
G75*
G02*
X135625000Y-102250000I0J50000D01*
G01*
X135625000Y-101750000D01*
G75*
G02*
X135675000Y-101700000I50000J0D01*
G01*
G37*
G36*
G01*
X136325000Y-102300000D02*
X136175000Y-102300000D01*
G75*
G02*
X136125000Y-102250000I0J50000D01*
G01*
X136125000Y-101750000D01*
G75*
G02*
X136175000Y-101700000I50000J0D01*
G01*
X136325000Y-101700000D01*
G75*
G02*
X136375000Y-101750000I0J-50000D01*
G01*
X136375000Y-102250000D01*
G75*
G02*
X136325000Y-102300000I-50000J0D01*
G01*
G37*
G36*
G01*
X136825000Y-102300000D02*
X136675000Y-102300000D01*
G75*
G02*
X136625000Y-102250000I0J50000D01*
G01*
X136625000Y-101750000D01*
G75*
G02*
X136675000Y-101700000I50000J0D01*
G01*
X136825000Y-101700000D01*
G75*
G02*
X136875000Y-101750000I0J-50000D01*
G01*
X136875000Y-102250000D01*
G75*
G02*
X136825000Y-102300000I-50000J0D01*
G01*
G37*
G36*
G01*
X137700000Y-101525000D02*
X137700000Y-101675000D01*
G75*
G02*
X137650000Y-101725000I-50000J0D01*
G01*
X137150000Y-101725000D01*
G75*
G02*
X137100000Y-101675000I0J50000D01*
G01*
X137100000Y-101525000D01*
G75*
G02*
X137150000Y-101475000I50000J0D01*
G01*
X137650000Y-101475000D01*
G75*
G02*
X137700000Y-101525000I0J-50000D01*
G01*
G37*
G36*
G01*
X137700000Y-101025000D02*
X137700000Y-101175000D01*
G75*
G02*
X137650000Y-101225000I-50000J0D01*
G01*
X137150000Y-101225000D01*
G75*
G02*
X137100000Y-101175000I0J50000D01*
G01*
X137100000Y-101025000D01*
G75*
G02*
X137150000Y-100975000I50000J0D01*
G01*
X137650000Y-100975000D01*
G75*
G02*
X137700000Y-101025000I0J-50000D01*
G01*
G37*
G36*
X137140150Y-100724520D02*
G01*
X137133280Y-100721673D01*
X137130866Y-100721194D01*
X137128821Y-100719827D01*
X137121949Y-100716981D01*
X137116689Y-100711720D01*
X137114645Y-100710355D01*
X137113280Y-100708311D01*
X137108019Y-100703051D01*
X137105173Y-100696179D01*
X137103806Y-100694134D01*
X137103327Y-100691720D01*
X137100480Y-100684850D01*
X137100000Y-100675000D01*
X137100000Y-100025000D01*
X137100480Y-100015150D01*
X137103327Y-100008280D01*
X137103806Y-100005866D01*
X137105173Y-100003821D01*
X137108019Y-99996949D01*
X137113280Y-99991689D01*
X137114645Y-99989645D01*
X137116689Y-99988280D01*
X137121949Y-99983019D01*
X137128821Y-99980173D01*
X137130866Y-99978806D01*
X137133280Y-99978327D01*
X137140150Y-99975480D01*
X137150000Y-99975000D01*
X137650000Y-99975000D01*
X137669134Y-99978806D01*
X137685355Y-99989645D01*
X137696194Y-100005866D01*
X137700000Y-100025000D01*
X137700000Y-100175000D01*
X137696194Y-100194134D01*
X137685355Y-100210355D01*
X137669134Y-100221194D01*
X137650000Y-100225000D01*
X137350000Y-100225000D01*
X137350000Y-100475000D01*
X137650000Y-100475000D01*
X137669134Y-100478806D01*
X137685355Y-100489645D01*
X137696194Y-100505866D01*
X137700000Y-100525000D01*
X137700000Y-100675000D01*
X137696194Y-100694134D01*
X137685355Y-100710355D01*
X137669134Y-100721194D01*
X137650000Y-100725000D01*
X137150000Y-100725000D01*
X137140150Y-100724520D01*
G37*
G36*
X137140150Y-100724520D02*
G01*
X137133280Y-100721673D01*
X137130866Y-100721194D01*
X137128821Y-100719827D01*
X137121949Y-100716981D01*
X137116689Y-100711720D01*
X137114645Y-100710355D01*
X137113280Y-100708311D01*
X137108019Y-100703051D01*
X137105173Y-100696179D01*
X137103806Y-100694134D01*
X137103327Y-100691720D01*
X137100480Y-100684850D01*
X137100000Y-100675000D01*
X137100000Y-100025000D01*
X137100480Y-100015150D01*
X137103327Y-100008280D01*
X137103806Y-100005866D01*
X137105173Y-100003821D01*
X137108019Y-99996949D01*
X137113280Y-99991689D01*
X137114645Y-99989645D01*
X137116689Y-99988280D01*
X137121949Y-99983019D01*
X137128821Y-99980173D01*
X137130866Y-99978806D01*
X137133280Y-99978327D01*
X137140150Y-99975480D01*
X137150000Y-99975000D01*
X137650000Y-99975000D01*
X137669134Y-99978806D01*
X137685355Y-99989645D01*
X137696194Y-100005866D01*
X137700000Y-100025000D01*
X137700000Y-100175000D01*
X137696194Y-100194134D01*
X137685355Y-100210355D01*
X137669134Y-100221194D01*
X137650000Y-100225000D01*
X137350000Y-100225000D01*
X137350000Y-100475000D01*
X137650000Y-100475000D01*
X137669134Y-100478806D01*
X137685355Y-100489645D01*
X137696194Y-100505866D01*
X137700000Y-100525000D01*
X137700000Y-100675000D01*
X137696194Y-100694134D01*
X137685355Y-100710355D01*
X137669134Y-100721194D01*
X137650000Y-100725000D01*
X137150000Y-100725000D01*
X137140150Y-100724520D01*
G37*
G36*
G01*
X136575000Y-99974500D02*
X136425000Y-99974500D01*
G75*
G02*
X136375000Y-99924500I0J50000D01*
G01*
X136375000Y-99449500D01*
G75*
G02*
X136425000Y-99399500I50000J0D01*
G01*
X136575000Y-99399500D01*
G75*
G02*
X136625000Y-99449500I0J-50000D01*
G01*
X136625000Y-99924500D01*
G75*
G02*
X136575000Y-99974500I-50000J0D01*
G01*
G37*
G36*
G01*
X136575000Y-100749500D02*
X136425000Y-100749500D01*
G75*
G02*
X136375000Y-100699500I0J50000D01*
G01*
X136375000Y-100224500D01*
G75*
G02*
X136425000Y-100174500I50000J0D01*
G01*
X136575000Y-100174500D01*
G75*
G02*
X136625000Y-100224500I0J-50000D01*
G01*
X136625000Y-100699500D01*
G75*
G02*
X136575000Y-100749500I-50000J0D01*
G01*
G37*
G36*
G01*
X136075000Y-100150000D02*
X135925000Y-100150000D01*
G75*
G02*
X135875000Y-100100000I0J50000D01*
G01*
X135875000Y-99480000D01*
G75*
G02*
X135925000Y-99430000I50000J0D01*
G01*
X136075000Y-99430000D01*
G75*
G02*
X136125000Y-99480000I0J-50000D01*
G01*
X136125000Y-100100000D01*
G75*
G02*
X136075000Y-100150000I-50000J0D01*
G01*
G37*
G36*
G01*
X136075000Y-101070000D02*
X135925000Y-101070000D01*
G75*
G02*
X135875000Y-101020000I0J50000D01*
G01*
X135875000Y-100400000D01*
G75*
G02*
X135925000Y-100350000I50000J0D01*
G01*
X136075000Y-100350000D01*
G75*
G02*
X136125000Y-100400000I0J-50000D01*
G01*
X136125000Y-101020000D01*
G75*
G02*
X136075000Y-101070000I-50000J0D01*
G01*
G37*
G36*
G01*
X135425000Y-99399500D02*
X135575000Y-99399500D01*
G75*
G02*
X135625000Y-99449500I0J-50000D01*
G01*
X135625000Y-99924500D01*
G75*
G02*
X135575000Y-99974500I-50000J0D01*
G01*
X135425000Y-99974500D01*
G75*
G02*
X135375000Y-99924500I0J50000D01*
G01*
X135375000Y-99449500D01*
G75*
G02*
X135425000Y-99399500I50000J0D01*
G01*
G37*
G36*
G01*
X135425000Y-100174500D02*
X135575000Y-100174500D01*
G75*
G02*
X135625000Y-100224500I0J-50000D01*
G01*
X135625000Y-100699500D01*
G75*
G02*
X135575000Y-100749500I-50000J0D01*
G01*
X135425000Y-100749500D01*
G75*
G02*
X135375000Y-100699500I0J50000D01*
G01*
X135375000Y-100224500D01*
G75*
G02*
X135425000Y-100174500I50000J0D01*
G01*
G37*
G36*
X134330866Y-100721194D02*
G01*
X134314645Y-100710355D01*
X134303806Y-100694134D01*
X134300000Y-100675000D01*
X134300000Y-100525000D01*
X134303806Y-100505866D01*
X134314645Y-100489645D01*
X134330866Y-100478806D01*
X134350000Y-100475000D01*
X134650000Y-100475000D01*
X134650000Y-100225000D01*
X134350000Y-100225000D01*
X134330866Y-100221194D01*
X134314645Y-100210355D01*
X134303806Y-100194134D01*
X134300000Y-100175000D01*
X134300000Y-100025000D01*
X134303806Y-100005866D01*
X134314645Y-99989645D01*
X134330866Y-99978806D01*
X134350000Y-99975000D01*
X134850000Y-99975000D01*
X134859850Y-99975480D01*
X134866720Y-99978327D01*
X134869134Y-99978806D01*
X134871179Y-99980173D01*
X134878051Y-99983019D01*
X134883311Y-99988280D01*
X134885355Y-99989645D01*
X134886720Y-99991689D01*
X134891981Y-99996949D01*
X134894827Y-100003821D01*
X134896194Y-100005866D01*
X134896673Y-100008280D01*
X134899520Y-100015150D01*
X134900000Y-100025000D01*
X134900000Y-100675000D01*
X134899520Y-100684850D01*
X134896673Y-100691720D01*
X134896194Y-100694134D01*
X134894827Y-100696179D01*
X134891981Y-100703051D01*
X134886720Y-100708311D01*
X134885355Y-100710355D01*
X134883311Y-100711720D01*
X134878051Y-100716981D01*
X134871179Y-100719827D01*
X134869134Y-100721194D01*
X134866720Y-100721673D01*
X134859850Y-100724520D01*
X134850000Y-100725000D01*
X134350000Y-100725000D01*
X134330866Y-100721194D01*
G37*
G36*
X134330866Y-100721194D02*
G01*
X134314645Y-100710355D01*
X134303806Y-100694134D01*
X134300000Y-100675000D01*
X134300000Y-100525000D01*
X134303806Y-100505866D01*
X134314645Y-100489645D01*
X134330866Y-100478806D01*
X134350000Y-100475000D01*
X134650000Y-100475000D01*
X134650000Y-100225000D01*
X134350000Y-100225000D01*
X134330866Y-100221194D01*
X134314645Y-100210355D01*
X134303806Y-100194134D01*
X134300000Y-100175000D01*
X134300000Y-100025000D01*
X134303806Y-100005866D01*
X134314645Y-99989645D01*
X134330866Y-99978806D01*
X134350000Y-99975000D01*
X134850000Y-99975000D01*
X134859850Y-99975480D01*
X134866720Y-99978327D01*
X134869134Y-99978806D01*
X134871179Y-99980173D01*
X134878051Y-99983019D01*
X134883311Y-99988280D01*
X134885355Y-99989645D01*
X134886720Y-99991689D01*
X134891981Y-99996949D01*
X134894827Y-100003821D01*
X134896194Y-100005866D01*
X134896673Y-100008280D01*
X134899520Y-100015150D01*
X134900000Y-100025000D01*
X134900000Y-100675000D01*
X134899520Y-100684850D01*
X134896673Y-100691720D01*
X134896194Y-100694134D01*
X134894827Y-100696179D01*
X134891981Y-100703051D01*
X134886720Y-100708311D01*
X134885355Y-100710355D01*
X134883311Y-100711720D01*
X134878051Y-100716981D01*
X134871179Y-100719827D01*
X134869134Y-100721194D01*
X134866720Y-100721673D01*
X134859850Y-100724520D01*
X134850000Y-100725000D01*
X134350000Y-100725000D01*
X134330866Y-100721194D01*
G37*
G36*
G01*
X134900000Y-101025000D02*
X134900000Y-101175000D01*
G75*
G02*
X134850000Y-101225000I-50000J0D01*
G01*
X134350000Y-101225000D01*
G75*
G02*
X134300000Y-101175000I0J50000D01*
G01*
X134300000Y-101025000D01*
G75*
G02*
X134350000Y-100975000I50000J0D01*
G01*
X134850000Y-100975000D01*
G75*
G02*
X134900000Y-101025000I0J-50000D01*
G01*
G37*
G36*
G01*
X134900000Y-101525000D02*
X134900000Y-101675000D01*
G75*
G02*
X134850000Y-101725000I-50000J0D01*
G01*
X134350000Y-101725000D01*
G75*
G02*
X134300000Y-101675000I0J50000D01*
G01*
X134300000Y-101525000D01*
G75*
G02*
X134350000Y-101475000I50000J0D01*
G01*
X134850000Y-101475000D01*
G75*
G02*
X134900000Y-101525000I0J-50000D01*
G01*
G37*
G36*
G01*
X118220000Y-120185000D02*
X118220000Y-119815000D01*
G75*
G02*
X118355000Y-119680000I135000J0D01*
G01*
X118625000Y-119680000D01*
G75*
G02*
X118760000Y-119815000I0J-135000D01*
G01*
X118760000Y-120185000D01*
G75*
G02*
X118625000Y-120320000I-135000J0D01*
G01*
X118355000Y-120320000D01*
G75*
G02*
X118220000Y-120185000I0J135000D01*
G01*
G37*
G36*
G01*
X119240000Y-120185000D02*
X119240000Y-119815000D01*
G75*
G02*
X119375000Y-119680000I135000J0D01*
G01*
X119645000Y-119680000D01*
G75*
G02*
X119780000Y-119815000I0J-135000D01*
G01*
X119780000Y-120185000D01*
G75*
G02*
X119645000Y-120320000I-135000J0D01*
G01*
X119375000Y-120320000D01*
G75*
G02*
X119240000Y-120185000I0J135000D01*
G01*
G37*
G36*
G01*
X113130000Y-103240000D02*
X113470000Y-103240000D01*
G75*
G02*
X113610000Y-103380000I0J-140000D01*
G01*
X113610000Y-103660000D01*
G75*
G02*
X113470000Y-103800000I-140000J0D01*
G01*
X113130000Y-103800000D01*
G75*
G02*
X112990000Y-103660000I0J140000D01*
G01*
X112990000Y-103380000D01*
G75*
G02*
X113130000Y-103240000I140000J0D01*
G01*
G37*
G36*
G01*
X113130000Y-104200000D02*
X113470000Y-104200000D01*
G75*
G02*
X113610000Y-104340000I0J-140000D01*
G01*
X113610000Y-104620000D01*
G75*
G02*
X113470000Y-104760000I-140000J0D01*
G01*
X113130000Y-104760000D01*
G75*
G02*
X112990000Y-104620000I0J140000D01*
G01*
X112990000Y-104340000D01*
G75*
G02*
X113130000Y-104200000I140000J0D01*
G01*
G37*
G36*
G01*
X161185000Y-100780000D02*
X160815000Y-100780000D01*
G75*
G02*
X160680000Y-100645000I0J135000D01*
G01*
X160680000Y-100375000D01*
G75*
G02*
X160815000Y-100240000I135000J0D01*
G01*
X161185000Y-100240000D01*
G75*
G02*
X161320000Y-100375000I0J-135000D01*
G01*
X161320000Y-100645000D01*
G75*
G02*
X161185000Y-100780000I-135000J0D01*
G01*
G37*
G36*
G01*
X161185000Y-99760000D02*
X160815000Y-99760000D01*
G75*
G02*
X160680000Y-99625000I0J135000D01*
G01*
X160680000Y-99355000D01*
G75*
G02*
X160815000Y-99220000I135000J0D01*
G01*
X161185000Y-99220000D01*
G75*
G02*
X161320000Y-99355000I0J-135000D01*
G01*
X161320000Y-99625000D01*
G75*
G02*
X161185000Y-99760000I-135000J0D01*
G01*
G37*
G36*
G01*
X151150000Y-105312500D02*
X151150000Y-105187500D01*
G75*
G02*
X151212500Y-105125000I62500J0D01*
G01*
X151912500Y-105125000D01*
G75*
G02*
X151975000Y-105187500I0J-62500D01*
G01*
X151975000Y-105312500D01*
G75*
G02*
X151912500Y-105375000I-62500J0D01*
G01*
X151212500Y-105375000D01*
G75*
G02*
X151150000Y-105312500I0J62500D01*
G01*
G37*
G36*
G01*
X151150000Y-105812500D02*
X151150000Y-105687500D01*
G75*
G02*
X151212500Y-105625000I62500J0D01*
G01*
X151912500Y-105625000D01*
G75*
G02*
X151975000Y-105687500I0J-62500D01*
G01*
X151975000Y-105812500D01*
G75*
G02*
X151912500Y-105875000I-62500J0D01*
G01*
X151212500Y-105875000D01*
G75*
G02*
X151150000Y-105812500I0J62500D01*
G01*
G37*
G36*
G01*
X151150000Y-106312500D02*
X151150000Y-106187500D01*
G75*
G02*
X151212500Y-106125000I62500J0D01*
G01*
X151912500Y-106125000D01*
G75*
G02*
X151975000Y-106187500I0J-62500D01*
G01*
X151975000Y-106312500D01*
G75*
G02*
X151912500Y-106375000I-62500J0D01*
G01*
X151212500Y-106375000D01*
G75*
G02*
X151150000Y-106312500I0J62500D01*
G01*
G37*
G36*
G01*
X151150000Y-106812500D02*
X151150000Y-106687500D01*
G75*
G02*
X151212500Y-106625000I62500J0D01*
G01*
X151912500Y-106625000D01*
G75*
G02*
X151975000Y-106687500I0J-62500D01*
G01*
X151975000Y-106812500D01*
G75*
G02*
X151912500Y-106875000I-62500J0D01*
G01*
X151212500Y-106875000D01*
G75*
G02*
X151150000Y-106812500I0J62500D01*
G01*
G37*
G36*
G01*
X152125000Y-107787500D02*
X152125000Y-107087500D01*
G75*
G02*
X152187500Y-107025000I62500J0D01*
G01*
X152312500Y-107025000D01*
G75*
G02*
X152375000Y-107087500I0J-62500D01*
G01*
X152375000Y-107787500D01*
G75*
G02*
X152312500Y-107850000I-62500J0D01*
G01*
X152187500Y-107850000D01*
G75*
G02*
X152125000Y-107787500I0J62500D01*
G01*
G37*
G36*
G01*
X152625000Y-107787500D02*
X152625000Y-107087500D01*
G75*
G02*
X152687500Y-107025000I62500J0D01*
G01*
X152812500Y-107025000D01*
G75*
G02*
X152875000Y-107087500I0J-62500D01*
G01*
X152875000Y-107787500D01*
G75*
G02*
X152812500Y-107850000I-62500J0D01*
G01*
X152687500Y-107850000D01*
G75*
G02*
X152625000Y-107787500I0J62500D01*
G01*
G37*
G36*
G01*
X153125000Y-107787500D02*
X153125000Y-107087500D01*
G75*
G02*
X153187500Y-107025000I62500J0D01*
G01*
X153312500Y-107025000D01*
G75*
G02*
X153375000Y-107087500I0J-62500D01*
G01*
X153375000Y-107787500D01*
G75*
G02*
X153312500Y-107850000I-62500J0D01*
G01*
X153187500Y-107850000D01*
G75*
G02*
X153125000Y-107787500I0J62500D01*
G01*
G37*
G36*
G01*
X153625000Y-107787500D02*
X153625000Y-107087500D01*
G75*
G02*
X153687500Y-107025000I62500J0D01*
G01*
X153812500Y-107025000D01*
G75*
G02*
X153875000Y-107087500I0J-62500D01*
G01*
X153875000Y-107787500D01*
G75*
G02*
X153812500Y-107850000I-62500J0D01*
G01*
X153687500Y-107850000D01*
G75*
G02*
X153625000Y-107787500I0J62500D01*
G01*
G37*
G36*
G01*
X154025000Y-106812500D02*
X154025000Y-106687500D01*
G75*
G02*
X154087500Y-106625000I62500J0D01*
G01*
X154787500Y-106625000D01*
G75*
G02*
X154850000Y-106687500I0J-62500D01*
G01*
X154850000Y-106812500D01*
G75*
G02*
X154787500Y-106875000I-62500J0D01*
G01*
X154087500Y-106875000D01*
G75*
G02*
X154025000Y-106812500I0J62500D01*
G01*
G37*
G36*
G01*
X154025000Y-106312500D02*
X154025000Y-106187500D01*
G75*
G02*
X154087500Y-106125000I62500J0D01*
G01*
X154787500Y-106125000D01*
G75*
G02*
X154850000Y-106187500I0J-62500D01*
G01*
X154850000Y-106312500D01*
G75*
G02*
X154787500Y-106375000I-62500J0D01*
G01*
X154087500Y-106375000D01*
G75*
G02*
X154025000Y-106312500I0J62500D01*
G01*
G37*
G36*
G01*
X154025000Y-105812500D02*
X154025000Y-105687500D01*
G75*
G02*
X154087500Y-105625000I62500J0D01*
G01*
X154787500Y-105625000D01*
G75*
G02*
X154850000Y-105687500I0J-62500D01*
G01*
X154850000Y-105812500D01*
G75*
G02*
X154787500Y-105875000I-62500J0D01*
G01*
X154087500Y-105875000D01*
G75*
G02*
X154025000Y-105812500I0J62500D01*
G01*
G37*
G36*
G01*
X154025000Y-105312500D02*
X154025000Y-105187500D01*
G75*
G02*
X154087500Y-105125000I62500J0D01*
G01*
X154787500Y-105125000D01*
G75*
G02*
X154850000Y-105187500I0J-62500D01*
G01*
X154850000Y-105312500D01*
G75*
G02*
X154787500Y-105375000I-62500J0D01*
G01*
X154087500Y-105375000D01*
G75*
G02*
X154025000Y-105312500I0J62500D01*
G01*
G37*
G36*
G01*
X153625000Y-104912500D02*
X153625000Y-104212500D01*
G75*
G02*
X153687500Y-104150000I62500J0D01*
G01*
X153812500Y-104150000D01*
G75*
G02*
X153875000Y-104212500I0J-62500D01*
G01*
X153875000Y-104912500D01*
G75*
G02*
X153812500Y-104975000I-62500J0D01*
G01*
X153687500Y-104975000D01*
G75*
G02*
X153625000Y-104912500I0J62500D01*
G01*
G37*
G36*
G01*
X153125000Y-104912500D02*
X153125000Y-104212500D01*
G75*
G02*
X153187500Y-104150000I62500J0D01*
G01*
X153312500Y-104150000D01*
G75*
G02*
X153375000Y-104212500I0J-62500D01*
G01*
X153375000Y-104912500D01*
G75*
G02*
X153312500Y-104975000I-62500J0D01*
G01*
X153187500Y-104975000D01*
G75*
G02*
X153125000Y-104912500I0J62500D01*
G01*
G37*
G36*
G01*
X152625000Y-104912500D02*
X152625000Y-104212500D01*
G75*
G02*
X152687500Y-104150000I62500J0D01*
G01*
X152812500Y-104150000D01*
G75*
G02*
X152875000Y-104212500I0J-62500D01*
G01*
X152875000Y-104912500D01*
G75*
G02*
X152812500Y-104975000I-62500J0D01*
G01*
X152687500Y-104975000D01*
G75*
G02*
X152625000Y-104912500I0J62500D01*
G01*
G37*
G36*
G01*
X152125000Y-104912500D02*
X152125000Y-104212500D01*
G75*
G02*
X152187500Y-104150000I62500J0D01*
G01*
X152312500Y-104150000D01*
G75*
G02*
X152375000Y-104212500I0J-62500D01*
G01*
X152375000Y-104912500D01*
G75*
G02*
X152312500Y-104975000I-62500J0D01*
G01*
X152187500Y-104975000D01*
G75*
G02*
X152125000Y-104912500I0J62500D01*
G01*
G37*
D15*
X153000000Y-106000000D03*
G36*
G01*
X150185000Y-108780000D02*
X149815000Y-108780000D01*
G75*
G02*
X149680000Y-108645000I0J135000D01*
G01*
X149680000Y-108375000D01*
G75*
G02*
X149815000Y-108240000I135000J0D01*
G01*
X150185000Y-108240000D01*
G75*
G02*
X150320000Y-108375000I0J-135000D01*
G01*
X150320000Y-108645000D01*
G75*
G02*
X150185000Y-108780000I-135000J0D01*
G01*
G37*
G36*
G01*
X150185000Y-107760000D02*
X149815000Y-107760000D01*
G75*
G02*
X149680000Y-107625000I0J135000D01*
G01*
X149680000Y-107355000D01*
G75*
G02*
X149815000Y-107220000I135000J0D01*
G01*
X150185000Y-107220000D01*
G75*
G02*
X150320000Y-107355000I0J-135000D01*
G01*
X150320000Y-107625000D01*
G75*
G02*
X150185000Y-107760000I-135000J0D01*
G01*
G37*
G36*
G01*
X118220000Y-122185000D02*
X118220000Y-121815000D01*
G75*
G02*
X118355000Y-121680000I135000J0D01*
G01*
X118625000Y-121680000D01*
G75*
G02*
X118760000Y-121815000I0J-135000D01*
G01*
X118760000Y-122185000D01*
G75*
G02*
X118625000Y-122320000I-135000J0D01*
G01*
X118355000Y-122320000D01*
G75*
G02*
X118220000Y-122185000I0J135000D01*
G01*
G37*
G36*
G01*
X119240000Y-122185000D02*
X119240000Y-121815000D01*
G75*
G02*
X119375000Y-121680000I135000J0D01*
G01*
X119645000Y-121680000D01*
G75*
G02*
X119780000Y-121815000I0J-135000D01*
G01*
X119780000Y-122185000D01*
G75*
G02*
X119645000Y-122320000I-135000J0D01*
G01*
X119375000Y-122320000D01*
G75*
G02*
X119240000Y-122185000I0J135000D01*
G01*
G37*
G36*
G01*
X112175000Y-101700000D02*
X112325000Y-101700000D01*
G75*
G02*
X112375000Y-101750000I0J-50000D01*
G01*
X112375000Y-102250000D01*
G75*
G02*
X112325000Y-102300000I-50000J0D01*
G01*
X112175000Y-102300000D01*
G75*
G02*
X112125000Y-102250000I0J50000D01*
G01*
X112125000Y-101750000D01*
G75*
G02*
X112175000Y-101700000I50000J0D01*
G01*
G37*
G36*
G01*
X112675000Y-101700000D02*
X112825000Y-101700000D01*
G75*
G02*
X112875000Y-101750000I0J-50000D01*
G01*
X112875000Y-102250000D01*
G75*
G02*
X112825000Y-102300000I-50000J0D01*
G01*
X112675000Y-102300000D01*
G75*
G02*
X112625000Y-102250000I0J50000D01*
G01*
X112625000Y-101750000D01*
G75*
G02*
X112675000Y-101700000I50000J0D01*
G01*
G37*
G36*
G01*
X113325000Y-102300000D02*
X113175000Y-102300000D01*
G75*
G02*
X113125000Y-102250000I0J50000D01*
G01*
X113125000Y-101750000D01*
G75*
G02*
X113175000Y-101700000I50000J0D01*
G01*
X113325000Y-101700000D01*
G75*
G02*
X113375000Y-101750000I0J-50000D01*
G01*
X113375000Y-102250000D01*
G75*
G02*
X113325000Y-102300000I-50000J0D01*
G01*
G37*
G36*
G01*
X113825000Y-102300000D02*
X113675000Y-102300000D01*
G75*
G02*
X113625000Y-102250000I0J50000D01*
G01*
X113625000Y-101750000D01*
G75*
G02*
X113675000Y-101700000I50000J0D01*
G01*
X113825000Y-101700000D01*
G75*
G02*
X113875000Y-101750000I0J-50000D01*
G01*
X113875000Y-102250000D01*
G75*
G02*
X113825000Y-102300000I-50000J0D01*
G01*
G37*
G36*
G01*
X114700000Y-101525000D02*
X114700000Y-101675000D01*
G75*
G02*
X114650000Y-101725000I-50000J0D01*
G01*
X114150000Y-101725000D01*
G75*
G02*
X114100000Y-101675000I0J50000D01*
G01*
X114100000Y-101525000D01*
G75*
G02*
X114150000Y-101475000I50000J0D01*
G01*
X114650000Y-101475000D01*
G75*
G02*
X114700000Y-101525000I0J-50000D01*
G01*
G37*
G36*
G01*
X114700000Y-101025000D02*
X114700000Y-101175000D01*
G75*
G02*
X114650000Y-101225000I-50000J0D01*
G01*
X114150000Y-101225000D01*
G75*
G02*
X114100000Y-101175000I0J50000D01*
G01*
X114100000Y-101025000D01*
G75*
G02*
X114150000Y-100975000I50000J0D01*
G01*
X114650000Y-100975000D01*
G75*
G02*
X114700000Y-101025000I0J-50000D01*
G01*
G37*
G36*
X114140150Y-100724520D02*
G01*
X114133280Y-100721673D01*
X114130866Y-100721194D01*
X114128821Y-100719827D01*
X114121949Y-100716981D01*
X114116689Y-100711720D01*
X114114645Y-100710355D01*
X114113280Y-100708311D01*
X114108019Y-100703051D01*
X114105173Y-100696179D01*
X114103806Y-100694134D01*
X114103327Y-100691720D01*
X114100480Y-100684850D01*
X114100000Y-100675000D01*
X114100000Y-100025000D01*
X114100480Y-100015150D01*
X114103327Y-100008280D01*
X114103806Y-100005866D01*
X114105173Y-100003821D01*
X114108019Y-99996949D01*
X114113280Y-99991689D01*
X114114645Y-99989645D01*
X114116689Y-99988280D01*
X114121949Y-99983019D01*
X114128821Y-99980173D01*
X114130866Y-99978806D01*
X114133280Y-99978327D01*
X114140150Y-99975480D01*
X114150000Y-99975000D01*
X114650000Y-99975000D01*
X114669134Y-99978806D01*
X114685355Y-99989645D01*
X114696194Y-100005866D01*
X114700000Y-100025000D01*
X114700000Y-100175000D01*
X114696194Y-100194134D01*
X114685355Y-100210355D01*
X114669134Y-100221194D01*
X114650000Y-100225000D01*
X114350000Y-100225000D01*
X114350000Y-100475000D01*
X114650000Y-100475000D01*
X114669134Y-100478806D01*
X114685355Y-100489645D01*
X114696194Y-100505866D01*
X114700000Y-100525000D01*
X114700000Y-100675000D01*
X114696194Y-100694134D01*
X114685355Y-100710355D01*
X114669134Y-100721194D01*
X114650000Y-100725000D01*
X114150000Y-100725000D01*
X114140150Y-100724520D01*
G37*
G36*
X114140150Y-100724520D02*
G01*
X114133280Y-100721673D01*
X114130866Y-100721194D01*
X114128821Y-100719827D01*
X114121949Y-100716981D01*
X114116689Y-100711720D01*
X114114645Y-100710355D01*
X114113280Y-100708311D01*
X114108019Y-100703051D01*
X114105173Y-100696179D01*
X114103806Y-100694134D01*
X114103327Y-100691720D01*
X114100480Y-100684850D01*
X114100000Y-100675000D01*
X114100000Y-100025000D01*
X114100480Y-100015150D01*
X114103327Y-100008280D01*
X114103806Y-100005866D01*
X114105173Y-100003821D01*
X114108019Y-99996949D01*
X114113280Y-99991689D01*
X114114645Y-99989645D01*
X114116689Y-99988280D01*
X114121949Y-99983019D01*
X114128821Y-99980173D01*
X114130866Y-99978806D01*
X114133280Y-99978327D01*
X114140150Y-99975480D01*
X114150000Y-99975000D01*
X114650000Y-99975000D01*
X114669134Y-99978806D01*
X114685355Y-99989645D01*
X114696194Y-100005866D01*
X114700000Y-100025000D01*
X114700000Y-100175000D01*
X114696194Y-100194134D01*
X114685355Y-100210355D01*
X114669134Y-100221194D01*
X114650000Y-100225000D01*
X114350000Y-100225000D01*
X114350000Y-100475000D01*
X114650000Y-100475000D01*
X114669134Y-100478806D01*
X114685355Y-100489645D01*
X114696194Y-100505866D01*
X114700000Y-100525000D01*
X114700000Y-100675000D01*
X114696194Y-100694134D01*
X114685355Y-100710355D01*
X114669134Y-100721194D01*
X114650000Y-100725000D01*
X114150000Y-100725000D01*
X114140150Y-100724520D01*
G37*
G36*
G01*
X113575000Y-99974500D02*
X113425000Y-99974500D01*
G75*
G02*
X113375000Y-99924500I0J50000D01*
G01*
X113375000Y-99449500D01*
G75*
G02*
X113425000Y-99399500I50000J0D01*
G01*
X113575000Y-99399500D01*
G75*
G02*
X113625000Y-99449500I0J-50000D01*
G01*
X113625000Y-99924500D01*
G75*
G02*
X113575000Y-99974500I-50000J0D01*
G01*
G37*
G36*
G01*
X113575000Y-100749500D02*
X113425000Y-100749500D01*
G75*
G02*
X113375000Y-100699500I0J50000D01*
G01*
X113375000Y-100224500D01*
G75*
G02*
X113425000Y-100174500I50000J0D01*
G01*
X113575000Y-100174500D01*
G75*
G02*
X113625000Y-100224500I0J-50000D01*
G01*
X113625000Y-100699500D01*
G75*
G02*
X113575000Y-100749500I-50000J0D01*
G01*
G37*
G36*
G01*
X113075000Y-100150000D02*
X112925000Y-100150000D01*
G75*
G02*
X112875000Y-100100000I0J50000D01*
G01*
X112875000Y-99480000D01*
G75*
G02*
X112925000Y-99430000I50000J0D01*
G01*
X113075000Y-99430000D01*
G75*
G02*
X113125000Y-99480000I0J-50000D01*
G01*
X113125000Y-100100000D01*
G75*
G02*
X113075000Y-100150000I-50000J0D01*
G01*
G37*
G36*
G01*
X113075000Y-101070000D02*
X112925000Y-101070000D01*
G75*
G02*
X112875000Y-101020000I0J50000D01*
G01*
X112875000Y-100400000D01*
G75*
G02*
X112925000Y-100350000I50000J0D01*
G01*
X113075000Y-100350000D01*
G75*
G02*
X113125000Y-100400000I0J-50000D01*
G01*
X113125000Y-101020000D01*
G75*
G02*
X113075000Y-101070000I-50000J0D01*
G01*
G37*
G36*
G01*
X112425000Y-99399500D02*
X112575000Y-99399500D01*
G75*
G02*
X112625000Y-99449500I0J-50000D01*
G01*
X112625000Y-99924500D01*
G75*
G02*
X112575000Y-99974500I-50000J0D01*
G01*
X112425000Y-99974500D01*
G75*
G02*
X112375000Y-99924500I0J50000D01*
G01*
X112375000Y-99449500D01*
G75*
G02*
X112425000Y-99399500I50000J0D01*
G01*
G37*
G36*
G01*
X112425000Y-100174500D02*
X112575000Y-100174500D01*
G75*
G02*
X112625000Y-100224500I0J-50000D01*
G01*
X112625000Y-100699500D01*
G75*
G02*
X112575000Y-100749500I-50000J0D01*
G01*
X112425000Y-100749500D01*
G75*
G02*
X112375000Y-100699500I0J50000D01*
G01*
X112375000Y-100224500D01*
G75*
G02*
X112425000Y-100174500I50000J0D01*
G01*
G37*
G36*
X111330866Y-100721194D02*
G01*
X111314645Y-100710355D01*
X111303806Y-100694134D01*
X111300000Y-100675000D01*
X111300000Y-100525000D01*
X111303806Y-100505866D01*
X111314645Y-100489645D01*
X111330866Y-100478806D01*
X111350000Y-100475000D01*
X111650000Y-100475000D01*
X111650000Y-100225000D01*
X111350000Y-100225000D01*
X111330866Y-100221194D01*
X111314645Y-100210355D01*
X111303806Y-100194134D01*
X111300000Y-100175000D01*
X111300000Y-100025000D01*
X111303806Y-100005866D01*
X111314645Y-99989645D01*
X111330866Y-99978806D01*
X111350000Y-99975000D01*
X111850000Y-99975000D01*
X111859850Y-99975480D01*
X111866720Y-99978327D01*
X111869134Y-99978806D01*
X111871179Y-99980173D01*
X111878051Y-99983019D01*
X111883311Y-99988280D01*
X111885355Y-99989645D01*
X111886720Y-99991689D01*
X111891981Y-99996949D01*
X111894827Y-100003821D01*
X111896194Y-100005866D01*
X111896673Y-100008280D01*
X111899520Y-100015150D01*
X111900000Y-100025000D01*
X111900000Y-100675000D01*
X111899520Y-100684850D01*
X111896673Y-100691720D01*
X111896194Y-100694134D01*
X111894827Y-100696179D01*
X111891981Y-100703051D01*
X111886720Y-100708311D01*
X111885355Y-100710355D01*
X111883311Y-100711720D01*
X111878051Y-100716981D01*
X111871179Y-100719827D01*
X111869134Y-100721194D01*
X111866720Y-100721673D01*
X111859850Y-100724520D01*
X111850000Y-100725000D01*
X111350000Y-100725000D01*
X111330866Y-100721194D01*
G37*
G36*
X111330866Y-100721194D02*
G01*
X111314645Y-100710355D01*
X111303806Y-100694134D01*
X111300000Y-100675000D01*
X111300000Y-100525000D01*
X111303806Y-100505866D01*
X111314645Y-100489645D01*
X111330866Y-100478806D01*
X111350000Y-100475000D01*
X111650000Y-100475000D01*
X111650000Y-100225000D01*
X111350000Y-100225000D01*
X111330866Y-100221194D01*
X111314645Y-100210355D01*
X111303806Y-100194134D01*
X111300000Y-100175000D01*
X111300000Y-100025000D01*
X111303806Y-100005866D01*
X111314645Y-99989645D01*
X111330866Y-99978806D01*
X111350000Y-99975000D01*
X111850000Y-99975000D01*
X111859850Y-99975480D01*
X111866720Y-99978327D01*
X111869134Y-99978806D01*
X111871179Y-99980173D01*
X111878051Y-99983019D01*
X111883311Y-99988280D01*
X111885355Y-99989645D01*
X111886720Y-99991689D01*
X111891981Y-99996949D01*
X111894827Y-100003821D01*
X111896194Y-100005866D01*
X111896673Y-100008280D01*
X111899520Y-100015150D01*
X111900000Y-100025000D01*
X111900000Y-100675000D01*
X111899520Y-100684850D01*
X111896673Y-100691720D01*
X111896194Y-100694134D01*
X111894827Y-100696179D01*
X111891981Y-100703051D01*
X111886720Y-100708311D01*
X111885355Y-100710355D01*
X111883311Y-100711720D01*
X111878051Y-100716981D01*
X111871179Y-100719827D01*
X111869134Y-100721194D01*
X111866720Y-100721673D01*
X111859850Y-100724520D01*
X111850000Y-100725000D01*
X111350000Y-100725000D01*
X111330866Y-100721194D01*
G37*
G36*
G01*
X111900000Y-101025000D02*
X111900000Y-101175000D01*
G75*
G02*
X111850000Y-101225000I-50000J0D01*
G01*
X111350000Y-101225000D01*
G75*
G02*
X111300000Y-101175000I0J50000D01*
G01*
X111300000Y-101025000D01*
G75*
G02*
X111350000Y-100975000I50000J0D01*
G01*
X111850000Y-100975000D01*
G75*
G02*
X111900000Y-101025000I0J-50000D01*
G01*
G37*
G36*
G01*
X111900000Y-101525000D02*
X111900000Y-101675000D01*
G75*
G02*
X111850000Y-101725000I-50000J0D01*
G01*
X111350000Y-101725000D01*
G75*
G02*
X111300000Y-101675000I0J50000D01*
G01*
X111300000Y-101525000D01*
G75*
G02*
X111350000Y-101475000I50000J0D01*
G01*
X111850000Y-101475000D01*
G75*
G02*
X111900000Y-101525000I0J-50000D01*
G01*
G37*
G36*
G01*
X145185000Y-73280000D02*
X144815000Y-73280000D01*
G75*
G02*
X144680000Y-73145000I0J135000D01*
G01*
X144680000Y-72875000D01*
G75*
G02*
X144815000Y-72740000I135000J0D01*
G01*
X145185000Y-72740000D01*
G75*
G02*
X145320000Y-72875000I0J-135000D01*
G01*
X145320000Y-73145000D01*
G75*
G02*
X145185000Y-73280000I-135000J0D01*
G01*
G37*
G36*
G01*
X145185000Y-72260000D02*
X144815000Y-72260000D01*
G75*
G02*
X144680000Y-72125000I0J135000D01*
G01*
X144680000Y-71855000D01*
G75*
G02*
X144815000Y-71720000I135000J0D01*
G01*
X145185000Y-71720000D01*
G75*
G02*
X145320000Y-71855000I0J-135000D01*
G01*
X145320000Y-72125000D01*
G75*
G02*
X145185000Y-72260000I-135000J0D01*
G01*
G37*
G36*
G01*
X108220000Y-106685000D02*
X108220000Y-106315000D01*
G75*
G02*
X108355000Y-106180000I135000J0D01*
G01*
X108625000Y-106180000D01*
G75*
G02*
X108760000Y-106315000I0J-135000D01*
G01*
X108760000Y-106685000D01*
G75*
G02*
X108625000Y-106820000I-135000J0D01*
G01*
X108355000Y-106820000D01*
G75*
G02*
X108220000Y-106685000I0J135000D01*
G01*
G37*
G36*
G01*
X109240000Y-106685000D02*
X109240000Y-106315000D01*
G75*
G02*
X109375000Y-106180000I135000J0D01*
G01*
X109645000Y-106180000D01*
G75*
G02*
X109780000Y-106315000I0J-135000D01*
G01*
X109780000Y-106685000D01*
G75*
G02*
X109645000Y-106820000I-135000J0D01*
G01*
X109375000Y-106820000D01*
G75*
G02*
X109240000Y-106685000I0J135000D01*
G01*
G37*
G36*
G01*
X123825000Y-93200000D02*
X123825000Y-92900000D01*
G75*
G02*
X123975000Y-92750000I150000J0D01*
G01*
X125150000Y-92750000D01*
G75*
G02*
X125300000Y-92900000I0J-150000D01*
G01*
X125300000Y-93200000D01*
G75*
G02*
X125150000Y-93350000I-150000J0D01*
G01*
X123975000Y-93350000D01*
G75*
G02*
X123825000Y-93200000I0J150000D01*
G01*
G37*
G36*
G01*
X123825000Y-95100000D02*
X123825000Y-94800000D01*
G75*
G02*
X123975000Y-94650000I150000J0D01*
G01*
X125150000Y-94650000D01*
G75*
G02*
X125300000Y-94800000I0J-150000D01*
G01*
X125300000Y-95100000D01*
G75*
G02*
X125150000Y-95250000I-150000J0D01*
G01*
X123975000Y-95250000D01*
G75*
G02*
X123825000Y-95100000I0J150000D01*
G01*
G37*
G36*
G01*
X125700000Y-94150000D02*
X125700000Y-93850000D01*
G75*
G02*
X125850000Y-93700000I150000J0D01*
G01*
X127025000Y-93700000D01*
G75*
G02*
X127175000Y-93850000I0J-150000D01*
G01*
X127175000Y-94150000D01*
G75*
G02*
X127025000Y-94300000I-150000J0D01*
G01*
X125850000Y-94300000D01*
G75*
G02*
X125700000Y-94150000I0J150000D01*
G01*
G37*
G36*
G01*
X118240000Y-75670000D02*
X118240000Y-75330000D01*
G75*
G02*
X118380000Y-75190000I140000J0D01*
G01*
X118660000Y-75190000D01*
G75*
G02*
X118800000Y-75330000I0J-140000D01*
G01*
X118800000Y-75670000D01*
G75*
G02*
X118660000Y-75810000I-140000J0D01*
G01*
X118380000Y-75810000D01*
G75*
G02*
X118240000Y-75670000I0J140000D01*
G01*
G37*
G36*
G01*
X119200000Y-75670000D02*
X119200000Y-75330000D01*
G75*
G02*
X119340000Y-75190000I140000J0D01*
G01*
X119620000Y-75190000D01*
G75*
G02*
X119760000Y-75330000I0J-140000D01*
G01*
X119760000Y-75670000D01*
G75*
G02*
X119620000Y-75810000I-140000J0D01*
G01*
X119340000Y-75810000D01*
G75*
G02*
X119200000Y-75670000I0J140000D01*
G01*
G37*
D16*
X125000000Y-121000000D03*
X127000000Y-121000000D03*
X125000000Y-123000000D03*
X127000000Y-123000000D03*
X125000000Y-125000000D03*
X127000000Y-125000000D03*
G36*
G01*
X117685000Y-77780000D02*
X117315000Y-77780000D01*
G75*
G02*
X117180000Y-77645000I0J135000D01*
G01*
X117180000Y-77375000D01*
G75*
G02*
X117315000Y-77240000I135000J0D01*
G01*
X117685000Y-77240000D01*
G75*
G02*
X117820000Y-77375000I0J-135000D01*
G01*
X117820000Y-77645000D01*
G75*
G02*
X117685000Y-77780000I-135000J0D01*
G01*
G37*
G36*
G01*
X117685000Y-76760000D02*
X117315000Y-76760000D01*
G75*
G02*
X117180000Y-76625000I0J135000D01*
G01*
X117180000Y-76355000D01*
G75*
G02*
X117315000Y-76220000I135000J0D01*
G01*
X117685000Y-76220000D01*
G75*
G02*
X117820000Y-76355000I0J-135000D01*
G01*
X117820000Y-76625000D01*
G75*
G02*
X117685000Y-76760000I-135000J0D01*
G01*
G37*
G36*
G01*
X114325000Y-78700000D02*
X114325000Y-78400000D01*
G75*
G02*
X114475000Y-78250000I150000J0D01*
G01*
X115650000Y-78250000D01*
G75*
G02*
X115800000Y-78400000I0J-150000D01*
G01*
X115800000Y-78700000D01*
G75*
G02*
X115650000Y-78850000I-150000J0D01*
G01*
X114475000Y-78850000D01*
G75*
G02*
X114325000Y-78700000I0J150000D01*
G01*
G37*
G36*
G01*
X114325000Y-80600000D02*
X114325000Y-80300000D01*
G75*
G02*
X114475000Y-80150000I150000J0D01*
G01*
X115650000Y-80150000D01*
G75*
G02*
X115800000Y-80300000I0J-150000D01*
G01*
X115800000Y-80600000D01*
G75*
G02*
X115650000Y-80750000I-150000J0D01*
G01*
X114475000Y-80750000D01*
G75*
G02*
X114325000Y-80600000I0J150000D01*
G01*
G37*
G36*
G01*
X116200000Y-79650000D02*
X116200000Y-79350000D01*
G75*
G02*
X116350000Y-79200000I150000J0D01*
G01*
X117525000Y-79200000D01*
G75*
G02*
X117675000Y-79350000I0J-150000D01*
G01*
X117675000Y-79650000D01*
G75*
G02*
X117525000Y-79800000I-150000J0D01*
G01*
X116350000Y-79800000D01*
G75*
G02*
X116200000Y-79650000I0J150000D01*
G01*
G37*
G36*
G01*
X138520000Y-103685000D02*
X138520000Y-103315000D01*
G75*
G02*
X138655000Y-103180000I135000J0D01*
G01*
X138925000Y-103180000D01*
G75*
G02*
X139060000Y-103315000I0J-135000D01*
G01*
X139060000Y-103685000D01*
G75*
G02*
X138925000Y-103820000I-135000J0D01*
G01*
X138655000Y-103820000D01*
G75*
G02*
X138520000Y-103685000I0J135000D01*
G01*
G37*
G36*
G01*
X139540000Y-103685000D02*
X139540000Y-103315000D01*
G75*
G02*
X139675000Y-103180000I135000J0D01*
G01*
X139945000Y-103180000D01*
G75*
G02*
X140080000Y-103315000I0J-135000D01*
G01*
X140080000Y-103685000D01*
G75*
G02*
X139945000Y-103820000I-135000J0D01*
G01*
X139675000Y-103820000D01*
G75*
G02*
X139540000Y-103685000I0J135000D01*
G01*
G37*
G36*
G01*
X154975000Y-96837500D02*
X154975000Y-96662500D01*
G75*
G02*
X155062500Y-96575000I87500J0D01*
G01*
X156137500Y-96575000D01*
G75*
G02*
X156225000Y-96662500I0J-87500D01*
G01*
X156225000Y-96837500D01*
G75*
G02*
X156137500Y-96925000I-87500J0D01*
G01*
X155062500Y-96925000D01*
G75*
G02*
X154975000Y-96837500I0J87500D01*
G01*
G37*
G36*
G01*
X154975000Y-97337500D02*
X154975000Y-97162500D01*
G75*
G02*
X155062500Y-97075000I87500J0D01*
G01*
X156137500Y-97075000D01*
G75*
G02*
X156225000Y-97162500I0J-87500D01*
G01*
X156225000Y-97337500D01*
G75*
G02*
X156137500Y-97425000I-87500J0D01*
G01*
X155062500Y-97425000D01*
G75*
G02*
X154975000Y-97337500I0J87500D01*
G01*
G37*
G36*
G01*
X154975000Y-97837500D02*
X154975000Y-97662500D01*
G75*
G02*
X155062500Y-97575000I87500J0D01*
G01*
X156137500Y-97575000D01*
G75*
G02*
X156225000Y-97662500I0J-87500D01*
G01*
X156225000Y-97837500D01*
G75*
G02*
X156137500Y-97925000I-87500J0D01*
G01*
X155062500Y-97925000D01*
G75*
G02*
X154975000Y-97837500I0J87500D01*
G01*
G37*
G36*
G01*
X154975000Y-98337500D02*
X154975000Y-98162500D01*
G75*
G02*
X155062500Y-98075000I87500J0D01*
G01*
X156137500Y-98075000D01*
G75*
G02*
X156225000Y-98162500I0J-87500D01*
G01*
X156225000Y-98337500D01*
G75*
G02*
X156137500Y-98425000I-87500J0D01*
G01*
X155062500Y-98425000D01*
G75*
G02*
X154975000Y-98337500I0J87500D01*
G01*
G37*
G36*
G01*
X157775000Y-98337500D02*
X157775000Y-98162500D01*
G75*
G02*
X157862500Y-98075000I87500J0D01*
G01*
X158937500Y-98075000D01*
G75*
G02*
X159025000Y-98162500I0J-87500D01*
G01*
X159025000Y-98337500D01*
G75*
G02*
X158937500Y-98425000I-87500J0D01*
G01*
X157862500Y-98425000D01*
G75*
G02*
X157775000Y-98337500I0J87500D01*
G01*
G37*
G36*
G01*
X157775000Y-97837500D02*
X157775000Y-97662500D01*
G75*
G02*
X157862500Y-97575000I87500J0D01*
G01*
X158937500Y-97575000D01*
G75*
G02*
X159025000Y-97662500I0J-87500D01*
G01*
X159025000Y-97837500D01*
G75*
G02*
X158937500Y-97925000I-87500J0D01*
G01*
X157862500Y-97925000D01*
G75*
G02*
X157775000Y-97837500I0J87500D01*
G01*
G37*
G36*
G01*
X157775000Y-97337500D02*
X157775000Y-97162500D01*
G75*
G02*
X157862500Y-97075000I87500J0D01*
G01*
X158937500Y-97075000D01*
G75*
G02*
X159025000Y-97162500I0J-87500D01*
G01*
X159025000Y-97337500D01*
G75*
G02*
X158937500Y-97425000I-87500J0D01*
G01*
X157862500Y-97425000D01*
G75*
G02*
X157775000Y-97337500I0J87500D01*
G01*
G37*
G36*
G01*
X157775000Y-96837500D02*
X157775000Y-96662500D01*
G75*
G02*
X157862500Y-96575000I87500J0D01*
G01*
X158937500Y-96575000D01*
G75*
G02*
X159025000Y-96662500I0J-87500D01*
G01*
X159025000Y-96837500D01*
G75*
G02*
X158937500Y-96925000I-87500J0D01*
G01*
X157862500Y-96925000D01*
G75*
G02*
X157775000Y-96837500I0J87500D01*
G01*
G37*
G36*
G01*
X133050000Y-101225000D02*
X132550000Y-101225000D01*
G75*
G02*
X132325000Y-101000000I0J225000D01*
G01*
X132325000Y-100550000D01*
G75*
G02*
X132550000Y-100325000I225000J0D01*
G01*
X133050000Y-100325000D01*
G75*
G02*
X133275000Y-100550000I0J-225000D01*
G01*
X133275000Y-101000000D01*
G75*
G02*
X133050000Y-101225000I-225000J0D01*
G01*
G37*
G36*
G01*
X133050000Y-99675000D02*
X132550000Y-99675000D01*
G75*
G02*
X132325000Y-99450000I0J225000D01*
G01*
X132325000Y-99000000D01*
G75*
G02*
X132550000Y-98775000I225000J0D01*
G01*
X133050000Y-98775000D01*
G75*
G02*
X133275000Y-99000000I0J-225000D01*
G01*
X133275000Y-99450000D01*
G75*
G02*
X133050000Y-99675000I-225000J0D01*
G01*
G37*
G36*
G01*
X132185000Y-115780000D02*
X131815000Y-115780000D01*
G75*
G02*
X131680000Y-115645000I0J135000D01*
G01*
X131680000Y-115375000D01*
G75*
G02*
X131815000Y-115240000I135000J0D01*
G01*
X132185000Y-115240000D01*
G75*
G02*
X132320000Y-115375000I0J-135000D01*
G01*
X132320000Y-115645000D01*
G75*
G02*
X132185000Y-115780000I-135000J0D01*
G01*
G37*
G36*
G01*
X132185000Y-114760000D02*
X131815000Y-114760000D01*
G75*
G02*
X131680000Y-114625000I0J135000D01*
G01*
X131680000Y-114355000D01*
G75*
G02*
X131815000Y-114220000I135000J0D01*
G01*
X132185000Y-114220000D01*
G75*
G02*
X132320000Y-114355000I0J-135000D01*
G01*
X132320000Y-114625000D01*
G75*
G02*
X132185000Y-114760000I-135000J0D01*
G01*
G37*
G36*
G01*
X112285000Y-105580000D02*
X111915000Y-105580000D01*
G75*
G02*
X111780000Y-105445000I0J135000D01*
G01*
X111780000Y-105175000D01*
G75*
G02*
X111915000Y-105040000I135000J0D01*
G01*
X112285000Y-105040000D01*
G75*
G02*
X112420000Y-105175000I0J-135000D01*
G01*
X112420000Y-105445000D01*
G75*
G02*
X112285000Y-105580000I-135000J0D01*
G01*
G37*
G36*
G01*
X112285000Y-104560000D02*
X111915000Y-104560000D01*
G75*
G02*
X111780000Y-104425000I0J135000D01*
G01*
X111780000Y-104155000D01*
G75*
G02*
X111915000Y-104020000I135000J0D01*
G01*
X112285000Y-104020000D01*
G75*
G02*
X112420000Y-104155000I0J-135000D01*
G01*
X112420000Y-104425000D01*
G75*
G02*
X112285000Y-104560000I-135000J0D01*
G01*
G37*
G36*
G01*
X126550000Y-101050000D02*
X125250000Y-101050000D01*
G75*
G02*
X125000000Y-100800000I0J250000D01*
G01*
X125000000Y-100150000D01*
G75*
G02*
X125250000Y-99900000I250000J0D01*
G01*
X126550000Y-99900000D01*
G75*
G02*
X126800000Y-100150000I0J-250000D01*
G01*
X126800000Y-100800000D01*
G75*
G02*
X126550000Y-101050000I-250000J0D01*
G01*
G37*
G36*
G01*
X126550000Y-98100000D02*
X125250000Y-98100000D01*
G75*
G02*
X125000000Y-97850000I0J250000D01*
G01*
X125000000Y-97200000D01*
G75*
G02*
X125250000Y-96950000I250000J0D01*
G01*
X126550000Y-96950000D01*
G75*
G02*
X126800000Y-97200000I0J-250000D01*
G01*
X126800000Y-97850000D01*
G75*
G02*
X126550000Y-98100000I-250000J0D01*
G01*
G37*
G36*
G01*
X123220000Y-117185000D02*
X123220000Y-116815000D01*
G75*
G02*
X123355000Y-116680000I135000J0D01*
G01*
X123625000Y-116680000D01*
G75*
G02*
X123760000Y-116815000I0J-135000D01*
G01*
X123760000Y-117185000D01*
G75*
G02*
X123625000Y-117320000I-135000J0D01*
G01*
X123355000Y-117320000D01*
G75*
G02*
X123220000Y-117185000I0J135000D01*
G01*
G37*
G36*
G01*
X124240000Y-117185000D02*
X124240000Y-116815000D01*
G75*
G02*
X124375000Y-116680000I135000J0D01*
G01*
X124645000Y-116680000D01*
G75*
G02*
X124780000Y-116815000I0J-135000D01*
G01*
X124780000Y-117185000D01*
G75*
G02*
X124645000Y-117320000I-135000J0D01*
G01*
X124375000Y-117320000D01*
G75*
G02*
X124240000Y-117185000I0J135000D01*
G01*
G37*
G36*
G01*
X120220000Y-83185000D02*
X120220000Y-82815000D01*
G75*
G02*
X120355000Y-82680000I135000J0D01*
G01*
X120625000Y-82680000D01*
G75*
G02*
X120760000Y-82815000I0J-135000D01*
G01*
X120760000Y-83185000D01*
G75*
G02*
X120625000Y-83320000I-135000J0D01*
G01*
X120355000Y-83320000D01*
G75*
G02*
X120220000Y-83185000I0J135000D01*
G01*
G37*
G36*
G01*
X121240000Y-83185000D02*
X121240000Y-82815000D01*
G75*
G02*
X121375000Y-82680000I135000J0D01*
G01*
X121645000Y-82680000D01*
G75*
G02*
X121780000Y-82815000I0J-135000D01*
G01*
X121780000Y-83185000D01*
G75*
G02*
X121645000Y-83320000I-135000J0D01*
G01*
X121375000Y-83320000D01*
G75*
G02*
X121240000Y-83185000I0J135000D01*
G01*
G37*
D17*
X148000000Y-86125000D03*
X154000000Y-86125000D03*
X148000000Y-89875000D03*
X154000000Y-89875000D03*
G36*
G01*
X145185000Y-75780000D02*
X144815000Y-75780000D01*
G75*
G02*
X144680000Y-75645000I0J135000D01*
G01*
X144680000Y-75375000D01*
G75*
G02*
X144815000Y-75240000I135000J0D01*
G01*
X145185000Y-75240000D01*
G75*
G02*
X145320000Y-75375000I0J-135000D01*
G01*
X145320000Y-75645000D01*
G75*
G02*
X145185000Y-75780000I-135000J0D01*
G01*
G37*
G36*
G01*
X145185000Y-74760000D02*
X144815000Y-74760000D01*
G75*
G02*
X144680000Y-74625000I0J135000D01*
G01*
X144680000Y-74355000D01*
G75*
G02*
X144815000Y-74220000I135000J0D01*
G01*
X145185000Y-74220000D01*
G75*
G02*
X145320000Y-74355000I0J-135000D01*
G01*
X145320000Y-74625000D01*
G75*
G02*
X145185000Y-74760000I-135000J0D01*
G01*
G37*
G36*
G01*
X153220000Y-117185000D02*
X153220000Y-116815000D01*
G75*
G02*
X153355000Y-116680000I135000J0D01*
G01*
X153625000Y-116680000D01*
G75*
G02*
X153760000Y-116815000I0J-135000D01*
G01*
X153760000Y-117185000D01*
G75*
G02*
X153625000Y-117320000I-135000J0D01*
G01*
X153355000Y-117320000D01*
G75*
G02*
X153220000Y-117185000I0J135000D01*
G01*
G37*
G36*
G01*
X154240000Y-117185000D02*
X154240000Y-116815000D01*
G75*
G02*
X154375000Y-116680000I135000J0D01*
G01*
X154645000Y-116680000D01*
G75*
G02*
X154780000Y-116815000I0J-135000D01*
G01*
X154780000Y-117185000D01*
G75*
G02*
X154645000Y-117320000I-135000J0D01*
G01*
X154375000Y-117320000D01*
G75*
G02*
X154240000Y-117185000I0J135000D01*
G01*
G37*
G36*
G01*
X154185000Y-95780000D02*
X153815000Y-95780000D01*
G75*
G02*
X153680000Y-95645000I0J135000D01*
G01*
X153680000Y-95375000D01*
G75*
G02*
X153815000Y-95240000I135000J0D01*
G01*
X154185000Y-95240000D01*
G75*
G02*
X154320000Y-95375000I0J-135000D01*
G01*
X154320000Y-95645000D01*
G75*
G02*
X154185000Y-95780000I-135000J0D01*
G01*
G37*
G36*
G01*
X154185000Y-94760000D02*
X153815000Y-94760000D01*
G75*
G02*
X153680000Y-94625000I0J135000D01*
G01*
X153680000Y-94355000D01*
G75*
G02*
X153815000Y-94220000I135000J0D01*
G01*
X154185000Y-94220000D01*
G75*
G02*
X154320000Y-94355000I0J-135000D01*
G01*
X154320000Y-94625000D01*
G75*
G02*
X154185000Y-94760000I-135000J0D01*
G01*
G37*
G36*
G01*
X157000000Y-105000000D02*
X162000000Y-105000000D01*
G75*
G02*
X162250000Y-105250000I0J-250000D01*
G01*
X162250000Y-105750000D01*
G75*
G02*
X162000000Y-106000000I-250000J0D01*
G01*
X157000000Y-106000000D01*
G75*
G02*
X156750000Y-105750000I0J250000D01*
G01*
X156750000Y-105250000D01*
G75*
G02*
X157000000Y-105000000I250000J0D01*
G01*
G37*
G36*
G01*
X157000000Y-107000000D02*
X162000000Y-107000000D01*
G75*
G02*
X162250000Y-107250000I0J-250000D01*
G01*
X162250000Y-107750000D01*
G75*
G02*
X162000000Y-108000000I-250000J0D01*
G01*
X157000000Y-108000000D01*
G75*
G02*
X156750000Y-107750000I0J250000D01*
G01*
X156750000Y-107250000D01*
G75*
G02*
X157000000Y-107000000I250000J0D01*
G01*
G37*
G36*
G01*
X160500000Y-102300000D02*
X163000000Y-102300000D01*
G75*
G02*
X163250000Y-102550000I0J-250000D01*
G01*
X163250000Y-103650000D01*
G75*
G02*
X163000000Y-103900000I-250000J0D01*
G01*
X160500000Y-103900000D01*
G75*
G02*
X160250000Y-103650000I0J250000D01*
G01*
X160250000Y-102550000D01*
G75*
G02*
X160500000Y-102300000I250000J0D01*
G01*
G37*
G36*
G01*
X160500000Y-109100000D02*
X163000000Y-109100000D01*
G75*
G02*
X163250000Y-109350000I0J-250000D01*
G01*
X163250000Y-110450000D01*
G75*
G02*
X163000000Y-110700000I-250000J0D01*
G01*
X160500000Y-110700000D01*
G75*
G02*
X160250000Y-110450000I0J250000D01*
G01*
X160250000Y-109350000D01*
G75*
G02*
X160500000Y-109100000I250000J0D01*
G01*
G37*
G36*
G01*
X144700000Y-107200000D02*
X144700000Y-106900000D01*
G75*
G02*
X144850000Y-106750000I150000J0D01*
G01*
X145875000Y-106750000D01*
G75*
G02*
X146025000Y-106900000I0J-150000D01*
G01*
X146025000Y-107200000D01*
G75*
G02*
X145875000Y-107350000I-150000J0D01*
G01*
X144850000Y-107350000D01*
G75*
G02*
X144700000Y-107200000I0J150000D01*
G01*
G37*
G36*
G01*
X144700000Y-108150000D02*
X144700000Y-107850000D01*
G75*
G02*
X144850000Y-107700000I150000J0D01*
G01*
X145875000Y-107700000D01*
G75*
G02*
X146025000Y-107850000I0J-150000D01*
G01*
X146025000Y-108150000D01*
G75*
G02*
X145875000Y-108300000I-150000J0D01*
G01*
X144850000Y-108300000D01*
G75*
G02*
X144700000Y-108150000I0J150000D01*
G01*
G37*
G36*
G01*
X144700000Y-109100000D02*
X144700000Y-108800000D01*
G75*
G02*
X144850000Y-108650000I150000J0D01*
G01*
X145875000Y-108650000D01*
G75*
G02*
X146025000Y-108800000I0J-150000D01*
G01*
X146025000Y-109100000D01*
G75*
G02*
X145875000Y-109250000I-150000J0D01*
G01*
X144850000Y-109250000D01*
G75*
G02*
X144700000Y-109100000I0J150000D01*
G01*
G37*
G36*
G01*
X146975000Y-109100000D02*
X146975000Y-108800000D01*
G75*
G02*
X147125000Y-108650000I150000J0D01*
G01*
X148150000Y-108650000D01*
G75*
G02*
X148300000Y-108800000I0J-150000D01*
G01*
X148300000Y-109100000D01*
G75*
G02*
X148150000Y-109250000I-150000J0D01*
G01*
X147125000Y-109250000D01*
G75*
G02*
X146975000Y-109100000I0J150000D01*
G01*
G37*
G36*
G01*
X146975000Y-108150000D02*
X146975000Y-107850000D01*
G75*
G02*
X147125000Y-107700000I150000J0D01*
G01*
X148150000Y-107700000D01*
G75*
G02*
X148300000Y-107850000I0J-150000D01*
G01*
X148300000Y-108150000D01*
G75*
G02*
X148150000Y-108300000I-150000J0D01*
G01*
X147125000Y-108300000D01*
G75*
G02*
X146975000Y-108150000I0J150000D01*
G01*
G37*
G36*
G01*
X146975000Y-107200000D02*
X146975000Y-106900000D01*
G75*
G02*
X147125000Y-106750000I150000J0D01*
G01*
X148150000Y-106750000D01*
G75*
G02*
X148300000Y-106900000I0J-150000D01*
G01*
X148300000Y-107200000D01*
G75*
G02*
X148150000Y-107350000I-150000J0D01*
G01*
X147125000Y-107350000D01*
G75*
G02*
X146975000Y-107200000I0J150000D01*
G01*
G37*
G36*
G01*
X140080000Y-101915000D02*
X140080000Y-102285000D01*
G75*
G02*
X139945000Y-102420000I-135000J0D01*
G01*
X139675000Y-102420000D01*
G75*
G02*
X139540000Y-102285000I0J135000D01*
G01*
X139540000Y-101915000D01*
G75*
G02*
X139675000Y-101780000I135000J0D01*
G01*
X139945000Y-101780000D01*
G75*
G02*
X140080000Y-101915000I0J-135000D01*
G01*
G37*
G36*
G01*
X139060000Y-101915000D02*
X139060000Y-102285000D01*
G75*
G02*
X138925000Y-102420000I-135000J0D01*
G01*
X138655000Y-102420000D01*
G75*
G02*
X138520000Y-102285000I0J135000D01*
G01*
X138520000Y-101915000D01*
G75*
G02*
X138655000Y-101780000I135000J0D01*
G01*
X138925000Y-101780000D01*
G75*
G02*
X139060000Y-101915000I0J-135000D01*
G01*
G37*
G36*
G01*
X125240000Y-117170000D02*
X125240000Y-116830000D01*
G75*
G02*
X125380000Y-116690000I140000J0D01*
G01*
X125660000Y-116690000D01*
G75*
G02*
X125800000Y-116830000I0J-140000D01*
G01*
X125800000Y-117170000D01*
G75*
G02*
X125660000Y-117310000I-140000J0D01*
G01*
X125380000Y-117310000D01*
G75*
G02*
X125240000Y-117170000I0J140000D01*
G01*
G37*
G36*
G01*
X126200000Y-117170000D02*
X126200000Y-116830000D01*
G75*
G02*
X126340000Y-116690000I140000J0D01*
G01*
X126620000Y-116690000D01*
G75*
G02*
X126760000Y-116830000I0J-140000D01*
G01*
X126760000Y-117170000D01*
G75*
G02*
X126620000Y-117310000I-140000J0D01*
G01*
X126340000Y-117310000D01*
G75*
G02*
X126200000Y-117170000I0J140000D01*
G01*
G37*
G36*
G01*
X149325000Y-93200000D02*
X149325000Y-92900000D01*
G75*
G02*
X149475000Y-92750000I150000J0D01*
G01*
X150650000Y-92750000D01*
G75*
G02*
X150800000Y-92900000I0J-150000D01*
G01*
X150800000Y-93200000D01*
G75*
G02*
X150650000Y-93350000I-150000J0D01*
G01*
X149475000Y-93350000D01*
G75*
G02*
X149325000Y-93200000I0J150000D01*
G01*
G37*
G36*
G01*
X149325000Y-95100000D02*
X149325000Y-94800000D01*
G75*
G02*
X149475000Y-94650000I150000J0D01*
G01*
X150650000Y-94650000D01*
G75*
G02*
X150800000Y-94800000I0J-150000D01*
G01*
X150800000Y-95100000D01*
G75*
G02*
X150650000Y-95250000I-150000J0D01*
G01*
X149475000Y-95250000D01*
G75*
G02*
X149325000Y-95100000I0J150000D01*
G01*
G37*
G36*
G01*
X151200000Y-94150000D02*
X151200000Y-93850000D01*
G75*
G02*
X151350000Y-93700000I150000J0D01*
G01*
X152525000Y-93700000D01*
G75*
G02*
X152675000Y-93850000I0J-150000D01*
G01*
X152675000Y-94150000D01*
G75*
G02*
X152525000Y-94300000I-150000J0D01*
G01*
X151350000Y-94300000D01*
G75*
G02*
X151200000Y-94150000I0J150000D01*
G01*
G37*
G36*
G01*
X113720000Y-92185000D02*
X113720000Y-91815000D01*
G75*
G02*
X113855000Y-91680000I135000J0D01*
G01*
X114125000Y-91680000D01*
G75*
G02*
X114260000Y-91815000I0J-135000D01*
G01*
X114260000Y-92185000D01*
G75*
G02*
X114125000Y-92320000I-135000J0D01*
G01*
X113855000Y-92320000D01*
G75*
G02*
X113720000Y-92185000I0J135000D01*
G01*
G37*
G36*
G01*
X114740000Y-92185000D02*
X114740000Y-91815000D01*
G75*
G02*
X114875000Y-91680000I135000J0D01*
G01*
X115145000Y-91680000D01*
G75*
G02*
X115280000Y-91815000I0J-135000D01*
G01*
X115280000Y-92185000D01*
G75*
G02*
X115145000Y-92320000I-135000J0D01*
G01*
X114875000Y-92320000D01*
G75*
G02*
X114740000Y-92185000I0J135000D01*
G01*
G37*
G36*
G01*
X143150000Y-101050000D02*
X141850000Y-101050000D01*
G75*
G02*
X141600000Y-100800000I0J250000D01*
G01*
X141600000Y-100150000D01*
G75*
G02*
X141850000Y-99900000I250000J0D01*
G01*
X143150000Y-99900000D01*
G75*
G02*
X143400000Y-100150000I0J-250000D01*
G01*
X143400000Y-100800000D01*
G75*
G02*
X143150000Y-101050000I-250000J0D01*
G01*
G37*
G36*
G01*
X143150000Y-98100000D02*
X141850000Y-98100000D01*
G75*
G02*
X141600000Y-97850000I0J250000D01*
G01*
X141600000Y-97200000D01*
G75*
G02*
X141850000Y-96950000I250000J0D01*
G01*
X143150000Y-96950000D01*
G75*
G02*
X143400000Y-97200000I0J-250000D01*
G01*
X143400000Y-97850000D01*
G75*
G02*
X143150000Y-98100000I-250000J0D01*
G01*
G37*
G36*
G01*
X149550000Y-101050000D02*
X148250000Y-101050000D01*
G75*
G02*
X148000000Y-100800000I0J250000D01*
G01*
X148000000Y-100150000D01*
G75*
G02*
X148250000Y-99900000I250000J0D01*
G01*
X149550000Y-99900000D01*
G75*
G02*
X149800000Y-100150000I0J-250000D01*
G01*
X149800000Y-100800000D01*
G75*
G02*
X149550000Y-101050000I-250000J0D01*
G01*
G37*
G36*
G01*
X149550000Y-98100000D02*
X148250000Y-98100000D01*
G75*
G02*
X148000000Y-97850000I0J250000D01*
G01*
X148000000Y-97200000D01*
G75*
G02*
X148250000Y-96950000I250000J0D01*
G01*
X149550000Y-96950000D01*
G75*
G02*
X149800000Y-97200000I0J-250000D01*
G01*
X149800000Y-97850000D01*
G75*
G02*
X149550000Y-98100000I-250000J0D01*
G01*
G37*
G36*
G01*
X110050000Y-101225000D02*
X109550000Y-101225000D01*
G75*
G02*
X109325000Y-101000000I0J225000D01*
G01*
X109325000Y-100550000D01*
G75*
G02*
X109550000Y-100325000I225000J0D01*
G01*
X110050000Y-100325000D01*
G75*
G02*
X110275000Y-100550000I0J-225000D01*
G01*
X110275000Y-101000000D01*
G75*
G02*
X110050000Y-101225000I-225000J0D01*
G01*
G37*
G36*
G01*
X110050000Y-99675000D02*
X109550000Y-99675000D01*
G75*
G02*
X109325000Y-99450000I0J225000D01*
G01*
X109325000Y-99000000D01*
G75*
G02*
X109550000Y-98775000I225000J0D01*
G01*
X110050000Y-98775000D01*
G75*
G02*
X110275000Y-99000000I0J-225000D01*
G01*
X110275000Y-99450000D01*
G75*
G02*
X110050000Y-99675000I-225000J0D01*
G01*
G37*
G36*
G01*
X106975000Y-96950000D02*
X106025000Y-96950000D01*
G75*
G02*
X105775000Y-96700000I0J250000D01*
G01*
X105775000Y-96200000D01*
G75*
G02*
X106025000Y-95950000I250000J0D01*
G01*
X106975000Y-95950000D01*
G75*
G02*
X107225000Y-96200000I0J-250000D01*
G01*
X107225000Y-96700000D01*
G75*
G02*
X106975000Y-96950000I-250000J0D01*
G01*
G37*
G36*
G01*
X106975000Y-95050000D02*
X106025000Y-95050000D01*
G75*
G02*
X105775000Y-94800000I0J250000D01*
G01*
X105775000Y-94300000D01*
G75*
G02*
X106025000Y-94050000I250000J0D01*
G01*
X106975000Y-94050000D01*
G75*
G02*
X107225000Y-94300000I0J-250000D01*
G01*
X107225000Y-94800000D01*
G75*
G02*
X106975000Y-95050000I-250000J0D01*
G01*
G37*
G36*
G01*
X118220000Y-124185000D02*
X118220000Y-123815000D01*
G75*
G02*
X118355000Y-123680000I135000J0D01*
G01*
X118625000Y-123680000D01*
G75*
G02*
X118760000Y-123815000I0J-135000D01*
G01*
X118760000Y-124185000D01*
G75*
G02*
X118625000Y-124320000I-135000J0D01*
G01*
X118355000Y-124320000D01*
G75*
G02*
X118220000Y-124185000I0J135000D01*
G01*
G37*
G36*
G01*
X119240000Y-124185000D02*
X119240000Y-123815000D01*
G75*
G02*
X119375000Y-123680000I135000J0D01*
G01*
X119645000Y-123680000D01*
G75*
G02*
X119780000Y-123815000I0J-135000D01*
G01*
X119780000Y-124185000D01*
G75*
G02*
X119645000Y-124320000I-135000J0D01*
G01*
X119375000Y-124320000D01*
G75*
G02*
X119240000Y-124185000I0J135000D01*
G01*
G37*
G36*
G01*
X108220000Y-84185000D02*
X108220000Y-83815000D01*
G75*
G02*
X108355000Y-83680000I135000J0D01*
G01*
X108625000Y-83680000D01*
G75*
G02*
X108760000Y-83815000I0J-135000D01*
G01*
X108760000Y-84185000D01*
G75*
G02*
X108625000Y-84320000I-135000J0D01*
G01*
X108355000Y-84320000D01*
G75*
G02*
X108220000Y-84185000I0J135000D01*
G01*
G37*
G36*
G01*
X109240000Y-84185000D02*
X109240000Y-83815000D01*
G75*
G02*
X109375000Y-83680000I135000J0D01*
G01*
X109645000Y-83680000D01*
G75*
G02*
X109780000Y-83815000I0J-135000D01*
G01*
X109780000Y-84185000D01*
G75*
G02*
X109645000Y-84320000I-135000J0D01*
G01*
X109375000Y-84320000D01*
G75*
G02*
X109240000Y-84185000I0J135000D01*
G01*
G37*
G36*
G01*
X140240000Y-117170000D02*
X140240000Y-116830000D01*
G75*
G02*
X140380000Y-116690000I140000J0D01*
G01*
X140660000Y-116690000D01*
G75*
G02*
X140800000Y-116830000I0J-140000D01*
G01*
X140800000Y-117170000D01*
G75*
G02*
X140660000Y-117310000I-140000J0D01*
G01*
X140380000Y-117310000D01*
G75*
G02*
X140240000Y-117170000I0J140000D01*
G01*
G37*
G36*
G01*
X141200000Y-117170000D02*
X141200000Y-116830000D01*
G75*
G02*
X141340000Y-116690000I140000J0D01*
G01*
X141620000Y-116690000D01*
G75*
G02*
X141760000Y-116830000I0J-140000D01*
G01*
X141760000Y-117170000D01*
G75*
G02*
X141620000Y-117310000I-140000J0D01*
G01*
X141340000Y-117310000D01*
G75*
G02*
X141200000Y-117170000I0J140000D01*
G01*
G37*
G36*
G01*
X129975000Y-100950000D02*
X129025000Y-100950000D01*
G75*
G02*
X128775000Y-100700000I0J250000D01*
G01*
X128775000Y-100200000D01*
G75*
G02*
X129025000Y-99950000I250000J0D01*
G01*
X129975000Y-99950000D01*
G75*
G02*
X130225000Y-100200000I0J-250000D01*
G01*
X130225000Y-100700000D01*
G75*
G02*
X129975000Y-100950000I-250000J0D01*
G01*
G37*
G36*
G01*
X129975000Y-99050000D02*
X129025000Y-99050000D01*
G75*
G02*
X128775000Y-98800000I0J250000D01*
G01*
X128775000Y-98300000D01*
G75*
G02*
X129025000Y-98050000I250000J0D01*
G01*
X129975000Y-98050000D01*
G75*
G02*
X130225000Y-98300000I0J-250000D01*
G01*
X130225000Y-98800000D01*
G75*
G02*
X129975000Y-99050000I-250000J0D01*
G01*
G37*
G36*
G01*
X106220000Y-106685000D02*
X106220000Y-106315000D01*
G75*
G02*
X106355000Y-106180000I135000J0D01*
G01*
X106625000Y-106180000D01*
G75*
G02*
X106760000Y-106315000I0J-135000D01*
G01*
X106760000Y-106685000D01*
G75*
G02*
X106625000Y-106820000I-135000J0D01*
G01*
X106355000Y-106820000D01*
G75*
G02*
X106220000Y-106685000I0J135000D01*
G01*
G37*
G36*
G01*
X107240000Y-106685000D02*
X107240000Y-106315000D01*
G75*
G02*
X107375000Y-106180000I135000J0D01*
G01*
X107645000Y-106180000D01*
G75*
G02*
X107780000Y-106315000I0J-135000D01*
G01*
X107780000Y-106685000D01*
G75*
G02*
X107645000Y-106820000I-135000J0D01*
G01*
X107375000Y-106820000D01*
G75*
G02*
X107240000Y-106685000I0J135000D01*
G01*
G37*
G36*
G01*
X141325000Y-92700000D02*
X141325000Y-92400000D01*
G75*
G02*
X141475000Y-92250000I150000J0D01*
G01*
X142650000Y-92250000D01*
G75*
G02*
X142800000Y-92400000I0J-150000D01*
G01*
X142800000Y-92700000D01*
G75*
G02*
X142650000Y-92850000I-150000J0D01*
G01*
X141475000Y-92850000D01*
G75*
G02*
X141325000Y-92700000I0J150000D01*
G01*
G37*
G36*
G01*
X141325000Y-94600000D02*
X141325000Y-94300000D01*
G75*
G02*
X141475000Y-94150000I150000J0D01*
G01*
X142650000Y-94150000D01*
G75*
G02*
X142800000Y-94300000I0J-150000D01*
G01*
X142800000Y-94600000D01*
G75*
G02*
X142650000Y-94750000I-150000J0D01*
G01*
X141475000Y-94750000D01*
G75*
G02*
X141325000Y-94600000I0J150000D01*
G01*
G37*
G36*
G01*
X143200000Y-93650000D02*
X143200000Y-93350000D01*
G75*
G02*
X143350000Y-93200000I150000J0D01*
G01*
X144525000Y-93200000D01*
G75*
G02*
X144675000Y-93350000I0J-150000D01*
G01*
X144675000Y-93650000D01*
G75*
G02*
X144525000Y-93800000I-150000J0D01*
G01*
X143350000Y-93800000D01*
G75*
G02*
X143200000Y-93650000I0J150000D01*
G01*
G37*
G36*
G01*
X129975000Y-96950000D02*
X129025000Y-96950000D01*
G75*
G02*
X128775000Y-96700000I0J250000D01*
G01*
X128775000Y-96200000D01*
G75*
G02*
X129025000Y-95950000I250000J0D01*
G01*
X129975000Y-95950000D01*
G75*
G02*
X130225000Y-96200000I0J-250000D01*
G01*
X130225000Y-96700000D01*
G75*
G02*
X129975000Y-96950000I-250000J0D01*
G01*
G37*
G36*
G01*
X129975000Y-95050000D02*
X129025000Y-95050000D01*
G75*
G02*
X128775000Y-94800000I0J250000D01*
G01*
X128775000Y-94300000D01*
G75*
G02*
X129025000Y-94050000I250000J0D01*
G01*
X129975000Y-94050000D01*
G75*
G02*
X130225000Y-94300000I0J-250000D01*
G01*
X130225000Y-94800000D01*
G75*
G02*
X129975000Y-95050000I-250000J0D01*
G01*
G37*
D18*
X124250000Y-71240000D03*
X124250000Y-72510000D03*
X124250000Y-73780000D03*
X124250000Y-75050000D03*
X124250000Y-76320000D03*
X124250000Y-77590000D03*
X124250000Y-78860000D03*
X124250000Y-80130000D03*
X124250000Y-81400000D03*
X124250000Y-82670000D03*
X124250000Y-83940000D03*
X124250000Y-85210000D03*
X124250000Y-86480000D03*
X124250000Y-87750000D03*
D19*
X126015000Y-89000000D03*
X127285000Y-89000000D03*
X128555000Y-89000000D03*
X129825000Y-89000000D03*
X131095000Y-89000000D03*
X132365000Y-89000000D03*
X133635000Y-89000000D03*
X134905000Y-89000000D03*
X136175000Y-89000000D03*
X137445000Y-89000000D03*
X138715000Y-89000000D03*
X139985000Y-89000000D03*
D18*
X141750000Y-87750000D03*
X141750000Y-86480000D03*
X141750000Y-85210000D03*
X141750000Y-83940000D03*
X141750000Y-82670000D03*
X141750000Y-81400000D03*
X141750000Y-80130000D03*
X141750000Y-78860000D03*
X141750000Y-77590000D03*
X141750000Y-76320000D03*
X141750000Y-75050000D03*
X141750000Y-73780000D03*
X141750000Y-72510000D03*
X141750000Y-71240000D03*
D20*
X130100000Y-78260000D03*
X130100000Y-79660000D03*
X130800000Y-77560000D03*
X130800000Y-78960000D03*
X130800000Y-80360000D03*
X131500000Y-78260000D03*
D21*
X131500000Y-78960000D03*
D20*
X131500000Y-79660000D03*
X132200000Y-77560000D03*
X132200000Y-78960000D03*
X132200000Y-80360000D03*
X132900000Y-78260000D03*
X132900000Y-79660000D03*
G36*
G01*
X114220000Y-82185000D02*
X114220000Y-81815000D01*
G75*
G02*
X114355000Y-81680000I135000J0D01*
G01*
X114625000Y-81680000D01*
G75*
G02*
X114760000Y-81815000I0J-135000D01*
G01*
X114760000Y-82185000D01*
G75*
G02*
X114625000Y-82320000I-135000J0D01*
G01*
X114355000Y-82320000D01*
G75*
G02*
X114220000Y-82185000I0J135000D01*
G01*
G37*
G36*
G01*
X115240000Y-82185000D02*
X115240000Y-81815000D01*
G75*
G02*
X115375000Y-81680000I135000J0D01*
G01*
X115645000Y-81680000D01*
G75*
G02*
X115780000Y-81815000I0J-135000D01*
G01*
X115780000Y-82185000D01*
G75*
G02*
X115645000Y-82320000I-135000J0D01*
G01*
X115375000Y-82320000D01*
G75*
G02*
X115240000Y-82185000I0J135000D01*
G01*
G37*
G36*
G01*
X117500000Y-115000000D02*
X117500000Y-110000000D01*
G75*
G02*
X117750000Y-109750000I250000J0D01*
G01*
X118250000Y-109750000D01*
G75*
G02*
X118500000Y-110000000I0J-250000D01*
G01*
X118500000Y-115000000D01*
G75*
G02*
X118250000Y-115250000I-250000J0D01*
G01*
X117750000Y-115250000D01*
G75*
G02*
X117500000Y-115000000I0J250000D01*
G01*
G37*
G36*
G01*
X119500000Y-115000000D02*
X119500000Y-110000000D01*
G75*
G02*
X119750000Y-109750000I250000J0D01*
G01*
X120250000Y-109750000D01*
G75*
G02*
X120500000Y-110000000I0J-250000D01*
G01*
X120500000Y-115000000D01*
G75*
G02*
X120250000Y-115250000I-250000J0D01*
G01*
X119750000Y-115250000D01*
G75*
G02*
X119500000Y-115000000I0J250000D01*
G01*
G37*
G36*
G01*
X114800000Y-111500000D02*
X114800000Y-109000000D01*
G75*
G02*
X115050000Y-108750000I250000J0D01*
G01*
X116150000Y-108750000D01*
G75*
G02*
X116400000Y-109000000I0J-250000D01*
G01*
X116400000Y-111500000D01*
G75*
G02*
X116150000Y-111750000I-250000J0D01*
G01*
X115050000Y-111750000D01*
G75*
G02*
X114800000Y-111500000I0J250000D01*
G01*
G37*
G36*
G01*
X121600000Y-111500000D02*
X121600000Y-109000000D01*
G75*
G02*
X121850000Y-108750000I250000J0D01*
G01*
X122950000Y-108750000D01*
G75*
G02*
X123200000Y-109000000I0J-250000D01*
G01*
X123200000Y-111500000D01*
G75*
G02*
X122950000Y-111750000I-250000J0D01*
G01*
X121850000Y-111750000D01*
G75*
G02*
X121600000Y-111500000I0J250000D01*
G01*
G37*
G36*
G01*
X121220000Y-75685000D02*
X121220000Y-75315000D01*
G75*
G02*
X121355000Y-75180000I135000J0D01*
G01*
X121625000Y-75180000D01*
G75*
G02*
X121760000Y-75315000I0J-135000D01*
G01*
X121760000Y-75685000D01*
G75*
G02*
X121625000Y-75820000I-135000J0D01*
G01*
X121355000Y-75820000D01*
G75*
G02*
X121220000Y-75685000I0J135000D01*
G01*
G37*
G36*
G01*
X122240000Y-75685000D02*
X122240000Y-75315000D01*
G75*
G02*
X122375000Y-75180000I135000J0D01*
G01*
X122645000Y-75180000D01*
G75*
G02*
X122780000Y-75315000I0J-135000D01*
G01*
X122780000Y-75685000D01*
G75*
G02*
X122645000Y-75820000I-135000J0D01*
G01*
X122375000Y-75820000D01*
G75*
G02*
X122240000Y-75685000I0J135000D01*
G01*
G37*
G36*
G01*
X157220000Y-81185000D02*
X157220000Y-80815000D01*
G75*
G02*
X157355000Y-80680000I135000J0D01*
G01*
X157625000Y-80680000D01*
G75*
G02*
X157760000Y-80815000I0J-135000D01*
G01*
X157760000Y-81185000D01*
G75*
G02*
X157625000Y-81320000I-135000J0D01*
G01*
X157355000Y-81320000D01*
G75*
G02*
X157220000Y-81185000I0J135000D01*
G01*
G37*
G36*
G01*
X158240000Y-81185000D02*
X158240000Y-80815000D01*
G75*
G02*
X158375000Y-80680000I135000J0D01*
G01*
X158645000Y-80680000D01*
G75*
G02*
X158780000Y-80815000I0J-135000D01*
G01*
X158780000Y-81185000D01*
G75*
G02*
X158645000Y-81320000I-135000J0D01*
G01*
X158375000Y-81320000D01*
G75*
G02*
X158240000Y-81185000I0J135000D01*
G01*
G37*
G36*
G01*
X142220000Y-96185000D02*
X142220000Y-95815000D01*
G75*
G02*
X142355000Y-95680000I135000J0D01*
G01*
X142625000Y-95680000D01*
G75*
G02*
X142760000Y-95815000I0J-135000D01*
G01*
X142760000Y-96185000D01*
G75*
G02*
X142625000Y-96320000I-135000J0D01*
G01*
X142355000Y-96320000D01*
G75*
G02*
X142220000Y-96185000I0J135000D01*
G01*
G37*
G36*
G01*
X143240000Y-96185000D02*
X143240000Y-95815000D01*
G75*
G02*
X143375000Y-95680000I135000J0D01*
G01*
X143645000Y-95680000D01*
G75*
G02*
X143780000Y-95815000I0J-135000D01*
G01*
X143780000Y-96185000D01*
G75*
G02*
X143645000Y-96320000I-135000J0D01*
G01*
X143375000Y-96320000D01*
G75*
G02*
X143240000Y-96185000I0J135000D01*
G01*
G37*
G36*
G01*
X155240000Y-117170000D02*
X155240000Y-116830000D01*
G75*
G02*
X155380000Y-116690000I140000J0D01*
G01*
X155660000Y-116690000D01*
G75*
G02*
X155800000Y-116830000I0J-140000D01*
G01*
X155800000Y-117170000D01*
G75*
G02*
X155660000Y-117310000I-140000J0D01*
G01*
X155380000Y-117310000D01*
G75*
G02*
X155240000Y-117170000I0J140000D01*
G01*
G37*
G36*
G01*
X156200000Y-117170000D02*
X156200000Y-116830000D01*
G75*
G02*
X156340000Y-116690000I140000J0D01*
G01*
X156620000Y-116690000D01*
G75*
G02*
X156760000Y-116830000I0J-140000D01*
G01*
X156760000Y-117170000D01*
G75*
G02*
X156620000Y-117310000I-140000J0D01*
G01*
X156340000Y-117310000D01*
G75*
G02*
X156200000Y-117170000I0J140000D01*
G01*
G37*
G36*
G01*
X155775000Y-101250000D02*
X155775000Y-100750000D01*
G75*
G02*
X156000000Y-100525000I225000J0D01*
G01*
X156450000Y-100525000D01*
G75*
G02*
X156675000Y-100750000I0J-225000D01*
G01*
X156675000Y-101250000D01*
G75*
G02*
X156450000Y-101475000I-225000J0D01*
G01*
X156000000Y-101475000D01*
G75*
G02*
X155775000Y-101250000I0J225000D01*
G01*
G37*
G36*
G01*
X157325000Y-101250000D02*
X157325000Y-100750000D01*
G75*
G02*
X157550000Y-100525000I225000J0D01*
G01*
X158000000Y-100525000D01*
G75*
G02*
X158225000Y-100750000I0J-225000D01*
G01*
X158225000Y-101250000D01*
G75*
G02*
X158000000Y-101475000I-225000J0D01*
G01*
X157550000Y-101475000D01*
G75*
G02*
X157325000Y-101250000I0J225000D01*
G01*
G37*
G36*
G01*
X145720000Y-111185000D02*
X145720000Y-110815000D01*
G75*
G02*
X145855000Y-110680000I135000J0D01*
G01*
X146125000Y-110680000D01*
G75*
G02*
X146260000Y-110815000I0J-135000D01*
G01*
X146260000Y-111185000D01*
G75*
G02*
X146125000Y-111320000I-135000J0D01*
G01*
X145855000Y-111320000D01*
G75*
G02*
X145720000Y-111185000I0J135000D01*
G01*
G37*
G36*
G01*
X146740000Y-111185000D02*
X146740000Y-110815000D01*
G75*
G02*
X146875000Y-110680000I135000J0D01*
G01*
X147145000Y-110680000D01*
G75*
G02*
X147280000Y-110815000I0J-135000D01*
G01*
X147280000Y-111185000D01*
G75*
G02*
X147145000Y-111320000I-135000J0D01*
G01*
X146875000Y-111320000D01*
G75*
G02*
X146740000Y-111185000I0J135000D01*
G01*
G37*
G36*
G01*
X139450000Y-101225000D02*
X138950000Y-101225000D01*
G75*
G02*
X138725000Y-101000000I0J225000D01*
G01*
X138725000Y-100550000D01*
G75*
G02*
X138950000Y-100325000I225000J0D01*
G01*
X139450000Y-100325000D01*
G75*
G02*
X139675000Y-100550000I0J-225000D01*
G01*
X139675000Y-101000000D01*
G75*
G02*
X139450000Y-101225000I-225000J0D01*
G01*
G37*
G36*
G01*
X139450000Y-99675000D02*
X138950000Y-99675000D01*
G75*
G02*
X138725000Y-99450000I0J225000D01*
G01*
X138725000Y-99000000D01*
G75*
G02*
X138950000Y-98775000I225000J0D01*
G01*
X139450000Y-98775000D01*
G75*
G02*
X139675000Y-99000000I0J-225000D01*
G01*
X139675000Y-99450000D01*
G75*
G02*
X139450000Y-99675000I-225000J0D01*
G01*
G37*
G36*
G01*
X110500000Y-87200000D02*
X110500000Y-86900000D01*
G75*
G02*
X110650000Y-86750000I150000J0D01*
G01*
X111675000Y-86750000D01*
G75*
G02*
X111825000Y-86900000I0J-150000D01*
G01*
X111825000Y-87200000D01*
G75*
G02*
X111675000Y-87350000I-150000J0D01*
G01*
X110650000Y-87350000D01*
G75*
G02*
X110500000Y-87200000I0J150000D01*
G01*
G37*
G36*
G01*
X110500000Y-88150000D02*
X110500000Y-87850000D01*
G75*
G02*
X110650000Y-87700000I150000J0D01*
G01*
X111675000Y-87700000D01*
G75*
G02*
X111825000Y-87850000I0J-150000D01*
G01*
X111825000Y-88150000D01*
G75*
G02*
X111675000Y-88300000I-150000J0D01*
G01*
X110650000Y-88300000D01*
G75*
G02*
X110500000Y-88150000I0J150000D01*
G01*
G37*
G36*
G01*
X110500000Y-89100000D02*
X110500000Y-88800000D01*
G75*
G02*
X110650000Y-88650000I150000J0D01*
G01*
X111675000Y-88650000D01*
G75*
G02*
X111825000Y-88800000I0J-150000D01*
G01*
X111825000Y-89100000D01*
G75*
G02*
X111675000Y-89250000I-150000J0D01*
G01*
X110650000Y-89250000D01*
G75*
G02*
X110500000Y-89100000I0J150000D01*
G01*
G37*
G36*
G01*
X112775000Y-89100000D02*
X112775000Y-88800000D01*
G75*
G02*
X112925000Y-88650000I150000J0D01*
G01*
X113950000Y-88650000D01*
G75*
G02*
X114100000Y-88800000I0J-150000D01*
G01*
X114100000Y-89100000D01*
G75*
G02*
X113950000Y-89250000I-150000J0D01*
G01*
X112925000Y-89250000D01*
G75*
G02*
X112775000Y-89100000I0J150000D01*
G01*
G37*
G36*
G01*
X112775000Y-88150000D02*
X112775000Y-87850000D01*
G75*
G02*
X112925000Y-87700000I150000J0D01*
G01*
X113950000Y-87700000D01*
G75*
G02*
X114100000Y-87850000I0J-150000D01*
G01*
X114100000Y-88150000D01*
G75*
G02*
X113950000Y-88300000I-150000J0D01*
G01*
X112925000Y-88300000D01*
G75*
G02*
X112775000Y-88150000I0J150000D01*
G01*
G37*
G36*
G01*
X112775000Y-87200000D02*
X112775000Y-86900000D01*
G75*
G02*
X112925000Y-86750000I150000J0D01*
G01*
X113950000Y-86750000D01*
G75*
G02*
X114100000Y-86900000I0J-150000D01*
G01*
X114100000Y-87200000D01*
G75*
G02*
X113950000Y-87350000I-150000J0D01*
G01*
X112925000Y-87350000D01*
G75*
G02*
X112775000Y-87200000I0J150000D01*
G01*
G37*
G36*
G01*
X146350000Y-101050000D02*
X145050000Y-101050000D01*
G75*
G02*
X144800000Y-100800000I0J250000D01*
G01*
X144800000Y-100150000D01*
G75*
G02*
X145050000Y-99900000I250000J0D01*
G01*
X146350000Y-99900000D01*
G75*
G02*
X146600000Y-100150000I0J-250000D01*
G01*
X146600000Y-100800000D01*
G75*
G02*
X146350000Y-101050000I-250000J0D01*
G01*
G37*
G36*
G01*
X146350000Y-98100000D02*
X145050000Y-98100000D01*
G75*
G02*
X144800000Y-97850000I0J250000D01*
G01*
X144800000Y-97200000D01*
G75*
G02*
X145050000Y-96950000I250000J0D01*
G01*
X146350000Y-96950000D01*
G75*
G02*
X146600000Y-97200000I0J-250000D01*
G01*
X146600000Y-97850000D01*
G75*
G02*
X146350000Y-98100000I-250000J0D01*
G01*
G37*
G36*
G01*
X111223000Y-98600000D02*
X111223000Y-95200000D01*
G75*
G02*
X111325000Y-95098000I102000J0D01*
G01*
X112305000Y-95098000D01*
G75*
G02*
X112407000Y-95200000I0J-102000D01*
G01*
X112407000Y-98600000D01*
G75*
G02*
X112305000Y-98702000I-102000J0D01*
G01*
X111325000Y-98702000D01*
G75*
G02*
X111223000Y-98600000I0J102000D01*
G01*
G37*
G36*
G01*
X113593000Y-98600000D02*
X113593000Y-95200000D01*
G75*
G02*
X113695000Y-95098000I102000J0D01*
G01*
X114675000Y-95098000D01*
G75*
G02*
X114777000Y-95200000I0J-102000D01*
G01*
X114777000Y-98600000D01*
G75*
G02*
X114675000Y-98702000I-102000J0D01*
G01*
X113695000Y-98702000D01*
G75*
G02*
X113593000Y-98600000I0J102000D01*
G01*
G37*
G36*
G01*
X155685000Y-92780000D02*
X155315000Y-92780000D01*
G75*
G02*
X155180000Y-92645000I0J135000D01*
G01*
X155180000Y-92375000D01*
G75*
G02*
X155315000Y-92240000I135000J0D01*
G01*
X155685000Y-92240000D01*
G75*
G02*
X155820000Y-92375000I0J-135000D01*
G01*
X155820000Y-92645000D01*
G75*
G02*
X155685000Y-92780000I-135000J0D01*
G01*
G37*
G36*
G01*
X155685000Y-91760000D02*
X155315000Y-91760000D01*
G75*
G02*
X155180000Y-91625000I0J135000D01*
G01*
X155180000Y-91355000D01*
G75*
G02*
X155315000Y-91220000I135000J0D01*
G01*
X155685000Y-91220000D01*
G75*
G02*
X155820000Y-91355000I0J-135000D01*
G01*
X155820000Y-91625000D01*
G75*
G02*
X155685000Y-91760000I-135000J0D01*
G01*
G37*
G36*
G01*
X150950000Y-115650000D02*
X150950000Y-114350000D01*
G75*
G02*
X151200000Y-114100000I250000J0D01*
G01*
X151850000Y-114100000D01*
G75*
G02*
X152100000Y-114350000I0J-250000D01*
G01*
X152100000Y-115650000D01*
G75*
G02*
X151850000Y-115900000I-250000J0D01*
G01*
X151200000Y-115900000D01*
G75*
G02*
X150950000Y-115650000I0J250000D01*
G01*
G37*
G36*
G01*
X153900000Y-115650000D02*
X153900000Y-114350000D01*
G75*
G02*
X154150000Y-114100000I250000J0D01*
G01*
X154800000Y-114100000D01*
G75*
G02*
X155050000Y-114350000I0J-250000D01*
G01*
X155050000Y-115650000D01*
G75*
G02*
X154800000Y-115900000I-250000J0D01*
G01*
X154150000Y-115900000D01*
G75*
G02*
X153900000Y-115650000I0J250000D01*
G01*
G37*
G36*
G01*
X136220000Y-121185000D02*
X136220000Y-120815000D01*
G75*
G02*
X136355000Y-120680000I135000J0D01*
G01*
X136625000Y-120680000D01*
G75*
G02*
X136760000Y-120815000I0J-135000D01*
G01*
X136760000Y-121185000D01*
G75*
G02*
X136625000Y-121320000I-135000J0D01*
G01*
X136355000Y-121320000D01*
G75*
G02*
X136220000Y-121185000I0J135000D01*
G01*
G37*
G36*
G01*
X137240000Y-121185000D02*
X137240000Y-120815000D01*
G75*
G02*
X137375000Y-120680000I135000J0D01*
G01*
X137645000Y-120680000D01*
G75*
G02*
X137780000Y-120815000I0J-135000D01*
G01*
X137780000Y-121185000D01*
G75*
G02*
X137645000Y-121320000I-135000J0D01*
G01*
X137375000Y-121320000D01*
G75*
G02*
X137240000Y-121185000I0J135000D01*
G01*
G37*
G36*
G01*
X117080000Y-101915000D02*
X117080000Y-102285000D01*
G75*
G02*
X116945000Y-102420000I-135000J0D01*
G01*
X116675000Y-102420000D01*
G75*
G02*
X116540000Y-102285000I0J135000D01*
G01*
X116540000Y-101915000D01*
G75*
G02*
X116675000Y-101780000I135000J0D01*
G01*
X116945000Y-101780000D01*
G75*
G02*
X117080000Y-101915000I0J-135000D01*
G01*
G37*
G36*
G01*
X116060000Y-101915000D02*
X116060000Y-102285000D01*
G75*
G02*
X115925000Y-102420000I-135000J0D01*
G01*
X115655000Y-102420000D01*
G75*
G02*
X115520000Y-102285000I0J135000D01*
G01*
X115520000Y-101915000D01*
G75*
G02*
X115655000Y-101780000I135000J0D01*
G01*
X115925000Y-101780000D01*
G75*
G02*
X116060000Y-101915000I0J-135000D01*
G01*
G37*
G36*
G01*
X134223000Y-98600000D02*
X134223000Y-95200000D01*
G75*
G02*
X134325000Y-95098000I102000J0D01*
G01*
X135305000Y-95098000D01*
G75*
G02*
X135407000Y-95200000I0J-102000D01*
G01*
X135407000Y-98600000D01*
G75*
G02*
X135305000Y-98702000I-102000J0D01*
G01*
X134325000Y-98702000D01*
G75*
G02*
X134223000Y-98600000I0J102000D01*
G01*
G37*
G36*
G01*
X136593000Y-98600000D02*
X136593000Y-95200000D01*
G75*
G02*
X136695000Y-95098000I102000J0D01*
G01*
X137675000Y-95098000D01*
G75*
G02*
X137777000Y-95200000I0J-102000D01*
G01*
X137777000Y-98600000D01*
G75*
G02*
X137675000Y-98702000I-102000J0D01*
G01*
X136695000Y-98702000D01*
G75*
G02*
X136593000Y-98600000I0J102000D01*
G01*
G37*
G36*
G01*
X146185000Y-94280000D02*
X145815000Y-94280000D01*
G75*
G02*
X145680000Y-94145000I0J135000D01*
G01*
X145680000Y-93875000D01*
G75*
G02*
X145815000Y-93740000I135000J0D01*
G01*
X146185000Y-93740000D01*
G75*
G02*
X146320000Y-93875000I0J-135000D01*
G01*
X146320000Y-94145000D01*
G75*
G02*
X146185000Y-94280000I-135000J0D01*
G01*
G37*
G36*
G01*
X146185000Y-93260000D02*
X145815000Y-93260000D01*
G75*
G02*
X145680000Y-93125000I0J135000D01*
G01*
X145680000Y-92855000D01*
G75*
G02*
X145815000Y-92720000I135000J0D01*
G01*
X146185000Y-92720000D01*
G75*
G02*
X146320000Y-92855000I0J-135000D01*
G01*
X146320000Y-93125000D01*
G75*
G02*
X146185000Y-93260000I-135000J0D01*
G01*
G37*
G36*
G01*
X108220000Y-117185000D02*
X108220000Y-116815000D01*
G75*
G02*
X108355000Y-116680000I135000J0D01*
G01*
X108625000Y-116680000D01*
G75*
G02*
X108760000Y-116815000I0J-135000D01*
G01*
X108760000Y-117185000D01*
G75*
G02*
X108625000Y-117320000I-135000J0D01*
G01*
X108355000Y-117320000D01*
G75*
G02*
X108220000Y-117185000I0J135000D01*
G01*
G37*
G36*
G01*
X109240000Y-117185000D02*
X109240000Y-116815000D01*
G75*
G02*
X109375000Y-116680000I135000J0D01*
G01*
X109645000Y-116680000D01*
G75*
G02*
X109780000Y-116815000I0J-135000D01*
G01*
X109780000Y-117185000D01*
G75*
G02*
X109645000Y-117320000I-135000J0D01*
G01*
X109375000Y-117320000D01*
G75*
G02*
X109240000Y-117185000I0J135000D01*
G01*
G37*
D11*
X160000000Y-74000000D03*
G36*
G01*
X106975000Y-100950000D02*
X106025000Y-100950000D01*
G75*
G02*
X105775000Y-100700000I0J250000D01*
G01*
X105775000Y-100200000D01*
G75*
G02*
X106025000Y-99950000I250000J0D01*
G01*
X106975000Y-99950000D01*
G75*
G02*
X107225000Y-100200000I0J-250000D01*
G01*
X107225000Y-100700000D01*
G75*
G02*
X106975000Y-100950000I-250000J0D01*
G01*
G37*
G36*
G01*
X106975000Y-99050000D02*
X106025000Y-99050000D01*
G75*
G02*
X105775000Y-98800000I0J250000D01*
G01*
X105775000Y-98300000D01*
G75*
G02*
X106025000Y-98050000I250000J0D01*
G01*
X106975000Y-98050000D01*
G75*
G02*
X107225000Y-98300000I0J-250000D01*
G01*
X107225000Y-98800000D01*
G75*
G02*
X106975000Y-99050000I-250000J0D01*
G01*
G37*
D22*
X161000000Y-86000000D03*
D23*
X161000000Y-88540000D03*
X161000000Y-91080000D03*
X161000000Y-93620000D03*
G36*
G01*
X161185000Y-98780000D02*
X160815000Y-98780000D01*
G75*
G02*
X160680000Y-98645000I0J135000D01*
G01*
X160680000Y-98375000D01*
G75*
G02*
X160815000Y-98240000I135000J0D01*
G01*
X161185000Y-98240000D01*
G75*
G02*
X161320000Y-98375000I0J-135000D01*
G01*
X161320000Y-98645000D01*
G75*
G02*
X161185000Y-98780000I-135000J0D01*
G01*
G37*
G36*
G01*
X161185000Y-97760000D02*
X160815000Y-97760000D01*
G75*
G02*
X160680000Y-97625000I0J135000D01*
G01*
X160680000Y-97355000D01*
G75*
G02*
X160815000Y-97220000I135000J0D01*
G01*
X161185000Y-97220000D01*
G75*
G02*
X161320000Y-97355000I0J-135000D01*
G01*
X161320000Y-97625000D01*
G75*
G02*
X161185000Y-97760000I-135000J0D01*
G01*
G37*
G36*
G01*
X113185000Y-79780000D02*
X112815000Y-79780000D01*
G75*
G02*
X112680000Y-79645000I0J135000D01*
G01*
X112680000Y-79375000D01*
G75*
G02*
X112815000Y-79240000I135000J0D01*
G01*
X113185000Y-79240000D01*
G75*
G02*
X113320000Y-79375000I0J-135000D01*
G01*
X113320000Y-79645000D01*
G75*
G02*
X113185000Y-79780000I-135000J0D01*
G01*
G37*
G36*
G01*
X113185000Y-78760000D02*
X112815000Y-78760000D01*
G75*
G02*
X112680000Y-78625000I0J135000D01*
G01*
X112680000Y-78355000D01*
G75*
G02*
X112815000Y-78220000I135000J0D01*
G01*
X113185000Y-78220000D01*
G75*
G02*
X113320000Y-78355000I0J-135000D01*
G01*
X113320000Y-78625000D01*
G75*
G02*
X113185000Y-78760000I-135000J0D01*
G01*
G37*
G36*
G01*
X138220000Y-117185000D02*
X138220000Y-116815000D01*
G75*
G02*
X138355000Y-116680000I135000J0D01*
G01*
X138625000Y-116680000D01*
G75*
G02*
X138760000Y-116815000I0J-135000D01*
G01*
X138760000Y-117185000D01*
G75*
G02*
X138625000Y-117320000I-135000J0D01*
G01*
X138355000Y-117320000D01*
G75*
G02*
X138220000Y-117185000I0J135000D01*
G01*
G37*
G36*
G01*
X139240000Y-117185000D02*
X139240000Y-116815000D01*
G75*
G02*
X139375000Y-116680000I135000J0D01*
G01*
X139645000Y-116680000D01*
G75*
G02*
X139780000Y-116815000I0J-135000D01*
G01*
X139780000Y-117185000D01*
G75*
G02*
X139645000Y-117320000I-135000J0D01*
G01*
X139375000Y-117320000D01*
G75*
G02*
X139240000Y-117185000I0J135000D01*
G01*
G37*
G36*
G01*
X117550000Y-73475000D02*
X117550000Y-72525000D01*
G75*
G02*
X117800000Y-72275000I250000J0D01*
G01*
X118300000Y-72275000D01*
G75*
G02*
X118550000Y-72525000I0J-250000D01*
G01*
X118550000Y-73475000D01*
G75*
G02*
X118300000Y-73725000I-250000J0D01*
G01*
X117800000Y-73725000D01*
G75*
G02*
X117550000Y-73475000I0J250000D01*
G01*
G37*
G36*
G01*
X119450000Y-73475000D02*
X119450000Y-72525000D01*
G75*
G02*
X119700000Y-72275000I250000J0D01*
G01*
X120200000Y-72275000D01*
G75*
G02*
X120450000Y-72525000I0J-250000D01*
G01*
X120450000Y-73475000D01*
G75*
G02*
X120200000Y-73725000I-250000J0D01*
G01*
X119700000Y-73725000D01*
G75*
G02*
X119450000Y-73475000I0J250000D01*
G01*
G37*
G36*
G01*
X105950000Y-124650000D02*
X105950000Y-123250000D01*
G75*
G02*
X106100000Y-123100000I150000J0D01*
G01*
X106400000Y-123100000D01*
G75*
G02*
X106550000Y-123250000I0J-150000D01*
G01*
X106550000Y-124650000D01*
G75*
G02*
X106400000Y-124800000I-150000J0D01*
G01*
X106100000Y-124800000D01*
G75*
G02*
X105950000Y-124650000I0J150000D01*
G01*
G37*
G36*
G01*
X107200000Y-124650000D02*
X107200000Y-123250000D01*
G75*
G02*
X107350000Y-123100000I150000J0D01*
G01*
X107650000Y-123100000D01*
G75*
G02*
X107800000Y-123250000I0J-150000D01*
G01*
X107800000Y-124650000D01*
G75*
G02*
X107650000Y-124800000I-150000J0D01*
G01*
X107350000Y-124800000D01*
G75*
G02*
X107200000Y-124650000I0J150000D01*
G01*
G37*
G36*
G01*
X108450000Y-124650000D02*
X108450000Y-123250000D01*
G75*
G02*
X108600000Y-123100000I150000J0D01*
G01*
X108900000Y-123100000D01*
G75*
G02*
X109050000Y-123250000I0J-150000D01*
G01*
X109050000Y-124650000D01*
G75*
G02*
X108900000Y-124800000I-150000J0D01*
G01*
X108600000Y-124800000D01*
G75*
G02*
X108450000Y-124650000I0J150000D01*
G01*
G37*
G36*
G01*
X109700000Y-124650000D02*
X109700000Y-123250000D01*
G75*
G02*
X109850000Y-123100000I150000J0D01*
G01*
X110150000Y-123100000D01*
G75*
G02*
X110300000Y-123250000I0J-150000D01*
G01*
X110300000Y-124650000D01*
G75*
G02*
X110150000Y-124800000I-150000J0D01*
G01*
X109850000Y-124800000D01*
G75*
G02*
X109700000Y-124650000I0J150000D01*
G01*
G37*
G36*
G01*
X110950000Y-124650000D02*
X110950000Y-123250000D01*
G75*
G02*
X111100000Y-123100000I150000J0D01*
G01*
X111400000Y-123100000D01*
G75*
G02*
X111550000Y-123250000I0J-150000D01*
G01*
X111550000Y-124650000D01*
G75*
G02*
X111400000Y-124800000I-150000J0D01*
G01*
X111100000Y-124800000D01*
G75*
G02*
X110950000Y-124650000I0J150000D01*
G01*
G37*
G36*
G01*
X112200000Y-124650000D02*
X112200000Y-123250000D01*
G75*
G02*
X112350000Y-123100000I150000J0D01*
G01*
X112650000Y-123100000D01*
G75*
G02*
X112800000Y-123250000I0J-150000D01*
G01*
X112800000Y-124650000D01*
G75*
G02*
X112650000Y-124800000I-150000J0D01*
G01*
X112350000Y-124800000D01*
G75*
G02*
X112200000Y-124650000I0J150000D01*
G01*
G37*
G36*
G01*
X113450000Y-124650000D02*
X113450000Y-123250000D01*
G75*
G02*
X113600000Y-123100000I150000J0D01*
G01*
X113900000Y-123100000D01*
G75*
G02*
X114050000Y-123250000I0J-150000D01*
G01*
X114050000Y-124650000D01*
G75*
G02*
X113900000Y-124800000I-150000J0D01*
G01*
X113600000Y-124800000D01*
G75*
G02*
X113450000Y-124650000I0J150000D01*
G01*
G37*
G36*
G01*
X103900000Y-121750000D02*
X103900000Y-119450000D01*
G75*
G02*
X104150000Y-119200000I250000J0D01*
G01*
X104650000Y-119200000D01*
G75*
G02*
X104900000Y-119450000I0J-250000D01*
G01*
X104900000Y-121750000D01*
G75*
G02*
X104650000Y-122000000I-250000J0D01*
G01*
X104150000Y-122000000D01*
G75*
G02*
X103900000Y-121750000I0J250000D01*
G01*
G37*
G36*
G01*
X115100000Y-121750000D02*
X115100000Y-119450000D01*
G75*
G02*
X115350000Y-119200000I250000J0D01*
G01*
X115850000Y-119200000D01*
G75*
G02*
X116100000Y-119450000I0J-250000D01*
G01*
X116100000Y-121750000D01*
G75*
G02*
X115850000Y-122000000I-250000J0D01*
G01*
X115350000Y-122000000D01*
G75*
G02*
X115100000Y-121750000I0J250000D01*
G01*
G37*
G36*
G01*
X131419999Y-102885000D02*
X131419999Y-102515000D01*
G75*
G02*
X131554999Y-102380000I135000J0D01*
G01*
X131824999Y-102380000D01*
G75*
G02*
X131959999Y-102515000I0J-135000D01*
G01*
X131959999Y-102885000D01*
G75*
G02*
X131824999Y-103020000I-135000J0D01*
G01*
X131554999Y-103020000D01*
G75*
G02*
X131419999Y-102885000I0J135000D01*
G01*
G37*
G36*
G01*
X132439999Y-102885000D02*
X132439999Y-102515000D01*
G75*
G02*
X132574999Y-102380000I135000J0D01*
G01*
X132844999Y-102380000D01*
G75*
G02*
X132979999Y-102515000I0J-135000D01*
G01*
X132979999Y-102885000D01*
G75*
G02*
X132844999Y-103020000I-135000J0D01*
G01*
X132574999Y-103020000D01*
G75*
G02*
X132439999Y-102885000I0J135000D01*
G01*
G37*
G36*
G01*
X123350000Y-101050000D02*
X122050000Y-101050000D01*
G75*
G02*
X121800000Y-100800000I0J250000D01*
G01*
X121800000Y-100150000D01*
G75*
G02*
X122050000Y-99900000I250000J0D01*
G01*
X123350000Y-99900000D01*
G75*
G02*
X123600000Y-100150000I0J-250000D01*
G01*
X123600000Y-100800000D01*
G75*
G02*
X123350000Y-101050000I-250000J0D01*
G01*
G37*
G36*
G01*
X123350000Y-98100000D02*
X122050000Y-98100000D01*
G75*
G02*
X121800000Y-97850000I0J250000D01*
G01*
X121800000Y-97200000D01*
G75*
G02*
X122050000Y-96950000I250000J0D01*
G01*
X123350000Y-96950000D01*
G75*
G02*
X123600000Y-97200000I0J-250000D01*
G01*
X123600000Y-97850000D01*
G75*
G02*
X123350000Y-98100000I-250000J0D01*
G01*
G37*
G36*
G01*
X107220000Y-81885000D02*
X107220000Y-81515000D01*
G75*
G02*
X107355000Y-81380000I135000J0D01*
G01*
X107625000Y-81380000D01*
G75*
G02*
X107760000Y-81515000I0J-135000D01*
G01*
X107760000Y-81885000D01*
G75*
G02*
X107625000Y-82020000I-135000J0D01*
G01*
X107355000Y-82020000D01*
G75*
G02*
X107220000Y-81885000I0J135000D01*
G01*
G37*
G36*
G01*
X108240000Y-81885000D02*
X108240000Y-81515000D01*
G75*
G02*
X108375000Y-81380000I135000J0D01*
G01*
X108645000Y-81380000D01*
G75*
G02*
X108780000Y-81515000I0J-135000D01*
G01*
X108780000Y-81885000D01*
G75*
G02*
X108645000Y-82020000I-135000J0D01*
G01*
X108375000Y-82020000D01*
G75*
G02*
X108240000Y-81885000I0J135000D01*
G01*
G37*
G36*
G01*
X156240000Y-95170000D02*
X156240000Y-94830000D01*
G75*
G02*
X156380000Y-94690000I140000J0D01*
G01*
X156660000Y-94690000D01*
G75*
G02*
X156800000Y-94830000I0J-140000D01*
G01*
X156800000Y-95170000D01*
G75*
G02*
X156660000Y-95310000I-140000J0D01*
G01*
X156380000Y-95310000D01*
G75*
G02*
X156240000Y-95170000I0J140000D01*
G01*
G37*
G36*
G01*
X157200000Y-95170000D02*
X157200000Y-94830000D01*
G75*
G02*
X157340000Y-94690000I140000J0D01*
G01*
X157620000Y-94690000D01*
G75*
G02*
X157760000Y-94830000I0J-140000D01*
G01*
X157760000Y-95170000D01*
G75*
G02*
X157620000Y-95310000I-140000J0D01*
G01*
X157340000Y-95310000D01*
G75*
G02*
X157200000Y-95170000I0J140000D01*
G01*
G37*
G36*
G01*
X116775000Y-92256250D02*
X116775000Y-91743750D01*
G75*
G02*
X116993750Y-91525000I218750J0D01*
G01*
X117431250Y-91525000D01*
G75*
G02*
X117650000Y-91743750I0J-218750D01*
G01*
X117650000Y-92256250D01*
G75*
G02*
X117431250Y-92475000I-218750J0D01*
G01*
X116993750Y-92475000D01*
G75*
G02*
X116775000Y-92256250I0J218750D01*
G01*
G37*
G36*
G01*
X118350000Y-92256250D02*
X118350000Y-91743750D01*
G75*
G02*
X118568750Y-91525000I218750J0D01*
G01*
X119006250Y-91525000D01*
G75*
G02*
X119225000Y-91743750I0J-218750D01*
G01*
X119225000Y-92256250D01*
G75*
G02*
X119006250Y-92475000I-218750J0D01*
G01*
X118568750Y-92475000D01*
G75*
G02*
X118350000Y-92256250I0J218750D01*
G01*
G37*
G36*
G01*
X112240000Y-83670000D02*
X112240000Y-83330000D01*
G75*
G02*
X112380000Y-83190000I140000J0D01*
G01*
X112660000Y-83190000D01*
G75*
G02*
X112800000Y-83330000I0J-140000D01*
G01*
X112800000Y-83670000D01*
G75*
G02*
X112660000Y-83810000I-140000J0D01*
G01*
X112380000Y-83810000D01*
G75*
G02*
X112240000Y-83670000I0J140000D01*
G01*
G37*
G36*
G01*
X113200000Y-83670000D02*
X113200000Y-83330000D01*
G75*
G02*
X113340000Y-83190000I140000J0D01*
G01*
X113620000Y-83190000D01*
G75*
G02*
X113760000Y-83330000I0J-140000D01*
G01*
X113760000Y-83670000D01*
G75*
G02*
X113620000Y-83810000I-140000J0D01*
G01*
X113340000Y-83810000D01*
G75*
G02*
X113200000Y-83670000I0J140000D01*
G01*
G37*
G36*
G01*
X116450000Y-101225000D02*
X115950000Y-101225000D01*
G75*
G02*
X115725000Y-101000000I0J225000D01*
G01*
X115725000Y-100550000D01*
G75*
G02*
X115950000Y-100325000I225000J0D01*
G01*
X116450000Y-100325000D01*
G75*
G02*
X116675000Y-100550000I0J-225000D01*
G01*
X116675000Y-101000000D01*
G75*
G02*
X116450000Y-101225000I-225000J0D01*
G01*
G37*
G36*
G01*
X116450000Y-99675000D02*
X115950000Y-99675000D01*
G75*
G02*
X115725000Y-99450000I0J225000D01*
G01*
X115725000Y-99000000D01*
G75*
G02*
X115950000Y-98775000I225000J0D01*
G01*
X116450000Y-98775000D01*
G75*
G02*
X116675000Y-99000000I0J-225000D01*
G01*
X116675000Y-99450000D01*
G75*
G02*
X116450000Y-99675000I-225000J0D01*
G01*
G37*
G36*
G01*
X158170000Y-79360000D02*
X157830000Y-79360000D01*
G75*
G02*
X157690000Y-79220000I0J140000D01*
G01*
X157690000Y-78940000D01*
G75*
G02*
X157830000Y-78800000I140000J0D01*
G01*
X158170000Y-78800000D01*
G75*
G02*
X158310000Y-78940000I0J-140000D01*
G01*
X158310000Y-79220000D01*
G75*
G02*
X158170000Y-79360000I-140000J0D01*
G01*
G37*
G36*
G01*
X158170000Y-78400000D02*
X157830000Y-78400000D01*
G75*
G02*
X157690000Y-78260000I0J140000D01*
G01*
X157690000Y-77980000D01*
G75*
G02*
X157830000Y-77840000I140000J0D01*
G01*
X158170000Y-77840000D01*
G75*
G02*
X158310000Y-77980000I0J-140000D01*
G01*
X158310000Y-78260000D01*
G75*
G02*
X158170000Y-78400000I-140000J0D01*
G01*
G37*
D17*
X109000000Y-72125000D03*
X115000000Y-72125000D03*
X109000000Y-75875000D03*
X115000000Y-75875000D03*
G36*
G01*
X108420000Y-102885000D02*
X108420000Y-102515000D01*
G75*
G02*
X108555000Y-102380000I135000J0D01*
G01*
X108825000Y-102380000D01*
G75*
G02*
X108960000Y-102515000I0J-135000D01*
G01*
X108960000Y-102885000D01*
G75*
G02*
X108825000Y-103020000I-135000J0D01*
G01*
X108555000Y-103020000D01*
G75*
G02*
X108420000Y-102885000I0J135000D01*
G01*
G37*
G36*
G01*
X109440000Y-102885000D02*
X109440000Y-102515000D01*
G75*
G02*
X109575000Y-102380000I135000J0D01*
G01*
X109845000Y-102380000D01*
G75*
G02*
X109980000Y-102515000I0J-135000D01*
G01*
X109980000Y-102885000D01*
G75*
G02*
X109845000Y-103020000I-135000J0D01*
G01*
X109575000Y-103020000D01*
G75*
G02*
X109440000Y-102885000I0J135000D01*
G01*
G37*
D11*
X104000000Y-74000000D03*
G36*
G01*
X110240000Y-117170000D02*
X110240000Y-116830000D01*
G75*
G02*
X110380000Y-116690000I140000J0D01*
G01*
X110660000Y-116690000D01*
G75*
G02*
X110800000Y-116830000I0J-140000D01*
G01*
X110800000Y-117170000D01*
G75*
G02*
X110660000Y-117310000I-140000J0D01*
G01*
X110380000Y-117310000D01*
G75*
G02*
X110240000Y-117170000I0J140000D01*
G01*
G37*
G36*
G01*
X111200000Y-117170000D02*
X111200000Y-116830000D01*
G75*
G02*
X111340000Y-116690000I140000J0D01*
G01*
X111620000Y-116690000D01*
G75*
G02*
X111760000Y-116830000I0J-140000D01*
G01*
X111760000Y-117170000D01*
G75*
G02*
X111620000Y-117310000I-140000J0D01*
G01*
X111340000Y-117310000D01*
G75*
G02*
X111200000Y-117170000I0J140000D01*
G01*
G37*
G36*
G01*
X121240000Y-71970000D02*
X121240000Y-71630000D01*
G75*
G02*
X121380000Y-71490000I140000J0D01*
G01*
X121660000Y-71490000D01*
G75*
G02*
X121800000Y-71630000I0J-140000D01*
G01*
X121800000Y-71970000D01*
G75*
G02*
X121660000Y-72110000I-140000J0D01*
G01*
X121380000Y-72110000D01*
G75*
G02*
X121240000Y-71970000I0J140000D01*
G01*
G37*
G36*
G01*
X122200000Y-71970000D02*
X122200000Y-71630000D01*
G75*
G02*
X122340000Y-71490000I140000J0D01*
G01*
X122620000Y-71490000D01*
G75*
G02*
X122760000Y-71630000I0J-140000D01*
G01*
X122760000Y-71970000D01*
G75*
G02*
X122620000Y-72110000I-140000J0D01*
G01*
X122340000Y-72110000D01*
G75*
G02*
X122200000Y-71970000I0J140000D01*
G01*
G37*
G36*
G01*
X151150000Y-75050000D02*
X149850000Y-75050000D01*
G75*
G02*
X149600000Y-74800000I0J250000D01*
G01*
X149600000Y-74150000D01*
G75*
G02*
X149850000Y-73900000I250000J0D01*
G01*
X151150000Y-73900000D01*
G75*
G02*
X151400000Y-74150000I0J-250000D01*
G01*
X151400000Y-74800000D01*
G75*
G02*
X151150000Y-75050000I-250000J0D01*
G01*
G37*
G36*
G01*
X151150000Y-72100000D02*
X149850000Y-72100000D01*
G75*
G02*
X149600000Y-71850000I0J250000D01*
G01*
X149600000Y-71200000D01*
G75*
G02*
X149850000Y-70950000I250000J0D01*
G01*
X151150000Y-70950000D01*
G75*
G02*
X151400000Y-71200000I0J-250000D01*
G01*
X151400000Y-71850000D01*
G75*
G02*
X151150000Y-72100000I-250000J0D01*
G01*
G37*
G36*
G01*
X132485000Y-105780000D02*
X132115000Y-105780000D01*
G75*
G02*
X131980000Y-105645000I0J135000D01*
G01*
X131980000Y-105375000D01*
G75*
G02*
X132115000Y-105240000I135000J0D01*
G01*
X132485000Y-105240000D01*
G75*
G02*
X132620000Y-105375000I0J-135000D01*
G01*
X132620000Y-105645000D01*
G75*
G02*
X132485000Y-105780000I-135000J0D01*
G01*
G37*
G36*
G01*
X132485000Y-104760000D02*
X132115000Y-104760000D01*
G75*
G02*
X131980000Y-104625000I0J135000D01*
G01*
X131980000Y-104355000D01*
G75*
G02*
X132115000Y-104220000I135000J0D01*
G01*
X132485000Y-104220000D01*
G75*
G02*
X132620000Y-104355000I0J-135000D01*
G01*
X132620000Y-104625000D01*
G75*
G02*
X132485000Y-104760000I-135000J0D01*
G01*
G37*
G36*
G01*
X121780000Y-86315000D02*
X121780000Y-86685000D01*
G75*
G02*
X121645000Y-86820000I-135000J0D01*
G01*
X121375000Y-86820000D01*
G75*
G02*
X121240000Y-86685000I0J135000D01*
G01*
X121240000Y-86315000D01*
G75*
G02*
X121375000Y-86180000I135000J0D01*
G01*
X121645000Y-86180000D01*
G75*
G02*
X121780000Y-86315000I0J-135000D01*
G01*
G37*
G36*
G01*
X120760000Y-86315000D02*
X120760000Y-86685000D01*
G75*
G02*
X120625000Y-86820000I-135000J0D01*
G01*
X120355000Y-86820000D01*
G75*
G02*
X120220000Y-86685000I0J135000D01*
G01*
X120220000Y-86315000D01*
G75*
G02*
X120355000Y-86180000I135000J0D01*
G01*
X120625000Y-86180000D01*
G75*
G02*
X120760000Y-86315000I0J-135000D01*
G01*
G37*
G36*
G01*
X148185000Y-94780000D02*
X147815000Y-94780000D01*
G75*
G02*
X147680000Y-94645000I0J135000D01*
G01*
X147680000Y-94375000D01*
G75*
G02*
X147815000Y-94240000I135000J0D01*
G01*
X148185000Y-94240000D01*
G75*
G02*
X148320000Y-94375000I0J-135000D01*
G01*
X148320000Y-94645000D01*
G75*
G02*
X148185000Y-94780000I-135000J0D01*
G01*
G37*
G36*
G01*
X148185000Y-93760000D02*
X147815000Y-93760000D01*
G75*
G02*
X147680000Y-93625000I0J135000D01*
G01*
X147680000Y-93355000D01*
G75*
G02*
X147815000Y-93220000I135000J0D01*
G01*
X148185000Y-93220000D01*
G75*
G02*
X148320000Y-93355000I0J-135000D01*
G01*
X148320000Y-93625000D01*
G75*
G02*
X148185000Y-93760000I-135000J0D01*
G01*
G37*
X160000000Y-115000000D03*
G36*
G01*
X145170000Y-77760000D02*
X144830000Y-77760000D01*
G75*
G02*
X144690000Y-77620000I0J140000D01*
G01*
X144690000Y-77340000D01*
G75*
G02*
X144830000Y-77200000I140000J0D01*
G01*
X145170000Y-77200000D01*
G75*
G02*
X145310000Y-77340000I0J-140000D01*
G01*
X145310000Y-77620000D01*
G75*
G02*
X145170000Y-77760000I-140000J0D01*
G01*
G37*
G36*
G01*
X145170000Y-76800000D02*
X144830000Y-76800000D01*
G75*
G02*
X144690000Y-76660000I0J140000D01*
G01*
X144690000Y-76380000D01*
G75*
G02*
X144830000Y-76240000I140000J0D01*
G01*
X145170000Y-76240000D01*
G75*
G02*
X145310000Y-76380000I0J-140000D01*
G01*
X145310000Y-76660000D01*
G75*
G02*
X145170000Y-76800000I-140000J0D01*
G01*
G37*
G36*
G01*
X144220000Y-88185000D02*
X144220000Y-87815000D01*
G75*
G02*
X144355000Y-87680000I135000J0D01*
G01*
X144625000Y-87680000D01*
G75*
G02*
X144760000Y-87815000I0J-135000D01*
G01*
X144760000Y-88185000D01*
G75*
G02*
X144625000Y-88320000I-135000J0D01*
G01*
X144355000Y-88320000D01*
G75*
G02*
X144220000Y-88185000I0J135000D01*
G01*
G37*
G36*
G01*
X145240000Y-88185000D02*
X145240000Y-87815000D01*
G75*
G02*
X145375000Y-87680000I135000J0D01*
G01*
X145645000Y-87680000D01*
G75*
G02*
X145780000Y-87815000I0J-135000D01*
G01*
X145780000Y-88185000D01*
G75*
G02*
X145645000Y-88320000I-135000J0D01*
G01*
X145375000Y-88320000D01*
G75*
G02*
X145240000Y-88185000I0J135000D01*
G01*
G37*
M02*
