G04 #@! TF.GenerationSoftware,KiCad,Pcbnew,10.0.1*
G04 #@! TF.CreationDate,2026-09-07T20:03:12-05:00*
G04 #@! TF.ProjectId,alec-main,616c6563-2d6d-4616-996e-2e6b69636164,rev?*
G04 #@! TF.SameCoordinates,Original*
G04 #@! TF.FileFunction,Copper,L2,Inr*
G04 #@! TF.FilePolarity,Positive*
%FSLAX46Y46*%
G04 Gerber Fmt 4.6, Leading zero omitted, Abs format (unit mm)*
G04 Created by KiCad (PCBNEW 10.0.1) date 2026-09-07 20:03:12*
%MOMM*%
%LPD*%
G01*
G04 APERTURE LIST*
G04 #@! TA.AperFunction,ComponentPad*
%ADD10O,2.100000X1.000000*%
G04 #@! TD*
G04 #@! TA.AperFunction,ComponentPad*
%ADD11O,1.600000X1.000000*%
G04 #@! TD*
G04 #@! TA.AperFunction,HeatsinkPad*
%ADD12C,0.600000*%
G04 #@! TD*
G04 #@! TA.AperFunction,ComponentPad*
%ADD13R,1.700000X1.700000*%
G04 #@! TD*
G04 #@! TA.AperFunction,ComponentPad*
%ADD14C,1.700000*%
G04 #@! TD*
G04 #@! TA.AperFunction,ViaPad*
%ADD15C,0.550000*%
G04 #@! TD*
G04 #@! TA.AperFunction,ViaPad*
%ADD16C,0.500000*%
G04 #@! TD*
G04 #@! TA.AperFunction,ViaPad*
%ADD17C,0.600000*%
G04 #@! TD*
G04 #@! TA.AperFunction,ViaPad*
%ADD18C,0.800000*%
G04 #@! TD*
G04 APERTURE END LIST*
D10*
X105530000Y-83680000D03*
D11*
X101350000Y-83680000D03*
D10*
X105530000Y-92320000D03*
D11*
X101350000Y-92320000D03*
D12*
X130100000Y-78260000D03*
X130100000Y-79660000D03*
X130800000Y-77560000D03*
X130800000Y-78960000D03*
X130800000Y-80360000D03*
X131500000Y-78260000D03*
X131500000Y-79660000D03*
X132200000Y-77560000D03*
X132200000Y-78960000D03*
X132200000Y-80360000D03*
X132900000Y-78260000D03*
X132900000Y-79660000D03*
D13*
X161000000Y-86000000D03*
D14*
X161000000Y-88540000D03*
X161000000Y-91080000D03*
X161000000Y-93620000D03*
D15*
X149800000Y-98700000D03*
X148600000Y-95300000D03*
D16*
X153000000Y-106000000D03*
D15*
X148900000Y-98600000D03*
X119050000Y-80150000D03*
X154650000Y-75850000D03*
X117550000Y-103500000D03*
X145000000Y-73750000D03*
X154650000Y-80150000D03*
X155600000Y-98900000D03*
X142500000Y-98600000D03*
X153950000Y-111500000D03*
X114250000Y-83500000D03*
X158700000Y-101000000D03*
X136300000Y-105250000D03*
X110250000Y-106250000D03*
D17*
X109975000Y-98550000D03*
D15*
X150000000Y-104700000D03*
X116300000Y-92000000D03*
X150500000Y-72600000D03*
X143000000Y-106750000D03*
X116250000Y-82000000D03*
X159250000Y-81000000D03*
X107050000Y-92050000D03*
X142050000Y-93650000D03*
X125900000Y-98600000D03*
D16*
X133800000Y-101850000D03*
D15*
X110250000Y-84000000D03*
X120250000Y-75500000D03*
X155500000Y-90750000D03*
D16*
X136000000Y-98200000D03*
X136000000Y-96900000D03*
D15*
X132300000Y-103750000D03*
X151550000Y-104650000D03*
X109000000Y-71250000D03*
X154000000Y-85250000D03*
X144200000Y-76500000D03*
X115000000Y-71250000D03*
X145700000Y-98600000D03*
D17*
X124000000Y-121000000D03*
D15*
X154750000Y-109200000D03*
D17*
X111250000Y-123000000D03*
D15*
X119000000Y-112500000D03*
D16*
X115100000Y-101300000D03*
D15*
X156250000Y-102500000D03*
X115050000Y-79650000D03*
X142250000Y-117000000D03*
X140550000Y-103500000D03*
X112250000Y-117000000D03*
X151050000Y-101650000D03*
X104450000Y-108050000D03*
X109000000Y-107750000D03*
X147750000Y-111000000D03*
X107050000Y-83950000D03*
X157250000Y-117000000D03*
X154450000Y-104650000D03*
D17*
X105450000Y-123950000D03*
D15*
X149950000Y-106750000D03*
X129500000Y-93550000D03*
X110000000Y-88000000D03*
X153400000Y-115000000D03*
X158000000Y-77350000D03*
D17*
X116025000Y-98550000D03*
D16*
X137000000Y-102900000D03*
D15*
X102750000Y-101300000D03*
X151550000Y-107350000D03*
X157500000Y-95800000D03*
D16*
X113000000Y-98200000D03*
D17*
X132974999Y-98550000D03*
D15*
X129500000Y-97550000D03*
X101400000Y-107650000D03*
X148000000Y-85250000D03*
X106500000Y-97550000D03*
X122500000Y-71000000D03*
X113300000Y-105250000D03*
X146500000Y-108000000D03*
X122700000Y-98600000D03*
D16*
X110800000Y-101850000D03*
D17*
X141100000Y-123950000D03*
D15*
X127250000Y-117000000D03*
X102750000Y-108650000D03*
X101400000Y-100300000D03*
X119500000Y-98600000D03*
D16*
X113000000Y-96900000D03*
X114000000Y-102900000D03*
D15*
X109250000Y-81700000D03*
X144250000Y-96000000D03*
D17*
X139025000Y-98550000D03*
D15*
X106500000Y-93550000D03*
D16*
X138100000Y-101300000D03*
D15*
X120950000Y-73000000D03*
X152950000Y-102300000D03*
X154200000Y-93750000D03*
X136500000Y-113650000D03*
X143000000Y-87000000D03*
X141950000Y-101600000D03*
X155500000Y-96050000D03*
X133300000Y-86150000D03*
X149000000Y-85350000D03*
X153200000Y-84250000D03*
X154850000Y-94600000D03*
X153200000Y-81550000D03*
D18*
X119600000Y-104900000D03*
X117700000Y-78400000D03*
X149050000Y-93950000D03*
X146100000Y-90300000D03*
D15*
X140550000Y-122900000D03*
D18*
X119350000Y-81850000D03*
X116300000Y-88500000D03*
X108800000Y-116050000D03*
X117000000Y-86800000D03*
X120900000Y-109150000D03*
X111150000Y-106150000D03*
X152150000Y-77700000D03*
X146350000Y-106150000D03*
X114350000Y-105300000D03*
X117700000Y-102600000D03*
X148900000Y-108000000D03*
X155750000Y-77700000D03*
D15*
X139000000Y-116200000D03*
X109800000Y-109250000D03*
X109650000Y-107300000D03*
D18*
X108050000Y-108400000D03*
X120100000Y-91700000D03*
X110150000Y-108050000D03*
X110400000Y-97450000D03*
X141300000Y-104000000D03*
X146350000Y-99300000D03*
X150350000Y-114300000D03*
X148150000Y-99300000D03*
X149950000Y-111300000D03*
X149100000Y-106400000D03*
X154500000Y-107500000D03*
D15*
X145050000Y-122200000D03*
X134800000Y-115850000D03*
X140000000Y-81400000D03*
X140500000Y-86700000D03*
X134300000Y-112000000D03*
X139950000Y-98450000D03*
X134300000Y-104950000D03*
X137500000Y-108000000D03*
X133750000Y-98400000D03*
X135050000Y-102800000D03*
X152200000Y-76800000D03*
X151450000Y-78500000D03*
X143100000Y-73200000D03*
X145950000Y-75450000D03*
X139100000Y-82750000D03*
X153550000Y-80150000D03*
X155200000Y-83750000D03*
X154700000Y-82250000D03*
X157950000Y-80200000D03*
X156250000Y-79600000D03*
X107650000Y-84500000D03*
X107650000Y-85900000D03*
X107750000Y-89350000D03*
X108200000Y-83200000D03*
X131250000Y-93000000D03*
X143300000Y-92700000D03*
X126000000Y-78860000D03*
X122650000Y-78900000D03*
X133050000Y-103600000D03*
X126550000Y-84650000D03*
X133050000Y-101900000D03*
X136200000Y-95600000D03*
X112700000Y-108800000D03*
X125500000Y-75050000D03*
D18*
X153550000Y-96550000D03*
X153300000Y-93600000D03*
D15*
X160550000Y-94950000D03*
D16*
X159300000Y-97750000D03*
D15*
X161800000Y-99100000D03*
X136900000Y-93350000D03*
X149650000Y-103550000D03*
X150800000Y-107850000D03*
D16*
X150650000Y-106500000D03*
D15*
X148250000Y-109750000D03*
X149750000Y-109250000D03*
X152300000Y-102850000D03*
X140800000Y-93350000D03*
X149650000Y-102650000D03*
X144050000Y-97100000D03*
X117100000Y-122150000D03*
X110550000Y-122250000D03*
X125500000Y-78250000D03*
X123450000Y-118050000D03*
X123850000Y-116200000D03*
X125500000Y-113450000D03*
X121500000Y-106950000D03*
X126000000Y-83150000D03*
X112500000Y-103550000D03*
X112350000Y-102800000D03*
X110050000Y-101900000D03*
X110800000Y-118100000D03*
X107750000Y-105700000D03*
X109650000Y-103500000D03*
X109150000Y-105700000D03*
X127650000Y-93600000D03*
X143550000Y-74050000D03*
X123000000Y-77650000D03*
X124950000Y-124000000D03*
X122250000Y-74700000D03*
X120750000Y-74800000D03*
X138400000Y-82450000D03*
X126000000Y-122550000D03*
X126000000Y-123350000D03*
X129050000Y-90250000D03*
X132199999Y-85650000D03*
X143000000Y-76300000D03*
X140500000Y-95750000D03*
X145800000Y-87200000D03*
X141400000Y-90500000D03*
X130800000Y-106650000D03*
X143550000Y-87600000D03*
X160200000Y-97200000D03*
D16*
X154300000Y-97250000D03*
D15*
X156450000Y-95900000D03*
X156300000Y-92500000D03*
X155800000Y-93800000D03*
X131850000Y-90250000D03*
X132000000Y-113650000D03*
X139800000Y-87000000D03*
X138500000Y-97750000D03*
X143250000Y-118500000D03*
X133900000Y-117250000D03*
X129850000Y-90250000D03*
X141000000Y-120750000D03*
X138250000Y-120750000D03*
X144200000Y-108400000D03*
X137950000Y-99100000D03*
X115600000Y-123850000D03*
X110000000Y-122800000D03*
X127250000Y-122000000D03*
X122800000Y-79650000D03*
X127100000Y-85750000D03*
X138850000Y-115450000D03*
X138350000Y-114550000D03*
X106250000Y-105150000D03*
X108000000Y-107300000D03*
X133100000Y-91550000D03*
X145150000Y-93450000D03*
X143750000Y-86750000D03*
X144100000Y-89150000D03*
G04 #@! TA.AperFunction,Conductor*
G36*
X163477826Y-70522174D02*
G01*
X163499500Y-70574500D01*
X163499500Y-125425500D01*
X163477826Y-125477826D01*
X163425500Y-125499500D01*
X100574500Y-125499500D01*
X100522174Y-125477826D01*
X100500500Y-125425500D01*
X100500500Y-123787396D01*
X115124500Y-123787396D01*
X115124500Y-123912603D01*
X115156904Y-124033535D01*
X115173687Y-124062603D01*
X115219505Y-124141964D01*
X115308036Y-124230495D01*
X115416464Y-124293095D01*
X115416463Y-124293095D01*
X115486286Y-124311804D01*
X115537396Y-124325499D01*
X115537397Y-124325500D01*
X115537399Y-124325500D01*
X115662603Y-124325500D01*
X115662603Y-124325499D01*
X115783536Y-124293095D01*
X115891964Y-124230495D01*
X115980495Y-124141964D01*
X116043095Y-124033536D01*
X116055366Y-123987737D01*
X116068856Y-123937396D01*
X124474500Y-123937396D01*
X124474500Y-124062603D01*
X124506904Y-124183535D01*
X124506905Y-124183536D01*
X124569505Y-124291964D01*
X124658036Y-124380495D01*
X124766464Y-124443095D01*
X124766463Y-124443095D01*
X124836286Y-124461804D01*
X124887396Y-124475499D01*
X124887397Y-124475500D01*
X124887399Y-124475500D01*
X125012603Y-124475500D01*
X125012603Y-124475499D01*
X125133536Y-124443095D01*
X125241964Y-124380495D01*
X125330495Y-124291964D01*
X125393095Y-124183536D01*
X125425499Y-124062603D01*
X125425500Y-124062603D01*
X125425500Y-123937397D01*
X125425499Y-123937396D01*
X125419069Y-123913401D01*
X125393095Y-123816464D01*
X125330495Y-123708036D01*
X125241964Y-123619505D01*
X125241963Y-123619504D01*
X125133534Y-123556904D01*
X125133536Y-123556904D01*
X125012603Y-123524500D01*
X125012601Y-123524500D01*
X124887399Y-123524500D01*
X124887397Y-123524500D01*
X124766464Y-123556904D01*
X124658036Y-123619504D01*
X124569504Y-123708036D01*
X124506904Y-123816464D01*
X124474500Y-123937396D01*
X116068856Y-123937396D01*
X116075285Y-123913405D01*
X116075286Y-123913401D01*
X116075500Y-123912602D01*
X116075500Y-123787397D01*
X116075499Y-123787396D01*
X116043095Y-123666464D01*
X115980495Y-123558036D01*
X115891963Y-123469504D01*
X115783534Y-123406904D01*
X115783536Y-123406904D01*
X115662603Y-123374500D01*
X115662601Y-123374500D01*
X115537399Y-123374500D01*
X115537397Y-123374500D01*
X115416464Y-123406904D01*
X115308036Y-123469504D01*
X115219504Y-123558036D01*
X115156904Y-123666464D01*
X115124500Y-123787396D01*
X100500500Y-123787396D01*
X100500500Y-122737396D01*
X109524500Y-122737396D01*
X109524500Y-122862603D01*
X109556904Y-122983535D01*
X109614639Y-123083535D01*
X109619505Y-123091964D01*
X109708036Y-123180495D01*
X109816464Y-123243095D01*
X109816463Y-123243095D01*
X109886286Y-123261804D01*
X109937396Y-123275499D01*
X109937397Y-123275500D01*
X109937399Y-123275500D01*
X110062603Y-123275500D01*
X110062603Y-123275499D01*
X110183536Y-123243095D01*
X110291964Y-123180495D01*
X110380495Y-123091964D01*
X110443095Y-122983536D01*
X110475499Y-122862603D01*
X110475500Y-122862603D01*
X110475500Y-122799500D01*
X110497174Y-122747174D01*
X110549500Y-122725500D01*
X110612603Y-122725500D01*
X110612603Y-122725499D01*
X110733536Y-122693095D01*
X110841964Y-122630495D01*
X110930495Y-122541964D01*
X110993095Y-122433536D01*
X111025499Y-122312603D01*
X111025500Y-122312603D01*
X111025500Y-122187397D01*
X111025499Y-122187396D01*
X111024464Y-122183535D01*
X111020705Y-122169504D01*
X111002538Y-122101702D01*
X110998704Y-122087396D01*
X116624500Y-122087396D01*
X116624500Y-122212603D01*
X116656904Y-122333535D01*
X116714639Y-122433535D01*
X116719505Y-122441964D01*
X116808036Y-122530495D01*
X116916464Y-122593095D01*
X116916463Y-122593095D01*
X116986286Y-122611804D01*
X117037396Y-122625499D01*
X117037397Y-122625500D01*
X117037399Y-122625500D01*
X117162603Y-122625500D01*
X117162603Y-122625499D01*
X117283536Y-122593095D01*
X117391964Y-122530495D01*
X117435063Y-122487396D01*
X125524500Y-122487396D01*
X125524500Y-122612603D01*
X125556904Y-122733535D01*
X125619504Y-122841963D01*
X125675215Y-122897674D01*
X125696889Y-122950000D01*
X125675215Y-123002326D01*
X125619504Y-123058036D01*
X125556904Y-123166464D01*
X125524500Y-123287396D01*
X125524500Y-123412603D01*
X125556904Y-123533535D01*
X125606538Y-123619504D01*
X125619505Y-123641964D01*
X125708036Y-123730495D01*
X125816464Y-123793095D01*
X125816463Y-123793095D01*
X125886286Y-123811804D01*
X125937396Y-123825499D01*
X125937397Y-123825500D01*
X125937399Y-123825500D01*
X126062603Y-123825500D01*
X126062603Y-123825499D01*
X126183536Y-123793095D01*
X126291964Y-123730495D01*
X126380495Y-123641964D01*
X126443095Y-123533536D01*
X126475499Y-123412603D01*
X126475500Y-123412603D01*
X126475500Y-123287397D01*
X126475499Y-123287396D01*
X126472311Y-123275500D01*
X126443095Y-123166464D01*
X126380495Y-123058036D01*
X126324785Y-123002326D01*
X126303111Y-122950000D01*
X126324785Y-122897674D01*
X126380495Y-122841964D01*
X126383132Y-122837396D01*
X140074500Y-122837396D01*
X140074500Y-122962603D01*
X140106904Y-123083535D01*
X140154783Y-123166464D01*
X140169505Y-123191964D01*
X140258036Y-123280495D01*
X140366464Y-123343095D01*
X140366463Y-123343095D01*
X140436286Y-123361804D01*
X140487396Y-123375499D01*
X140487397Y-123375500D01*
X140487399Y-123375500D01*
X140612603Y-123375500D01*
X140612603Y-123375499D01*
X140733536Y-123343095D01*
X140841964Y-123280495D01*
X140930495Y-123191964D01*
X140993095Y-123083536D01*
X141025499Y-122962603D01*
X141025500Y-122962603D01*
X141025500Y-122837397D01*
X141025499Y-122837396D01*
X140997669Y-122733536D01*
X140993095Y-122716464D01*
X140930495Y-122608036D01*
X140841964Y-122519505D01*
X140841963Y-122519504D01*
X140733534Y-122456904D01*
X140733536Y-122456904D01*
X140612603Y-122424500D01*
X140612601Y-122424500D01*
X140487399Y-122424500D01*
X140487397Y-122424500D01*
X140366464Y-122456904D01*
X140258036Y-122519504D01*
X140169504Y-122608036D01*
X140106904Y-122716464D01*
X140074500Y-122837396D01*
X126383132Y-122837396D01*
X126443095Y-122733536D01*
X126446416Y-122721144D01*
X126470705Y-122630495D01*
X126475499Y-122612603D01*
X126475500Y-122612603D01*
X126475500Y-122487397D01*
X126475499Y-122487396D01*
X126472311Y-122475500D01*
X126443095Y-122366464D01*
X126380495Y-122258036D01*
X126291964Y-122169505D01*
X126291963Y-122169504D01*
X126183534Y-122106904D01*
X126183536Y-122106904D01*
X126062603Y-122074500D01*
X126062601Y-122074500D01*
X125937399Y-122074500D01*
X125937397Y-122074500D01*
X125816464Y-122106904D01*
X125708036Y-122169504D01*
X125619504Y-122258036D01*
X125556904Y-122366464D01*
X125524500Y-122487396D01*
X117435063Y-122487396D01*
X117480495Y-122441964D01*
X117543095Y-122333536D01*
X117575499Y-122212603D01*
X117575500Y-122212603D01*
X117575500Y-122087397D01*
X117575499Y-122087396D01*
X117543095Y-121966464D01*
X117526313Y-121937396D01*
X126774500Y-121937396D01*
X126774500Y-122062603D01*
X126806904Y-122183535D01*
X126852554Y-122262603D01*
X126869505Y-122291964D01*
X126958036Y-122380495D01*
X127066464Y-122443095D01*
X127066463Y-122443095D01*
X127136286Y-122461804D01*
X127187396Y-122475499D01*
X127187397Y-122475500D01*
X127187399Y-122475500D01*
X127312603Y-122475500D01*
X127312603Y-122475499D01*
X127433536Y-122443095D01*
X127541964Y-122380495D01*
X127630495Y-122291964D01*
X127693095Y-122183536D01*
X127705458Y-122137399D01*
X127705459Y-122137396D01*
X144574500Y-122137396D01*
X144574500Y-122262603D01*
X144606904Y-122383535D01*
X144666868Y-122487396D01*
X144669505Y-122491964D01*
X144758036Y-122580495D01*
X144866464Y-122643095D01*
X144866463Y-122643095D01*
X144936286Y-122661804D01*
X144987396Y-122675499D01*
X144987397Y-122675500D01*
X144987399Y-122675500D01*
X145112603Y-122675500D01*
X145112603Y-122675499D01*
X145233536Y-122643095D01*
X145341964Y-122580495D01*
X145430495Y-122491964D01*
X145493095Y-122383536D01*
X145525499Y-122262603D01*
X145525500Y-122262603D01*
X145525500Y-122137397D01*
X145525499Y-122137396D01*
X145512101Y-122087396D01*
X145493095Y-122016464D01*
X145430495Y-121908036D01*
X145341964Y-121819505D01*
X145341963Y-121819504D01*
X145233534Y-121756904D01*
X145233536Y-121756904D01*
X145112603Y-121724500D01*
X145112601Y-121724500D01*
X144987399Y-121724500D01*
X144987397Y-121724500D01*
X144866464Y-121756904D01*
X144758036Y-121819504D01*
X144669504Y-121908036D01*
X144606904Y-122016464D01*
X144574500Y-122137396D01*
X127705459Y-122137396D01*
X127711890Y-122113396D01*
X127720148Y-122082573D01*
X127725499Y-122062603D01*
X127725500Y-122062603D01*
X127725500Y-121937397D01*
X127725499Y-121937396D01*
X127707307Y-121869505D01*
X127693095Y-121816464D01*
X127630495Y-121708036D01*
X127541964Y-121619505D01*
X127541963Y-121619504D01*
X127433534Y-121556904D01*
X127433536Y-121556904D01*
X127312603Y-121524500D01*
X127312601Y-121524500D01*
X127187399Y-121524500D01*
X127187397Y-121524500D01*
X127066464Y-121556904D01*
X126958036Y-121619504D01*
X126869504Y-121708036D01*
X126806904Y-121816464D01*
X126774500Y-121937396D01*
X117526313Y-121937396D01*
X117480495Y-121858036D01*
X117391964Y-121769505D01*
X117391963Y-121769504D01*
X117283534Y-121706904D01*
X117283536Y-121706904D01*
X117162603Y-121674500D01*
X117162601Y-121674500D01*
X117037399Y-121674500D01*
X117037397Y-121674500D01*
X116916464Y-121706904D01*
X116808036Y-121769504D01*
X116719504Y-121858036D01*
X116656904Y-121966464D01*
X116624500Y-122087396D01*
X110998704Y-122087396D01*
X110993095Y-122066463D01*
X110930495Y-121958036D01*
X110841963Y-121869504D01*
X110733534Y-121806904D01*
X110733536Y-121806904D01*
X110612603Y-121774500D01*
X110612601Y-121774500D01*
X110487399Y-121774500D01*
X110487397Y-121774500D01*
X110366464Y-121806904D01*
X110258036Y-121869504D01*
X110169504Y-121958036D01*
X110106904Y-122066464D01*
X110074500Y-122187396D01*
X110074500Y-122250500D01*
X110052826Y-122302826D01*
X110000500Y-122324500D01*
X109937397Y-122324500D01*
X109816464Y-122356904D01*
X109708036Y-122419504D01*
X109619504Y-122508036D01*
X109556904Y-122616464D01*
X109524500Y-122737396D01*
X100500500Y-122737396D01*
X100500500Y-120687396D01*
X137774500Y-120687396D01*
X137774500Y-120812603D01*
X137806904Y-120933535D01*
X137806905Y-120933536D01*
X137869505Y-121041964D01*
X137958036Y-121130495D01*
X138066464Y-121193095D01*
X138066463Y-121193095D01*
X138136286Y-121211804D01*
X138187396Y-121225499D01*
X138187397Y-121225500D01*
X138187399Y-121225500D01*
X138312603Y-121225500D01*
X138312603Y-121225499D01*
X138433536Y-121193095D01*
X138541964Y-121130495D01*
X138630495Y-121041964D01*
X138693095Y-120933536D01*
X138725499Y-120812603D01*
X138725500Y-120812603D01*
X138725500Y-120687397D01*
X138725499Y-120687396D01*
X140524500Y-120687396D01*
X140524500Y-120812603D01*
X140556904Y-120933535D01*
X140556905Y-120933536D01*
X140619505Y-121041964D01*
X140708036Y-121130495D01*
X140816464Y-121193095D01*
X140816463Y-121193095D01*
X140886286Y-121211804D01*
X140937396Y-121225499D01*
X140937397Y-121225500D01*
X140937399Y-121225500D01*
X141062603Y-121225500D01*
X141062603Y-121225499D01*
X141183536Y-121193095D01*
X141291964Y-121130495D01*
X141380495Y-121041964D01*
X141443095Y-120933536D01*
X141475499Y-120812603D01*
X141475500Y-120812603D01*
X141475500Y-120687397D01*
X141475499Y-120687396D01*
X141443095Y-120566464D01*
X141380495Y-120458036D01*
X141291963Y-120369504D01*
X141183534Y-120306904D01*
X141183536Y-120306904D01*
X141062603Y-120274500D01*
X141062601Y-120274500D01*
X140937399Y-120274500D01*
X140937397Y-120274500D01*
X140816464Y-120306904D01*
X140708036Y-120369504D01*
X140619504Y-120458036D01*
X140556904Y-120566464D01*
X140524500Y-120687396D01*
X138725499Y-120687396D01*
X138693095Y-120566464D01*
X138630495Y-120458036D01*
X138541963Y-120369504D01*
X138433534Y-120306904D01*
X138433536Y-120306904D01*
X138312603Y-120274500D01*
X138312601Y-120274500D01*
X138187399Y-120274500D01*
X138187397Y-120274500D01*
X138066464Y-120306904D01*
X137958036Y-120369504D01*
X137869504Y-120458036D01*
X137806904Y-120566464D01*
X137774500Y-120687396D01*
X100500500Y-120687396D01*
X100500500Y-118037396D01*
X110324500Y-118037396D01*
X110324500Y-118162603D01*
X110356904Y-118283535D01*
X110390638Y-118341964D01*
X110419505Y-118391964D01*
X110508036Y-118480495D01*
X110616464Y-118543095D01*
X110616463Y-118543095D01*
X110686286Y-118561804D01*
X110737396Y-118575499D01*
X110737397Y-118575500D01*
X110737399Y-118575500D01*
X110862603Y-118575500D01*
X110862603Y-118575499D01*
X110983536Y-118543095D01*
X111091964Y-118480495D01*
X111180495Y-118391964D01*
X111243095Y-118283536D01*
X111275499Y-118162603D01*
X111275500Y-118162603D01*
X111275500Y-118037397D01*
X111265935Y-118001703D01*
X111265935Y-118001702D01*
X111262102Y-117987396D01*
X122974500Y-117987396D01*
X122974500Y-118112603D01*
X123006904Y-118233535D01*
X123054783Y-118316464D01*
X123069505Y-118341964D01*
X123158036Y-118430495D01*
X123266464Y-118493095D01*
X123266463Y-118493095D01*
X123336286Y-118511804D01*
X123387396Y-118525499D01*
X123387397Y-118525500D01*
X123387399Y-118525500D01*
X123512603Y-118525500D01*
X123512603Y-118525499D01*
X123633536Y-118493095D01*
X123730011Y-118437396D01*
X142774500Y-118437396D01*
X142774500Y-118562603D01*
X142806904Y-118683535D01*
X142806905Y-118683536D01*
X142869505Y-118791964D01*
X142958036Y-118880495D01*
X143066464Y-118943095D01*
X143066463Y-118943095D01*
X143136286Y-118961804D01*
X143187396Y-118975499D01*
X143187397Y-118975500D01*
X143187399Y-118975500D01*
X143312603Y-118975500D01*
X143312603Y-118975499D01*
X143433536Y-118943095D01*
X143541964Y-118880495D01*
X143630495Y-118791964D01*
X143693095Y-118683536D01*
X143725499Y-118562603D01*
X143725500Y-118562603D01*
X143725500Y-118437397D01*
X143725499Y-118437396D01*
X143713325Y-118391964D01*
X143693095Y-118316464D01*
X143630495Y-118208036D01*
X143541964Y-118119505D01*
X143541963Y-118119504D01*
X143433534Y-118056904D01*
X143433536Y-118056904D01*
X143312603Y-118024500D01*
X143312601Y-118024500D01*
X143187399Y-118024500D01*
X143187397Y-118024500D01*
X143066464Y-118056904D01*
X142958036Y-118119504D01*
X142869504Y-118208036D01*
X142806904Y-118316464D01*
X142774500Y-118437396D01*
X123730011Y-118437396D01*
X123741964Y-118430495D01*
X123830495Y-118341964D01*
X123893095Y-118233536D01*
X123925499Y-118112603D01*
X123925500Y-118112603D01*
X123925500Y-117987397D01*
X123925499Y-117987396D01*
X123893095Y-117866464D01*
X123830495Y-117758036D01*
X123741963Y-117669504D01*
X123633534Y-117606904D01*
X123633536Y-117606904D01*
X123512603Y-117574500D01*
X123512601Y-117574500D01*
X123387399Y-117574500D01*
X123387397Y-117574500D01*
X123266464Y-117606904D01*
X123158036Y-117669504D01*
X123069504Y-117758036D01*
X123006904Y-117866464D01*
X122974500Y-117987396D01*
X111262102Y-117987396D01*
X111243095Y-117916464D01*
X111180495Y-117808036D01*
X111091963Y-117719504D01*
X110983534Y-117656904D01*
X110983536Y-117656904D01*
X110862603Y-117624500D01*
X110862601Y-117624500D01*
X110737399Y-117624500D01*
X110737397Y-117624500D01*
X110616464Y-117656904D01*
X110508036Y-117719504D01*
X110419504Y-117808036D01*
X110356904Y-117916464D01*
X110324500Y-118037396D01*
X100500500Y-118037396D01*
X100500500Y-117187396D01*
X133424500Y-117187396D01*
X133424500Y-117312603D01*
X133456904Y-117433535D01*
X133456905Y-117433536D01*
X133519505Y-117541964D01*
X133608036Y-117630495D01*
X133716464Y-117693095D01*
X133716463Y-117693095D01*
X133786286Y-117711804D01*
X133837396Y-117725499D01*
X133837397Y-117725500D01*
X133837399Y-117725500D01*
X133962603Y-117725500D01*
X133962603Y-117725499D01*
X134083536Y-117693095D01*
X134191964Y-117630495D01*
X134280495Y-117541964D01*
X134343095Y-117433536D01*
X134375499Y-117312603D01*
X134375500Y-117312603D01*
X134375500Y-117187397D01*
X134375499Y-117187396D01*
X134343095Y-117066464D01*
X134280495Y-116958036D01*
X134191963Y-116869504D01*
X134083534Y-116806904D01*
X134083536Y-116806904D01*
X133962603Y-116774500D01*
X133962601Y-116774500D01*
X133837399Y-116774500D01*
X133837397Y-116774500D01*
X133716464Y-116806904D01*
X133608036Y-116869504D01*
X133519504Y-116958036D01*
X133456904Y-117066464D01*
X133424500Y-117187396D01*
X100500500Y-117187396D01*
X100500500Y-115970940D01*
X108199500Y-115970940D01*
X108199500Y-116129059D01*
X108240421Y-116281779D01*
X108240422Y-116281781D01*
X108240423Y-116281784D01*
X108319480Y-116418716D01*
X108431284Y-116530520D01*
X108568216Y-116609577D01*
X108720940Y-116650499D01*
X108720941Y-116650500D01*
X108720943Y-116650500D01*
X108879059Y-116650500D01*
X108879059Y-116650499D01*
X109031784Y-116609577D01*
X109168716Y-116530520D01*
X109280520Y-116418716D01*
X109359577Y-116281784D01*
X109398265Y-116137396D01*
X123374500Y-116137396D01*
X123374500Y-116262603D01*
X123406904Y-116383535D01*
X123427216Y-116418716D01*
X123469505Y-116491964D01*
X123558036Y-116580495D01*
X123666464Y-116643095D01*
X123666463Y-116643095D01*
X123694099Y-116650500D01*
X123787396Y-116675499D01*
X123787397Y-116675500D01*
X123787399Y-116675500D01*
X123912603Y-116675500D01*
X123912603Y-116675499D01*
X124033536Y-116643095D01*
X124141964Y-116580495D01*
X124230495Y-116491964D01*
X124293095Y-116383536D01*
X124325499Y-116262603D01*
X124325500Y-116262603D01*
X124325500Y-116137397D01*
X124325499Y-116137396D01*
X124297669Y-116033536D01*
X124293095Y-116016464D01*
X124230495Y-115908036D01*
X124141964Y-115819505D01*
X124141963Y-115819504D01*
X124086349Y-115787396D01*
X134324500Y-115787396D01*
X134324500Y-115912603D01*
X134356904Y-116033535D01*
X134416868Y-116137396D01*
X134419505Y-116141964D01*
X134508036Y-116230495D01*
X134616464Y-116293095D01*
X134616463Y-116293095D01*
X134686286Y-116311804D01*
X134737396Y-116325499D01*
X134737397Y-116325500D01*
X134737399Y-116325500D01*
X134862603Y-116325500D01*
X134862603Y-116325499D01*
X134983536Y-116293095D01*
X135091964Y-116230495D01*
X135180495Y-116141964D01*
X135243095Y-116033536D01*
X135275499Y-115912603D01*
X135275500Y-115912603D01*
X135275500Y-115787397D01*
X135275499Y-115787396D01*
X135263325Y-115741964D01*
X135243095Y-115666464D01*
X135180495Y-115558036D01*
X135091964Y-115469505D01*
X135091963Y-115469504D01*
X134983534Y-115406904D01*
X134983536Y-115406904D01*
X134862603Y-115374500D01*
X134862601Y-115374500D01*
X134737399Y-115374500D01*
X134737397Y-115374500D01*
X134616464Y-115406904D01*
X134508036Y-115469504D01*
X134419504Y-115558036D01*
X134356904Y-115666464D01*
X134324500Y-115787396D01*
X124086349Y-115787396D01*
X124033534Y-115756904D01*
X124033536Y-115756904D01*
X123912603Y-115724500D01*
X123912601Y-115724500D01*
X123787399Y-115724500D01*
X123787397Y-115724500D01*
X123666464Y-115756904D01*
X123558036Y-115819504D01*
X123469504Y-115908036D01*
X123406904Y-116016464D01*
X123374500Y-116137396D01*
X109398265Y-116137396D01*
X109400499Y-116129059D01*
X109400500Y-116129059D01*
X109400500Y-115970941D01*
X109400499Y-115970940D01*
X109392364Y-115940581D01*
X109359577Y-115818216D01*
X109280520Y-115681284D01*
X109168716Y-115569480D01*
X109031784Y-115490423D01*
X109031781Y-115490422D01*
X109031779Y-115490421D01*
X108879059Y-115449500D01*
X108879057Y-115449500D01*
X108720943Y-115449500D01*
X108720941Y-115449500D01*
X108568220Y-115490421D01*
X108568214Y-115490424D01*
X108431283Y-115569480D01*
X108319480Y-115681283D01*
X108240424Y-115818214D01*
X108240421Y-115818220D01*
X108199500Y-115970940D01*
X100500500Y-115970940D01*
X100500500Y-112878713D01*
X102149500Y-112878713D01*
X102149500Y-113121286D01*
X102181160Y-113361782D01*
X102181162Y-113361791D01*
X102243945Y-113596099D01*
X102336772Y-113820203D01*
X102336775Y-113820211D01*
X102458061Y-114030285D01*
X102458065Y-114030291D01*
X102605735Y-114222738D01*
X102777261Y-114394264D01*
X102956480Y-114531784D01*
X102969711Y-114541936D01*
X103179788Y-114663224D01*
X103403900Y-114756054D01*
X103638211Y-114818838D01*
X103638214Y-114818838D01*
X103638217Y-114818839D01*
X103744951Y-114832890D01*
X103878712Y-114850500D01*
X103878714Y-114850500D01*
X104121286Y-114850500D01*
X104121288Y-114850500D01*
X104306575Y-114826106D01*
X104361782Y-114818839D01*
X104361782Y-114818838D01*
X104361789Y-114818838D01*
X104596100Y-114756054D01*
X104820212Y-114663224D01*
X105030289Y-114541936D01*
X105101367Y-114487396D01*
X137874500Y-114487396D01*
X137874500Y-114612603D01*
X137906904Y-114733535D01*
X137956153Y-114818837D01*
X137969505Y-114841964D01*
X138058036Y-114930495D01*
X138166464Y-114993095D01*
X138166463Y-114993095D01*
X138236286Y-115011804D01*
X138287396Y-115025499D01*
X138287397Y-115025500D01*
X138287399Y-115025500D01*
X138412596Y-115025500D01*
X138412601Y-115025500D01*
X138412605Y-115025498D01*
X138414622Y-115025233D01*
X138415619Y-115025500D01*
X138417451Y-115025500D01*
X138417451Y-115025990D01*
X138469331Y-115039886D01*
X138497655Y-115088932D01*
X138483002Y-115143641D01*
X138476617Y-115150922D01*
X138469508Y-115158031D01*
X138469504Y-115158036D01*
X138406904Y-115266464D01*
X138374500Y-115387396D01*
X138374500Y-115512603D01*
X138406904Y-115633535D01*
X138450714Y-115709416D01*
X138469505Y-115741964D01*
X138558036Y-115830495D01*
X138573626Y-115839496D01*
X138608106Y-115884427D01*
X138600715Y-115940580D01*
X138600715Y-115940581D01*
X138556903Y-116016467D01*
X138524500Y-116137396D01*
X138524500Y-116262603D01*
X138556904Y-116383535D01*
X138577216Y-116418716D01*
X138619505Y-116491964D01*
X138708036Y-116580495D01*
X138816464Y-116643095D01*
X138816463Y-116643095D01*
X138844099Y-116650500D01*
X138937396Y-116675499D01*
X138937397Y-116675500D01*
X138937399Y-116675500D01*
X139062603Y-116675500D01*
X139062603Y-116675499D01*
X139183536Y-116643095D01*
X139291964Y-116580495D01*
X139380495Y-116491964D01*
X139443095Y-116383536D01*
X139475499Y-116262603D01*
X139475500Y-116262603D01*
X139475500Y-116137397D01*
X139475499Y-116137396D01*
X139447669Y-116033536D01*
X139443095Y-116016464D01*
X139380495Y-115908036D01*
X139291964Y-115819505D01*
X139291963Y-115819504D01*
X139276370Y-115810501D01*
X139241892Y-115765567D01*
X139249284Y-115709418D01*
X139293095Y-115633536D01*
X139325499Y-115512603D01*
X139325500Y-115512603D01*
X139325500Y-115387397D01*
X139325499Y-115387396D01*
X139322043Y-115374500D01*
X139293095Y-115266464D01*
X139230495Y-115158036D01*
X139141964Y-115069505D01*
X139141963Y-115069504D01*
X139033534Y-115006904D01*
X139033536Y-115006904D01*
X138912603Y-114974500D01*
X138912601Y-114974500D01*
X138787399Y-114974500D01*
X138787394Y-114974500D01*
X138785365Y-114974767D01*
X138784369Y-114974500D01*
X138782549Y-114974500D01*
X138782549Y-114974012D01*
X138730659Y-114960106D01*
X138702343Y-114911055D01*
X138717004Y-114856349D01*
X138723387Y-114849072D01*
X138730495Y-114841964D01*
X138793095Y-114733536D01*
X138825499Y-114612603D01*
X138825500Y-114612603D01*
X138825500Y-114487397D01*
X138825499Y-114487396D01*
X138793095Y-114366464D01*
X138730495Y-114258036D01*
X138693399Y-114220940D01*
X149749500Y-114220940D01*
X149749500Y-114379059D01*
X149790421Y-114531779D01*
X149790422Y-114531781D01*
X149790423Y-114531784D01*
X149869480Y-114668716D01*
X149981284Y-114780520D01*
X150118216Y-114859577D01*
X150270940Y-114900499D01*
X150270941Y-114900500D01*
X150270943Y-114900500D01*
X150429059Y-114900500D01*
X150429059Y-114900499D01*
X150510367Y-114878713D01*
X158149500Y-114878713D01*
X158149500Y-115121286D01*
X158181160Y-115361782D01*
X158181162Y-115361791D01*
X158243945Y-115596099D01*
X158336772Y-115820203D01*
X158336775Y-115820211D01*
X158458061Y-116030285D01*
X158458065Y-116030291D01*
X158605735Y-116222738D01*
X158777261Y-116394264D01*
X158969708Y-116541934D01*
X158969714Y-116541938D01*
X159157748Y-116650499D01*
X159179788Y-116663224D01*
X159403900Y-116756054D01*
X159638211Y-116818838D01*
X159638214Y-116818838D01*
X159638217Y-116818839D01*
X159744951Y-116832890D01*
X159878712Y-116850500D01*
X159878714Y-116850500D01*
X160121286Y-116850500D01*
X160121288Y-116850500D01*
X160306575Y-116826106D01*
X160361782Y-116818839D01*
X160361782Y-116818838D01*
X160361789Y-116818838D01*
X160596100Y-116756054D01*
X160820212Y-116663224D01*
X161030289Y-116541936D01*
X161222738Y-116394265D01*
X161394265Y-116222738D01*
X161541936Y-116030289D01*
X161663224Y-115820212D01*
X161756054Y-115596100D01*
X161818838Y-115361789D01*
X161850500Y-115121288D01*
X161850500Y-114878712D01*
X161822854Y-114668716D01*
X161818839Y-114638217D01*
X161818837Y-114638208D01*
X161756054Y-114403900D01*
X161745764Y-114379057D01*
X161663224Y-114179788D01*
X161621145Y-114106905D01*
X161541938Y-113969714D01*
X161541934Y-113969708D01*
X161394264Y-113777261D01*
X161222738Y-113605735D01*
X161030291Y-113458065D01*
X161030285Y-113458061D01*
X160820211Y-113336775D01*
X160820203Y-113336772D01*
X160596099Y-113243945D01*
X160361791Y-113181162D01*
X160361782Y-113181160D01*
X160168480Y-113155712D01*
X160121288Y-113149500D01*
X159878712Y-113149500D01*
X159835736Y-113155157D01*
X159638217Y-113181160D01*
X159638208Y-113181162D01*
X159403900Y-113243945D01*
X159179796Y-113336772D01*
X159179788Y-113336775D01*
X158969714Y-113458061D01*
X158969708Y-113458065D01*
X158777261Y-113605735D01*
X158605735Y-113777261D01*
X158458065Y-113969708D01*
X158458061Y-113969714D01*
X158336775Y-114179788D01*
X158336772Y-114179796D01*
X158243945Y-114403900D01*
X158181162Y-114638208D01*
X158181160Y-114638217D01*
X158149500Y-114878713D01*
X150510367Y-114878713D01*
X150581784Y-114859577D01*
X150718716Y-114780520D01*
X150830520Y-114668716D01*
X150909577Y-114531784D01*
X150950499Y-114379059D01*
X150950500Y-114379059D01*
X150950500Y-114220941D01*
X150950499Y-114220940D01*
X150939472Y-114179788D01*
X150909577Y-114068216D01*
X150830520Y-113931284D01*
X150718716Y-113819480D01*
X150581784Y-113740423D01*
X150581781Y-113740422D01*
X150581779Y-113740421D01*
X150429059Y-113699500D01*
X150429057Y-113699500D01*
X150270943Y-113699500D01*
X150270941Y-113699500D01*
X150118220Y-113740421D01*
X150118214Y-113740424D01*
X149981283Y-113819480D01*
X149869480Y-113931283D01*
X149790424Y-114068214D01*
X149790421Y-114068220D01*
X149749500Y-114220940D01*
X138693399Y-114220940D01*
X138641963Y-114169504D01*
X138533534Y-114106904D01*
X138533536Y-114106904D01*
X138412603Y-114074500D01*
X138412601Y-114074500D01*
X138287399Y-114074500D01*
X138287397Y-114074500D01*
X138166464Y-114106904D01*
X138058036Y-114169504D01*
X137969504Y-114258036D01*
X137906904Y-114366464D01*
X137874500Y-114487396D01*
X105101367Y-114487396D01*
X105222738Y-114394265D01*
X105394265Y-114222738D01*
X105541936Y-114030289D01*
X105663224Y-113820212D01*
X105756054Y-113596100D01*
X105811977Y-113387396D01*
X125024500Y-113387396D01*
X125024500Y-113512603D01*
X125056904Y-113633535D01*
X125118616Y-113740424D01*
X125119505Y-113741964D01*
X125208036Y-113830495D01*
X125316464Y-113893095D01*
X125316463Y-113893095D01*
X125386286Y-113911804D01*
X125437396Y-113925499D01*
X125437397Y-113925500D01*
X125437399Y-113925500D01*
X125562603Y-113925500D01*
X125562603Y-113925499D01*
X125683536Y-113893095D01*
X125791964Y-113830495D01*
X125880495Y-113741964D01*
X125943095Y-113633536D01*
X125948211Y-113614440D01*
X125955458Y-113587396D01*
X131524500Y-113587396D01*
X131524500Y-113712603D01*
X131556904Y-113833535D01*
X131610000Y-113925500D01*
X131619505Y-113941964D01*
X131708036Y-114030495D01*
X131816464Y-114093095D01*
X131816463Y-114093095D01*
X131886286Y-114111804D01*
X131937396Y-114125499D01*
X131937397Y-114125500D01*
X131937399Y-114125500D01*
X132062603Y-114125500D01*
X132062603Y-114125499D01*
X132183536Y-114093095D01*
X132291964Y-114030495D01*
X132380495Y-113941964D01*
X132443095Y-113833536D01*
X132475499Y-113712603D01*
X132475500Y-113712603D01*
X132475500Y-113587397D01*
X132475499Y-113587396D01*
X136024500Y-113587396D01*
X136024500Y-113712603D01*
X136056904Y-113833535D01*
X136110000Y-113925500D01*
X136119505Y-113941964D01*
X136208036Y-114030495D01*
X136316464Y-114093095D01*
X136316463Y-114093095D01*
X136386286Y-114111804D01*
X136437396Y-114125499D01*
X136437397Y-114125500D01*
X136437399Y-114125500D01*
X136562603Y-114125500D01*
X136562603Y-114125499D01*
X136683536Y-114093095D01*
X136791964Y-114030495D01*
X136880495Y-113941964D01*
X136943095Y-113833536D01*
X136975499Y-113712603D01*
X136975500Y-113712603D01*
X136975500Y-113587397D01*
X136975499Y-113587396D01*
X136943095Y-113466464D01*
X136880495Y-113358036D01*
X136791963Y-113269504D01*
X136683534Y-113206904D01*
X136683536Y-113206904D01*
X136562603Y-113174500D01*
X136562601Y-113174500D01*
X136437399Y-113174500D01*
X136437397Y-113174500D01*
X136316464Y-113206904D01*
X136208036Y-113269504D01*
X136119504Y-113358036D01*
X136056904Y-113466464D01*
X136024500Y-113587396D01*
X132475499Y-113587396D01*
X132443095Y-113466464D01*
X132380495Y-113358036D01*
X132291963Y-113269504D01*
X132183534Y-113206904D01*
X132183536Y-113206904D01*
X132062603Y-113174500D01*
X132062601Y-113174500D01*
X131937399Y-113174500D01*
X131937397Y-113174500D01*
X131816464Y-113206904D01*
X131708036Y-113269504D01*
X131619504Y-113358036D01*
X131556904Y-113466464D01*
X131524500Y-113587396D01*
X125955458Y-113587396D01*
X125961890Y-113563396D01*
X125975499Y-113512603D01*
X125975500Y-113512603D01*
X125975500Y-113387397D01*
X125975499Y-113387396D01*
X125968635Y-113361781D01*
X125943095Y-113266464D01*
X125880495Y-113158036D01*
X125791964Y-113069505D01*
X125791963Y-113069504D01*
X125683534Y-113006904D01*
X125683536Y-113006904D01*
X125562603Y-112974500D01*
X125562601Y-112974500D01*
X125437399Y-112974500D01*
X125437397Y-112974500D01*
X125316464Y-113006904D01*
X125208036Y-113069504D01*
X125119504Y-113158036D01*
X125056904Y-113266464D01*
X125024500Y-113387396D01*
X105811977Y-113387396D01*
X105818838Y-113361789D01*
X105850500Y-113121288D01*
X105850500Y-112878712D01*
X105818838Y-112638211D01*
X105756054Y-112403900D01*
X105663224Y-112179788D01*
X105541936Y-111969711D01*
X105517140Y-111937396D01*
X133824500Y-111937396D01*
X133824500Y-112062603D01*
X133856904Y-112183535D01*
X133856905Y-112183536D01*
X133919505Y-112291964D01*
X134008036Y-112380495D01*
X134116464Y-112443095D01*
X134116463Y-112443095D01*
X134186286Y-112461804D01*
X134237396Y-112475499D01*
X134237397Y-112475500D01*
X134237399Y-112475500D01*
X134362603Y-112475500D01*
X134362603Y-112475499D01*
X134483536Y-112443095D01*
X134591964Y-112380495D01*
X134680495Y-112291964D01*
X134743095Y-112183536D01*
X134775499Y-112062603D01*
X134775500Y-112062603D01*
X134775500Y-111937397D01*
X134775499Y-111937396D01*
X134765612Y-111900499D01*
X134743095Y-111816464D01*
X134680495Y-111708036D01*
X134591964Y-111619505D01*
X134591963Y-111619504D01*
X134483534Y-111556904D01*
X134483536Y-111556904D01*
X134362603Y-111524500D01*
X134362601Y-111524500D01*
X134237399Y-111524500D01*
X134237397Y-111524500D01*
X134116464Y-111556904D01*
X134008036Y-111619504D01*
X133919504Y-111708036D01*
X133856904Y-111816464D01*
X133824500Y-111937396D01*
X105517140Y-111937396D01*
X105394265Y-111777262D01*
X105222738Y-111605735D01*
X105030291Y-111458065D01*
X105030285Y-111458061D01*
X104820211Y-111336775D01*
X104820203Y-111336772D01*
X104693910Y-111284460D01*
X104596099Y-111243945D01*
X104510244Y-111220940D01*
X149349500Y-111220940D01*
X149349500Y-111379059D01*
X149390421Y-111531779D01*
X149390422Y-111531781D01*
X149390423Y-111531784D01*
X149469480Y-111668716D01*
X149581284Y-111780520D01*
X149718216Y-111859577D01*
X149870940Y-111900499D01*
X149870941Y-111900500D01*
X149870943Y-111900500D01*
X150029059Y-111900500D01*
X150029059Y-111900499D01*
X150181784Y-111859577D01*
X150318716Y-111780520D01*
X150430520Y-111668716D01*
X150509577Y-111531784D01*
X150550499Y-111379059D01*
X150550500Y-111379059D01*
X150550500Y-111220941D01*
X150550499Y-111220940D01*
X150509578Y-111068220D01*
X150509577Y-111068216D01*
X150430520Y-110931284D01*
X150318716Y-110819480D01*
X150181784Y-110740423D01*
X150181781Y-110740422D01*
X150181779Y-110740421D01*
X150029059Y-110699500D01*
X150029057Y-110699500D01*
X149870943Y-110699500D01*
X149870941Y-110699500D01*
X149718220Y-110740421D01*
X149718214Y-110740424D01*
X149581283Y-110819480D01*
X149469480Y-110931283D01*
X149390424Y-111068214D01*
X149390421Y-111068220D01*
X149349500Y-111220940D01*
X104510244Y-111220940D01*
X104361791Y-111181162D01*
X104361782Y-111181160D01*
X104168480Y-111155712D01*
X104121288Y-111149500D01*
X103878712Y-111149500D01*
X103835736Y-111155157D01*
X103638217Y-111181160D01*
X103638208Y-111181162D01*
X103403900Y-111243945D01*
X103179796Y-111336772D01*
X103179788Y-111336775D01*
X102969714Y-111458061D01*
X102969708Y-111458065D01*
X102777261Y-111605735D01*
X102605735Y-111777261D01*
X102458065Y-111969708D01*
X102458061Y-111969714D01*
X102336775Y-112179788D01*
X102336772Y-112179796D01*
X102243945Y-112403900D01*
X102181162Y-112638208D01*
X102181160Y-112638217D01*
X102149500Y-112878713D01*
X100500500Y-112878713D01*
X100500500Y-109187396D01*
X109324500Y-109187396D01*
X109324500Y-109312603D01*
X109356904Y-109433535D01*
X109371050Y-109458036D01*
X109419505Y-109541964D01*
X109508036Y-109630495D01*
X109616464Y-109693095D01*
X109616463Y-109693095D01*
X109677978Y-109709578D01*
X109737396Y-109725499D01*
X109737397Y-109725500D01*
X109737399Y-109725500D01*
X109862603Y-109725500D01*
X109862603Y-109725499D01*
X109983536Y-109693095D01*
X110091964Y-109630495D01*
X110180495Y-109541964D01*
X110243095Y-109433536D01*
X110275499Y-109312603D01*
X110275500Y-109312603D01*
X110275500Y-109187397D01*
X110275499Y-109187396D01*
X110243095Y-109066464D01*
X110180495Y-108958036D01*
X110091963Y-108869504D01*
X109983534Y-108806904D01*
X109983535Y-108806904D01*
X109972797Y-108804027D01*
X109862603Y-108774500D01*
X109862601Y-108774500D01*
X109737399Y-108774500D01*
X109737397Y-108774500D01*
X109616464Y-108806904D01*
X109508036Y-108869504D01*
X109419504Y-108958036D01*
X109356904Y-109066464D01*
X109324500Y-109187396D01*
X100500500Y-109187396D01*
X100500500Y-108320940D01*
X107449500Y-108320940D01*
X107449500Y-108479059D01*
X107490421Y-108631779D01*
X107490422Y-108631781D01*
X107490423Y-108631784D01*
X107569480Y-108768716D01*
X107681284Y-108880520D01*
X107818216Y-108959577D01*
X107970940Y-109000499D01*
X107970941Y-109000500D01*
X107970943Y-109000500D01*
X108129059Y-109000500D01*
X108129059Y-109000499D01*
X108281784Y-108959577D01*
X108418716Y-108880520D01*
X108530520Y-108768716D01*
X108548602Y-108737396D01*
X112224500Y-108737396D01*
X112224500Y-108862603D01*
X112256904Y-108983535D01*
X112307369Y-109070943D01*
X112319505Y-109091964D01*
X112408036Y-109180495D01*
X112516464Y-109243095D01*
X112516463Y-109243095D01*
X112586286Y-109261804D01*
X112637396Y-109275499D01*
X112637397Y-109275500D01*
X112637399Y-109275500D01*
X112762603Y-109275500D01*
X112762603Y-109275499D01*
X112883536Y-109243095D01*
X112991964Y-109180495D01*
X113080495Y-109091964D01*
X113092633Y-109070940D01*
X120299500Y-109070940D01*
X120299500Y-109229059D01*
X120340421Y-109381779D01*
X120340422Y-109381781D01*
X120340423Y-109381784D01*
X120419480Y-109518716D01*
X120531284Y-109630520D01*
X120668216Y-109709577D01*
X120820940Y-109750499D01*
X120820941Y-109750500D01*
X120820943Y-109750500D01*
X120979059Y-109750500D01*
X120979059Y-109750499D01*
X121131784Y-109709577D01*
X121170203Y-109687396D01*
X147774500Y-109687396D01*
X147774500Y-109812603D01*
X147806904Y-109933535D01*
X147806905Y-109933536D01*
X147869505Y-110041964D01*
X147958036Y-110130495D01*
X148066464Y-110193095D01*
X148066463Y-110193095D01*
X148136286Y-110211804D01*
X148187396Y-110225499D01*
X148187397Y-110225500D01*
X148187399Y-110225500D01*
X148312603Y-110225500D01*
X148312603Y-110225499D01*
X148433536Y-110193095D01*
X148541964Y-110130495D01*
X148630495Y-110041964D01*
X148693095Y-109933536D01*
X148725499Y-109812603D01*
X148725500Y-109812603D01*
X148725500Y-109687397D01*
X148725499Y-109687396D01*
X148693095Y-109566464D01*
X148630495Y-109458036D01*
X148541963Y-109369504D01*
X148433534Y-109306904D01*
X148433536Y-109306904D01*
X148312603Y-109274500D01*
X148312601Y-109274500D01*
X148187399Y-109274500D01*
X148187397Y-109274500D01*
X148066464Y-109306904D01*
X147958036Y-109369504D01*
X147869504Y-109458036D01*
X147806904Y-109566464D01*
X147774500Y-109687396D01*
X121170203Y-109687396D01*
X121268716Y-109630520D01*
X121380520Y-109518716D01*
X121459577Y-109381784D01*
X121500499Y-109229059D01*
X121500500Y-109229059D01*
X121500500Y-109187396D01*
X149274500Y-109187396D01*
X149274500Y-109312603D01*
X149306904Y-109433535D01*
X149321050Y-109458036D01*
X149369505Y-109541964D01*
X149458036Y-109630495D01*
X149566464Y-109693095D01*
X149566463Y-109693095D01*
X149627978Y-109709578D01*
X149687396Y-109725499D01*
X149687397Y-109725500D01*
X149687399Y-109725500D01*
X149812603Y-109725500D01*
X149812603Y-109725499D01*
X149933536Y-109693095D01*
X150041964Y-109630495D01*
X150130495Y-109541964D01*
X150193095Y-109433536D01*
X150225499Y-109312603D01*
X150225500Y-109312603D01*
X150225500Y-109187397D01*
X150225499Y-109187396D01*
X150193095Y-109066464D01*
X150130495Y-108958036D01*
X150041963Y-108869504D01*
X149933534Y-108806904D01*
X149933536Y-108806904D01*
X149812603Y-108774500D01*
X149812601Y-108774500D01*
X149687399Y-108774500D01*
X149687397Y-108774500D01*
X149566464Y-108806904D01*
X149458036Y-108869504D01*
X149369504Y-108958036D01*
X149306904Y-109066464D01*
X149274500Y-109187396D01*
X121500500Y-109187396D01*
X121500500Y-109070941D01*
X121500499Y-109070940D01*
X121481624Y-109000499D01*
X121459577Y-108918216D01*
X121380520Y-108781284D01*
X121268716Y-108669480D01*
X121131784Y-108590423D01*
X121131781Y-108590422D01*
X121131779Y-108590421D01*
X120979059Y-108549500D01*
X120979057Y-108549500D01*
X120820943Y-108549500D01*
X120820941Y-108549500D01*
X120668220Y-108590421D01*
X120668214Y-108590424D01*
X120531283Y-108669480D01*
X120419480Y-108781283D01*
X120340424Y-108918214D01*
X120340421Y-108918220D01*
X120299500Y-109070940D01*
X113092633Y-109070940D01*
X113143095Y-108983536D01*
X113175499Y-108862603D01*
X113175500Y-108862603D01*
X113175500Y-108737397D01*
X113175499Y-108737396D01*
X113163325Y-108691964D01*
X113143095Y-108616464D01*
X113080495Y-108508036D01*
X112991964Y-108419505D01*
X112991963Y-108419504D01*
X112912584Y-108373676D01*
X112883536Y-108356905D01*
X112883535Y-108356904D01*
X112883536Y-108356904D01*
X112762603Y-108324500D01*
X112762601Y-108324500D01*
X112637399Y-108324500D01*
X112637397Y-108324500D01*
X112516464Y-108356904D01*
X112408036Y-108419504D01*
X112319504Y-108508036D01*
X112256904Y-108616464D01*
X112224500Y-108737396D01*
X108548602Y-108737396D01*
X108609577Y-108631784D01*
X108650499Y-108479059D01*
X108650500Y-108479059D01*
X108650500Y-108320941D01*
X108650499Y-108320940D01*
X108626608Y-108231779D01*
X108609577Y-108168216D01*
X108530520Y-108031284D01*
X108418716Y-107919480D01*
X108281784Y-107840423D01*
X108281777Y-107840421D01*
X108272099Y-107837827D01*
X108227168Y-107803346D01*
X108219779Y-107747193D01*
X108254256Y-107702265D01*
X108291964Y-107680495D01*
X108380495Y-107591964D01*
X108443095Y-107483536D01*
X108475499Y-107362603D01*
X108475500Y-107362603D01*
X108475500Y-107237397D01*
X108475499Y-107237396D01*
X109174500Y-107237396D01*
X109174500Y-107362603D01*
X109206904Y-107483535D01*
X109210882Y-107490424D01*
X109269505Y-107591964D01*
X109358036Y-107680495D01*
X109466464Y-107743095D01*
X109466463Y-107743095D01*
X109529421Y-107759965D01*
X109574354Y-107794443D01*
X109581747Y-107850595D01*
X109549500Y-107970943D01*
X109549500Y-108129059D01*
X109590421Y-108281779D01*
X109590422Y-108281781D01*
X109590423Y-108281784D01*
X109669480Y-108418716D01*
X109781284Y-108530520D01*
X109918216Y-108609577D01*
X110070940Y-108650499D01*
X110070941Y-108650500D01*
X110070943Y-108650500D01*
X110229059Y-108650500D01*
X110229059Y-108650499D01*
X110381784Y-108609577D01*
X110518716Y-108530520D01*
X110630520Y-108418716D01*
X110709577Y-108281784D01*
X110750499Y-108129059D01*
X110750500Y-108129059D01*
X110750500Y-107970941D01*
X110750499Y-107970940D01*
X110745345Y-107951702D01*
X110741512Y-107937396D01*
X137024500Y-107937396D01*
X137024500Y-108062603D01*
X137056904Y-108183535D01*
X137113628Y-108281784D01*
X137119505Y-108291964D01*
X137208036Y-108380495D01*
X137316464Y-108443095D01*
X137316463Y-108443095D01*
X137386286Y-108461804D01*
X137437396Y-108475499D01*
X137437397Y-108475500D01*
X137437399Y-108475500D01*
X137562603Y-108475500D01*
X137562603Y-108475499D01*
X137683536Y-108443095D01*
X137791964Y-108380495D01*
X137835063Y-108337396D01*
X143724500Y-108337396D01*
X143724500Y-108462603D01*
X143756904Y-108583535D01*
X143795566Y-108650499D01*
X143819505Y-108691964D01*
X143908036Y-108780495D01*
X144016464Y-108843095D01*
X144016463Y-108843095D01*
X144086286Y-108861804D01*
X144137396Y-108875499D01*
X144137397Y-108875500D01*
X144137399Y-108875500D01*
X144262603Y-108875500D01*
X144262603Y-108875499D01*
X144383536Y-108843095D01*
X144491964Y-108780495D01*
X144580495Y-108691964D01*
X144643095Y-108583536D01*
X144675499Y-108462603D01*
X144675500Y-108462603D01*
X144675500Y-108337397D01*
X144675499Y-108337396D01*
X144672311Y-108325500D01*
X144643095Y-108216464D01*
X144580495Y-108108036D01*
X144491964Y-108019505D01*
X144423847Y-107980178D01*
X144423847Y-107980177D01*
X144383534Y-107956904D01*
X144383536Y-107956904D01*
X144262603Y-107924500D01*
X144262601Y-107924500D01*
X144137399Y-107924500D01*
X144137397Y-107924500D01*
X144016464Y-107956904D01*
X143908036Y-108019504D01*
X143819504Y-108108036D01*
X143756904Y-108216464D01*
X143724500Y-108337396D01*
X137835063Y-108337396D01*
X137880495Y-108291964D01*
X137943095Y-108183536D01*
X137975499Y-108062603D01*
X137975500Y-108062603D01*
X137975500Y-107937397D01*
X137975499Y-107937396D01*
X137972043Y-107924500D01*
X137971089Y-107920940D01*
X148299500Y-107920940D01*
X148299500Y-108079059D01*
X148340421Y-108231779D01*
X148340422Y-108231781D01*
X148340423Y-108231784D01*
X148419480Y-108368716D01*
X148531284Y-108480520D01*
X148668216Y-108559577D01*
X148820940Y-108600499D01*
X148820941Y-108600500D01*
X148820943Y-108600500D01*
X148979059Y-108600500D01*
X148979059Y-108600499D01*
X149131784Y-108559577D01*
X149268716Y-108480520D01*
X149380520Y-108368716D01*
X149459577Y-108231784D01*
X149500499Y-108079059D01*
X149500500Y-108079059D01*
X149500500Y-107920941D01*
X149500499Y-107920940D01*
X149468550Y-107801702D01*
X149464716Y-107787396D01*
X150324500Y-107787396D01*
X150324500Y-107912603D01*
X150356904Y-108033535D01*
X150395566Y-108100499D01*
X150419505Y-108141964D01*
X150508036Y-108230495D01*
X150616464Y-108293095D01*
X150616463Y-108293095D01*
X150686286Y-108311804D01*
X150737396Y-108325499D01*
X150737397Y-108325500D01*
X150737399Y-108325500D01*
X150862603Y-108325500D01*
X150862603Y-108325499D01*
X150983536Y-108293095D01*
X151091964Y-108230495D01*
X151180495Y-108141964D01*
X151243095Y-108033536D01*
X151275499Y-107912603D01*
X151275500Y-107912603D01*
X151275500Y-107787397D01*
X151275499Y-107787396D01*
X151272311Y-107775500D01*
X151243095Y-107666464D01*
X151180495Y-107558036D01*
X151091964Y-107469505D01*
X151091963Y-107469504D01*
X151007846Y-107420940D01*
X153899500Y-107420940D01*
X153899500Y-107579059D01*
X153940421Y-107731779D01*
X153940422Y-107731781D01*
X153940423Y-107731784D01*
X154019480Y-107868716D01*
X154131284Y-107980520D01*
X154268216Y-108059577D01*
X154420940Y-108100499D01*
X154420941Y-108100500D01*
X154420943Y-108100500D01*
X154579059Y-108100500D01*
X154579059Y-108100499D01*
X154731784Y-108059577D01*
X154868716Y-107980520D01*
X154980520Y-107868716D01*
X155059577Y-107731784D01*
X155100499Y-107579059D01*
X155100500Y-107579059D01*
X155100500Y-107420941D01*
X155100499Y-107420940D01*
X155096738Y-107406905D01*
X155059577Y-107268216D01*
X154980520Y-107131284D01*
X154868716Y-107019480D01*
X154731784Y-106940423D01*
X154731781Y-106940422D01*
X154731779Y-106940421D01*
X154579059Y-106899500D01*
X154579057Y-106899500D01*
X154420943Y-106899500D01*
X154420941Y-106899500D01*
X154268220Y-106940421D01*
X154268214Y-106940424D01*
X154131283Y-107019480D01*
X154019480Y-107131283D01*
X153940424Y-107268214D01*
X153940421Y-107268220D01*
X153899500Y-107420940D01*
X151007846Y-107420940D01*
X150983534Y-107406904D01*
X150983536Y-107406904D01*
X150862603Y-107374500D01*
X150862601Y-107374500D01*
X150737399Y-107374500D01*
X150737397Y-107374500D01*
X150616464Y-107406904D01*
X150508036Y-107469504D01*
X150419504Y-107558036D01*
X150356904Y-107666464D01*
X150324500Y-107787396D01*
X149464716Y-107787396D01*
X149459578Y-107768220D01*
X149459577Y-107768216D01*
X149380520Y-107631284D01*
X149268716Y-107519480D01*
X149131784Y-107440423D01*
X149131781Y-107440422D01*
X149131779Y-107440421D01*
X148979059Y-107399500D01*
X148979057Y-107399500D01*
X148820943Y-107399500D01*
X148820941Y-107399500D01*
X148668220Y-107440421D01*
X148668214Y-107440424D01*
X148531283Y-107519480D01*
X148419480Y-107631283D01*
X148340424Y-107768214D01*
X148340421Y-107768220D01*
X148299500Y-107920940D01*
X137971089Y-107920940D01*
X137943095Y-107816464D01*
X137880495Y-107708036D01*
X137791964Y-107619505D01*
X137791963Y-107619504D01*
X137683534Y-107556904D01*
X137683536Y-107556904D01*
X137562603Y-107524500D01*
X137562601Y-107524500D01*
X137437399Y-107524500D01*
X137437397Y-107524500D01*
X137316464Y-107556904D01*
X137208036Y-107619504D01*
X137119504Y-107708036D01*
X137056904Y-107816464D01*
X137024500Y-107937396D01*
X110741512Y-107937396D01*
X110709578Y-107818220D01*
X110709577Y-107818216D01*
X110630520Y-107681284D01*
X110518716Y-107569480D01*
X110381784Y-107490423D01*
X110381781Y-107490422D01*
X110381779Y-107490421D01*
X110229059Y-107449500D01*
X110229057Y-107449500D01*
X110198441Y-107449500D01*
X110146115Y-107427826D01*
X110124441Y-107375500D01*
X110125073Y-107365847D01*
X110125500Y-107362601D01*
X110125500Y-107237397D01*
X110125499Y-107237396D01*
X110097669Y-107133536D01*
X110093095Y-107116464D01*
X110030495Y-107008036D01*
X109941964Y-106919505D01*
X109941963Y-106919504D01*
X109886349Y-106887396D01*
X121024500Y-106887396D01*
X121024500Y-107012603D01*
X121056904Y-107133535D01*
X121116868Y-107237396D01*
X121119505Y-107241964D01*
X121208036Y-107330495D01*
X121316464Y-107393095D01*
X121316463Y-107393095D01*
X121386286Y-107411804D01*
X121437396Y-107425499D01*
X121437397Y-107425500D01*
X121437399Y-107425500D01*
X121562603Y-107425500D01*
X121562603Y-107425499D01*
X121683536Y-107393095D01*
X121791964Y-107330495D01*
X121880495Y-107241964D01*
X121943095Y-107133536D01*
X121975499Y-107012603D01*
X121975500Y-107012603D01*
X121975500Y-106887397D01*
X121975499Y-106887396D01*
X121943095Y-106766464D01*
X121880495Y-106658036D01*
X121809855Y-106587396D01*
X130324500Y-106587396D01*
X130324500Y-106712603D01*
X130356904Y-106833535D01*
X130418616Y-106940424D01*
X130419505Y-106941964D01*
X130508036Y-107030495D01*
X130616464Y-107093095D01*
X130616463Y-107093095D01*
X130686286Y-107111804D01*
X130737396Y-107125499D01*
X130737397Y-107125500D01*
X130737399Y-107125500D01*
X130862603Y-107125500D01*
X130862603Y-107125499D01*
X130983536Y-107093095D01*
X131091964Y-107030495D01*
X131180495Y-106941964D01*
X131243095Y-106833536D01*
X131275499Y-106712603D01*
X131275500Y-106712603D01*
X131275500Y-106587397D01*
X131275499Y-106587396D01*
X131243095Y-106466464D01*
X131180495Y-106358036D01*
X131091963Y-106269504D01*
X130983534Y-106206904D01*
X130983536Y-106206904D01*
X130862603Y-106174500D01*
X130862601Y-106174500D01*
X130737399Y-106174500D01*
X130737397Y-106174500D01*
X130616464Y-106206904D01*
X130508036Y-106269504D01*
X130419504Y-106358036D01*
X130356904Y-106466464D01*
X130324500Y-106587396D01*
X121809855Y-106587396D01*
X121791963Y-106569504D01*
X121712584Y-106523676D01*
X121683536Y-106506905D01*
X121683535Y-106506904D01*
X121683536Y-106506904D01*
X121562603Y-106474500D01*
X121562601Y-106474500D01*
X121437399Y-106474500D01*
X121437397Y-106474500D01*
X121316464Y-106506904D01*
X121208036Y-106569504D01*
X121119504Y-106658036D01*
X121056904Y-106766464D01*
X121024500Y-106887396D01*
X109886349Y-106887396D01*
X109833534Y-106856904D01*
X109833536Y-106856904D01*
X109712603Y-106824500D01*
X109712601Y-106824500D01*
X109587399Y-106824500D01*
X109587397Y-106824500D01*
X109466464Y-106856904D01*
X109358036Y-106919504D01*
X109269504Y-107008036D01*
X109206904Y-107116464D01*
X109174500Y-107237396D01*
X108475499Y-107237396D01*
X108447669Y-107133536D01*
X108443095Y-107116464D01*
X108380495Y-107008036D01*
X108291964Y-106919505D01*
X108291963Y-106919504D01*
X108183534Y-106856904D01*
X108183536Y-106856904D01*
X108062603Y-106824500D01*
X108062601Y-106824500D01*
X107937399Y-106824500D01*
X107937397Y-106824500D01*
X107816464Y-106856904D01*
X107708036Y-106919504D01*
X107619504Y-107008036D01*
X107556904Y-107116464D01*
X107524500Y-107237396D01*
X107524500Y-107362603D01*
X107556904Y-107483535D01*
X107619504Y-107591963D01*
X107708036Y-107680495D01*
X107790627Y-107728178D01*
X107825106Y-107773111D01*
X107817714Y-107829263D01*
X107790628Y-107856350D01*
X107681283Y-107919480D01*
X107569480Y-108031283D01*
X107490424Y-108168214D01*
X107490421Y-108168220D01*
X107449500Y-108320940D01*
X100500500Y-108320940D01*
X100500500Y-105637396D01*
X107274500Y-105637396D01*
X107274500Y-105762603D01*
X107306904Y-105883535D01*
X107326930Y-105918220D01*
X107369505Y-105991964D01*
X107458036Y-106080495D01*
X107566464Y-106143095D01*
X107566463Y-106143095D01*
X107636286Y-106161804D01*
X107687396Y-106175499D01*
X107687397Y-106175500D01*
X107687399Y-106175500D01*
X107812603Y-106175500D01*
X107812603Y-106175499D01*
X107933536Y-106143095D01*
X108041964Y-106080495D01*
X108130495Y-105991964D01*
X108193095Y-105883536D01*
X108225499Y-105762603D01*
X108225500Y-105762603D01*
X108225500Y-105637397D01*
X108225499Y-105637396D01*
X108674500Y-105637396D01*
X108674500Y-105762603D01*
X108706904Y-105883535D01*
X108726930Y-105918220D01*
X108769505Y-105991964D01*
X108858036Y-106080495D01*
X108966464Y-106143095D01*
X108966463Y-106143095D01*
X109036286Y-106161804D01*
X109087396Y-106175499D01*
X109087397Y-106175500D01*
X109087399Y-106175500D01*
X109212603Y-106175500D01*
X109212603Y-106175499D01*
X109333536Y-106143095D01*
X109441964Y-106080495D01*
X109451519Y-106070940D01*
X110549500Y-106070940D01*
X110549500Y-106229059D01*
X110590421Y-106381779D01*
X110590422Y-106381781D01*
X110590423Y-106381784D01*
X110669480Y-106518716D01*
X110781284Y-106630520D01*
X110918216Y-106709577D01*
X111070940Y-106750499D01*
X111070941Y-106750500D01*
X111070943Y-106750500D01*
X111229059Y-106750500D01*
X111229059Y-106750499D01*
X111381784Y-106709577D01*
X111518716Y-106630520D01*
X111630520Y-106518716D01*
X111709577Y-106381784D01*
X111750499Y-106229059D01*
X111750500Y-106229059D01*
X111750500Y-106070941D01*
X111750499Y-106070940D01*
X145749500Y-106070940D01*
X145749500Y-106229059D01*
X145790421Y-106381779D01*
X145790422Y-106381781D01*
X145790423Y-106381784D01*
X145869480Y-106518716D01*
X145981284Y-106630520D01*
X146118216Y-106709577D01*
X146270940Y-106750499D01*
X146270941Y-106750500D01*
X146270943Y-106750500D01*
X146429059Y-106750500D01*
X146429059Y-106750499D01*
X146581784Y-106709577D01*
X146718716Y-106630520D01*
X146830520Y-106518716D01*
X146909577Y-106381784D01*
X146925880Y-106320940D01*
X148499500Y-106320940D01*
X148499500Y-106479059D01*
X148540421Y-106631779D01*
X148540422Y-106631781D01*
X148540423Y-106631784D01*
X148619480Y-106768716D01*
X148731284Y-106880520D01*
X148868216Y-106959577D01*
X149020940Y-107000499D01*
X149020941Y-107000500D01*
X149020943Y-107000500D01*
X149179059Y-107000500D01*
X149179059Y-107000499D01*
X149331784Y-106959577D01*
X149468716Y-106880520D01*
X149580520Y-106768716D01*
X149659577Y-106631784D01*
X149700499Y-106479059D01*
X149700500Y-106479059D01*
X149700500Y-106440688D01*
X150199500Y-106440688D01*
X150199500Y-106559311D01*
X150230199Y-106673882D01*
X150230201Y-106673887D01*
X150289508Y-106776609D01*
X150289509Y-106776610D01*
X150289511Y-106776613D01*
X150373387Y-106860489D01*
X150373389Y-106860490D01*
X150373390Y-106860491D01*
X150419996Y-106887399D01*
X150476114Y-106919799D01*
X150476115Y-106919799D01*
X150476117Y-106919800D01*
X150533402Y-106935149D01*
X150590688Y-106950499D01*
X150590689Y-106950500D01*
X150590691Y-106950500D01*
X150709311Y-106950500D01*
X150709311Y-106950499D01*
X150823886Y-106919799D01*
X150926613Y-106860489D01*
X151010489Y-106776613D01*
X151069799Y-106673886D01*
X151100499Y-106559311D01*
X151100500Y-106559311D01*
X151100500Y-106440689D01*
X151100499Y-106440688D01*
X151069800Y-106326117D01*
X151069798Y-106326112D01*
X151010491Y-106223390D01*
X151010490Y-106223389D01*
X151010489Y-106223387D01*
X150926613Y-106139511D01*
X150926610Y-106139509D01*
X150926609Y-106139508D01*
X150823887Y-106080201D01*
X150823882Y-106080199D01*
X150709311Y-106049500D01*
X150709309Y-106049500D01*
X150590691Y-106049500D01*
X150590689Y-106049500D01*
X150476117Y-106080199D01*
X150476112Y-106080201D01*
X150373390Y-106139508D01*
X150289508Y-106223390D01*
X150230201Y-106326112D01*
X150230199Y-106326117D01*
X150199500Y-106440688D01*
X149700500Y-106440688D01*
X149700500Y-106320941D01*
X149700499Y-106320940D01*
X149694067Y-106296937D01*
X149659577Y-106168216D01*
X149580520Y-106031284D01*
X149468716Y-105919480D01*
X149331784Y-105840423D01*
X149331781Y-105840422D01*
X149331779Y-105840421D01*
X149179059Y-105799500D01*
X149179057Y-105799500D01*
X149020943Y-105799500D01*
X149020941Y-105799500D01*
X148868220Y-105840421D01*
X148868214Y-105840424D01*
X148731283Y-105919480D01*
X148619480Y-106031283D01*
X148540424Y-106168214D01*
X148540421Y-106168220D01*
X148499500Y-106320940D01*
X146925880Y-106320940D01*
X146950499Y-106229059D01*
X146950500Y-106229059D01*
X146950500Y-106070941D01*
X146950499Y-106070940D01*
X146909578Y-105918220D01*
X146909577Y-105918216D01*
X146830520Y-105781284D01*
X146718716Y-105669480D01*
X146581784Y-105590423D01*
X146581781Y-105590422D01*
X146581779Y-105590421D01*
X146429059Y-105549500D01*
X146429057Y-105549500D01*
X146270943Y-105549500D01*
X146270941Y-105549500D01*
X146118220Y-105590421D01*
X146118214Y-105590424D01*
X145981283Y-105669480D01*
X145869480Y-105781283D01*
X145790424Y-105918214D01*
X145790421Y-105918220D01*
X145749500Y-106070940D01*
X111750499Y-106070940D01*
X111709578Y-105918220D01*
X111709577Y-105918216D01*
X111630520Y-105781284D01*
X111518716Y-105669480D01*
X111381784Y-105590423D01*
X111381781Y-105590422D01*
X111381779Y-105590421D01*
X111229059Y-105549500D01*
X111229057Y-105549500D01*
X111070943Y-105549500D01*
X111070941Y-105549500D01*
X110918220Y-105590421D01*
X110918214Y-105590424D01*
X110781283Y-105669480D01*
X110669480Y-105781283D01*
X110590424Y-105918214D01*
X110590421Y-105918220D01*
X110549500Y-106070940D01*
X109451519Y-106070940D01*
X109530495Y-105991964D01*
X109593095Y-105883536D01*
X109625499Y-105762603D01*
X109625500Y-105762603D01*
X109625500Y-105637397D01*
X109625499Y-105637396D01*
X109622311Y-105625500D01*
X109593095Y-105516464D01*
X109530495Y-105408036D01*
X109441964Y-105319505D01*
X109373847Y-105280178D01*
X109373847Y-105280177D01*
X109333534Y-105256904D01*
X109333536Y-105256904D01*
X109212603Y-105224500D01*
X109212601Y-105224500D01*
X109087399Y-105224500D01*
X109087397Y-105224500D01*
X108966464Y-105256904D01*
X108858036Y-105319504D01*
X108769504Y-105408036D01*
X108706904Y-105516464D01*
X108674500Y-105637396D01*
X108225499Y-105637396D01*
X108222311Y-105625500D01*
X108193095Y-105516464D01*
X108130495Y-105408036D01*
X108041964Y-105319505D01*
X108041963Y-105319504D01*
X107962584Y-105273676D01*
X107933536Y-105256905D01*
X107933535Y-105256904D01*
X107933536Y-105256904D01*
X107812603Y-105224500D01*
X107812601Y-105224500D01*
X107687399Y-105224500D01*
X107687397Y-105224500D01*
X107566464Y-105256904D01*
X107458036Y-105319504D01*
X107369504Y-105408036D01*
X107306904Y-105516464D01*
X107274500Y-105637396D01*
X100500500Y-105637396D01*
X100500500Y-105087396D01*
X105774500Y-105087396D01*
X105774500Y-105212603D01*
X105806904Y-105333535D01*
X105860000Y-105425500D01*
X105869505Y-105441964D01*
X105958036Y-105530495D01*
X106066464Y-105593095D01*
X106066463Y-105593095D01*
X106136286Y-105611804D01*
X106187396Y-105625499D01*
X106187397Y-105625500D01*
X106187399Y-105625500D01*
X106312603Y-105625500D01*
X106312603Y-105625499D01*
X106433536Y-105593095D01*
X106541964Y-105530495D01*
X106630495Y-105441964D01*
X106693095Y-105333536D01*
X106723265Y-105220940D01*
X113749500Y-105220940D01*
X113749500Y-105379059D01*
X113790421Y-105531779D01*
X113790422Y-105531781D01*
X113790423Y-105531784D01*
X113869480Y-105668716D01*
X113981284Y-105780520D01*
X114118216Y-105859577D01*
X114270940Y-105900499D01*
X114270941Y-105900500D01*
X114270943Y-105900500D01*
X114429059Y-105900500D01*
X114429059Y-105900499D01*
X114581784Y-105859577D01*
X114718716Y-105780520D01*
X114830520Y-105668716D01*
X114909577Y-105531784D01*
X114950499Y-105379059D01*
X114950500Y-105379059D01*
X114950500Y-105220941D01*
X114950499Y-105220940D01*
X114926608Y-105131779D01*
X114909577Y-105068216D01*
X114830520Y-104931284D01*
X114720176Y-104820940D01*
X118999500Y-104820940D01*
X118999500Y-104979059D01*
X119040421Y-105131779D01*
X119040422Y-105131781D01*
X119040423Y-105131784D01*
X119119480Y-105268716D01*
X119231284Y-105380520D01*
X119368216Y-105459577D01*
X119520940Y-105500499D01*
X119520941Y-105500500D01*
X119520943Y-105500500D01*
X119679059Y-105500500D01*
X119679059Y-105500499D01*
X119831784Y-105459577D01*
X119968716Y-105380520D01*
X120080520Y-105268716D01*
X120159577Y-105131784D01*
X120200499Y-104979059D01*
X120200500Y-104979059D01*
X120200500Y-104887396D01*
X133824500Y-104887396D01*
X133824500Y-105012603D01*
X133856904Y-105133535D01*
X133907369Y-105220943D01*
X133919505Y-105241964D01*
X134008036Y-105330495D01*
X134116464Y-105393095D01*
X134116463Y-105393095D01*
X134186286Y-105411804D01*
X134237396Y-105425499D01*
X134237397Y-105425500D01*
X134237399Y-105425500D01*
X134362603Y-105425500D01*
X134362603Y-105425499D01*
X134483536Y-105393095D01*
X134591964Y-105330495D01*
X134680495Y-105241964D01*
X134743095Y-105133536D01*
X134775499Y-105012603D01*
X134775500Y-105012603D01*
X134775500Y-104887397D01*
X134775499Y-104887396D01*
X134743095Y-104766464D01*
X134680495Y-104658036D01*
X134591963Y-104569504D01*
X134483534Y-104506904D01*
X134483536Y-104506904D01*
X134362603Y-104474500D01*
X134362601Y-104474500D01*
X134237399Y-104474500D01*
X134237397Y-104474500D01*
X134116464Y-104506904D01*
X134008036Y-104569504D01*
X133919504Y-104658036D01*
X133856904Y-104766464D01*
X133824500Y-104887396D01*
X120200500Y-104887396D01*
X120200500Y-104820941D01*
X120200499Y-104820940D01*
X120167959Y-104699500D01*
X120159577Y-104668216D01*
X120080520Y-104531284D01*
X119968716Y-104419480D01*
X119831784Y-104340423D01*
X119831781Y-104340422D01*
X119831779Y-104340421D01*
X119679059Y-104299500D01*
X119679057Y-104299500D01*
X119520943Y-104299500D01*
X119520941Y-104299500D01*
X119368220Y-104340421D01*
X119368214Y-104340424D01*
X119231283Y-104419480D01*
X119119480Y-104531283D01*
X119040424Y-104668214D01*
X119040421Y-104668220D01*
X118999500Y-104820940D01*
X114720176Y-104820940D01*
X114718716Y-104819480D01*
X114581784Y-104740423D01*
X114581781Y-104740422D01*
X114581779Y-104740421D01*
X114429059Y-104699500D01*
X114429057Y-104699500D01*
X114270943Y-104699500D01*
X114270941Y-104699500D01*
X114118220Y-104740421D01*
X114118214Y-104740424D01*
X113981283Y-104819480D01*
X113869480Y-104931283D01*
X113790424Y-105068214D01*
X113790421Y-105068220D01*
X113749500Y-105220940D01*
X106723265Y-105220940D01*
X106725499Y-105212603D01*
X106725500Y-105212603D01*
X106725500Y-105087397D01*
X106725499Y-105087396D01*
X106693095Y-104966464D01*
X106630495Y-104858036D01*
X106541963Y-104769504D01*
X106433534Y-104706904D01*
X106433536Y-104706904D01*
X106312603Y-104674500D01*
X106312601Y-104674500D01*
X106187399Y-104674500D01*
X106187397Y-104674500D01*
X106066464Y-104706904D01*
X105958036Y-104769504D01*
X105869504Y-104858036D01*
X105806904Y-104966464D01*
X105774500Y-105087396D01*
X100500500Y-105087396D01*
X100500500Y-103437396D01*
X109174500Y-103437396D01*
X109174500Y-103562603D01*
X109206904Y-103683535D01*
X109264639Y-103783535D01*
X109269505Y-103791964D01*
X109358036Y-103880495D01*
X109466464Y-103943095D01*
X109466463Y-103943095D01*
X109536286Y-103961804D01*
X109587396Y-103975499D01*
X109587397Y-103975500D01*
X109587399Y-103975500D01*
X109712603Y-103975500D01*
X109712603Y-103975499D01*
X109833536Y-103943095D01*
X109941964Y-103880495D01*
X110030495Y-103791964D01*
X110093095Y-103683536D01*
X110125499Y-103562603D01*
X110125500Y-103562603D01*
X110125500Y-103437397D01*
X110125499Y-103437396D01*
X110093095Y-103316464D01*
X110030495Y-103208036D01*
X109941963Y-103119504D01*
X109833534Y-103056904D01*
X109833536Y-103056904D01*
X109712603Y-103024500D01*
X109712601Y-103024500D01*
X109587399Y-103024500D01*
X109587397Y-103024500D01*
X109466464Y-103056904D01*
X109358036Y-103119504D01*
X109269504Y-103208036D01*
X109206904Y-103316464D01*
X109174500Y-103437396D01*
X100500500Y-103437396D01*
X100500500Y-102737396D01*
X111874500Y-102737396D01*
X111874500Y-102862603D01*
X111906904Y-102983535D01*
X111962898Y-103080520D01*
X111969505Y-103091964D01*
X112058036Y-103180495D01*
X112073626Y-103189496D01*
X112108106Y-103234427D01*
X112100715Y-103290580D01*
X112100715Y-103290581D01*
X112056903Y-103366467D01*
X112024500Y-103487396D01*
X112024500Y-103612603D01*
X112056904Y-103733535D01*
X112090638Y-103791964D01*
X112119505Y-103841964D01*
X112208036Y-103930495D01*
X112316464Y-103993095D01*
X112316463Y-103993095D01*
X112386286Y-104011804D01*
X112437396Y-104025499D01*
X112437397Y-104025500D01*
X112437399Y-104025500D01*
X112562603Y-104025500D01*
X112562603Y-104025499D01*
X112683536Y-103993095D01*
X112791964Y-103930495D01*
X112880495Y-103841964D01*
X112943095Y-103733536D01*
X112975499Y-103612603D01*
X112975500Y-103612603D01*
X112975500Y-103537396D01*
X132574500Y-103537396D01*
X132574500Y-103662603D01*
X132606904Y-103783535D01*
X132640638Y-103841964D01*
X132669505Y-103891964D01*
X132758036Y-103980495D01*
X132866464Y-104043095D01*
X132866463Y-104043095D01*
X132936286Y-104061804D01*
X132987396Y-104075499D01*
X132987397Y-104075500D01*
X132987399Y-104075500D01*
X133112603Y-104075500D01*
X133112603Y-104075499D01*
X133233536Y-104043095D01*
X133341964Y-103980495D01*
X133401519Y-103920940D01*
X140699500Y-103920940D01*
X140699500Y-104079059D01*
X140740421Y-104231779D01*
X140740422Y-104231781D01*
X140740423Y-104231784D01*
X140819480Y-104368716D01*
X140931284Y-104480520D01*
X141068216Y-104559577D01*
X141220940Y-104600499D01*
X141220941Y-104600500D01*
X141220943Y-104600500D01*
X141379059Y-104600500D01*
X141379059Y-104600499D01*
X141531784Y-104559577D01*
X141668716Y-104480520D01*
X141780520Y-104368716D01*
X141859577Y-104231784D01*
X141900499Y-104079059D01*
X141900500Y-104079059D01*
X141900500Y-103920941D01*
X141900499Y-103920940D01*
X141859578Y-103768220D01*
X141859577Y-103768216D01*
X141780520Y-103631284D01*
X141668716Y-103519480D01*
X141531784Y-103440423D01*
X141531781Y-103440422D01*
X141531779Y-103440421D01*
X141379059Y-103399500D01*
X141379057Y-103399500D01*
X141220943Y-103399500D01*
X141220941Y-103399500D01*
X141068220Y-103440421D01*
X141068214Y-103440424D01*
X140931283Y-103519480D01*
X140819480Y-103631283D01*
X140740424Y-103768214D01*
X140740421Y-103768220D01*
X140699500Y-103920940D01*
X133401519Y-103920940D01*
X133430495Y-103891964D01*
X133493095Y-103783536D01*
X133525499Y-103662603D01*
X133525500Y-103662603D01*
X133525500Y-103537397D01*
X133525499Y-103537396D01*
X133520698Y-103519480D01*
X133493095Y-103416464D01*
X133430495Y-103308036D01*
X133341964Y-103219505D01*
X133341963Y-103219504D01*
X133245974Y-103164086D01*
X133233536Y-103156905D01*
X133233535Y-103156904D01*
X133233536Y-103156904D01*
X133112603Y-103124500D01*
X133112601Y-103124500D01*
X132987399Y-103124500D01*
X132987397Y-103124500D01*
X132866464Y-103156904D01*
X132758036Y-103219504D01*
X132669504Y-103308036D01*
X132606904Y-103416464D01*
X132574500Y-103537396D01*
X112975500Y-103537396D01*
X112975500Y-103487397D01*
X112975499Y-103487396D01*
X112962912Y-103440423D01*
X112943095Y-103366464D01*
X112880495Y-103258036D01*
X112791964Y-103169505D01*
X112791963Y-103169504D01*
X112776370Y-103160501D01*
X112741892Y-103115567D01*
X112749284Y-103059418D01*
X112793095Y-102983536D01*
X112825499Y-102862603D01*
X112825500Y-102862603D01*
X112825500Y-102737397D01*
X112825499Y-102737396D01*
X112809867Y-102679059D01*
X112793095Y-102616464D01*
X112776315Y-102587399D01*
X112756508Y-102553092D01*
X112737945Y-102520940D01*
X117099500Y-102520940D01*
X117099500Y-102679059D01*
X117140421Y-102831779D01*
X117140422Y-102831781D01*
X117140423Y-102831784D01*
X117219480Y-102968716D01*
X117331284Y-103080520D01*
X117468216Y-103159577D01*
X117620940Y-103200499D01*
X117620941Y-103200500D01*
X117620943Y-103200500D01*
X117779059Y-103200500D01*
X117779059Y-103200499D01*
X117931784Y-103159577D01*
X118068716Y-103080520D01*
X118180520Y-102968716D01*
X118259577Y-102831784D01*
X118284868Y-102737396D01*
X134574500Y-102737396D01*
X134574500Y-102862603D01*
X134606904Y-102983535D01*
X134662898Y-103080520D01*
X134669505Y-103091964D01*
X134758036Y-103180495D01*
X134866464Y-103243095D01*
X134866463Y-103243095D01*
X134936286Y-103261804D01*
X134987396Y-103275499D01*
X134987397Y-103275500D01*
X134987399Y-103275500D01*
X135112603Y-103275500D01*
X135112603Y-103275499D01*
X135233536Y-103243095D01*
X135341964Y-103180495D01*
X135430495Y-103091964D01*
X135493095Y-102983536D01*
X135525499Y-102862603D01*
X135525500Y-102862603D01*
X135525500Y-102737397D01*
X135525499Y-102737396D01*
X135510252Y-102680495D01*
X135493095Y-102616464D01*
X135476313Y-102587396D01*
X149174500Y-102587396D01*
X149174500Y-102712603D01*
X149206904Y-102833535D01*
X149252554Y-102912603D01*
X149269505Y-102941964D01*
X149358036Y-103030495D01*
X149363302Y-103033535D01*
X149367422Y-103035914D01*
X149401901Y-103080848D01*
X149394508Y-103137000D01*
X149367422Y-103164086D01*
X149358035Y-103169505D01*
X149269504Y-103258036D01*
X149206904Y-103366464D01*
X149174500Y-103487396D01*
X149174500Y-103612603D01*
X149206904Y-103733535D01*
X149240638Y-103791964D01*
X149269505Y-103841964D01*
X149358036Y-103930495D01*
X149466464Y-103993095D01*
X149466463Y-103993095D01*
X149536286Y-104011804D01*
X149587396Y-104025499D01*
X149587397Y-104025500D01*
X149587399Y-104025500D01*
X149712603Y-104025500D01*
X149712603Y-104025499D01*
X149833536Y-103993095D01*
X149941964Y-103930495D01*
X150030495Y-103841964D01*
X150093095Y-103733536D01*
X150125499Y-103612603D01*
X150125500Y-103612603D01*
X150125500Y-103487397D01*
X150125499Y-103487396D01*
X150112912Y-103440423D01*
X150093095Y-103366464D01*
X150030495Y-103258036D01*
X149941964Y-103169505D01*
X149932578Y-103164086D01*
X149898099Y-103119154D01*
X149905490Y-103063002D01*
X149932578Y-103035913D01*
X149941964Y-103030495D01*
X150030495Y-102941964D01*
X150093095Y-102833536D01*
X150105458Y-102787399D01*
X150105459Y-102787396D01*
X151824500Y-102787396D01*
X151824500Y-102912603D01*
X151856904Y-103033535D01*
X151906538Y-103119504D01*
X151919505Y-103141964D01*
X152008036Y-103230495D01*
X152116464Y-103293095D01*
X152116463Y-103293095D01*
X152186286Y-103311804D01*
X152237396Y-103325499D01*
X152237397Y-103325500D01*
X152237399Y-103325500D01*
X152362603Y-103325500D01*
X152362603Y-103325499D01*
X152483536Y-103293095D01*
X152591964Y-103230495D01*
X152680495Y-103141964D01*
X152743095Y-103033536D01*
X152775499Y-102912603D01*
X152775500Y-102912603D01*
X152775500Y-102841955D01*
X152797174Y-102789629D01*
X152849500Y-102767955D01*
X152868651Y-102770476D01*
X152887399Y-102775500D01*
X153012603Y-102775500D01*
X153012603Y-102775499D01*
X153133536Y-102743095D01*
X153241964Y-102680495D01*
X153330495Y-102591964D01*
X153393095Y-102483536D01*
X153425499Y-102362603D01*
X153425500Y-102362603D01*
X153425500Y-102237397D01*
X153425499Y-102237396D01*
X153413325Y-102191964D01*
X153393095Y-102116464D01*
X153330495Y-102008036D01*
X153241964Y-101919505D01*
X153241963Y-101919504D01*
X153133534Y-101856904D01*
X153133536Y-101856904D01*
X153012603Y-101824500D01*
X153012601Y-101824500D01*
X152887399Y-101824500D01*
X152887397Y-101824500D01*
X152766464Y-101856904D01*
X152658036Y-101919504D01*
X152569504Y-102008036D01*
X152506904Y-102116464D01*
X152474500Y-102237396D01*
X152474500Y-102308044D01*
X152452826Y-102360370D01*
X152400500Y-102382044D01*
X152381348Y-102379523D01*
X152362601Y-102374500D01*
X152237399Y-102374500D01*
X152237397Y-102374500D01*
X152116464Y-102406904D01*
X152008036Y-102469504D01*
X151919504Y-102558036D01*
X151856904Y-102666464D01*
X151824500Y-102787396D01*
X150105459Y-102787396D01*
X150111890Y-102763396D01*
X150125287Y-102713396D01*
X150125499Y-102712603D01*
X150125500Y-102712603D01*
X150125500Y-102587397D01*
X150125499Y-102587396D01*
X150097669Y-102483536D01*
X150093095Y-102466464D01*
X150030495Y-102358036D01*
X149941964Y-102269505D01*
X149941963Y-102269504D01*
X149833534Y-102206904D01*
X149833536Y-102206904D01*
X149712603Y-102174500D01*
X149712601Y-102174500D01*
X149587399Y-102174500D01*
X149587397Y-102174500D01*
X149466464Y-102206904D01*
X149358036Y-102269504D01*
X149269504Y-102358036D01*
X149206904Y-102466464D01*
X149174500Y-102587396D01*
X135476313Y-102587396D01*
X135430495Y-102508036D01*
X135341964Y-102419505D01*
X135341963Y-102419504D01*
X135253134Y-102368220D01*
X135233536Y-102356905D01*
X135233535Y-102356904D01*
X135233536Y-102356904D01*
X135112603Y-102324500D01*
X135112601Y-102324500D01*
X134987399Y-102324500D01*
X134987397Y-102324500D01*
X134866464Y-102356904D01*
X134758036Y-102419504D01*
X134669504Y-102508036D01*
X134606904Y-102616464D01*
X134574500Y-102737396D01*
X118284868Y-102737396D01*
X118300115Y-102680495D01*
X118300500Y-102679058D01*
X118300500Y-102520941D01*
X118300499Y-102520940D01*
X118297041Y-102508036D01*
X118259577Y-102368216D01*
X118180520Y-102231284D01*
X118068716Y-102119480D01*
X117931784Y-102040423D01*
X117931781Y-102040422D01*
X117931779Y-102040421D01*
X117779059Y-101999500D01*
X117779057Y-101999500D01*
X117620943Y-101999500D01*
X117620941Y-101999500D01*
X117468220Y-102040421D01*
X117468214Y-102040424D01*
X117331283Y-102119480D01*
X117219480Y-102231283D01*
X117140424Y-102368214D01*
X117140421Y-102368220D01*
X117099500Y-102520940D01*
X112737945Y-102520940D01*
X112730495Y-102508036D01*
X112641963Y-102419504D01*
X112553134Y-102368220D01*
X112533536Y-102356905D01*
X112533535Y-102356904D01*
X112533536Y-102356904D01*
X112412603Y-102324500D01*
X112412601Y-102324500D01*
X112287399Y-102324500D01*
X112287397Y-102324500D01*
X112166464Y-102356904D01*
X112058036Y-102419504D01*
X111969504Y-102508036D01*
X111906904Y-102616464D01*
X111874500Y-102737396D01*
X100500500Y-102737396D01*
X100500500Y-101837396D01*
X109574500Y-101837396D01*
X109574500Y-101962603D01*
X109606904Y-102083535D01*
X109625916Y-102116464D01*
X109669505Y-102191964D01*
X109758036Y-102280495D01*
X109866464Y-102343095D01*
X109866463Y-102343095D01*
X109930934Y-102360370D01*
X109987396Y-102375499D01*
X109987397Y-102375500D01*
X109987399Y-102375500D01*
X110112603Y-102375500D01*
X110112603Y-102375499D01*
X110233536Y-102343095D01*
X110341964Y-102280495D01*
X110430495Y-102191964D01*
X110493095Y-102083536D01*
X110525499Y-101962603D01*
X110525500Y-101962603D01*
X110525500Y-101837397D01*
X110525499Y-101837396D01*
X132574500Y-101837396D01*
X132574500Y-101962603D01*
X132606904Y-102083535D01*
X132625916Y-102116464D01*
X132669505Y-102191964D01*
X132758036Y-102280495D01*
X132866464Y-102343095D01*
X132866463Y-102343095D01*
X132930934Y-102360370D01*
X132987396Y-102375499D01*
X132987397Y-102375500D01*
X132987399Y-102375500D01*
X133112603Y-102375500D01*
X133112603Y-102375499D01*
X133233536Y-102343095D01*
X133341964Y-102280495D01*
X133430495Y-102191964D01*
X133493095Y-102083536D01*
X133525499Y-101962603D01*
X133525500Y-101962603D01*
X133525500Y-101837397D01*
X133525499Y-101837396D01*
X133522043Y-101824500D01*
X133493095Y-101716464D01*
X133430495Y-101608036D01*
X133359855Y-101537396D01*
X141474500Y-101537396D01*
X141474500Y-101662603D01*
X141506904Y-101783535D01*
X141538001Y-101837396D01*
X141569505Y-101891964D01*
X141658036Y-101980495D01*
X141766464Y-102043095D01*
X141766463Y-102043095D01*
X141836286Y-102061804D01*
X141887396Y-102075499D01*
X141887397Y-102075500D01*
X141887399Y-102075500D01*
X142012603Y-102075500D01*
X142012603Y-102075499D01*
X142133536Y-102043095D01*
X142241964Y-101980495D01*
X142330495Y-101891964D01*
X142393095Y-101783536D01*
X142425499Y-101662603D01*
X142425500Y-101662603D01*
X142425500Y-101537397D01*
X142425499Y-101537396D01*
X142393095Y-101416464D01*
X142330495Y-101308036D01*
X142241963Y-101219504D01*
X142133534Y-101156904D01*
X142133536Y-101156904D01*
X142012603Y-101124500D01*
X142012601Y-101124500D01*
X141887399Y-101124500D01*
X141887397Y-101124500D01*
X141766464Y-101156904D01*
X141658036Y-101219504D01*
X141569504Y-101308036D01*
X141506904Y-101416464D01*
X141474500Y-101537396D01*
X133359855Y-101537396D01*
X133341964Y-101519505D01*
X133341963Y-101519504D01*
X133233534Y-101456904D01*
X133233536Y-101456904D01*
X133112603Y-101424500D01*
X133112601Y-101424500D01*
X132987399Y-101424500D01*
X132987397Y-101424500D01*
X132866464Y-101456904D01*
X132758036Y-101519504D01*
X132669504Y-101608036D01*
X132606904Y-101716464D01*
X132574500Y-101837396D01*
X110525499Y-101837396D01*
X110522043Y-101824500D01*
X110493095Y-101716464D01*
X110430495Y-101608036D01*
X110341964Y-101519505D01*
X110341963Y-101519504D01*
X110233534Y-101456904D01*
X110233536Y-101456904D01*
X110112603Y-101424500D01*
X110112601Y-101424500D01*
X109987399Y-101424500D01*
X109987397Y-101424500D01*
X109866464Y-101456904D01*
X109758036Y-101519504D01*
X109669504Y-101608036D01*
X109606904Y-101716464D01*
X109574500Y-101837396D01*
X100500500Y-101837396D01*
X100500500Y-99037396D01*
X137474500Y-99037396D01*
X137474500Y-99162603D01*
X137506904Y-99283535D01*
X137506905Y-99283536D01*
X137569505Y-99391964D01*
X137658036Y-99480495D01*
X137766464Y-99543095D01*
X137766463Y-99543095D01*
X137836286Y-99561804D01*
X137887396Y-99575499D01*
X137887397Y-99575500D01*
X137887399Y-99575500D01*
X138012603Y-99575500D01*
X138012603Y-99575499D01*
X138133536Y-99543095D01*
X138241964Y-99480495D01*
X138330495Y-99391964D01*
X138393095Y-99283536D01*
X138409868Y-99220940D01*
X145749500Y-99220940D01*
X145749500Y-99379059D01*
X145790421Y-99531779D01*
X145790422Y-99531781D01*
X145790423Y-99531784D01*
X145869480Y-99668716D01*
X145981284Y-99780520D01*
X146118216Y-99859577D01*
X146270940Y-99900499D01*
X146270941Y-99900500D01*
X146270943Y-99900500D01*
X146429059Y-99900500D01*
X146429059Y-99900499D01*
X146581784Y-99859577D01*
X146718716Y-99780520D01*
X146830520Y-99668716D01*
X146909577Y-99531784D01*
X146950499Y-99379059D01*
X146950500Y-99379059D01*
X146950500Y-99220941D01*
X146950499Y-99220940D01*
X147549500Y-99220940D01*
X147549500Y-99379059D01*
X147590421Y-99531779D01*
X147590422Y-99531781D01*
X147590423Y-99531784D01*
X147669480Y-99668716D01*
X147781284Y-99780520D01*
X147918216Y-99859577D01*
X148070940Y-99900499D01*
X148070941Y-99900500D01*
X148070943Y-99900500D01*
X148229059Y-99900500D01*
X148229059Y-99900499D01*
X148381784Y-99859577D01*
X148518716Y-99780520D01*
X148630520Y-99668716D01*
X148709577Y-99531784D01*
X148750499Y-99379059D01*
X148750500Y-99379059D01*
X148750500Y-99220941D01*
X148750499Y-99220940D01*
X148738323Y-99175500D01*
X148709577Y-99068216D01*
X148630520Y-98931284D01*
X148518716Y-98819480D01*
X148381784Y-98740423D01*
X148381781Y-98740422D01*
X148381779Y-98740421D01*
X148245954Y-98704027D01*
X148229059Y-98699500D01*
X148229057Y-98699500D01*
X148070943Y-98699500D01*
X148070941Y-98699500D01*
X147918220Y-98740421D01*
X147918214Y-98740424D01*
X147781283Y-98819480D01*
X147669480Y-98931283D01*
X147590424Y-99068214D01*
X147590421Y-99068220D01*
X147549500Y-99220940D01*
X146950499Y-99220940D01*
X146938323Y-99175500D01*
X146909577Y-99068216D01*
X146830520Y-98931284D01*
X146718716Y-98819480D01*
X146581784Y-98740423D01*
X146581781Y-98740422D01*
X146581779Y-98740421D01*
X146429059Y-98699500D01*
X146429057Y-98699500D01*
X146270943Y-98699500D01*
X146270941Y-98699500D01*
X146118220Y-98740421D01*
X146118214Y-98740424D01*
X145981283Y-98819480D01*
X145869480Y-98931283D01*
X145790424Y-99068214D01*
X145790421Y-99068220D01*
X145749500Y-99220940D01*
X138409868Y-99220940D01*
X138422044Y-99175499D01*
X138425500Y-99162602D01*
X138425500Y-99037397D01*
X138425499Y-99037396D01*
X138413325Y-98991964D01*
X138393095Y-98916464D01*
X138330495Y-98808036D01*
X138241964Y-98719505D01*
X138241963Y-98719504D01*
X138133534Y-98656904D01*
X138133536Y-98656904D01*
X138012603Y-98624500D01*
X138012601Y-98624500D01*
X137887399Y-98624500D01*
X137887397Y-98624500D01*
X137766464Y-98656904D01*
X137658036Y-98719504D01*
X137569504Y-98808036D01*
X137506904Y-98916464D01*
X137474500Y-99037396D01*
X100500500Y-99037396D01*
X100500500Y-98337396D01*
X133274500Y-98337396D01*
X133274500Y-98462603D01*
X133306904Y-98583535D01*
X133338001Y-98637396D01*
X133369505Y-98691964D01*
X133458036Y-98780495D01*
X133566464Y-98843095D01*
X133566463Y-98843095D01*
X133636286Y-98861804D01*
X133687396Y-98875499D01*
X133687397Y-98875500D01*
X133687399Y-98875500D01*
X133812603Y-98875500D01*
X133812603Y-98875499D01*
X133933536Y-98843095D01*
X134041964Y-98780495D01*
X134130495Y-98691964D01*
X134193095Y-98583536D01*
X134225499Y-98462603D01*
X134225500Y-98462603D01*
X134225500Y-98387396D01*
X139474500Y-98387396D01*
X139474500Y-98512603D01*
X139506904Y-98633535D01*
X139568616Y-98740424D01*
X139569505Y-98741964D01*
X139658036Y-98830495D01*
X139766464Y-98893095D01*
X139766463Y-98893095D01*
X139836286Y-98911804D01*
X139887396Y-98925499D01*
X139887397Y-98925500D01*
X139887399Y-98925500D01*
X140012603Y-98925500D01*
X140012603Y-98925499D01*
X140133536Y-98893095D01*
X140241964Y-98830495D01*
X140330495Y-98741964D01*
X140390866Y-98637396D01*
X149324500Y-98637396D01*
X149324500Y-98762603D01*
X149356904Y-98883535D01*
X149384472Y-98931284D01*
X149419505Y-98991964D01*
X149508036Y-99080495D01*
X149616464Y-99143095D01*
X149616463Y-99143095D01*
X149686286Y-99161804D01*
X149737396Y-99175499D01*
X149737397Y-99175500D01*
X149737399Y-99175500D01*
X149862603Y-99175500D01*
X149862603Y-99175499D01*
X149983536Y-99143095D01*
X150091964Y-99080495D01*
X150135063Y-99037396D01*
X161324500Y-99037396D01*
X161324500Y-99162603D01*
X161356904Y-99283535D01*
X161356905Y-99283536D01*
X161419505Y-99391964D01*
X161508036Y-99480495D01*
X161616464Y-99543095D01*
X161616463Y-99543095D01*
X161686286Y-99561804D01*
X161737396Y-99575499D01*
X161737397Y-99575500D01*
X161737399Y-99575500D01*
X161862603Y-99575500D01*
X161862603Y-99575499D01*
X161983536Y-99543095D01*
X162091964Y-99480495D01*
X162180495Y-99391964D01*
X162243095Y-99283536D01*
X162275499Y-99162603D01*
X162275500Y-99162603D01*
X162275500Y-99037397D01*
X162275499Y-99037396D01*
X162263325Y-98991964D01*
X162243095Y-98916464D01*
X162180495Y-98808036D01*
X162091964Y-98719505D01*
X162091963Y-98719504D01*
X161983534Y-98656904D01*
X161983536Y-98656904D01*
X161862603Y-98624500D01*
X161862601Y-98624500D01*
X161737399Y-98624500D01*
X161737397Y-98624500D01*
X161616464Y-98656904D01*
X161508036Y-98719504D01*
X161419504Y-98808036D01*
X161356904Y-98916464D01*
X161324500Y-99037396D01*
X150135063Y-99037396D01*
X150180495Y-98991964D01*
X150243095Y-98883536D01*
X150275499Y-98762603D01*
X150275500Y-98762603D01*
X150275500Y-98637397D01*
X150275499Y-98637396D01*
X150274464Y-98633535D01*
X150243095Y-98516464D01*
X150180495Y-98408036D01*
X150091964Y-98319505D01*
X150091963Y-98319504D01*
X149983534Y-98256904D01*
X149983536Y-98256904D01*
X149862603Y-98224500D01*
X149862601Y-98224500D01*
X149737399Y-98224500D01*
X149737397Y-98224500D01*
X149616464Y-98256904D01*
X149508036Y-98319504D01*
X149419504Y-98408036D01*
X149356904Y-98516464D01*
X149324500Y-98637396D01*
X140390866Y-98637396D01*
X140393095Y-98633536D01*
X140425499Y-98512603D01*
X140425500Y-98512603D01*
X140425500Y-98387397D01*
X140425499Y-98387396D01*
X140412101Y-98337396D01*
X140393095Y-98266464D01*
X140330495Y-98158036D01*
X140241964Y-98069505D01*
X140241963Y-98069504D01*
X140138164Y-98009577D01*
X140133536Y-98006905D01*
X140133535Y-98006904D01*
X140133536Y-98006904D01*
X140012603Y-97974500D01*
X140012601Y-97974500D01*
X139887399Y-97974500D01*
X139887397Y-97974500D01*
X139766464Y-98006904D01*
X139658036Y-98069504D01*
X139569504Y-98158036D01*
X139506904Y-98266464D01*
X139474500Y-98387396D01*
X134225500Y-98387396D01*
X134225500Y-98337397D01*
X134225499Y-98337396D01*
X134193095Y-98216464D01*
X134130495Y-98108036D01*
X134041963Y-98019504D01*
X133933534Y-97956904D01*
X133933536Y-97956904D01*
X133812603Y-97924500D01*
X133812601Y-97924500D01*
X133687399Y-97924500D01*
X133687397Y-97924500D01*
X133566464Y-97956904D01*
X133458036Y-98019504D01*
X133369504Y-98108036D01*
X133306904Y-98216464D01*
X133274500Y-98337396D01*
X100500500Y-98337396D01*
X100500500Y-97370940D01*
X109799500Y-97370940D01*
X109799500Y-97529059D01*
X109840421Y-97681779D01*
X109840422Y-97681781D01*
X109840423Y-97681784D01*
X109919480Y-97818716D01*
X110031284Y-97930520D01*
X110168216Y-98009577D01*
X110320940Y-98050499D01*
X110320941Y-98050500D01*
X110320943Y-98050500D01*
X110479059Y-98050500D01*
X110479059Y-98050499D01*
X110631784Y-98009577D01*
X110768716Y-97930520D01*
X110880520Y-97818716D01*
X110956337Y-97687396D01*
X138024500Y-97687396D01*
X138024500Y-97812603D01*
X138056904Y-97933535D01*
X138110640Y-98026609D01*
X138119505Y-98041964D01*
X138208036Y-98130495D01*
X138316464Y-98193095D01*
X138316463Y-98193095D01*
X138344099Y-98200500D01*
X138437396Y-98225499D01*
X138437397Y-98225500D01*
X138437399Y-98225500D01*
X138562603Y-98225500D01*
X138562603Y-98225499D01*
X138683536Y-98193095D01*
X138791964Y-98130495D01*
X138880495Y-98041964D01*
X138943095Y-97933536D01*
X138975499Y-97812603D01*
X138975500Y-97812603D01*
X138975500Y-97687397D01*
X138975499Y-97687396D01*
X138972311Y-97675500D01*
X138943095Y-97566464D01*
X138880495Y-97458036D01*
X138791964Y-97369505D01*
X138791963Y-97369504D01*
X138683534Y-97306904D01*
X138683536Y-97306904D01*
X138562603Y-97274500D01*
X138562601Y-97274500D01*
X138437399Y-97274500D01*
X138437397Y-97274500D01*
X138316464Y-97306904D01*
X138208036Y-97369504D01*
X138119504Y-97458036D01*
X138056904Y-97566464D01*
X138024500Y-97687396D01*
X110956337Y-97687396D01*
X110959577Y-97681784D01*
X111000499Y-97529059D01*
X111000500Y-97529059D01*
X111000500Y-97370941D01*
X111000499Y-97370940D01*
X111000114Y-97369505D01*
X110959577Y-97218216D01*
X110880520Y-97081284D01*
X110836632Y-97037396D01*
X143574500Y-97037396D01*
X143574500Y-97162603D01*
X143606904Y-97283535D01*
X143668089Y-97389511D01*
X143669505Y-97391964D01*
X143758036Y-97480495D01*
X143866464Y-97543095D01*
X143866463Y-97543095D01*
X143936286Y-97561804D01*
X143987396Y-97575499D01*
X143987397Y-97575500D01*
X143987399Y-97575500D01*
X144112603Y-97575500D01*
X144112603Y-97575499D01*
X144233536Y-97543095D01*
X144341964Y-97480495D01*
X144430495Y-97391964D01*
X144493095Y-97283536D01*
X144525499Y-97162603D01*
X144525500Y-97162603D01*
X144525500Y-97037397D01*
X144525499Y-97037396D01*
X144508348Y-96973390D01*
X144493095Y-96916464D01*
X144430495Y-96808036D01*
X144341964Y-96719505D01*
X144341963Y-96719504D01*
X144233534Y-96656904D01*
X144233536Y-96656904D01*
X144112603Y-96624500D01*
X144112601Y-96624500D01*
X143987399Y-96624500D01*
X143987397Y-96624500D01*
X143866464Y-96656904D01*
X143758036Y-96719504D01*
X143669504Y-96808036D01*
X143606904Y-96916464D01*
X143574500Y-97037396D01*
X110836632Y-97037396D01*
X110768716Y-96969480D01*
X110631784Y-96890423D01*
X110631781Y-96890422D01*
X110631779Y-96890421D01*
X110479059Y-96849500D01*
X110479057Y-96849500D01*
X110320943Y-96849500D01*
X110320941Y-96849500D01*
X110168220Y-96890421D01*
X110168214Y-96890424D01*
X110031283Y-96969480D01*
X109919480Y-97081283D01*
X109840424Y-97218214D01*
X109840421Y-97218220D01*
X109799500Y-97370940D01*
X100500500Y-97370940D01*
X100500500Y-96470940D01*
X152949500Y-96470940D01*
X152949500Y-96629059D01*
X152990421Y-96781779D01*
X152990422Y-96781781D01*
X152990423Y-96781784D01*
X153069480Y-96918716D01*
X153181284Y-97030520D01*
X153318216Y-97109577D01*
X153470940Y-97150499D01*
X153470941Y-97150500D01*
X153470943Y-97150500D01*
X153629059Y-97150500D01*
X153629059Y-97150499D01*
X153728759Y-97123785D01*
X153756347Y-97116393D01*
X153812500Y-97123785D01*
X153846978Y-97168718D01*
X153849500Y-97187871D01*
X153849500Y-97309311D01*
X153880199Y-97423882D01*
X153880201Y-97423887D01*
X153939508Y-97526609D01*
X153939509Y-97526610D01*
X153939511Y-97526613D01*
X154023387Y-97610489D01*
X154023389Y-97610490D01*
X154023390Y-97610491D01*
X154126112Y-97669798D01*
X154126114Y-97669799D01*
X154126115Y-97669799D01*
X154126117Y-97669800D01*
X154147390Y-97675500D01*
X154240688Y-97700499D01*
X154240689Y-97700500D01*
X154240691Y-97700500D01*
X154359311Y-97700500D01*
X154359311Y-97700499D01*
X154395926Y-97690688D01*
X158849500Y-97690688D01*
X158849500Y-97809311D01*
X158880199Y-97923882D01*
X158880201Y-97923887D01*
X158939508Y-98026609D01*
X158939509Y-98026610D01*
X158939511Y-98026613D01*
X159023387Y-98110489D01*
X159126114Y-98169799D01*
X159126115Y-98169799D01*
X159126117Y-98169800D01*
X159183402Y-98185149D01*
X159240688Y-98200499D01*
X159240689Y-98200500D01*
X159240691Y-98200500D01*
X159359311Y-98200500D01*
X159359311Y-98200499D01*
X159473886Y-98169799D01*
X159576613Y-98110489D01*
X159660489Y-98026613D01*
X159719799Y-97923886D01*
X159750499Y-97809311D01*
X159750500Y-97809311D01*
X159750500Y-97690689D01*
X159750499Y-97690688D01*
X159748113Y-97681785D01*
X159732029Y-97621755D01*
X159723982Y-97591724D01*
X159731374Y-97535571D01*
X159776307Y-97501093D01*
X159832460Y-97508485D01*
X159847786Y-97520245D01*
X159908036Y-97580495D01*
X160016464Y-97643095D01*
X160016463Y-97643095D01*
X160086286Y-97661804D01*
X160137396Y-97675499D01*
X160137397Y-97675500D01*
X160137399Y-97675500D01*
X160262603Y-97675500D01*
X160262603Y-97675499D01*
X160383536Y-97643095D01*
X160491964Y-97580495D01*
X160580495Y-97491964D01*
X160643095Y-97383536D01*
X160675499Y-97262603D01*
X160675500Y-97262603D01*
X160675500Y-97137397D01*
X160675499Y-97137396D01*
X160660463Y-97081283D01*
X160643095Y-97016464D01*
X160580495Y-96908036D01*
X160491964Y-96819505D01*
X160491963Y-96819504D01*
X160383534Y-96756904D01*
X160383536Y-96756904D01*
X160262603Y-96724500D01*
X160262601Y-96724500D01*
X160137399Y-96724500D01*
X160137397Y-96724500D01*
X160016464Y-96756904D01*
X159908036Y-96819504D01*
X159819504Y-96908036D01*
X159756904Y-97016464D01*
X159724500Y-97137396D01*
X159724500Y-97262603D01*
X159753604Y-97371220D01*
X159746212Y-97427373D01*
X159701279Y-97461851D01*
X159645126Y-97454459D01*
X159629804Y-97442702D01*
X159576613Y-97389511D01*
X159576610Y-97389509D01*
X159576609Y-97389508D01*
X159473887Y-97330201D01*
X159473882Y-97330199D01*
X159359311Y-97299500D01*
X159359309Y-97299500D01*
X159240691Y-97299500D01*
X159240689Y-97299500D01*
X159126117Y-97330199D01*
X159126112Y-97330201D01*
X159023390Y-97389508D01*
X158939508Y-97473390D01*
X158880201Y-97576112D01*
X158880199Y-97576117D01*
X158849500Y-97690688D01*
X154395926Y-97690688D01*
X154473886Y-97669799D01*
X154576613Y-97610489D01*
X154660489Y-97526613D01*
X154719799Y-97423886D01*
X154750499Y-97309311D01*
X154750500Y-97309311D01*
X154750500Y-97190689D01*
X154750499Y-97190688D01*
X154739730Y-97150499D01*
X154735149Y-97133402D01*
X154719800Y-97076117D01*
X154719798Y-97076112D01*
X154660491Y-96973390D01*
X154660490Y-96973389D01*
X154660489Y-96973387D01*
X154576613Y-96889511D01*
X154576610Y-96889509D01*
X154576609Y-96889508D01*
X154473887Y-96830201D01*
X154473882Y-96830199D01*
X154359311Y-96799500D01*
X154359309Y-96799500D01*
X154240691Y-96799500D01*
X154240690Y-96799500D01*
X154218124Y-96805546D01*
X154161972Y-96798152D01*
X154127494Y-96753218D01*
X154127495Y-96714914D01*
X154150499Y-96629059D01*
X154150500Y-96629059D01*
X154150500Y-96470941D01*
X154150499Y-96470940D01*
X154109578Y-96318220D01*
X154109577Y-96318216D01*
X154030520Y-96181284D01*
X153918716Y-96069480D01*
X153781784Y-95990423D01*
X153781781Y-95990422D01*
X153781779Y-95990421D01*
X153770489Y-95987396D01*
X155024500Y-95987396D01*
X155024500Y-96112603D01*
X155056904Y-96233535D01*
X155105797Y-96318220D01*
X155119505Y-96341964D01*
X155208036Y-96430495D01*
X155316464Y-96493095D01*
X155316463Y-96493095D01*
X155386286Y-96511804D01*
X155437396Y-96525499D01*
X155437397Y-96525500D01*
X155437399Y-96525500D01*
X155562603Y-96525500D01*
X155562603Y-96525499D01*
X155683536Y-96493095D01*
X155791964Y-96430495D01*
X155880495Y-96341964D01*
X155943095Y-96233536D01*
X155945419Y-96224859D01*
X155979893Y-96179926D01*
X156036045Y-96172529D01*
X156069224Y-96191683D01*
X156069504Y-96191963D01*
X156069505Y-96191964D01*
X156158036Y-96280495D01*
X156266464Y-96343095D01*
X156266463Y-96343095D01*
X156336286Y-96361804D01*
X156387396Y-96375499D01*
X156387397Y-96375500D01*
X156387399Y-96375500D01*
X156512603Y-96375500D01*
X156512603Y-96375499D01*
X156633536Y-96343095D01*
X156741964Y-96280495D01*
X156830495Y-96191964D01*
X156893095Y-96083536D01*
X156925499Y-95962603D01*
X156925500Y-95962603D01*
X156925500Y-95837397D01*
X156925499Y-95837396D01*
X156907460Y-95770076D01*
X156893095Y-95716464D01*
X156830495Y-95608036D01*
X156741964Y-95519505D01*
X156741963Y-95519504D01*
X156633534Y-95456904D01*
X156633536Y-95456904D01*
X156512603Y-95424500D01*
X156512601Y-95424500D01*
X156387399Y-95424500D01*
X156387397Y-95424500D01*
X156266464Y-95456904D01*
X156158036Y-95519504D01*
X156069504Y-95608036D01*
X156006904Y-95716464D01*
X156004579Y-95725143D01*
X155970100Y-95770076D01*
X155913948Y-95777468D01*
X155880775Y-95758316D01*
X155791963Y-95669504D01*
X155683534Y-95606904D01*
X155683536Y-95606904D01*
X155562603Y-95574500D01*
X155562601Y-95574500D01*
X155437399Y-95574500D01*
X155437397Y-95574500D01*
X155316464Y-95606904D01*
X155208036Y-95669504D01*
X155119504Y-95758036D01*
X155056904Y-95866464D01*
X155024500Y-95987396D01*
X153770489Y-95987396D01*
X153629059Y-95949500D01*
X153629057Y-95949500D01*
X153470943Y-95949500D01*
X153470941Y-95949500D01*
X153318220Y-95990421D01*
X153318214Y-95990424D01*
X153181283Y-96069480D01*
X153069480Y-96181283D01*
X152990424Y-96318214D01*
X152990421Y-96318220D01*
X152949500Y-96470940D01*
X100500500Y-96470940D01*
X100500500Y-95537396D01*
X135724500Y-95537396D01*
X135724500Y-95662603D01*
X135756904Y-95783535D01*
X135804783Y-95866464D01*
X135819505Y-95891964D01*
X135908036Y-95980495D01*
X136016464Y-96043095D01*
X136016463Y-96043095D01*
X136086286Y-96061804D01*
X136137396Y-96075499D01*
X136137397Y-96075500D01*
X136137399Y-96075500D01*
X136262603Y-96075500D01*
X136262603Y-96075499D01*
X136383536Y-96043095D01*
X136491964Y-95980495D01*
X136580495Y-95891964D01*
X136643095Y-95783536D01*
X136661067Y-95716464D01*
X136668856Y-95687396D01*
X140024500Y-95687396D01*
X140024500Y-95812603D01*
X140056904Y-95933535D01*
X140089749Y-95990424D01*
X140119505Y-96041964D01*
X140208036Y-96130495D01*
X140316464Y-96193095D01*
X140316463Y-96193095D01*
X140386286Y-96211804D01*
X140437396Y-96225499D01*
X140437397Y-96225500D01*
X140437399Y-96225500D01*
X140562603Y-96225500D01*
X140562603Y-96225499D01*
X140683536Y-96193095D01*
X140791964Y-96130495D01*
X140880495Y-96041964D01*
X140943095Y-95933536D01*
X140975499Y-95812603D01*
X140975500Y-95812603D01*
X140975500Y-95687397D01*
X140975499Y-95687396D01*
X140969069Y-95663401D01*
X140943095Y-95566464D01*
X140880495Y-95458036D01*
X140791964Y-95369505D01*
X140791963Y-95369504D01*
X140683534Y-95306904D01*
X140683535Y-95306904D01*
X140672797Y-95304027D01*
X140562603Y-95274500D01*
X140562601Y-95274500D01*
X140437399Y-95274500D01*
X140437397Y-95274500D01*
X140316464Y-95306904D01*
X140208036Y-95369504D01*
X140119504Y-95458036D01*
X140056904Y-95566464D01*
X140024500Y-95687396D01*
X136668856Y-95687396D01*
X136675285Y-95663405D01*
X136675286Y-95663401D01*
X136675500Y-95662602D01*
X136675500Y-95537397D01*
X136675499Y-95537396D01*
X136643095Y-95416464D01*
X136580495Y-95308036D01*
X136509855Y-95237396D01*
X148124500Y-95237396D01*
X148124500Y-95362603D01*
X148156904Y-95483535D01*
X148204783Y-95566464D01*
X148219505Y-95591964D01*
X148308036Y-95680495D01*
X148416464Y-95743095D01*
X148416463Y-95743095D01*
X148486286Y-95761804D01*
X148537396Y-95775499D01*
X148537397Y-95775500D01*
X148537399Y-95775500D01*
X148662603Y-95775500D01*
X148662603Y-95775499D01*
X148783536Y-95743095D01*
X148891964Y-95680495D01*
X148980495Y-95591964D01*
X149043095Y-95483536D01*
X149075499Y-95362603D01*
X149075500Y-95362603D01*
X149075500Y-95237397D01*
X149075499Y-95237396D01*
X149047669Y-95133536D01*
X149043095Y-95116464D01*
X148980495Y-95008036D01*
X148891964Y-94919505D01*
X148891963Y-94919504D01*
X148783534Y-94856904D01*
X148783536Y-94856904D01*
X148662603Y-94824500D01*
X148662601Y-94824500D01*
X148537399Y-94824500D01*
X148537397Y-94824500D01*
X148416464Y-94856904D01*
X148308036Y-94919504D01*
X148219504Y-95008036D01*
X148156904Y-95116464D01*
X148124500Y-95237396D01*
X136509855Y-95237396D01*
X136491963Y-95219504D01*
X136383534Y-95156904D01*
X136383536Y-95156904D01*
X136262603Y-95124500D01*
X136262601Y-95124500D01*
X136137399Y-95124500D01*
X136137397Y-95124500D01*
X136016464Y-95156904D01*
X135908036Y-95219504D01*
X135819504Y-95308036D01*
X135756904Y-95416464D01*
X135724500Y-95537396D01*
X100500500Y-95537396D01*
X100500500Y-93537396D01*
X127174500Y-93537396D01*
X127174500Y-93662603D01*
X127206904Y-93783535D01*
X127257369Y-93870943D01*
X127269505Y-93891964D01*
X127358036Y-93980495D01*
X127466464Y-94043095D01*
X127466463Y-94043095D01*
X127530606Y-94060282D01*
X127587396Y-94075499D01*
X127587397Y-94075500D01*
X127587399Y-94075500D01*
X127712603Y-94075500D01*
X127712603Y-94075499D01*
X127833536Y-94043095D01*
X127941964Y-93980495D01*
X128030495Y-93891964D01*
X128093095Y-93783536D01*
X128125499Y-93662603D01*
X128125500Y-93662603D01*
X128125500Y-93537397D01*
X128125499Y-93537396D01*
X128124464Y-93533535D01*
X128093095Y-93416464D01*
X128030495Y-93308036D01*
X127941964Y-93219505D01*
X127941963Y-93219504D01*
X127833534Y-93156904D01*
X127833536Y-93156904D01*
X127712603Y-93124500D01*
X127712601Y-93124500D01*
X127587399Y-93124500D01*
X127587397Y-93124500D01*
X127466464Y-93156904D01*
X127358036Y-93219504D01*
X127269504Y-93308036D01*
X127206904Y-93416464D01*
X127174500Y-93537396D01*
X100500500Y-93537396D01*
X100500500Y-92937396D01*
X130774500Y-92937396D01*
X130774500Y-93062603D01*
X130806904Y-93183535D01*
X130866868Y-93287396D01*
X130869505Y-93291964D01*
X130958036Y-93380495D01*
X131066464Y-93443095D01*
X131066463Y-93443095D01*
X131136286Y-93461804D01*
X131187396Y-93475499D01*
X131187397Y-93475500D01*
X131187399Y-93475500D01*
X131312603Y-93475500D01*
X131312603Y-93475499D01*
X131433536Y-93443095D01*
X131541964Y-93380495D01*
X131630495Y-93291964D01*
X131633132Y-93287396D01*
X136424500Y-93287396D01*
X136424500Y-93412603D01*
X136456904Y-93533535D01*
X136514639Y-93633535D01*
X136519505Y-93641964D01*
X136608036Y-93730495D01*
X136716464Y-93793095D01*
X136716463Y-93793095D01*
X136786286Y-93811804D01*
X136837396Y-93825499D01*
X136837397Y-93825500D01*
X136837399Y-93825500D01*
X136962603Y-93825500D01*
X136962603Y-93825499D01*
X137083536Y-93793095D01*
X137191964Y-93730495D01*
X137280495Y-93641964D01*
X137343095Y-93533536D01*
X137375499Y-93412603D01*
X137375500Y-93412603D01*
X137375500Y-93287397D01*
X137375499Y-93287396D01*
X140324500Y-93287396D01*
X140324500Y-93412603D01*
X140356904Y-93533535D01*
X140414639Y-93633535D01*
X140419505Y-93641964D01*
X140508036Y-93730495D01*
X140616464Y-93793095D01*
X140616463Y-93793095D01*
X140686286Y-93811804D01*
X140737396Y-93825499D01*
X140737397Y-93825500D01*
X140737399Y-93825500D01*
X140862603Y-93825500D01*
X140862603Y-93825499D01*
X140983536Y-93793095D01*
X141091964Y-93730495D01*
X141180495Y-93641964D01*
X141243095Y-93533536D01*
X141275499Y-93412603D01*
X141275500Y-93412603D01*
X141275500Y-93387396D01*
X144674500Y-93387396D01*
X144674500Y-93512603D01*
X144706904Y-93633535D01*
X144766868Y-93737396D01*
X144769505Y-93741964D01*
X144858036Y-93830495D01*
X144966464Y-93893095D01*
X144966463Y-93893095D01*
X145036286Y-93911804D01*
X145087396Y-93925499D01*
X145087397Y-93925500D01*
X145087399Y-93925500D01*
X145212603Y-93925500D01*
X145212603Y-93925499D01*
X145333536Y-93893095D01*
X145371910Y-93870940D01*
X148449500Y-93870940D01*
X148449500Y-94029059D01*
X148490421Y-94181779D01*
X148490422Y-94181781D01*
X148490423Y-94181784D01*
X148569480Y-94318716D01*
X148681284Y-94430520D01*
X148818216Y-94509577D01*
X148970940Y-94550499D01*
X148970941Y-94550500D01*
X148970943Y-94550500D01*
X149129059Y-94550500D01*
X149129059Y-94550499D01*
X149281784Y-94509577D01*
X149418716Y-94430520D01*
X149530520Y-94318716D01*
X149609577Y-94181784D01*
X149650499Y-94029059D01*
X149650500Y-94029059D01*
X149650500Y-93870941D01*
X149650499Y-93870940D01*
X149638323Y-93825500D01*
X149609577Y-93718216D01*
X149530520Y-93581284D01*
X149470176Y-93520940D01*
X152699500Y-93520940D01*
X152699500Y-93679059D01*
X152740421Y-93831779D01*
X152740422Y-93831781D01*
X152740423Y-93831784D01*
X152819480Y-93968716D01*
X152931284Y-94080520D01*
X153068216Y-94159577D01*
X153220940Y-94200499D01*
X153220941Y-94200500D01*
X153220943Y-94200500D01*
X153379059Y-94200500D01*
X153379059Y-94200499D01*
X153531784Y-94159577D01*
X153668716Y-94080520D01*
X153711110Y-94038125D01*
X153763434Y-94016451D01*
X153815760Y-94038125D01*
X153816432Y-94038891D01*
X153819505Y-94041964D01*
X153908036Y-94130495D01*
X154016464Y-94193095D01*
X154016463Y-94193095D01*
X154044099Y-94200500D01*
X154137396Y-94225499D01*
X154137397Y-94225500D01*
X154137399Y-94225500D01*
X154262603Y-94225500D01*
X154262603Y-94225499D01*
X154383536Y-94193095D01*
X154383548Y-94193087D01*
X154383688Y-94193031D01*
X154383776Y-94193030D01*
X154388221Y-94191840D01*
X154388539Y-94193030D01*
X154440325Y-94193021D01*
X154480381Y-94233062D01*
X154480391Y-94289699D01*
X154470735Y-94306431D01*
X154469506Y-94308032D01*
X154406904Y-94416464D01*
X154374500Y-94537396D01*
X154374500Y-94662603D01*
X154406904Y-94783535D01*
X154466868Y-94887396D01*
X154469505Y-94891964D01*
X154558036Y-94980495D01*
X154666464Y-95043095D01*
X154666463Y-95043095D01*
X154736286Y-95061804D01*
X154787396Y-95075499D01*
X154787397Y-95075500D01*
X154787399Y-95075500D01*
X154912603Y-95075500D01*
X154912603Y-95075499D01*
X155033536Y-95043095D01*
X155141964Y-94980495D01*
X155230495Y-94891964D01*
X155293095Y-94783536D01*
X155325499Y-94662603D01*
X155325500Y-94662603D01*
X155325500Y-94537397D01*
X155325499Y-94537396D01*
X155293095Y-94416464D01*
X155230495Y-94308036D01*
X155141963Y-94219504D01*
X155038164Y-94159577D01*
X155033536Y-94156905D01*
X155033535Y-94156904D01*
X155033536Y-94156904D01*
X154912603Y-94124500D01*
X154912601Y-94124500D01*
X154787399Y-94124500D01*
X154787397Y-94124500D01*
X154666460Y-94156905D01*
X154666293Y-94156975D01*
X154666201Y-94156974D01*
X154661779Y-94158160D01*
X154661461Y-94156974D01*
X154609656Y-94156971D01*
X154569611Y-94116919D01*
X154569615Y-94060282D01*
X154579273Y-94043556D01*
X154580490Y-94041968D01*
X154580495Y-94041964D01*
X154643095Y-93933536D01*
X154675499Y-93812603D01*
X154675500Y-93812603D01*
X154675500Y-93737396D01*
X155324500Y-93737396D01*
X155324500Y-93862603D01*
X155356904Y-93983535D01*
X155412898Y-94080520D01*
X155419505Y-94091964D01*
X155508036Y-94180495D01*
X155616464Y-94243095D01*
X155616463Y-94243095D01*
X155686286Y-94261804D01*
X155737396Y-94275499D01*
X155737397Y-94275500D01*
X155737399Y-94275500D01*
X155862603Y-94275500D01*
X155862603Y-94275499D01*
X155983536Y-94243095D01*
X156091964Y-94180495D01*
X156180495Y-94091964D01*
X156243095Y-93983536D01*
X156275499Y-93862603D01*
X156275500Y-93862603D01*
X156275500Y-93737397D01*
X156275499Y-93737396D01*
X156262101Y-93687396D01*
X156243095Y-93616464D01*
X156185402Y-93516535D01*
X159949500Y-93516535D01*
X159949500Y-93723465D01*
X159953180Y-93741964D01*
X159989868Y-93926413D01*
X159989870Y-93926420D01*
X160069059Y-94117598D01*
X160184022Y-94289654D01*
X160320339Y-94425971D01*
X160342013Y-94478297D01*
X160320339Y-94530623D01*
X160305013Y-94542383D01*
X160258035Y-94569505D01*
X160169504Y-94658036D01*
X160106904Y-94766464D01*
X160074500Y-94887396D01*
X160074500Y-95012603D01*
X160106904Y-95133535D01*
X160166868Y-95237396D01*
X160169505Y-95241964D01*
X160258036Y-95330495D01*
X160366464Y-95393095D01*
X160366463Y-95393095D01*
X160436286Y-95411804D01*
X160487396Y-95425499D01*
X160487397Y-95425500D01*
X160487399Y-95425500D01*
X160612603Y-95425500D01*
X160612603Y-95425499D01*
X160733536Y-95393095D01*
X160841964Y-95330495D01*
X160930495Y-95241964D01*
X160993095Y-95133536D01*
X161025499Y-95012603D01*
X161025500Y-95012603D01*
X161025500Y-94887397D01*
X161025499Y-94887396D01*
X160992342Y-94763653D01*
X160999734Y-94707500D01*
X161044667Y-94673022D01*
X161063820Y-94670500D01*
X161103464Y-94670500D01*
X161103465Y-94670500D01*
X161306420Y-94630130D01*
X161497598Y-94550941D01*
X161669655Y-94435977D01*
X161815977Y-94289655D01*
X161930941Y-94117598D01*
X162010130Y-93926420D01*
X162050500Y-93723465D01*
X162050500Y-93516535D01*
X162010130Y-93313580D01*
X161930941Y-93122402D01*
X161815977Y-92950345D01*
X161669655Y-92804023D01*
X161651607Y-92791964D01*
X161497598Y-92689059D01*
X161306420Y-92609870D01*
X161306413Y-92609868D01*
X161153516Y-92579455D01*
X161103465Y-92569500D01*
X160896535Y-92569500D01*
X160856385Y-92577486D01*
X160693586Y-92609868D01*
X160693579Y-92609870D01*
X160502401Y-92689059D01*
X160330345Y-92804022D01*
X160330344Y-92804024D01*
X160184024Y-92950344D01*
X160184022Y-92950345D01*
X160069059Y-93122401D01*
X159989870Y-93313579D01*
X159989868Y-93313586D01*
X159957662Y-93475500D01*
X159949500Y-93516535D01*
X156185402Y-93516535D01*
X156180495Y-93508036D01*
X156091964Y-93419505D01*
X156091963Y-93419504D01*
X156003134Y-93368220D01*
X155983536Y-93356905D01*
X155983535Y-93356904D01*
X155983536Y-93356904D01*
X155862603Y-93324500D01*
X155862601Y-93324500D01*
X155737399Y-93324500D01*
X155737397Y-93324500D01*
X155616464Y-93356904D01*
X155508036Y-93419504D01*
X155419504Y-93508036D01*
X155356904Y-93616464D01*
X155324500Y-93737396D01*
X154675500Y-93737396D01*
X154675500Y-93687397D01*
X154675499Y-93687396D01*
X154663325Y-93641964D01*
X154643095Y-93566464D01*
X154580495Y-93458036D01*
X154491964Y-93369505D01*
X154491963Y-93369504D01*
X154395108Y-93313586D01*
X154383536Y-93306905D01*
X154383535Y-93306904D01*
X154383536Y-93306904D01*
X154262603Y-93274500D01*
X154262601Y-93274500D01*
X154137399Y-93274500D01*
X154137397Y-93274500D01*
X154016467Y-93306903D01*
X153936334Y-93353167D01*
X153880181Y-93360558D01*
X153835249Y-93326079D01*
X153834337Y-93324500D01*
X153780520Y-93231284D01*
X153668716Y-93119480D01*
X153531784Y-93040423D01*
X153531781Y-93040422D01*
X153531779Y-93040421D01*
X153379059Y-92999500D01*
X153379057Y-92999500D01*
X153220943Y-92999500D01*
X153220941Y-92999500D01*
X153068220Y-93040421D01*
X153068214Y-93040424D01*
X152931283Y-93119480D01*
X152819480Y-93231283D01*
X152740424Y-93368214D01*
X152740421Y-93368220D01*
X152699500Y-93520940D01*
X149470176Y-93520940D01*
X149418716Y-93469480D01*
X149281784Y-93390423D01*
X149281781Y-93390422D01*
X149281779Y-93390421D01*
X149129059Y-93349500D01*
X149129057Y-93349500D01*
X148970943Y-93349500D01*
X148970941Y-93349500D01*
X148818220Y-93390421D01*
X148818214Y-93390424D01*
X148681283Y-93469480D01*
X148569480Y-93581283D01*
X148490424Y-93718214D01*
X148490421Y-93718220D01*
X148449500Y-93870940D01*
X145371910Y-93870940D01*
X145441964Y-93830495D01*
X145530495Y-93741964D01*
X145593095Y-93633536D01*
X145625499Y-93512603D01*
X145625500Y-93512603D01*
X145625500Y-93387397D01*
X145625499Y-93387396D01*
X145605721Y-93313586D01*
X145593095Y-93266464D01*
X145530495Y-93158036D01*
X145441964Y-93069505D01*
X145441963Y-93069504D01*
X145333534Y-93006904D01*
X145333536Y-93006904D01*
X145212603Y-92974500D01*
X145212601Y-92974500D01*
X145087399Y-92974500D01*
X145087397Y-92974500D01*
X144966464Y-93006904D01*
X144858036Y-93069504D01*
X144769504Y-93158036D01*
X144706904Y-93266464D01*
X144674500Y-93387396D01*
X141275500Y-93387396D01*
X141275500Y-93287397D01*
X141275499Y-93287396D01*
X141272043Y-93274500D01*
X141243095Y-93166464D01*
X141180495Y-93058036D01*
X141091964Y-92969505D01*
X141091963Y-92969504D01*
X140983534Y-92906904D01*
X140983536Y-92906904D01*
X140862603Y-92874500D01*
X140862601Y-92874500D01*
X140737399Y-92874500D01*
X140737397Y-92874500D01*
X140616464Y-92906904D01*
X140508036Y-92969504D01*
X140419504Y-93058036D01*
X140356904Y-93166464D01*
X140324500Y-93287396D01*
X137375499Y-93287396D01*
X137372043Y-93274500D01*
X137343095Y-93166464D01*
X137280495Y-93058036D01*
X137191964Y-92969505D01*
X137191963Y-92969504D01*
X137083534Y-92906904D01*
X137083536Y-92906904D01*
X136962603Y-92874500D01*
X136962601Y-92874500D01*
X136837399Y-92874500D01*
X136837397Y-92874500D01*
X136716464Y-92906904D01*
X136608036Y-92969504D01*
X136519504Y-93058036D01*
X136456904Y-93166464D01*
X136424500Y-93287396D01*
X131633132Y-93287396D01*
X131693095Y-93183536D01*
X131725499Y-93062603D01*
X131725500Y-93062603D01*
X131725500Y-92937397D01*
X131725499Y-92937396D01*
X131693095Y-92816464D01*
X131630495Y-92708036D01*
X131559855Y-92637396D01*
X142824500Y-92637396D01*
X142824500Y-92762603D01*
X142856904Y-92883535D01*
X142910000Y-92975500D01*
X142919505Y-92991964D01*
X143008036Y-93080495D01*
X143116464Y-93143095D01*
X143116463Y-93143095D01*
X143186286Y-93161804D01*
X143237396Y-93175499D01*
X143237397Y-93175500D01*
X143237399Y-93175500D01*
X143362603Y-93175500D01*
X143362603Y-93175499D01*
X143483536Y-93143095D01*
X143591964Y-93080495D01*
X143680495Y-92991964D01*
X143743095Y-92883536D01*
X143775499Y-92762603D01*
X143775500Y-92762603D01*
X143775500Y-92637397D01*
X143775499Y-92637396D01*
X143743095Y-92516464D01*
X143716011Y-92469552D01*
X143716009Y-92469549D01*
X143697446Y-92437396D01*
X155824500Y-92437396D01*
X155824500Y-92562603D01*
X155856904Y-92683535D01*
X155902554Y-92762603D01*
X155919505Y-92791964D01*
X156008036Y-92880495D01*
X156116464Y-92943095D01*
X156116463Y-92943095D01*
X156186286Y-92961804D01*
X156237396Y-92975499D01*
X156237397Y-92975500D01*
X156237399Y-92975500D01*
X156362603Y-92975500D01*
X156362603Y-92975499D01*
X156483536Y-92943095D01*
X156591964Y-92880495D01*
X156680495Y-92791964D01*
X156743095Y-92683536D01*
X156775499Y-92562603D01*
X156775500Y-92562603D01*
X156775500Y-92437397D01*
X156775499Y-92437396D01*
X156743095Y-92316464D01*
X156680495Y-92208036D01*
X156591963Y-92119504D01*
X156512584Y-92073676D01*
X156483536Y-92056905D01*
X156483535Y-92056904D01*
X156483536Y-92056904D01*
X156362603Y-92024500D01*
X156362601Y-92024500D01*
X156237399Y-92024500D01*
X156237397Y-92024500D01*
X156116464Y-92056904D01*
X156008036Y-92119504D01*
X155919504Y-92208036D01*
X155856904Y-92316464D01*
X155824500Y-92437396D01*
X143697446Y-92437396D01*
X143680494Y-92408035D01*
X143591963Y-92319504D01*
X143488164Y-92259577D01*
X143483536Y-92256905D01*
X143483535Y-92256904D01*
X143483536Y-92256904D01*
X143362603Y-92224500D01*
X143362601Y-92224500D01*
X143237399Y-92224500D01*
X143237397Y-92224500D01*
X143116464Y-92256904D01*
X143008036Y-92319504D01*
X142919504Y-92408036D01*
X142856904Y-92516464D01*
X142824500Y-92637396D01*
X131559855Y-92637396D01*
X131541963Y-92619504D01*
X131462584Y-92573676D01*
X131433536Y-92556905D01*
X131433535Y-92556904D01*
X131433536Y-92556904D01*
X131312603Y-92524500D01*
X131312601Y-92524500D01*
X131187399Y-92524500D01*
X131187397Y-92524500D01*
X131066464Y-92556904D01*
X130958036Y-92619504D01*
X130869504Y-92708036D01*
X130806904Y-92816464D01*
X130774500Y-92937396D01*
X100500500Y-92937396D01*
X100500500Y-91620940D01*
X119499500Y-91620940D01*
X119499500Y-91779059D01*
X119540421Y-91931779D01*
X119540422Y-91931781D01*
X119540423Y-91931784D01*
X119619480Y-92068716D01*
X119731284Y-92180520D01*
X119868216Y-92259577D01*
X120020940Y-92300499D01*
X120020941Y-92300500D01*
X120020943Y-92300500D01*
X120179059Y-92300500D01*
X120179059Y-92300499D01*
X120331784Y-92259577D01*
X120468716Y-92180520D01*
X120580520Y-92068716D01*
X120659577Y-91931784D01*
X120700499Y-91779059D01*
X120700500Y-91779059D01*
X120700500Y-91620941D01*
X120700499Y-91620940D01*
X120668550Y-91501702D01*
X120664716Y-91487396D01*
X132624500Y-91487396D01*
X132624500Y-91612603D01*
X132656904Y-91733535D01*
X132666212Y-91749656D01*
X132719505Y-91841964D01*
X132808036Y-91930495D01*
X132916464Y-91993095D01*
X132916463Y-91993095D01*
X132983061Y-92010940D01*
X133037396Y-92025499D01*
X133037397Y-92025500D01*
X133037399Y-92025500D01*
X133162603Y-92025500D01*
X133162603Y-92025499D01*
X133283536Y-91993095D01*
X133391964Y-91930495D01*
X133480495Y-91841964D01*
X133543095Y-91733536D01*
X133575499Y-91612603D01*
X133575500Y-91612603D01*
X133575500Y-91487397D01*
X133575499Y-91487396D01*
X133543095Y-91366464D01*
X133480495Y-91258036D01*
X133391963Y-91169504D01*
X133283534Y-91106904D01*
X133283536Y-91106904D01*
X133162603Y-91074500D01*
X133162601Y-91074500D01*
X133037399Y-91074500D01*
X133037397Y-91074500D01*
X132916464Y-91106904D01*
X132808036Y-91169504D01*
X132719504Y-91258036D01*
X132656904Y-91366464D01*
X132624500Y-91487396D01*
X120664716Y-91487396D01*
X120659578Y-91468220D01*
X120659577Y-91468216D01*
X120580520Y-91331284D01*
X120468716Y-91219480D01*
X120331784Y-91140423D01*
X120331781Y-91140422D01*
X120331779Y-91140421D01*
X120179059Y-91099500D01*
X120179057Y-91099500D01*
X120020943Y-91099500D01*
X120020941Y-91099500D01*
X119868220Y-91140421D01*
X119868214Y-91140424D01*
X119731283Y-91219480D01*
X119619480Y-91331283D01*
X119540424Y-91468214D01*
X119540421Y-91468220D01*
X119499500Y-91620940D01*
X100500500Y-91620940D01*
X100500500Y-90814231D01*
X104424500Y-90814231D01*
X104424500Y-90965768D01*
X104463717Y-91112130D01*
X104463721Y-91112139D01*
X104525695Y-91219480D01*
X104539485Y-91243365D01*
X104646635Y-91350515D01*
X104777865Y-91426281D01*
X104924231Y-91465499D01*
X104924232Y-91465500D01*
X104924234Y-91465500D01*
X105075768Y-91465500D01*
X105075768Y-91465499D01*
X105222135Y-91426281D01*
X105353365Y-91350515D01*
X105460515Y-91243365D01*
X105536281Y-91112135D01*
X105572614Y-90976535D01*
X159949500Y-90976535D01*
X159949500Y-91183464D01*
X159989868Y-91386413D01*
X159989870Y-91386420D01*
X160069059Y-91577598D01*
X160173252Y-91733536D01*
X160184023Y-91749655D01*
X160330345Y-91895977D01*
X160502402Y-92010941D01*
X160693580Y-92090130D01*
X160896535Y-92130500D01*
X160896536Y-92130500D01*
X161103464Y-92130500D01*
X161103465Y-92130500D01*
X161306420Y-92090130D01*
X161497598Y-92010941D01*
X161669655Y-91895977D01*
X161815977Y-91749655D01*
X161930941Y-91577598D01*
X162010130Y-91386420D01*
X162050500Y-91183465D01*
X162050500Y-90976535D01*
X162010130Y-90773580D01*
X161930941Y-90582402D01*
X161815977Y-90410345D01*
X161669655Y-90264023D01*
X161653295Y-90253092D01*
X161497598Y-90149059D01*
X161306420Y-90069870D01*
X161306413Y-90069868D01*
X161153516Y-90039455D01*
X161103465Y-90029500D01*
X160896535Y-90029500D01*
X160856385Y-90037486D01*
X160693586Y-90069868D01*
X160693579Y-90069870D01*
X160502401Y-90149059D01*
X160330345Y-90264022D01*
X160330344Y-90264024D01*
X160184024Y-90410344D01*
X160184022Y-90410345D01*
X160069059Y-90582401D01*
X159989870Y-90773579D01*
X159989868Y-90773586D01*
X159949500Y-90976535D01*
X105572614Y-90976535D01*
X105575499Y-90965768D01*
X105575500Y-90965768D01*
X105575500Y-90814232D01*
X105575499Y-90814231D01*
X105569532Y-90791963D01*
X105536281Y-90667865D01*
X105460515Y-90536635D01*
X105353365Y-90429485D01*
X105353362Y-90429483D01*
X105222139Y-90353721D01*
X105222130Y-90353717D01*
X105075768Y-90314500D01*
X105075766Y-90314500D01*
X104924234Y-90314500D01*
X104924232Y-90314500D01*
X104777869Y-90353717D01*
X104777860Y-90353721D01*
X104646637Y-90429483D01*
X104539483Y-90536637D01*
X104463721Y-90667860D01*
X104463717Y-90667869D01*
X104424500Y-90814231D01*
X100500500Y-90814231D01*
X100500500Y-90187396D01*
X128574500Y-90187396D01*
X128574500Y-90312603D01*
X128606904Y-90433535D01*
X128666430Y-90536637D01*
X128669505Y-90541964D01*
X128758036Y-90630495D01*
X128866464Y-90693095D01*
X128866463Y-90693095D01*
X128936286Y-90711804D01*
X128987396Y-90725499D01*
X128987397Y-90725500D01*
X128987399Y-90725500D01*
X129112603Y-90725500D01*
X129112603Y-90725499D01*
X129233536Y-90693095D01*
X129341964Y-90630495D01*
X129397674Y-90574785D01*
X129450000Y-90553111D01*
X129502326Y-90574785D01*
X129558036Y-90630495D01*
X129666464Y-90693095D01*
X129666463Y-90693095D01*
X129736286Y-90711804D01*
X129787396Y-90725499D01*
X129787397Y-90725500D01*
X129787399Y-90725500D01*
X129912603Y-90725500D01*
X129912603Y-90725499D01*
X130033536Y-90693095D01*
X130141964Y-90630495D01*
X130230495Y-90541964D01*
X130293095Y-90433536D01*
X130325499Y-90312603D01*
X130325500Y-90312603D01*
X130325500Y-90187397D01*
X130325499Y-90187396D01*
X131374500Y-90187396D01*
X131374500Y-90312603D01*
X131406904Y-90433535D01*
X131466430Y-90536637D01*
X131469505Y-90541964D01*
X131558036Y-90630495D01*
X131666464Y-90693095D01*
X131666463Y-90693095D01*
X131736286Y-90711804D01*
X131787396Y-90725499D01*
X131787397Y-90725500D01*
X131787399Y-90725500D01*
X131912603Y-90725500D01*
X131912603Y-90725499D01*
X132033536Y-90693095D01*
X132141964Y-90630495D01*
X132230495Y-90541964D01*
X132290866Y-90437396D01*
X140924500Y-90437396D01*
X140924500Y-90562603D01*
X140956904Y-90683535D01*
X141012898Y-90780520D01*
X141019505Y-90791964D01*
X141108036Y-90880495D01*
X141216464Y-90943095D01*
X141216463Y-90943095D01*
X141286286Y-90961804D01*
X141337396Y-90975499D01*
X141337397Y-90975500D01*
X141337399Y-90975500D01*
X141462603Y-90975500D01*
X141462603Y-90975499D01*
X141583536Y-90943095D01*
X141691964Y-90880495D01*
X141780495Y-90791964D01*
X141843095Y-90683536D01*
X141875499Y-90562603D01*
X141875500Y-90562603D01*
X141875500Y-90437397D01*
X141875499Y-90437396D01*
X141874464Y-90433535D01*
X141843095Y-90316464D01*
X141787945Y-90220940D01*
X145499500Y-90220940D01*
X145499500Y-90379059D01*
X145540421Y-90531779D01*
X145540422Y-90531781D01*
X145540423Y-90531784D01*
X145619480Y-90668716D01*
X145731284Y-90780520D01*
X145868216Y-90859577D01*
X146020940Y-90900499D01*
X146020941Y-90900500D01*
X146020943Y-90900500D01*
X146179058Y-90900500D01*
X146253717Y-90880495D01*
X146331784Y-90859577D01*
X146468716Y-90780520D01*
X146580520Y-90668716D01*
X146659577Y-90531784D01*
X146700499Y-90379059D01*
X146700500Y-90379059D01*
X146700500Y-90220941D01*
X146700499Y-90220940D01*
X146697041Y-90208036D01*
X146659577Y-90068216D01*
X146580520Y-89931284D01*
X146468716Y-89819480D01*
X146331784Y-89740423D01*
X146331781Y-89740422D01*
X146331779Y-89740421D01*
X146179059Y-89699500D01*
X146179057Y-89699500D01*
X146020943Y-89699500D01*
X146020941Y-89699500D01*
X145868220Y-89740421D01*
X145868214Y-89740424D01*
X145731283Y-89819480D01*
X145619480Y-89931283D01*
X145540424Y-90068214D01*
X145540421Y-90068220D01*
X145499500Y-90220940D01*
X141787945Y-90220940D01*
X141780495Y-90208036D01*
X141691964Y-90119505D01*
X141691963Y-90119504D01*
X141603134Y-90068220D01*
X141583536Y-90056905D01*
X141583535Y-90056904D01*
X141583536Y-90056904D01*
X141462603Y-90024500D01*
X141462601Y-90024500D01*
X141337399Y-90024500D01*
X141337397Y-90024500D01*
X141216464Y-90056904D01*
X141108036Y-90119504D01*
X141019504Y-90208036D01*
X140956904Y-90316464D01*
X140924500Y-90437396D01*
X132290866Y-90437396D01*
X132293095Y-90433536D01*
X132299310Y-90410345D01*
X132314483Y-90353717D01*
X132325499Y-90312603D01*
X132325500Y-90312603D01*
X132325500Y-90187397D01*
X132325499Y-90187396D01*
X132307307Y-90119505D01*
X132293095Y-90066464D01*
X132230495Y-89958036D01*
X132141964Y-89869505D01*
X132141963Y-89869504D01*
X132033534Y-89806904D01*
X132033536Y-89806904D01*
X131912603Y-89774500D01*
X131912601Y-89774500D01*
X131787399Y-89774500D01*
X131787397Y-89774500D01*
X131666464Y-89806904D01*
X131558036Y-89869504D01*
X131469504Y-89958036D01*
X131406904Y-90066464D01*
X131374500Y-90187396D01*
X130325499Y-90187396D01*
X130307307Y-90119505D01*
X130293095Y-90066464D01*
X130230495Y-89958036D01*
X130141964Y-89869505D01*
X130141963Y-89869504D01*
X130033534Y-89806904D01*
X130033536Y-89806904D01*
X129912603Y-89774500D01*
X129912601Y-89774500D01*
X129787399Y-89774500D01*
X129787397Y-89774500D01*
X129666464Y-89806904D01*
X129558036Y-89869504D01*
X129502326Y-89925215D01*
X129450000Y-89946889D01*
X129397674Y-89925215D01*
X129341963Y-89869504D01*
X129233534Y-89806904D01*
X129233536Y-89806904D01*
X129112603Y-89774500D01*
X129112601Y-89774500D01*
X128987399Y-89774500D01*
X128987397Y-89774500D01*
X128866464Y-89806904D01*
X128758036Y-89869504D01*
X128669504Y-89958036D01*
X128606904Y-90066464D01*
X128574500Y-90187396D01*
X100500500Y-90187396D01*
X100500500Y-89287396D01*
X107274500Y-89287396D01*
X107274500Y-89412603D01*
X107306904Y-89533535D01*
X107360000Y-89625500D01*
X107369505Y-89641964D01*
X107458036Y-89730495D01*
X107566464Y-89793095D01*
X107566463Y-89793095D01*
X107636286Y-89811804D01*
X107687396Y-89825499D01*
X107687397Y-89825500D01*
X107687399Y-89825500D01*
X107812603Y-89825500D01*
X107812603Y-89825499D01*
X107933536Y-89793095D01*
X108041964Y-89730495D01*
X108130495Y-89641964D01*
X108193095Y-89533536D01*
X108225499Y-89412603D01*
X108225500Y-89412603D01*
X108225500Y-89287397D01*
X108225499Y-89287396D01*
X108193095Y-89166464D01*
X108130495Y-89058036D01*
X108041963Y-88969504D01*
X107933534Y-88906904D01*
X107933536Y-88906904D01*
X107812603Y-88874500D01*
X107812601Y-88874500D01*
X107687399Y-88874500D01*
X107687397Y-88874500D01*
X107566464Y-88906904D01*
X107458036Y-88969504D01*
X107369504Y-89058036D01*
X107306904Y-89166464D01*
X107274500Y-89287396D01*
X100500500Y-89287396D01*
X100500500Y-88420940D01*
X115699500Y-88420940D01*
X115699500Y-88579059D01*
X115740421Y-88731779D01*
X115740422Y-88731781D01*
X115740423Y-88731784D01*
X115819480Y-88868716D01*
X115931284Y-88980520D01*
X116068216Y-89059577D01*
X116220940Y-89100499D01*
X116220941Y-89100500D01*
X116220943Y-89100500D01*
X116379059Y-89100500D01*
X116379059Y-89100499D01*
X116427961Y-89087396D01*
X143624500Y-89087396D01*
X143624500Y-89212603D01*
X143656904Y-89333535D01*
X143702554Y-89412603D01*
X143719505Y-89441964D01*
X143808036Y-89530495D01*
X143916464Y-89593095D01*
X143916463Y-89593095D01*
X143986286Y-89611804D01*
X144037396Y-89625499D01*
X144037397Y-89625500D01*
X144037399Y-89625500D01*
X144162603Y-89625500D01*
X144162603Y-89625499D01*
X144283536Y-89593095D01*
X144391964Y-89530495D01*
X144480495Y-89441964D01*
X144543095Y-89333536D01*
X144575499Y-89212603D01*
X144575500Y-89212603D01*
X144575500Y-89087397D01*
X144575499Y-89087396D01*
X144543095Y-88966464D01*
X144480495Y-88858036D01*
X144391963Y-88769504D01*
X144283534Y-88706904D01*
X144283536Y-88706904D01*
X144162603Y-88674500D01*
X144162601Y-88674500D01*
X144037399Y-88674500D01*
X144037397Y-88674500D01*
X143916464Y-88706904D01*
X143808036Y-88769504D01*
X143719504Y-88858036D01*
X143656904Y-88966464D01*
X143624500Y-89087396D01*
X116427961Y-89087396D01*
X116531784Y-89059577D01*
X116668716Y-88980520D01*
X116780520Y-88868716D01*
X116859577Y-88731784D01*
X116900499Y-88579059D01*
X116900500Y-88579059D01*
X116900500Y-88436535D01*
X159949500Y-88436535D01*
X159949500Y-88643464D01*
X159989868Y-88846413D01*
X159989870Y-88846420D01*
X160069059Y-89037598D01*
X160184023Y-89209655D01*
X160330345Y-89355977D01*
X160502402Y-89470941D01*
X160693580Y-89550130D01*
X160896535Y-89590500D01*
X160896536Y-89590500D01*
X161103464Y-89590500D01*
X161103465Y-89590500D01*
X161306420Y-89550130D01*
X161497598Y-89470941D01*
X161669655Y-89355977D01*
X161815977Y-89209655D01*
X161930941Y-89037598D01*
X162010130Y-88846420D01*
X162050500Y-88643465D01*
X162050500Y-88436535D01*
X162010130Y-88233580D01*
X161930941Y-88042402D01*
X161815977Y-87870345D01*
X161669655Y-87724023D01*
X161497598Y-87609059D01*
X161306420Y-87529870D01*
X161306413Y-87529868D01*
X161115847Y-87491963D01*
X161103465Y-87489500D01*
X160896535Y-87489500D01*
X160884153Y-87491963D01*
X160693586Y-87529868D01*
X160693579Y-87529870D01*
X160502401Y-87609059D01*
X160330345Y-87724022D01*
X160330344Y-87724024D01*
X160184024Y-87870344D01*
X160184022Y-87870345D01*
X160069059Y-88042401D01*
X159989870Y-88233579D01*
X159989868Y-88233586D01*
X159949500Y-88436535D01*
X116900500Y-88436535D01*
X116900500Y-88420941D01*
X116900499Y-88420940D01*
X116859578Y-88268220D01*
X116859577Y-88268216D01*
X116780520Y-88131284D01*
X116668716Y-88019480D01*
X116531784Y-87940423D01*
X116531781Y-87940422D01*
X116531779Y-87940421D01*
X116379059Y-87899500D01*
X116379057Y-87899500D01*
X116220943Y-87899500D01*
X116220941Y-87899500D01*
X116068220Y-87940421D01*
X116068214Y-87940424D01*
X115931283Y-88019480D01*
X115819480Y-88131283D01*
X115740424Y-88268214D01*
X115740421Y-88268220D01*
X115699500Y-88420940D01*
X100500500Y-88420940D01*
X100500500Y-86720940D01*
X116399500Y-86720940D01*
X116399500Y-86879059D01*
X116440421Y-87031779D01*
X116440422Y-87031781D01*
X116440423Y-87031784D01*
X116519480Y-87168716D01*
X116631284Y-87280520D01*
X116768216Y-87359577D01*
X116920940Y-87400499D01*
X116920941Y-87400500D01*
X116920943Y-87400500D01*
X117079059Y-87400500D01*
X117079059Y-87400499D01*
X117231784Y-87359577D01*
X117368716Y-87280520D01*
X117480520Y-87168716D01*
X117559577Y-87031784D01*
X117584868Y-86937396D01*
X139324500Y-86937396D01*
X139324500Y-87062603D01*
X139356904Y-87183535D01*
X139412898Y-87280520D01*
X139419505Y-87291964D01*
X139508036Y-87380495D01*
X139616464Y-87443095D01*
X139616463Y-87443095D01*
X139686286Y-87461804D01*
X139737396Y-87475499D01*
X139737397Y-87475500D01*
X139737399Y-87475500D01*
X139862603Y-87475500D01*
X139862603Y-87475499D01*
X139983536Y-87443095D01*
X140091964Y-87380495D01*
X140180495Y-87291964D01*
X140243095Y-87183536D01*
X140243095Y-87183533D01*
X140244753Y-87180663D01*
X140289685Y-87146184D01*
X140327992Y-87146184D01*
X140437396Y-87175499D01*
X140437397Y-87175500D01*
X140437399Y-87175500D01*
X140562603Y-87175500D01*
X140562603Y-87175499D01*
X140683536Y-87143095D01*
X140791964Y-87080495D01*
X140880495Y-86991964D01*
X140911999Y-86937396D01*
X142524500Y-86937396D01*
X142524500Y-87062603D01*
X142556904Y-87183535D01*
X142612898Y-87280520D01*
X142619505Y-87291964D01*
X142708036Y-87380495D01*
X142816464Y-87443095D01*
X142816463Y-87443095D01*
X142886286Y-87461804D01*
X142937396Y-87475499D01*
X142937397Y-87475500D01*
X143000500Y-87475500D01*
X143052826Y-87497174D01*
X143074500Y-87549500D01*
X143074500Y-87662603D01*
X143106904Y-87783535D01*
X143157023Y-87870344D01*
X143169505Y-87891964D01*
X143258036Y-87980495D01*
X143366464Y-88043095D01*
X143366463Y-88043095D01*
X143436286Y-88061804D01*
X143487396Y-88075499D01*
X143487397Y-88075500D01*
X143487399Y-88075500D01*
X143612603Y-88075500D01*
X143612603Y-88075499D01*
X143733536Y-88043095D01*
X143841964Y-87980495D01*
X143930495Y-87891964D01*
X143993095Y-87783536D01*
X144025499Y-87662603D01*
X144025500Y-87662603D01*
X144025500Y-87537397D01*
X144025499Y-87537396D01*
X144023482Y-87529870D01*
X143993095Y-87416464D01*
X143930495Y-87308036D01*
X143926930Y-87304471D01*
X143905256Y-87252145D01*
X143926930Y-87199819D01*
X143942251Y-87188063D01*
X144030011Y-87137396D01*
X145324500Y-87137396D01*
X145324500Y-87262603D01*
X145356904Y-87383535D01*
X145410000Y-87475500D01*
X145419505Y-87491964D01*
X145508036Y-87580495D01*
X145616464Y-87643095D01*
X145616463Y-87643095D01*
X145686286Y-87661804D01*
X145737396Y-87675499D01*
X145737397Y-87675500D01*
X145737399Y-87675500D01*
X145862603Y-87675500D01*
X145862603Y-87675499D01*
X145983536Y-87643095D01*
X146091964Y-87580495D01*
X146180495Y-87491964D01*
X146243095Y-87383536D01*
X146275499Y-87262603D01*
X146275500Y-87262603D01*
X146275500Y-87137397D01*
X146275499Y-87137396D01*
X146243095Y-87016464D01*
X146180495Y-86908036D01*
X146091963Y-86819504D01*
X145983534Y-86756904D01*
X145983536Y-86756904D01*
X145862603Y-86724500D01*
X145862601Y-86724500D01*
X145737399Y-86724500D01*
X145737397Y-86724500D01*
X145616464Y-86756904D01*
X145508036Y-86819504D01*
X145419504Y-86908036D01*
X145356904Y-87016464D01*
X145324500Y-87137396D01*
X144030011Y-87137396D01*
X144041964Y-87130495D01*
X144130495Y-87041964D01*
X144193095Y-86933536D01*
X144225499Y-86812603D01*
X144225500Y-86812603D01*
X144225500Y-86687397D01*
X144225499Y-86687396D01*
X144212101Y-86637396D01*
X144193095Y-86566464D01*
X144130495Y-86458036D01*
X144041964Y-86369505D01*
X144041963Y-86369504D01*
X143933534Y-86306904D01*
X143933536Y-86306904D01*
X143812603Y-86274500D01*
X143812601Y-86274500D01*
X143687399Y-86274500D01*
X143687397Y-86274500D01*
X143566464Y-86306904D01*
X143458036Y-86369504D01*
X143369505Y-86458035D01*
X143317201Y-86548629D01*
X143272267Y-86583108D01*
X143216116Y-86575715D01*
X143183536Y-86556905D01*
X143183533Y-86556903D01*
X143062603Y-86524500D01*
X143062601Y-86524500D01*
X142937399Y-86524500D01*
X142937397Y-86524500D01*
X142816464Y-86556904D01*
X142708036Y-86619504D01*
X142619504Y-86708036D01*
X142556904Y-86816464D01*
X142524500Y-86937396D01*
X140911999Y-86937396D01*
X140943095Y-86883536D01*
X140975499Y-86762603D01*
X140975500Y-86762603D01*
X140975500Y-86637397D01*
X140975499Y-86637396D01*
X140972311Y-86625500D01*
X140943095Y-86516464D01*
X140880495Y-86408036D01*
X140791964Y-86319505D01*
X140791963Y-86319504D01*
X140683534Y-86256904D01*
X140683536Y-86256904D01*
X140562603Y-86224500D01*
X140562601Y-86224500D01*
X140437399Y-86224500D01*
X140437397Y-86224500D01*
X140316464Y-86256904D01*
X140208036Y-86319504D01*
X140119505Y-86408035D01*
X140055245Y-86519337D01*
X140010311Y-86553816D01*
X139972006Y-86553815D01*
X139862603Y-86524500D01*
X139862601Y-86524500D01*
X139737399Y-86524500D01*
X139737397Y-86524500D01*
X139616464Y-86556904D01*
X139508036Y-86619504D01*
X139419504Y-86708036D01*
X139356904Y-86816464D01*
X139324500Y-86937396D01*
X117584868Y-86937396D01*
X117599301Y-86883533D01*
X117600500Y-86879058D01*
X117600500Y-86720941D01*
X117600499Y-86720940D01*
X117597041Y-86708036D01*
X117559577Y-86568216D01*
X117480520Y-86431284D01*
X117368716Y-86319480D01*
X117231784Y-86240423D01*
X117231781Y-86240422D01*
X117231779Y-86240421D01*
X117079059Y-86199500D01*
X117079057Y-86199500D01*
X116920943Y-86199500D01*
X116920941Y-86199500D01*
X116768220Y-86240421D01*
X116768214Y-86240424D01*
X116631283Y-86319480D01*
X116519480Y-86431283D01*
X116440424Y-86568214D01*
X116440421Y-86568220D01*
X116399500Y-86720940D01*
X100500500Y-86720940D01*
X100500500Y-85837396D01*
X107174500Y-85837396D01*
X107174500Y-85962603D01*
X107206904Y-86083535D01*
X107231133Y-86125500D01*
X107269505Y-86191964D01*
X107358036Y-86280495D01*
X107466464Y-86343095D01*
X107466463Y-86343095D01*
X107536286Y-86361804D01*
X107587396Y-86375499D01*
X107587397Y-86375500D01*
X107587399Y-86375500D01*
X107712603Y-86375500D01*
X107712603Y-86375499D01*
X107833536Y-86343095D01*
X107941964Y-86280495D01*
X108030495Y-86191964D01*
X108093095Y-86083536D01*
X108125499Y-85962603D01*
X108125500Y-85962603D01*
X108125500Y-85837397D01*
X108125499Y-85837396D01*
X108124465Y-85833536D01*
X108093095Y-85716464D01*
X108076313Y-85687396D01*
X126624500Y-85687396D01*
X126624500Y-85812603D01*
X126656904Y-85933535D01*
X126675916Y-85966464D01*
X126719505Y-86041964D01*
X126808036Y-86130495D01*
X126916464Y-86193095D01*
X126916463Y-86193095D01*
X126940367Y-86199500D01*
X127037396Y-86225499D01*
X127037397Y-86225500D01*
X127037399Y-86225500D01*
X127162603Y-86225500D01*
X127162603Y-86225499D01*
X127283536Y-86193095D01*
X127391964Y-86130495D01*
X127480495Y-86041964D01*
X127543095Y-85933536D01*
X127575499Y-85812603D01*
X127575500Y-85812603D01*
X127575500Y-85687397D01*
X127575499Y-85687396D01*
X127552538Y-85601702D01*
X127548704Y-85587396D01*
X131724499Y-85587396D01*
X131724499Y-85712603D01*
X131756903Y-85833535D01*
X131814638Y-85933535D01*
X131819504Y-85941964D01*
X131908035Y-86030495D01*
X132016463Y-86093095D01*
X132016462Y-86093095D01*
X132086285Y-86111804D01*
X132137395Y-86125499D01*
X132137396Y-86125500D01*
X132137398Y-86125500D01*
X132262602Y-86125500D01*
X132262602Y-86125499D01*
X132383535Y-86093095D01*
X132393406Y-86087396D01*
X132824500Y-86087396D01*
X132824500Y-86212603D01*
X132856904Y-86333535D01*
X132881133Y-86375500D01*
X132919505Y-86441964D01*
X133008036Y-86530495D01*
X133116464Y-86593095D01*
X133116463Y-86593095D01*
X133186286Y-86611804D01*
X133237396Y-86625499D01*
X133237397Y-86625500D01*
X133237399Y-86625500D01*
X133362603Y-86625500D01*
X133362603Y-86625499D01*
X133483536Y-86593095D01*
X133591964Y-86530495D01*
X133680495Y-86441964D01*
X133743095Y-86333536D01*
X133775499Y-86212603D01*
X133775500Y-86212603D01*
X133775500Y-86087397D01*
X133775499Y-86087396D01*
X133774464Y-86083535D01*
X133743095Y-85966464D01*
X133680495Y-85858036D01*
X133591964Y-85769505D01*
X133591963Y-85769504D01*
X133483534Y-85706904D01*
X133483536Y-85706904D01*
X133362603Y-85674500D01*
X133362601Y-85674500D01*
X133237399Y-85674500D01*
X133237397Y-85674500D01*
X133116464Y-85706904D01*
X133008036Y-85769504D01*
X132919504Y-85858036D01*
X132856904Y-85966464D01*
X132824500Y-86087396D01*
X132393406Y-86087396D01*
X132491963Y-86030495D01*
X132580494Y-85941964D01*
X132643094Y-85833536D01*
X132675498Y-85712603D01*
X132675499Y-85712603D01*
X132675499Y-85587397D01*
X132675498Y-85587396D01*
X132657306Y-85519505D01*
X132643094Y-85466464D01*
X132580494Y-85358036D01*
X132509854Y-85287396D01*
X148524500Y-85287396D01*
X148524500Y-85412603D01*
X148556904Y-85533535D01*
X148588001Y-85587396D01*
X148619505Y-85641964D01*
X148708036Y-85730495D01*
X148816464Y-85793095D01*
X148816463Y-85793095D01*
X148886286Y-85811804D01*
X148937396Y-85825499D01*
X148937397Y-85825500D01*
X148937399Y-85825500D01*
X149062603Y-85825500D01*
X149062603Y-85825499D01*
X149183536Y-85793095D01*
X149291964Y-85730495D01*
X149380495Y-85641964D01*
X149443095Y-85533536D01*
X149475499Y-85412603D01*
X149475500Y-85412603D01*
X149475500Y-85287397D01*
X149475499Y-85287396D01*
X149472043Y-85274500D01*
X149443095Y-85166464D01*
X149380495Y-85058036D01*
X149291964Y-84969505D01*
X149291963Y-84969504D01*
X149183534Y-84906904D01*
X149183536Y-84906904D01*
X149062603Y-84874500D01*
X149062601Y-84874500D01*
X148937399Y-84874500D01*
X148937397Y-84874500D01*
X148816464Y-84906904D01*
X148708036Y-84969504D01*
X148619504Y-85058036D01*
X148556904Y-85166464D01*
X148524500Y-85287396D01*
X132509854Y-85287396D01*
X132491963Y-85269505D01*
X132491962Y-85269504D01*
X132383533Y-85206904D01*
X132383535Y-85206904D01*
X132262602Y-85174500D01*
X132262600Y-85174500D01*
X132137398Y-85174500D01*
X132137396Y-85174500D01*
X132016463Y-85206904D01*
X131908035Y-85269504D01*
X131819503Y-85358036D01*
X131756903Y-85466464D01*
X131724499Y-85587396D01*
X127548704Y-85587396D01*
X127543095Y-85566463D01*
X127480495Y-85458036D01*
X127391963Y-85369504D01*
X127283534Y-85306904D01*
X127283536Y-85306904D01*
X127162603Y-85274500D01*
X127162601Y-85274500D01*
X127037399Y-85274500D01*
X127037397Y-85274500D01*
X126916464Y-85306904D01*
X126808036Y-85369504D01*
X126719504Y-85458036D01*
X126656904Y-85566464D01*
X126624500Y-85687396D01*
X108076313Y-85687396D01*
X108030495Y-85608036D01*
X107941964Y-85519505D01*
X107941963Y-85519504D01*
X107833534Y-85456904D01*
X107833536Y-85456904D01*
X107712603Y-85424500D01*
X107712601Y-85424500D01*
X107587399Y-85424500D01*
X107587397Y-85424500D01*
X107466464Y-85456904D01*
X107358036Y-85519504D01*
X107269504Y-85608036D01*
X107206904Y-85716464D01*
X107174500Y-85837396D01*
X100500500Y-85837396D01*
X100500500Y-85034231D01*
X104424500Y-85034231D01*
X104424500Y-85185768D01*
X104463717Y-85332130D01*
X104463721Y-85332139D01*
X104535755Y-85456905D01*
X104539485Y-85463365D01*
X104646635Y-85570515D01*
X104777865Y-85646281D01*
X104924231Y-85685499D01*
X104924232Y-85685500D01*
X104924234Y-85685500D01*
X105075768Y-85685500D01*
X105075768Y-85685499D01*
X105222135Y-85646281D01*
X105353365Y-85570515D01*
X105460515Y-85463365D01*
X105536281Y-85332135D01*
X105575499Y-85185768D01*
X105575500Y-85185768D01*
X105575500Y-85034232D01*
X105575499Y-85034231D01*
X105550776Y-84941964D01*
X105536281Y-84887865D01*
X105460515Y-84756635D01*
X105353365Y-84649485D01*
X105353362Y-84649483D01*
X105222139Y-84573721D01*
X105222130Y-84573717D01*
X105075768Y-84534500D01*
X105075766Y-84534500D01*
X104924234Y-84534500D01*
X104924232Y-84534500D01*
X104777869Y-84573717D01*
X104777860Y-84573721D01*
X104646637Y-84649483D01*
X104539483Y-84756637D01*
X104463721Y-84887860D01*
X104463717Y-84887869D01*
X104424500Y-85034231D01*
X100500500Y-85034231D01*
X100500500Y-84437396D01*
X107174500Y-84437396D01*
X107174500Y-84562603D01*
X107206904Y-84683535D01*
X107231133Y-84725500D01*
X107269505Y-84791964D01*
X107358036Y-84880495D01*
X107466464Y-84943095D01*
X107466463Y-84943095D01*
X107536286Y-84961804D01*
X107587396Y-84975499D01*
X107587397Y-84975500D01*
X107587399Y-84975500D01*
X107712603Y-84975500D01*
X107712603Y-84975499D01*
X107833536Y-84943095D01*
X107941964Y-84880495D01*
X108030495Y-84791964D01*
X108093095Y-84683536D01*
X108107308Y-84630495D01*
X108118857Y-84587396D01*
X126074500Y-84587396D01*
X126074500Y-84712603D01*
X126106904Y-84833535D01*
X126138274Y-84887869D01*
X126169505Y-84941964D01*
X126258036Y-85030495D01*
X126366464Y-85093095D01*
X126366463Y-85093095D01*
X126436286Y-85111804D01*
X126487396Y-85125499D01*
X126487397Y-85125500D01*
X126487399Y-85125500D01*
X126612603Y-85125500D01*
X126612603Y-85125499D01*
X126733536Y-85093095D01*
X126841964Y-85030495D01*
X126930495Y-84941964D01*
X126993095Y-84833536D01*
X127025499Y-84712603D01*
X127025500Y-84712603D01*
X127025500Y-84587397D01*
X127025499Y-84587396D01*
X127019069Y-84563401D01*
X126993095Y-84466464D01*
X126930495Y-84358036D01*
X126841964Y-84269505D01*
X126802350Y-84246634D01*
X126802350Y-84246633D01*
X126733534Y-84206904D01*
X126733536Y-84206904D01*
X126660731Y-84187396D01*
X152724500Y-84187396D01*
X152724500Y-84312603D01*
X152756904Y-84433535D01*
X152815196Y-84534500D01*
X152819505Y-84541964D01*
X152908036Y-84630495D01*
X153016464Y-84693095D01*
X153016463Y-84693095D01*
X153086286Y-84711804D01*
X153137396Y-84725499D01*
X153137397Y-84725500D01*
X153137399Y-84725500D01*
X153262603Y-84725500D01*
X153262603Y-84725499D01*
X153383536Y-84693095D01*
X153491964Y-84630495D01*
X153580495Y-84541964D01*
X153643095Y-84433536D01*
X153675499Y-84312603D01*
X153675500Y-84312603D01*
X153675500Y-84187397D01*
X153675499Y-84187396D01*
X153672043Y-84174500D01*
X153643095Y-84066464D01*
X153580495Y-83958036D01*
X153491964Y-83869505D01*
X153491963Y-83869504D01*
X153383534Y-83806904D01*
X153383536Y-83806904D01*
X153262603Y-83774500D01*
X153262601Y-83774500D01*
X153137399Y-83774500D01*
X153137397Y-83774500D01*
X153016464Y-83806904D01*
X152908036Y-83869504D01*
X152819504Y-83958036D01*
X152756904Y-84066464D01*
X152724500Y-84187396D01*
X126660731Y-84187396D01*
X126612603Y-84174500D01*
X126612601Y-84174500D01*
X126487399Y-84174500D01*
X126487397Y-84174500D01*
X126366464Y-84206904D01*
X126258036Y-84269504D01*
X126169504Y-84358036D01*
X126106904Y-84466464D01*
X126074500Y-84587396D01*
X108118857Y-84587396D01*
X108125285Y-84563405D01*
X108125286Y-84563401D01*
X108125500Y-84562602D01*
X108125500Y-84437397D01*
X108125499Y-84437396D01*
X108124464Y-84433535D01*
X108093095Y-84316464D01*
X108030495Y-84208036D01*
X107941964Y-84119505D01*
X107941963Y-84119504D01*
X107833534Y-84056904D01*
X107833536Y-84056904D01*
X107712603Y-84024500D01*
X107712601Y-84024500D01*
X107587399Y-84024500D01*
X107587397Y-84024500D01*
X107466464Y-84056904D01*
X107358036Y-84119504D01*
X107269504Y-84208036D01*
X107206904Y-84316464D01*
X107174500Y-84437396D01*
X100500500Y-84437396D01*
X100500500Y-83687396D01*
X154724500Y-83687396D01*
X154724500Y-83812603D01*
X154756904Y-83933535D01*
X154771050Y-83958036D01*
X154819505Y-84041964D01*
X154908036Y-84130495D01*
X155016464Y-84193095D01*
X155016463Y-84193095D01*
X155086286Y-84211804D01*
X155137396Y-84225499D01*
X155137397Y-84225500D01*
X155137399Y-84225500D01*
X155262603Y-84225500D01*
X155262603Y-84225499D01*
X155383536Y-84193095D01*
X155491964Y-84130495D01*
X155580495Y-84041964D01*
X155643095Y-83933536D01*
X155675499Y-83812603D01*
X155675500Y-83812603D01*
X155675500Y-83687397D01*
X155675499Y-83687396D01*
X155672311Y-83675500D01*
X155643095Y-83566464D01*
X155580495Y-83458036D01*
X155491964Y-83369505D01*
X155491963Y-83369504D01*
X155383534Y-83306904D01*
X155383536Y-83306904D01*
X155262603Y-83274500D01*
X155262601Y-83274500D01*
X155137399Y-83274500D01*
X155137397Y-83274500D01*
X155016464Y-83306904D01*
X154908036Y-83369504D01*
X154819504Y-83458036D01*
X154756904Y-83566464D01*
X154724500Y-83687396D01*
X100500500Y-83687396D01*
X100500500Y-83137396D01*
X107724500Y-83137396D01*
X107724500Y-83262603D01*
X107756904Y-83383535D01*
X107790638Y-83441964D01*
X107819505Y-83491964D01*
X107908036Y-83580495D01*
X108016464Y-83643095D01*
X108016463Y-83643095D01*
X108086286Y-83661804D01*
X108137396Y-83675499D01*
X108137397Y-83675500D01*
X108137399Y-83675500D01*
X108262603Y-83675500D01*
X108262603Y-83675499D01*
X108383536Y-83643095D01*
X108491964Y-83580495D01*
X108580495Y-83491964D01*
X108643095Y-83383536D01*
X108675499Y-83262603D01*
X108675500Y-83262603D01*
X108675500Y-83137397D01*
X108665935Y-83101703D01*
X108665935Y-83101702D01*
X108662102Y-83087396D01*
X125524500Y-83087396D01*
X125524500Y-83212603D01*
X125556904Y-83333535D01*
X125585772Y-83383535D01*
X125619505Y-83441964D01*
X125708036Y-83530495D01*
X125816464Y-83593095D01*
X125816463Y-83593095D01*
X125883550Y-83611071D01*
X125937396Y-83625499D01*
X125937397Y-83625500D01*
X125937399Y-83625500D01*
X126062603Y-83625500D01*
X126062603Y-83625499D01*
X126086463Y-83619105D01*
X126116452Y-83611071D01*
X126162418Y-83598753D01*
X126183536Y-83593095D01*
X126291964Y-83530495D01*
X126380495Y-83441964D01*
X126443095Y-83333536D01*
X126475499Y-83212603D01*
X126475500Y-83212603D01*
X126475500Y-83087397D01*
X126475499Y-83087396D01*
X126463325Y-83041964D01*
X126443095Y-82966464D01*
X126380495Y-82858036D01*
X126291964Y-82769505D01*
X126291963Y-82769504D01*
X126183534Y-82706904D01*
X126183536Y-82706904D01*
X126062603Y-82674500D01*
X126062601Y-82674500D01*
X125937399Y-82674500D01*
X125937397Y-82674500D01*
X125816464Y-82706904D01*
X125708036Y-82769504D01*
X125619504Y-82858036D01*
X125556904Y-82966464D01*
X125524500Y-83087396D01*
X108662102Y-83087396D01*
X108643095Y-83016464D01*
X108580495Y-82908036D01*
X108491963Y-82819504D01*
X108383534Y-82756904D01*
X108383536Y-82756904D01*
X108262603Y-82724500D01*
X108262601Y-82724500D01*
X108137399Y-82724500D01*
X108137397Y-82724500D01*
X108016464Y-82756904D01*
X107908036Y-82819504D01*
X107819504Y-82908036D01*
X107756904Y-83016464D01*
X107724500Y-83137396D01*
X100500500Y-83137396D01*
X100500500Y-81770940D01*
X118749500Y-81770940D01*
X118749500Y-81929059D01*
X118790421Y-82081779D01*
X118790422Y-82081781D01*
X118790423Y-82081784D01*
X118869480Y-82218716D01*
X118981284Y-82330520D01*
X119118216Y-82409577D01*
X119270940Y-82450499D01*
X119270941Y-82450500D01*
X119270943Y-82450500D01*
X119429059Y-82450500D01*
X119429059Y-82450499D01*
X119581784Y-82409577D01*
X119620203Y-82387396D01*
X137924500Y-82387396D01*
X137924500Y-82512603D01*
X137956904Y-82633535D01*
X138010000Y-82725500D01*
X138019505Y-82741964D01*
X138108036Y-82830495D01*
X138216464Y-82893095D01*
X138216463Y-82893095D01*
X138286286Y-82911804D01*
X138337396Y-82925499D01*
X138337397Y-82925500D01*
X138337399Y-82925500D01*
X138462602Y-82925500D01*
X138490683Y-82917975D01*
X138572006Y-82896184D01*
X138628158Y-82903576D01*
X138655245Y-82930662D01*
X138704783Y-83016464D01*
X138719505Y-83041964D01*
X138808036Y-83130495D01*
X138916464Y-83193095D01*
X138916463Y-83193095D01*
X138986286Y-83211804D01*
X139037396Y-83225499D01*
X139037397Y-83225500D01*
X139037399Y-83225500D01*
X139162603Y-83225500D01*
X139162603Y-83225499D01*
X139283536Y-83193095D01*
X139391964Y-83130495D01*
X139480495Y-83041964D01*
X139543095Y-82933536D01*
X139575499Y-82812603D01*
X139575500Y-82812603D01*
X139575500Y-82687397D01*
X139575499Y-82687396D01*
X139572043Y-82674500D01*
X139543095Y-82566464D01*
X139480495Y-82458036D01*
X139391964Y-82369505D01*
X139391963Y-82369504D01*
X139283534Y-82306904D01*
X139283536Y-82306904D01*
X139162603Y-82274500D01*
X139162601Y-82274500D01*
X139037399Y-82274500D01*
X139037397Y-82274500D01*
X138927992Y-82303815D01*
X138908839Y-82301293D01*
X138889685Y-82303815D01*
X138881752Y-82297728D01*
X138871839Y-82296423D01*
X138844752Y-82269336D01*
X138843095Y-82266467D01*
X138843095Y-82266464D01*
X138797446Y-82187396D01*
X154224500Y-82187396D01*
X154224500Y-82312603D01*
X154256904Y-82433535D01*
X154302554Y-82512603D01*
X154319505Y-82541964D01*
X154408036Y-82630495D01*
X154516464Y-82693095D01*
X154516463Y-82693095D01*
X154586286Y-82711804D01*
X154637396Y-82725499D01*
X154637397Y-82725500D01*
X154637399Y-82725500D01*
X154762603Y-82725500D01*
X154762603Y-82725499D01*
X154883536Y-82693095D01*
X154991964Y-82630495D01*
X155080495Y-82541964D01*
X155143095Y-82433536D01*
X155175499Y-82312603D01*
X155175500Y-82312603D01*
X155175500Y-82187397D01*
X155175499Y-82187396D01*
X155143095Y-82066464D01*
X155080495Y-81958036D01*
X154991963Y-81869504D01*
X154883534Y-81806904D01*
X154883536Y-81806904D01*
X154762603Y-81774500D01*
X154762601Y-81774500D01*
X154637399Y-81774500D01*
X154637397Y-81774500D01*
X154516464Y-81806904D01*
X154408036Y-81869504D01*
X154319504Y-81958036D01*
X154256904Y-82066464D01*
X154224500Y-82187396D01*
X138797446Y-82187396D01*
X138780495Y-82158036D01*
X138691964Y-82069505D01*
X138691963Y-82069504D01*
X138583534Y-82006904D01*
X138583536Y-82006904D01*
X138462603Y-81974500D01*
X138462601Y-81974500D01*
X138337399Y-81974500D01*
X138337397Y-81974500D01*
X138216464Y-82006904D01*
X138108036Y-82069504D01*
X138019504Y-82158036D01*
X137956904Y-82266464D01*
X137924500Y-82387396D01*
X119620203Y-82387396D01*
X119718716Y-82330520D01*
X119830520Y-82218716D01*
X119909577Y-82081784D01*
X119950499Y-81929059D01*
X119950500Y-81929059D01*
X119950500Y-81770941D01*
X119950499Y-81770940D01*
X119940476Y-81733535D01*
X119909577Y-81618216D01*
X119830520Y-81481284D01*
X119718716Y-81369480D01*
X119663144Y-81337396D01*
X139524500Y-81337396D01*
X139524500Y-81462603D01*
X139556904Y-81583535D01*
X139576930Y-81618220D01*
X139619505Y-81691964D01*
X139708036Y-81780495D01*
X139816464Y-81843095D01*
X139816463Y-81843095D01*
X139886286Y-81861804D01*
X139937396Y-81875499D01*
X139937397Y-81875500D01*
X139937399Y-81875500D01*
X140062603Y-81875500D01*
X140062603Y-81875499D01*
X140183536Y-81843095D01*
X140291964Y-81780495D01*
X140380495Y-81691964D01*
X140443095Y-81583536D01*
X140455366Y-81537737D01*
X140468856Y-81487396D01*
X152724500Y-81487396D01*
X152724500Y-81612603D01*
X152756904Y-81733535D01*
X152778502Y-81770943D01*
X152819505Y-81841964D01*
X152908036Y-81930495D01*
X153016464Y-81993095D01*
X153016463Y-81993095D01*
X153086286Y-82011804D01*
X153137396Y-82025499D01*
X153137397Y-82025500D01*
X153137399Y-82025500D01*
X153262603Y-82025500D01*
X153262603Y-82025499D01*
X153383536Y-81993095D01*
X153491964Y-81930495D01*
X153580495Y-81841964D01*
X153643095Y-81733536D01*
X153675499Y-81612603D01*
X153675500Y-81612603D01*
X153675500Y-81487397D01*
X153675499Y-81487396D01*
X153669069Y-81463401D01*
X153643095Y-81366464D01*
X153580495Y-81258036D01*
X153491964Y-81169505D01*
X153491963Y-81169504D01*
X153383534Y-81106904D01*
X153383536Y-81106904D01*
X153262603Y-81074500D01*
X153262601Y-81074500D01*
X153137399Y-81074500D01*
X153137397Y-81074500D01*
X153016464Y-81106904D01*
X152908036Y-81169504D01*
X152819504Y-81258036D01*
X152756904Y-81366464D01*
X152724500Y-81487396D01*
X140468856Y-81487396D01*
X140475285Y-81463405D01*
X140475286Y-81463401D01*
X140475500Y-81462602D01*
X140475500Y-81337397D01*
X140475499Y-81337396D01*
X140462912Y-81290423D01*
X140443095Y-81216464D01*
X140380495Y-81108036D01*
X140291964Y-81019505D01*
X140291963Y-81019504D01*
X140183534Y-80956904D01*
X140183536Y-80956904D01*
X140062603Y-80924500D01*
X140062601Y-80924500D01*
X139937399Y-80924500D01*
X139937397Y-80924500D01*
X139816464Y-80956904D01*
X139708036Y-81019504D01*
X139619504Y-81108036D01*
X139556904Y-81216464D01*
X139524500Y-81337396D01*
X119663144Y-81337396D01*
X119581784Y-81290423D01*
X119581781Y-81290422D01*
X119581779Y-81290421D01*
X119429059Y-81249500D01*
X119429057Y-81249500D01*
X119270943Y-81249500D01*
X119270941Y-81249500D01*
X119118220Y-81290421D01*
X119118214Y-81290424D01*
X118981283Y-81369480D01*
X118869480Y-81481283D01*
X118790424Y-81618214D01*
X118790421Y-81618220D01*
X118749500Y-81770940D01*
X100500500Y-81770940D01*
X100500500Y-78320940D01*
X117099500Y-78320940D01*
X117099500Y-78479059D01*
X117140421Y-78631779D01*
X117140422Y-78631781D01*
X117140423Y-78631784D01*
X117219480Y-78768716D01*
X117331284Y-78880520D01*
X117468216Y-78959577D01*
X117620940Y-79000499D01*
X117620941Y-79000500D01*
X117620943Y-79000500D01*
X117779059Y-79000500D01*
X117779059Y-79000499D01*
X117931784Y-78959577D01*
X118068716Y-78880520D01*
X118111840Y-78837396D01*
X122174500Y-78837396D01*
X122174500Y-78962603D01*
X122206904Y-79083535D01*
X122250714Y-79159416D01*
X122269505Y-79191964D01*
X122358036Y-79280495D01*
X122373626Y-79289496D01*
X122408106Y-79334427D01*
X122400715Y-79390580D01*
X122400715Y-79390581D01*
X122356903Y-79466467D01*
X122324500Y-79587396D01*
X122324500Y-79712603D01*
X122356904Y-79833535D01*
X122390638Y-79891964D01*
X122419505Y-79941964D01*
X122508036Y-80030495D01*
X122616464Y-80093095D01*
X122616463Y-80093095D01*
X122686286Y-80111804D01*
X122737396Y-80125499D01*
X122737397Y-80125500D01*
X122737399Y-80125500D01*
X122862603Y-80125500D01*
X122862603Y-80125499D01*
X122983536Y-80093095D01*
X122993407Y-80087396D01*
X153074500Y-80087396D01*
X153074500Y-80212603D01*
X153106904Y-80333535D01*
X153135772Y-80383535D01*
X153169505Y-80441964D01*
X153258036Y-80530495D01*
X153366464Y-80593095D01*
X153366463Y-80593095D01*
X153436286Y-80611804D01*
X153487396Y-80625499D01*
X153487397Y-80625500D01*
X153487399Y-80625500D01*
X153612603Y-80625500D01*
X153612603Y-80625499D01*
X153733536Y-80593095D01*
X153841964Y-80530495D01*
X153930495Y-80441964D01*
X153993095Y-80333536D01*
X154025499Y-80212603D01*
X154025500Y-80212603D01*
X154025500Y-80137396D01*
X157474500Y-80137396D01*
X157474500Y-80262603D01*
X157506904Y-80383535D01*
X157540638Y-80441964D01*
X157569505Y-80491964D01*
X157658036Y-80580495D01*
X157766464Y-80643095D01*
X157766463Y-80643095D01*
X157836286Y-80661804D01*
X157887396Y-80675499D01*
X157887397Y-80675500D01*
X157887399Y-80675500D01*
X158012603Y-80675500D01*
X158012603Y-80675499D01*
X158133536Y-80643095D01*
X158241964Y-80580495D01*
X158330495Y-80491964D01*
X158393095Y-80383536D01*
X158425499Y-80262603D01*
X158425500Y-80262603D01*
X158425500Y-80137397D01*
X158425499Y-80137396D01*
X158422311Y-80125500D01*
X158393095Y-80016464D01*
X158330495Y-79908036D01*
X158241964Y-79819505D01*
X158241963Y-79819504D01*
X158133534Y-79756904D01*
X158133536Y-79756904D01*
X158012603Y-79724500D01*
X158012601Y-79724500D01*
X157887399Y-79724500D01*
X157887397Y-79724500D01*
X157766464Y-79756904D01*
X157658036Y-79819504D01*
X157569504Y-79908036D01*
X157506904Y-80016464D01*
X157474500Y-80137396D01*
X154025500Y-80137396D01*
X154025500Y-80087397D01*
X154025499Y-80087396D01*
X154022311Y-80075500D01*
X153993095Y-79966464D01*
X153930495Y-79858036D01*
X153841964Y-79769505D01*
X153841963Y-79769504D01*
X153733534Y-79706904D01*
X153733536Y-79706904D01*
X153612603Y-79674500D01*
X153612601Y-79674500D01*
X153487399Y-79674500D01*
X153487397Y-79674500D01*
X153366464Y-79706904D01*
X153258036Y-79769504D01*
X153169504Y-79858036D01*
X153106904Y-79966464D01*
X153074500Y-80087396D01*
X122993407Y-80087396D01*
X123091964Y-80030495D01*
X123180495Y-79941964D01*
X123243095Y-79833536D01*
X123275499Y-79712603D01*
X123275500Y-79712603D01*
X123275500Y-79587397D01*
X123265935Y-79551703D01*
X123265935Y-79551702D01*
X123262102Y-79537396D01*
X155774500Y-79537396D01*
X155774500Y-79662603D01*
X155806904Y-79783535D01*
X155835772Y-79833535D01*
X155869505Y-79891964D01*
X155958036Y-79980495D01*
X156066464Y-80043095D01*
X156066463Y-80043095D01*
X156133550Y-80061071D01*
X156187396Y-80075499D01*
X156187397Y-80075500D01*
X156187399Y-80075500D01*
X156312603Y-80075500D01*
X156312603Y-80075499D01*
X156336463Y-80069105D01*
X156366452Y-80061071D01*
X156412418Y-80048753D01*
X156433536Y-80043095D01*
X156541964Y-79980495D01*
X156630495Y-79891964D01*
X156693095Y-79783536D01*
X156725499Y-79662603D01*
X156725500Y-79662603D01*
X156725500Y-79537397D01*
X156725499Y-79537396D01*
X156693095Y-79416464D01*
X156630495Y-79308036D01*
X156541963Y-79219504D01*
X156433534Y-79156904D01*
X156433536Y-79156904D01*
X156312603Y-79124500D01*
X156312601Y-79124500D01*
X156187399Y-79124500D01*
X156187397Y-79124500D01*
X156066464Y-79156904D01*
X155958036Y-79219504D01*
X155869504Y-79308036D01*
X155806904Y-79416464D01*
X155774500Y-79537396D01*
X123262102Y-79537396D01*
X123243095Y-79466464D01*
X123180495Y-79358036D01*
X123091963Y-79269504D01*
X123076370Y-79260501D01*
X123041892Y-79215567D01*
X123049284Y-79159418D01*
X123093095Y-79083536D01*
X123125499Y-78962603D01*
X123125500Y-78962603D01*
X123125500Y-78837397D01*
X123125499Y-78837396D01*
X123113325Y-78791964D01*
X123093095Y-78716464D01*
X123030495Y-78608036D01*
X122941964Y-78519505D01*
X122941963Y-78519504D01*
X122833534Y-78456904D01*
X122833536Y-78456904D01*
X122712603Y-78424500D01*
X122712601Y-78424500D01*
X122587399Y-78424500D01*
X122587397Y-78424500D01*
X122466464Y-78456904D01*
X122358036Y-78519504D01*
X122269504Y-78608036D01*
X122206904Y-78716464D01*
X122174500Y-78837396D01*
X118111840Y-78837396D01*
X118180520Y-78768716D01*
X118259577Y-78631784D01*
X118300499Y-78479059D01*
X118300500Y-78479059D01*
X118300500Y-78320941D01*
X118300499Y-78320940D01*
X118289823Y-78281098D01*
X118264716Y-78187396D01*
X125024500Y-78187396D01*
X125024500Y-78312603D01*
X125056904Y-78433535D01*
X125106538Y-78519504D01*
X125119505Y-78541964D01*
X125208036Y-78630495D01*
X125316464Y-78693095D01*
X125316463Y-78693095D01*
X125386286Y-78711804D01*
X125437396Y-78725499D01*
X125437397Y-78725500D01*
X125437399Y-78725500D01*
X125450500Y-78725500D01*
X125502826Y-78747174D01*
X125524500Y-78799500D01*
X125524500Y-78922603D01*
X125556904Y-79043535D01*
X125603649Y-79124500D01*
X125619505Y-79151964D01*
X125708036Y-79240495D01*
X125816464Y-79303095D01*
X125816463Y-79303095D01*
X125886286Y-79321804D01*
X125937396Y-79335499D01*
X125937397Y-79335500D01*
X125937399Y-79335500D01*
X126062603Y-79335500D01*
X126062603Y-79335499D01*
X126183536Y-79303095D01*
X126291964Y-79240495D01*
X126380495Y-79151964D01*
X126443095Y-79043536D01*
X126475499Y-78922603D01*
X126475500Y-78922603D01*
X126475500Y-78797397D01*
X126475499Y-78797396D01*
X126474043Y-78791964D01*
X126443095Y-78676464D01*
X126380495Y-78568036D01*
X126291964Y-78479505D01*
X126291963Y-78479504D01*
X126219028Y-78437396D01*
X150974500Y-78437396D01*
X150974500Y-78562603D01*
X151006904Y-78683535D01*
X151043646Y-78747174D01*
X151069505Y-78791964D01*
X151158036Y-78880495D01*
X151266464Y-78943095D01*
X151266463Y-78943095D01*
X151327978Y-78959578D01*
X151387396Y-78975499D01*
X151387397Y-78975500D01*
X151387399Y-78975500D01*
X151512603Y-78975500D01*
X151512603Y-78975499D01*
X151633536Y-78943095D01*
X151741964Y-78880495D01*
X151830495Y-78791964D01*
X151893095Y-78683536D01*
X151925499Y-78562603D01*
X151925500Y-78562603D01*
X151925500Y-78437397D01*
X151925499Y-78437396D01*
X151924464Y-78433535D01*
X151911326Y-78384500D01*
X151907904Y-78371729D01*
X151915296Y-78315576D01*
X151960229Y-78281098D01*
X151998534Y-78281098D01*
X152070940Y-78300499D01*
X152070941Y-78300500D01*
X152070943Y-78300500D01*
X152229059Y-78300500D01*
X152229059Y-78300499D01*
X152381784Y-78259577D01*
X152518716Y-78180520D01*
X152630520Y-78068716D01*
X152709577Y-77931784D01*
X152750499Y-77779059D01*
X152750500Y-77779059D01*
X152750500Y-77620941D01*
X152750499Y-77620940D01*
X155149500Y-77620940D01*
X155149500Y-77779059D01*
X155190421Y-77931779D01*
X155190422Y-77931781D01*
X155190423Y-77931784D01*
X155269480Y-78068716D01*
X155381284Y-78180520D01*
X155518216Y-78259577D01*
X155670940Y-78300499D01*
X155670941Y-78300500D01*
X155670943Y-78300500D01*
X155829059Y-78300500D01*
X155829059Y-78300499D01*
X155981784Y-78259577D01*
X156118716Y-78180520D01*
X156230520Y-78068716D01*
X156309577Y-77931784D01*
X156350499Y-77779059D01*
X156350500Y-77779059D01*
X156350500Y-77620941D01*
X156350499Y-77620940D01*
X156309578Y-77468220D01*
X156309577Y-77468216D01*
X156230520Y-77331284D01*
X156118716Y-77219480D01*
X155981784Y-77140423D01*
X155981781Y-77140422D01*
X155981779Y-77140421D01*
X155829059Y-77099500D01*
X155829057Y-77099500D01*
X155670943Y-77099500D01*
X155670941Y-77099500D01*
X155518220Y-77140421D01*
X155518214Y-77140424D01*
X155381283Y-77219480D01*
X155269480Y-77331283D01*
X155190424Y-77468214D01*
X155190421Y-77468220D01*
X155149500Y-77620940D01*
X152750499Y-77620940D01*
X152709578Y-77468220D01*
X152709577Y-77468216D01*
X152630520Y-77331284D01*
X152538173Y-77238937D01*
X152516499Y-77186611D01*
X152538172Y-77134286D01*
X152580495Y-77091964D01*
X152643095Y-76983536D01*
X152675499Y-76862603D01*
X152675500Y-76862603D01*
X152675500Y-76737397D01*
X152675499Y-76737396D01*
X152643095Y-76616464D01*
X152580495Y-76508036D01*
X152491963Y-76419504D01*
X152383534Y-76356904D01*
X152383536Y-76356904D01*
X152262603Y-76324500D01*
X152262601Y-76324500D01*
X152137399Y-76324500D01*
X152137397Y-76324500D01*
X152016464Y-76356904D01*
X151908036Y-76419504D01*
X151819504Y-76508036D01*
X151756904Y-76616464D01*
X151724500Y-76737396D01*
X151724500Y-76862603D01*
X151756904Y-76983535D01*
X151819504Y-77091963D01*
X151822458Y-77095813D01*
X151820830Y-77097061D01*
X151839838Y-77142949D01*
X151818164Y-77195275D01*
X151802840Y-77207034D01*
X151781283Y-77219480D01*
X151669480Y-77331283D01*
X151590424Y-77468214D01*
X151590421Y-77468220D01*
X151549500Y-77620940D01*
X151549500Y-77779059D01*
X151590356Y-77931534D01*
X151582964Y-77987687D01*
X151538031Y-78022165D01*
X151517451Y-78023520D01*
X151517451Y-78024500D01*
X151387397Y-78024500D01*
X151266464Y-78056904D01*
X151158036Y-78119504D01*
X151069504Y-78208036D01*
X151006904Y-78316464D01*
X150974500Y-78437396D01*
X126219028Y-78437396D01*
X126183534Y-78416904D01*
X126183536Y-78416904D01*
X126062603Y-78384500D01*
X126062601Y-78384500D01*
X126049500Y-78384500D01*
X125997174Y-78362826D01*
X125975500Y-78310500D01*
X125975500Y-78187397D01*
X125975499Y-78187396D01*
X125957307Y-78119505D01*
X125943095Y-78066464D01*
X125880495Y-77958036D01*
X125791964Y-77869505D01*
X125791963Y-77869504D01*
X125683534Y-77806904D01*
X125683536Y-77806904D01*
X125562603Y-77774500D01*
X125562601Y-77774500D01*
X125437399Y-77774500D01*
X125437397Y-77774500D01*
X125316464Y-77806904D01*
X125208036Y-77869504D01*
X125119504Y-77958036D01*
X125056904Y-78066464D01*
X125024500Y-78187396D01*
X118264716Y-78187396D01*
X118259577Y-78168216D01*
X118180520Y-78031284D01*
X118068716Y-77919480D01*
X117931784Y-77840423D01*
X117931781Y-77840422D01*
X117931779Y-77840421D01*
X117779059Y-77799500D01*
X117779057Y-77799500D01*
X117620943Y-77799500D01*
X117620941Y-77799500D01*
X117468220Y-77840421D01*
X117468214Y-77840424D01*
X117331283Y-77919480D01*
X117219480Y-78031283D01*
X117140424Y-78168214D01*
X117140421Y-78168220D01*
X117099500Y-78320940D01*
X100500500Y-78320940D01*
X100500500Y-77587396D01*
X122524500Y-77587396D01*
X122524500Y-77712603D01*
X122556904Y-77833535D01*
X122613628Y-77931784D01*
X122619505Y-77941964D01*
X122708036Y-78030495D01*
X122816464Y-78093095D01*
X122816463Y-78093095D01*
X122883550Y-78111071D01*
X122937396Y-78125499D01*
X122937397Y-78125500D01*
X122937399Y-78125500D01*
X123062603Y-78125500D01*
X123062603Y-78125499D01*
X123086463Y-78119105D01*
X123116452Y-78111071D01*
X123162418Y-78098753D01*
X123183536Y-78093095D01*
X123291964Y-78030495D01*
X123380495Y-77941964D01*
X123443095Y-77833536D01*
X123475499Y-77712603D01*
X123475500Y-77712603D01*
X123475500Y-77587397D01*
X123475499Y-77587396D01*
X123443095Y-77466464D01*
X123380495Y-77358036D01*
X123291963Y-77269504D01*
X123183534Y-77206904D01*
X123183536Y-77206904D01*
X123062603Y-77174500D01*
X123062601Y-77174500D01*
X122937399Y-77174500D01*
X122937397Y-77174500D01*
X122816464Y-77206904D01*
X122708036Y-77269504D01*
X122619504Y-77358036D01*
X122556904Y-77466464D01*
X122524500Y-77587396D01*
X100500500Y-77587396D01*
X100500500Y-76237396D01*
X142524500Y-76237396D01*
X142524500Y-76362603D01*
X142556904Y-76483535D01*
X142571050Y-76508036D01*
X142619505Y-76591964D01*
X142708036Y-76680495D01*
X142816464Y-76743095D01*
X142816463Y-76743095D01*
X142886286Y-76761804D01*
X142937396Y-76775499D01*
X142937397Y-76775500D01*
X142937399Y-76775500D01*
X143062603Y-76775500D01*
X143062603Y-76775499D01*
X143183536Y-76743095D01*
X143291964Y-76680495D01*
X143380495Y-76591964D01*
X143443095Y-76483536D01*
X143475499Y-76362603D01*
X143475500Y-76362603D01*
X143475500Y-76237397D01*
X143475499Y-76237396D01*
X143443095Y-76116464D01*
X143380495Y-76008036D01*
X143291963Y-75919504D01*
X143183534Y-75856904D01*
X143183536Y-75856904D01*
X143062603Y-75824500D01*
X143062601Y-75824500D01*
X142937399Y-75824500D01*
X142937397Y-75824500D01*
X142816464Y-75856904D01*
X142708036Y-75919504D01*
X142619504Y-76008036D01*
X142556904Y-76116464D01*
X142524500Y-76237396D01*
X100500500Y-76237396D01*
X100500500Y-73878713D01*
X102149500Y-73878713D01*
X102149500Y-74121286D01*
X102181160Y-74361782D01*
X102181162Y-74361791D01*
X102243945Y-74596099D01*
X102336772Y-74820203D01*
X102336775Y-74820211D01*
X102458061Y-75030285D01*
X102458065Y-75030291D01*
X102569487Y-75175499D01*
X102605735Y-75222738D01*
X102777262Y-75394265D01*
X102969711Y-75541936D01*
X103179788Y-75663224D01*
X103403900Y-75756054D01*
X103638211Y-75818838D01*
X103638214Y-75818838D01*
X103638217Y-75818839D01*
X103726756Y-75830495D01*
X103878712Y-75850500D01*
X103878714Y-75850500D01*
X104121286Y-75850500D01*
X104121288Y-75850500D01*
X104318781Y-75824500D01*
X104361782Y-75818839D01*
X104361782Y-75818838D01*
X104361789Y-75818838D01*
X104596100Y-75756054D01*
X104820212Y-75663224D01*
X105030289Y-75541936D01*
X105222738Y-75394265D01*
X105394265Y-75222738D01*
X105541936Y-75030289D01*
X105663224Y-74820212D01*
X105697527Y-74737396D01*
X120274500Y-74737396D01*
X120274500Y-74862603D01*
X120306904Y-74983535D01*
X120356538Y-75069504D01*
X120369505Y-75091964D01*
X120458036Y-75180495D01*
X120566464Y-75243095D01*
X120566463Y-75243095D01*
X120636286Y-75261804D01*
X120687396Y-75275499D01*
X120687397Y-75275500D01*
X120687399Y-75275500D01*
X120812603Y-75275500D01*
X120812603Y-75275499D01*
X120933536Y-75243095D01*
X121041964Y-75180495D01*
X121130495Y-75091964D01*
X121193095Y-74983536D01*
X121225499Y-74862603D01*
X121225500Y-74862603D01*
X121225500Y-74737397D01*
X121225499Y-74737396D01*
X121202538Y-74651702D01*
X121198704Y-74637396D01*
X121774500Y-74637396D01*
X121774500Y-74762603D01*
X121806904Y-74883535D01*
X121866868Y-74987396D01*
X121869505Y-74991964D01*
X121958036Y-75080495D01*
X122066464Y-75143095D01*
X122066463Y-75143095D01*
X122136286Y-75161804D01*
X122187396Y-75175499D01*
X122187397Y-75175500D01*
X122187399Y-75175500D01*
X122312603Y-75175500D01*
X122312603Y-75175499D01*
X122433536Y-75143095D01*
X122541964Y-75080495D01*
X122630495Y-74991964D01*
X122633132Y-74987396D01*
X125024500Y-74987396D01*
X125024500Y-75112603D01*
X125056904Y-75233535D01*
X125081133Y-75275500D01*
X125119505Y-75341964D01*
X125208036Y-75430495D01*
X125316464Y-75493095D01*
X125316463Y-75493095D01*
X125386286Y-75511804D01*
X125437396Y-75525499D01*
X125437397Y-75525500D01*
X125437399Y-75525500D01*
X125562603Y-75525500D01*
X125562603Y-75525499D01*
X125683536Y-75493095D01*
X125791964Y-75430495D01*
X125835063Y-75387396D01*
X145474500Y-75387396D01*
X145474500Y-75512603D01*
X145506904Y-75633535D01*
X145524047Y-75663227D01*
X145569505Y-75741964D01*
X145658036Y-75830495D01*
X145766464Y-75893095D01*
X145766463Y-75893095D01*
X145836286Y-75911804D01*
X145887396Y-75925499D01*
X145887397Y-75925500D01*
X145887399Y-75925500D01*
X146012603Y-75925500D01*
X146012603Y-75925499D01*
X146133536Y-75893095D01*
X146241964Y-75830495D01*
X146330495Y-75741964D01*
X146393095Y-75633536D01*
X146425499Y-75512603D01*
X146425500Y-75512603D01*
X146425500Y-75387397D01*
X146425499Y-75387396D01*
X146413325Y-75341964D01*
X146393095Y-75266464D01*
X146330495Y-75158036D01*
X146241964Y-75069505D01*
X146241963Y-75069504D01*
X146133534Y-75006904D01*
X146133536Y-75006904D01*
X146012603Y-74974500D01*
X146012601Y-74974500D01*
X145887399Y-74974500D01*
X145887397Y-74974500D01*
X145766464Y-75006904D01*
X145658036Y-75069504D01*
X145569504Y-75158036D01*
X145506904Y-75266464D01*
X145474500Y-75387396D01*
X125835063Y-75387396D01*
X125880495Y-75341964D01*
X125943095Y-75233536D01*
X125945989Y-75222738D01*
X125952722Y-75197607D01*
X125975499Y-75112603D01*
X125975500Y-75112603D01*
X125975500Y-74987397D01*
X125975499Y-74987396D01*
X125974464Y-74983535D01*
X125943095Y-74866464D01*
X125880495Y-74758036D01*
X125791964Y-74669505D01*
X125791963Y-74669504D01*
X125683534Y-74606904D01*
X125683536Y-74606904D01*
X125562603Y-74574500D01*
X125562601Y-74574500D01*
X125437399Y-74574500D01*
X125437397Y-74574500D01*
X125316464Y-74606904D01*
X125208036Y-74669504D01*
X125119504Y-74758036D01*
X125056904Y-74866464D01*
X125024500Y-74987396D01*
X122633132Y-74987396D01*
X122693095Y-74883536D01*
X122725499Y-74762603D01*
X122725500Y-74762603D01*
X122725500Y-74637397D01*
X122725499Y-74637396D01*
X122714433Y-74596099D01*
X122693095Y-74516464D01*
X122630495Y-74408036D01*
X122541964Y-74319505D01*
X122541963Y-74319504D01*
X122433534Y-74256904D01*
X122433536Y-74256904D01*
X122312603Y-74224500D01*
X122312601Y-74224500D01*
X122187399Y-74224500D01*
X122187397Y-74224500D01*
X122066464Y-74256904D01*
X121958036Y-74319504D01*
X121869504Y-74408036D01*
X121806904Y-74516464D01*
X121774500Y-74637396D01*
X121198704Y-74637396D01*
X121193095Y-74616463D01*
X121130495Y-74508036D01*
X121041963Y-74419504D01*
X120933534Y-74356904D01*
X120933536Y-74356904D01*
X120812603Y-74324500D01*
X120812601Y-74324500D01*
X120687399Y-74324500D01*
X120687397Y-74324500D01*
X120566464Y-74356904D01*
X120458036Y-74419504D01*
X120369504Y-74508036D01*
X120306904Y-74616464D01*
X120274500Y-74737396D01*
X105697527Y-74737396D01*
X105756054Y-74596100D01*
X105818838Y-74361789D01*
X105850500Y-74121288D01*
X105850500Y-73878712D01*
X105833489Y-73749500D01*
X105818839Y-73638217D01*
X105818837Y-73638208D01*
X105810449Y-73606905D01*
X105756054Y-73403900D01*
X105663224Y-73179788D01*
X105638749Y-73137396D01*
X142624500Y-73137396D01*
X142624500Y-73262603D01*
X142656904Y-73383535D01*
X142703072Y-73463500D01*
X142719505Y-73491964D01*
X142808036Y-73580495D01*
X142916464Y-73643095D01*
X142916463Y-73643095D01*
X142986286Y-73661804D01*
X143037396Y-73675499D01*
X143037397Y-73675500D01*
X143088986Y-73675500D01*
X143141312Y-73697174D01*
X143162986Y-73749500D01*
X143153072Y-73786500D01*
X143106903Y-73866466D01*
X143074500Y-73987396D01*
X143074500Y-74112603D01*
X143106904Y-74233535D01*
X143156538Y-74319504D01*
X143169505Y-74341964D01*
X143258036Y-74430495D01*
X143366464Y-74493095D01*
X143366463Y-74493095D01*
X143436286Y-74511804D01*
X143487396Y-74525499D01*
X143487397Y-74525500D01*
X143487399Y-74525500D01*
X143612603Y-74525500D01*
X143612603Y-74525499D01*
X143733536Y-74493095D01*
X143841964Y-74430495D01*
X143930495Y-74341964D01*
X143993095Y-74233536D01*
X144025499Y-74112603D01*
X144025500Y-74112603D01*
X144025500Y-73987397D01*
X144025499Y-73987396D01*
X144000860Y-73895443D01*
X143996377Y-73878713D01*
X158149500Y-73878713D01*
X158149500Y-74121286D01*
X158181160Y-74361782D01*
X158181162Y-74361791D01*
X158243945Y-74596099D01*
X158336772Y-74820203D01*
X158336775Y-74820211D01*
X158458061Y-75030285D01*
X158458065Y-75030291D01*
X158569487Y-75175499D01*
X158605735Y-75222738D01*
X158777262Y-75394265D01*
X158969711Y-75541936D01*
X159179788Y-75663224D01*
X159403900Y-75756054D01*
X159638211Y-75818838D01*
X159638214Y-75818838D01*
X159638217Y-75818839D01*
X159726756Y-75830495D01*
X159878712Y-75850500D01*
X159878714Y-75850500D01*
X160121286Y-75850500D01*
X160121288Y-75850500D01*
X160318781Y-75824500D01*
X160361782Y-75818839D01*
X160361782Y-75818838D01*
X160361789Y-75818838D01*
X160596100Y-75756054D01*
X160820212Y-75663224D01*
X161030289Y-75541936D01*
X161222738Y-75394265D01*
X161394265Y-75222738D01*
X161541936Y-75030289D01*
X161663224Y-74820212D01*
X161756054Y-74596100D01*
X161818838Y-74361789D01*
X161850500Y-74121288D01*
X161850500Y-73878712D01*
X161833489Y-73749500D01*
X161818839Y-73638217D01*
X161818837Y-73638208D01*
X161810449Y-73606905D01*
X161756054Y-73403900D01*
X161663224Y-73179788D01*
X161541936Y-72969711D01*
X161394265Y-72777262D01*
X161222738Y-72605735D01*
X161030291Y-72458065D01*
X161030285Y-72458061D01*
X160820211Y-72336775D01*
X160820203Y-72336772D01*
X160596099Y-72243945D01*
X160361791Y-72181162D01*
X160361782Y-72181160D01*
X160168480Y-72155712D01*
X160121288Y-72149500D01*
X159878712Y-72149500D01*
X159835736Y-72155157D01*
X159638217Y-72181160D01*
X159638208Y-72181162D01*
X159403900Y-72243945D01*
X159179796Y-72336772D01*
X159179788Y-72336775D01*
X158969714Y-72458061D01*
X158969708Y-72458065D01*
X158777261Y-72605735D01*
X158605735Y-72777261D01*
X158458065Y-72969708D01*
X158458061Y-72969714D01*
X158336775Y-73179788D01*
X158336772Y-73179796D01*
X158243945Y-73403900D01*
X158181162Y-73638208D01*
X158181160Y-73638217D01*
X158152606Y-73855115D01*
X158151113Y-73866464D01*
X158149500Y-73878713D01*
X143996377Y-73878713D01*
X143993095Y-73866464D01*
X143930495Y-73758036D01*
X143841964Y-73669505D01*
X143841963Y-73669504D01*
X143733534Y-73606904D01*
X143733536Y-73606904D01*
X143612603Y-73574500D01*
X143612601Y-73574500D01*
X143561014Y-73574500D01*
X143508688Y-73552826D01*
X143487014Y-73500500D01*
X143496928Y-73463500D01*
X143543095Y-73383536D01*
X143575499Y-73262603D01*
X143575500Y-73262603D01*
X143575500Y-73137397D01*
X143575499Y-73137396D01*
X143543095Y-73016464D01*
X143480495Y-72908036D01*
X143391963Y-72819504D01*
X143283534Y-72756904D01*
X143283536Y-72756904D01*
X143162603Y-72724500D01*
X143162601Y-72724500D01*
X143037399Y-72724500D01*
X143037397Y-72724500D01*
X142916464Y-72756904D01*
X142808036Y-72819504D01*
X142719504Y-72908036D01*
X142656904Y-73016464D01*
X142624500Y-73137396D01*
X105638749Y-73137396D01*
X105541936Y-72969711D01*
X105394265Y-72777262D01*
X105222738Y-72605735D01*
X105030291Y-72458065D01*
X105030285Y-72458061D01*
X104820211Y-72336775D01*
X104820203Y-72336772D01*
X104596099Y-72243945D01*
X104361791Y-72181162D01*
X104361782Y-72181160D01*
X104168480Y-72155712D01*
X104121288Y-72149500D01*
X103878712Y-72149500D01*
X103835736Y-72155157D01*
X103638217Y-72181160D01*
X103638208Y-72181162D01*
X103403900Y-72243945D01*
X103179796Y-72336772D01*
X103179788Y-72336775D01*
X102969714Y-72458061D01*
X102969708Y-72458065D01*
X102777261Y-72605735D01*
X102605735Y-72777261D01*
X102458065Y-72969708D01*
X102458061Y-72969714D01*
X102336775Y-73179788D01*
X102336772Y-73179796D01*
X102243945Y-73403900D01*
X102181162Y-73638208D01*
X102181160Y-73638217D01*
X102152606Y-73855115D01*
X102151113Y-73866464D01*
X102149500Y-73878713D01*
X100500500Y-73878713D01*
X100500500Y-70574500D01*
X100522174Y-70522174D01*
X100574500Y-70500500D01*
X163425500Y-70500500D01*
X163477826Y-70522174D01*
G37*
G04 #@! TD.AperFunction*
M02*
