G04 #@! TF.GenerationSoftware,KiCad,Pcbnew,10.0.1*
G04 #@! TF.CreationDate,2026-09-07T20:03:12-05:00*
G04 #@! TF.ProjectId,alec-main,616c6563-2d6d-4616-996e-2e6b69636164,rev?*
G04 #@! TF.SameCoordinates,Original*
G04 #@! TF.FileFunction,Legend,Bot*
G04 #@! TF.FilePolarity,Positive*
%FSLAX46Y46*%
G04 Gerber Fmt 4.6, Leading zero omitted, Abs format (unit mm)*
G04 Created by KiCad (PCBNEW 10.0.1) date 2026-09-07 20:03:12*
%MOMM*%
%LPD*%
G01*
G04 APERTURE LIST*
%ADD10C,0.150000*%
%ADD11C,0.120000*%
%ADD12C,3.200000*%
%ADD13C,0.650000*%
%ADD14O,2.100000X1.000000*%
%ADD15O,1.600000X1.000000*%
%ADD16R,1.700000X1.700000*%
%ADD17C,1.700000*%
%ADD18C,1.000000*%
G04 APERTURE END LIST*
D10*
X113047619Y-121454819D02*
X113047619Y-122169104D01*
X113047619Y-122169104D02*
X113095238Y-122311961D01*
X113095238Y-122311961D02*
X113190476Y-122407200D01*
X113190476Y-122407200D02*
X113333333Y-122454819D01*
X113333333Y-122454819D02*
X113428571Y-122454819D01*
X112095238Y-121454819D02*
X112571428Y-121454819D01*
X112571428Y-121454819D02*
X112619047Y-121931009D01*
X112619047Y-121931009D02*
X112571428Y-121883390D01*
X112571428Y-121883390D02*
X112476190Y-121835771D01*
X112476190Y-121835771D02*
X112238095Y-121835771D01*
X112238095Y-121835771D02*
X112142857Y-121883390D01*
X112142857Y-121883390D02*
X112095238Y-121931009D01*
X112095238Y-121931009D02*
X112047619Y-122026247D01*
X112047619Y-122026247D02*
X112047619Y-122264342D01*
X112047619Y-122264342D02*
X112095238Y-122359580D01*
X112095238Y-122359580D02*
X112142857Y-122407200D01*
X112142857Y-122407200D02*
X112238095Y-122454819D01*
X112238095Y-122454819D02*
X112476190Y-122454819D01*
X112476190Y-122454819D02*
X112571428Y-122407200D01*
X112571428Y-122407200D02*
X112619047Y-122359580D01*
X110904761Y-122407200D02*
X110761904Y-122454819D01*
X110761904Y-122454819D02*
X110523809Y-122454819D01*
X110523809Y-122454819D02*
X110428571Y-122407200D01*
X110428571Y-122407200D02*
X110380952Y-122359580D01*
X110380952Y-122359580D02*
X110333333Y-122264342D01*
X110333333Y-122264342D02*
X110333333Y-122169104D01*
X110333333Y-122169104D02*
X110380952Y-122073866D01*
X110380952Y-122073866D02*
X110428571Y-122026247D01*
X110428571Y-122026247D02*
X110523809Y-121978628D01*
X110523809Y-121978628D02*
X110714285Y-121931009D01*
X110714285Y-121931009D02*
X110809523Y-121883390D01*
X110809523Y-121883390D02*
X110857142Y-121835771D01*
X110857142Y-121835771D02*
X110904761Y-121740533D01*
X110904761Y-121740533D02*
X110904761Y-121645295D01*
X110904761Y-121645295D02*
X110857142Y-121550057D01*
X110857142Y-121550057D02*
X110809523Y-121502438D01*
X110809523Y-121502438D02*
X110714285Y-121454819D01*
X110714285Y-121454819D02*
X110476190Y-121454819D01*
X110476190Y-121454819D02*
X110333333Y-121502438D01*
X109904761Y-121931009D02*
X109571428Y-121931009D01*
X109428571Y-122454819D02*
X109904761Y-122454819D01*
X109904761Y-122454819D02*
X109904761Y-121454819D01*
X109904761Y-121454819D02*
X109428571Y-121454819D01*
X109142856Y-121454819D02*
X108571428Y-121454819D01*
X108857142Y-122454819D02*
X108857142Y-121454819D01*
X108238094Y-121454819D02*
X108238094Y-122264342D01*
X108238094Y-122264342D02*
X108190475Y-122359580D01*
X108190475Y-122359580D02*
X108142856Y-122407200D01*
X108142856Y-122407200D02*
X108047618Y-122454819D01*
X108047618Y-122454819D02*
X107857142Y-122454819D01*
X107857142Y-122454819D02*
X107761904Y-122407200D01*
X107761904Y-122407200D02*
X107714285Y-122359580D01*
X107714285Y-122359580D02*
X107666666Y-122264342D01*
X107666666Y-122264342D02*
X107666666Y-121454819D01*
X107190475Y-122454819D02*
X107190475Y-121454819D01*
X107190475Y-121454819D02*
X106809523Y-121454819D01*
X106809523Y-121454819D02*
X106714285Y-121502438D01*
X106714285Y-121502438D02*
X106666666Y-121550057D01*
X106666666Y-121550057D02*
X106619047Y-121645295D01*
X106619047Y-121645295D02*
X106619047Y-121788152D01*
X106619047Y-121788152D02*
X106666666Y-121883390D01*
X106666666Y-121883390D02*
X106714285Y-121931009D01*
X106714285Y-121931009D02*
X106809523Y-121978628D01*
X106809523Y-121978628D02*
X107190475Y-121978628D01*
X128547619Y-121454819D02*
X128547619Y-122169104D01*
X128547619Y-122169104D02*
X128595238Y-122311961D01*
X128595238Y-122311961D02*
X128690476Y-122407200D01*
X128690476Y-122407200D02*
X128833333Y-122454819D01*
X128833333Y-122454819D02*
X128928571Y-122454819D01*
X128166666Y-121454819D02*
X127500000Y-121454819D01*
X127500000Y-121454819D02*
X127928571Y-122454819D01*
X126357142Y-121454819D02*
X126357142Y-122264342D01*
X126357142Y-122264342D02*
X126309523Y-122359580D01*
X126309523Y-122359580D02*
X126261904Y-122407200D01*
X126261904Y-122407200D02*
X126166666Y-122454819D01*
X126166666Y-122454819D02*
X125976190Y-122454819D01*
X125976190Y-122454819D02*
X125880952Y-122407200D01*
X125880952Y-122407200D02*
X125833333Y-122359580D01*
X125833333Y-122359580D02*
X125785714Y-122264342D01*
X125785714Y-122264342D02*
X125785714Y-121454819D01*
X125357142Y-122169104D02*
X124880952Y-122169104D01*
X125452380Y-122454819D02*
X125119047Y-121454819D01*
X125119047Y-121454819D02*
X124785714Y-122454819D01*
X123880952Y-122454819D02*
X124214285Y-121978628D01*
X124452380Y-122454819D02*
X124452380Y-121454819D01*
X124452380Y-121454819D02*
X124071428Y-121454819D01*
X124071428Y-121454819D02*
X123976190Y-121502438D01*
X123976190Y-121502438D02*
X123928571Y-121550057D01*
X123928571Y-121550057D02*
X123880952Y-121645295D01*
X123880952Y-121645295D02*
X123880952Y-121788152D01*
X123880952Y-121788152D02*
X123928571Y-121883390D01*
X123928571Y-121883390D02*
X123976190Y-121931009D01*
X123976190Y-121931009D02*
X124071428Y-121978628D01*
X124071428Y-121978628D02*
X124452380Y-121978628D01*
X123595237Y-121454819D02*
X123023809Y-121454819D01*
X123309523Y-122454819D02*
X123309523Y-121454819D01*
X148071428Y-121454819D02*
X148071428Y-122169104D01*
X148071428Y-122169104D02*
X148119047Y-122311961D01*
X148119047Y-122311961D02*
X148214285Y-122407200D01*
X148214285Y-122407200D02*
X148357142Y-122454819D01*
X148357142Y-122454819D02*
X148452380Y-122454819D01*
X147166666Y-121454819D02*
X147357142Y-121454819D01*
X147357142Y-121454819D02*
X147452380Y-121502438D01*
X147452380Y-121502438D02*
X147499999Y-121550057D01*
X147499999Y-121550057D02*
X147595237Y-121692914D01*
X147595237Y-121692914D02*
X147642856Y-121883390D01*
X147642856Y-121883390D02*
X147642856Y-122264342D01*
X147642856Y-122264342D02*
X147595237Y-122359580D01*
X147595237Y-122359580D02*
X147547618Y-122407200D01*
X147547618Y-122407200D02*
X147452380Y-122454819D01*
X147452380Y-122454819D02*
X147261904Y-122454819D01*
X147261904Y-122454819D02*
X147166666Y-122407200D01*
X147166666Y-122407200D02*
X147119047Y-122359580D01*
X147119047Y-122359580D02*
X147071428Y-122264342D01*
X147071428Y-122264342D02*
X147071428Y-122026247D01*
X147071428Y-122026247D02*
X147119047Y-121931009D01*
X147119047Y-121931009D02*
X147166666Y-121883390D01*
X147166666Y-121883390D02*
X147261904Y-121835771D01*
X147261904Y-121835771D02*
X147452380Y-121835771D01*
X147452380Y-121835771D02*
X147547618Y-121883390D01*
X147547618Y-121883390D02*
X147595237Y-121931009D01*
X147595237Y-121931009D02*
X147642856Y-122026247D01*
X145547618Y-121931009D02*
X145880951Y-121931009D01*
X145880951Y-122454819D02*
X145880951Y-121454819D01*
X145880951Y-121454819D02*
X145404761Y-121454819D01*
X144452380Y-122454819D02*
X144785713Y-121978628D01*
X145023808Y-122454819D02*
X145023808Y-121454819D01*
X145023808Y-121454819D02*
X144642856Y-121454819D01*
X144642856Y-121454819D02*
X144547618Y-121502438D01*
X144547618Y-121502438D02*
X144499999Y-121550057D01*
X144499999Y-121550057D02*
X144452380Y-121645295D01*
X144452380Y-121645295D02*
X144452380Y-121788152D01*
X144452380Y-121788152D02*
X144499999Y-121883390D01*
X144499999Y-121883390D02*
X144547618Y-121931009D01*
X144547618Y-121931009D02*
X144642856Y-121978628D01*
X144642856Y-121978628D02*
X145023808Y-121978628D01*
X143833332Y-121454819D02*
X143642856Y-121454819D01*
X143642856Y-121454819D02*
X143547618Y-121502438D01*
X143547618Y-121502438D02*
X143452380Y-121597676D01*
X143452380Y-121597676D02*
X143404761Y-121788152D01*
X143404761Y-121788152D02*
X143404761Y-122121485D01*
X143404761Y-122121485D02*
X143452380Y-122311961D01*
X143452380Y-122311961D02*
X143547618Y-122407200D01*
X143547618Y-122407200D02*
X143642856Y-122454819D01*
X143642856Y-122454819D02*
X143833332Y-122454819D01*
X143833332Y-122454819D02*
X143928570Y-122407200D01*
X143928570Y-122407200D02*
X144023808Y-122311961D01*
X144023808Y-122311961D02*
X144071427Y-122121485D01*
X144071427Y-122121485D02*
X144071427Y-121788152D01*
X144071427Y-121788152D02*
X144023808Y-121597676D01*
X144023808Y-121597676D02*
X143928570Y-121502438D01*
X143928570Y-121502438D02*
X143833332Y-121454819D01*
X142976189Y-122454819D02*
X142976189Y-121454819D01*
X142976189Y-121454819D02*
X142404761Y-122454819D01*
X142404761Y-122454819D02*
X142404761Y-121454819D01*
X142071427Y-121454819D02*
X141499999Y-121454819D01*
X141785713Y-122454819D02*
X141785713Y-121454819D01*
D11*
X122700000Y-108000000D02*
G75*
G02*
X121300000Y-108000000I-700000J0D01*
G01*
X121300000Y-108000000D02*
G75*
G02*
X122700000Y-108000000I700000J0D01*
G01*
X140700000Y-110000000D02*
G75*
G02*
X139300000Y-110000000I-700000J0D01*
G01*
X139300000Y-110000000D02*
G75*
G02*
X140700000Y-110000000I700000J0D01*
G01*
X120700000Y-106000000D02*
G75*
G02*
X119300000Y-106000000I-700000J0D01*
G01*
X119300000Y-106000000D02*
G75*
G02*
X120700000Y-106000000I700000J0D01*
G01*
X109700000Y-91000000D02*
G75*
G02*
X108300000Y-91000000I-700000J0D01*
G01*
X108300000Y-91000000D02*
G75*
G02*
X109700000Y-91000000I700000J0D01*
G01*
X119700000Y-91000000D02*
G75*
G02*
X118300000Y-91000000I-700000J0D01*
G01*
X118300000Y-91000000D02*
G75*
G02*
X119700000Y-91000000I700000J0D01*
G01*
X141700000Y-106000000D02*
G75*
G02*
X140300000Y-106000000I-700000J0D01*
G01*
X140300000Y-106000000D02*
G75*
G02*
X141700000Y-106000000I700000J0D01*
G01*
X120700000Y-92800000D02*
G75*
G02*
X119300000Y-92800000I-700000J0D01*
G01*
X119300000Y-92800000D02*
G75*
G02*
X120700000Y-92800000I700000J0D01*
G01*
X139700000Y-92000000D02*
G75*
G02*
X138300000Y-92000000I-700000J0D01*
G01*
X138300000Y-92000000D02*
G75*
G02*
X139700000Y-92000000I700000J0D01*
G01*
%LPC*%
D12*
X104000000Y-113000000D03*
D13*
X105000000Y-85110000D03*
X105000000Y-90890000D03*
D14*
X105530000Y-83680000D03*
D15*
X101350000Y-83680000D03*
D14*
X105530000Y-92320000D03*
D15*
X101350000Y-92320000D03*
D12*
X160000000Y-74000000D03*
D16*
X161000000Y-86000000D03*
D17*
X161000000Y-88540000D03*
X161000000Y-91080000D03*
X161000000Y-93620000D03*
D12*
X104000000Y-74000000D03*
X160000000Y-115000000D03*
D18*
X122000000Y-108000000D03*
X140000000Y-110000000D03*
X120000000Y-106000000D03*
X109000000Y-91000000D03*
X119000000Y-91000000D03*
X141000000Y-106000000D03*
X120000000Y-92800000D03*
X139000000Y-92000000D03*
%LPD*%
M02*
